<svg width="141" height="30" viewBox="0 0 141 30" fill="none" xmlns="http://www.w3.org/2000/svg">
<path d="M0 23.2912V2.47778H16.1156V6.90808H5.5007V10.595H13.7071V14.728H5.5007V18.8609H16.1156V23.2912H0Z" fill="black"/>
<path d="M28.7453 8.39475H33.8595L27.9425 24.8968C27.3875 26.4033 26.7036 27.4737 25.8909 28.1081C25.098 28.7622 23.9483 29.0893 22.4418 29.0893H17.8034V25.1644H21.8769C22.3526 25.1644 22.7094 25.0554 22.9473 24.8374C23.1852 24.6392 23.3933 24.2526 23.5717 23.6778L23.8096 23.0236L16.3762 8.39475H21.9661L23.9582 13.0629C24.5926 14.5099 24.9097 16.4624 24.9097 18.9204V19.5448H26.664V18.6528C26.664 16.175 26.882 14.2225 27.3181 12.7953L28.7453 8.39475Z" fill="black"/>
<path d="M35.7343 23.2912V2.47778H40.908V23.2912H35.7343Z" fill="black"/>
<path d="M43.5257 15.7984C43.5257 13.4792 44.269 11.5861 45.7557 10.1193C47.2424 8.63262 49.1255 7.88928 51.405 7.88928C53.8234 7.88928 55.7065 8.6128 57.0544 10.0598C58.4222 11.487 59.106 13.3801 59.106 15.7389C59.106 16.0561 59.0862 16.4525 59.0466 16.9283H48.6696C48.7489 19.0889 49.6706 20.1692 51.4348 20.1692C52.7827 20.1692 53.7837 19.3961 54.4379 17.85L59.1655 19.3664C57.8374 22.3199 55.2605 23.7967 51.4348 23.7967C48.9768 23.7967 47.0441 23.0831 45.6367 21.6559C44.2294 20.2287 43.5257 18.2762 43.5257 15.7984ZM48.7885 13.9549H53.9919C53.9324 13.1224 53.6747 12.4782 53.2188 12.0222C52.7827 11.5465 52.188 11.3086 51.4348 11.3086C49.8292 11.3086 48.9471 12.1907 48.7885 13.9549Z" fill="black"/>
<path d="M61.7802 23.2912V8.39475H66.5078C66.488 9.36605 66.0321 10.5058 65.1401 11.8141H67.1917C67.5683 10.5851 68.1332 9.62374 68.8865 8.92995C69.6596 8.23617 70.6011 7.88928 71.7112 7.88928C73.2573 7.88928 74.4665 8.37493 75.3387 9.34622C76.2307 10.3175 76.6767 11.6654 76.6767 13.39V23.2912H71.4436V14.282C71.4436 12.716 70.7696 11.933 69.4217 11.933C68.4504 11.933 67.8062 12.2998 67.489 13.0332C67.1719 13.727 67.0133 14.5892 67.0133 15.62V23.2912H61.7802Z" fill="black"/>
<path d="M100.408 23.2912L94.5212 14.4009L92.2912 16.7499V23.2912H86.7905V2.47778H92.2912V4.8862C92.2912 6.15483 92.083 7.22523 91.6668 8.09742C91.2505 8.94978 90.6459 9.74267 89.853 10.4761L91.1613 11.7844L99.3083 2.47778H106.355L98.446 10.7734L107.247 23.2912H100.408Z" fill="black"/>
<path d="M108.441 23.2912V8.39475H113.704V23.2912H108.441Z" fill="black"/>
<path d="M117.124 23.2912V8.39475H121.703C121.703 9.42551 121.316 10.4563 120.543 11.487H122.625C123.16 9.08853 124.458 7.88928 126.52 7.88928C127.491 7.88928 128.324 8.20644 129.017 8.84075C129.711 9.45525 130.137 10.3373 130.296 11.487H131.902C132.239 10.3175 132.784 9.42551 133.537 8.81102C134.29 8.19653 135.192 7.88928 136.243 7.88928C137.63 7.88928 138.77 8.38484 139.662 9.37596C140.554 10.3473 141 11.7051 141 13.4494V23.2912H135.767V14.282C135.767 12.716 135.123 11.933 133.834 11.933C132.348 11.933 131.604 13.0431 131.604 15.2632V23.2912H126.52V14.282C126.52 12.716 125.866 11.933 124.557 11.933C123.071 11.933 122.327 13.0431 122.327 15.2632V23.2912H117.124Z" fill="black"/>
<path d="M112.367 3.71667V1.85834L114.432 1.85835L114.422 3.71669L112.367 3.71667Z" fill="black"/>
<path d="M110.303 5.57502V3.71669L112.367 3.71667L112.357 5.57503L110.303 5.57502Z" fill="black"/>
<path d="M110.303 1.85833V0L112.367 2.3076e-06L112.357 1.85834L110.303 1.85833Z" fill="black"/>
<path d="M108.238 3.71667V1.85834L110.303 1.85833L110.293 3.71669L108.238 3.71667Z" fill="black"/>
</svg>
