<svg width="2559" height="1901" viewBox="0 0 2559 1901" fill="none" xmlns="http://www.w3.org/2000/svg">
<path d="M435.408 1493.58H2316.16V269.155H435.408V1493.58Z" fill="white"/>
<path d="M521.812 1493.38H879.626V464.662H521.812V1493.38Z" fill="#B4FFD6"/>
<path d="M971.565 1493.38H1331.86V578.964H971.565V1493.38Z" fill="#F8DD74"/>
<path d="M1421.32 1493.38H1781.62V862.233H1421.32V1493.38Z" fill="#FFCD9C"/>
<path d="M1871.07 1493.38H2231.37V1100.78H1871.07V1493.38Z" fill="#FEC8FA"/>
<path d="M435.408 1493.58V269.155" stroke="black" stroke-width="2.34188" stroke-linecap="square"/>
<path d="M435.408 1493.58H2316.16" stroke="black" stroke-width="2.34188" stroke-linecap="square"/>
<path d="M435.275 1492.69H415.566H435.275Z" fill="black"/>
<path d="M435.275 1492.69H415.566" stroke="black" stroke-width="2.34188"/>
<path d="M23.5561 911.375C16.9564 911.375 11.8278 909.427 8.1701 905.53C4.5522 901.634 2.74325 896.366 2.74325 889.727L2.74325 889.25C2.74325 882.889 4.69135 877.681 8.58754 873.625C12.5235 869.53 17.4733 867.483 23.4368 867.483C28.5257 867.483 32.7201 868.755 36.02 871.299C39.3596 873.844 41.2679 877.541 41.745 882.392L33.6942 882.392C32.7798 876.667 29.3805 873.804 23.4965 873.804C19.7195 873.804 16.698 875.196 14.4318 877.979C12.2054 880.722 11.0922 884.459 11.0922 889.19L11.0922 889.667C11.0922 894.478 12.1856 898.235 14.3722 900.938C16.5589 903.602 19.6202 904.934 23.5561 904.934C26.5777 904.934 29.0426 904.179 30.9509 902.668C32.899 901.117 34.0719 898.871 34.4694 895.929L42.2221 895.929C41.6257 900.938 39.6577 904.775 36.3181 907.439C33.0183 910.063 28.7643 911.375 23.5561 911.375ZM62.4512 905.769C65.1149 905.769 67.2021 904.854 68.7129 903.026C70.2634 901.157 71.0387 898.613 71.0387 895.392L71.0387 894.975C71.0387 891.755 70.2634 889.23 68.7129 887.401C67.2021 885.533 65.1149 884.598 62.4512 884.598C59.7477 884.598 57.6207 885.513 56.0701 887.341C54.5594 889.17 53.804 891.695 53.804 894.915L53.804 895.392C53.804 898.613 54.5594 901.157 56.0701 903.026C57.6207 904.854 59.7477 905.769 62.4512 905.769ZM73.9012 906.962C70.8797 909.904 67.0431 911.375 62.3915 911.375C57.7399 911.375 53.9034 909.904 50.8818 906.962C47.9001 904.02 46.4092 900.203 46.4092 895.512L46.4092 895.034C46.4092 890.264 47.9199 886.387 50.9415 883.406C53.963 880.424 57.7996 878.933 62.4512 878.933C67.063 878.933 70.8797 880.404 73.9012 883.346C76.9228 886.288 78.4335 890.124 78.4335 894.856L78.4335 895.333C78.4335 900.143 76.9228 904.02 73.9012 906.962ZM95.3896 911.375C92.1295 911.375 89.5255 910.401 87.5774 908.453C85.6293 906.504 84.6552 903.543 84.6552 899.567L84.6552 879.589L91.8711 879.589L91.8711 898.732C91.8711 901.078 92.3681 902.807 93.362 903.92C94.3559 905.033 95.9065 905.59 98.0136 905.59C100.081 905.59 101.81 904.934 103.202 903.622C104.593 902.31 105.289 900.481 105.289 898.136L105.289 879.589L112.505 879.589L112.505 910.778L105.289 910.778L105.289 905.888C104.454 907.518 103.182 908.85 101.472 909.884C99.8027 910.878 97.7751 911.375 95.3896 911.375ZM121.061 910.778L121.061 879.589L128.277 879.589L128.277 884.539C129.072 882.909 130.344 881.577 132.094 880.543C133.843 879.47 135.93 878.933 138.355 878.933C141.655 878.933 144.259 879.947 146.168 881.974C148.076 883.962 149.03 887.023 149.03 891.158L149.03 910.778L141.814 910.778L141.814 891.814C141.814 889.468 141.317 887.739 140.323 886.626C139.329 885.513 137.759 884.956 135.612 884.956C133.465 884.956 131.696 885.612 130.304 886.924C128.953 888.196 128.277 890.025 128.277 892.411L128.277 910.778L121.061 910.778ZM167.958 911.315C164.897 911.315 162.551 910.52 160.921 908.93C159.331 907.339 158.536 905.053 158.536 902.071L158.536 885.016L154.361 885.016L154.361 879.589L158.536 879.589L158.536 872.731L165.752 872.731L165.752 879.589L172.61 879.589L172.61 885.016L165.752 885.016L165.752 901.415C165.752 904.079 166.945 905.411 169.33 905.411C170.721 905.411 171.894 905.212 172.848 904.815L172.848 910.54C171.457 911.057 169.827 911.315 167.958 911.315Z" fill="black"/>
<path d="M435.275 1252.25H415.566H435.275Z" fill="black"/>
<path d="M435.275 1252.25H415.566" stroke="black" stroke-width="2.34188"/>
<path d="M435.275 1011.82H415.566H435.275Z" fill="black"/>
<path d="M435.275 1011.82H415.566" stroke="black" stroke-width="2.34188"/>
<path d="M435.275 771.379H415.567H435.275Z" fill="black"/>
<path d="M435.275 771.379H415.567" stroke="black" stroke-width="2.34188"/>
<path d="M435.275 530.942H415.566H435.275Z" fill="black"/>
<path d="M435.275 530.942H415.566" stroke="black" stroke-width="2.34188"/>
<path d="M435.275 290.506H415.566H435.275Z" fill="black"/>
<path d="M435.275 290.506H415.566" stroke="black" stroke-width="2.34188"/>
<path d="M627.829 1564.26L627.829 1525.17L634.443 1525.17L646.524 1555.62L658.223 1525.17L664.783 1525.17L664.783 1564.26L660.027 1564.26L660.027 1531.35L647.071 1564.26L645.595 1564.26L632.202 1531.35L632.202 1564.26L627.829 1564.26ZM683.995 1564.75C680.97 1564.75 678.547 1563.85 676.724 1562.07C674.939 1560.28 674.046 1557.51 674.046 1553.76L674.046 1535.67L678.583 1535.67L678.583 1553.54C678.583 1556.06 679.112 1557.9 680.168 1559.06C681.262 1560.23 682.938 1560.81 685.198 1560.81C687.348 1560.81 689.188 1560.12 690.719 1558.73C692.286 1557.35 693.07 1555.44 693.07 1552.99L693.07 1535.67L697.607 1535.67L697.607 1564.26L693.07 1564.26L693.07 1559.72C692.377 1561.18 691.229 1562.38 689.626 1563.33C688.059 1564.27 686.182 1564.75 683.995 1564.75ZM715.633 1564.75C712.207 1564.75 709.51 1563.93 707.542 1562.29C705.611 1560.65 704.572 1558.37 704.426 1555.45L708.854 1555.45C709.219 1559.14 711.46 1560.98 715.578 1560.98C719.733 1560.98 721.81 1559.46 721.81 1556.44C721.81 1555.02 721.282 1553.98 720.225 1553.32C719.204 1552.63 717.51 1552.07 715.141 1551.63C711.424 1550.94 708.836 1549.99 707.378 1548.79C705.921 1547.55 705.192 1545.69 705.192 1543.21C705.192 1540.73 706.176 1538.78 708.144 1537.36C710.148 1535.9 712.389 1535.17 714.868 1535.17C721.063 1535.17 724.507 1537.93 725.2 1543.43L720.826 1543.43C720.498 1541.86 719.86 1540.73 718.913 1540.04C717.965 1539.31 716.599 1538.95 714.813 1538.95C713.173 1538.95 711.861 1539.33 710.877 1540.09C709.893 1540.82 709.401 1541.81 709.401 1543.05C709.401 1544.36 709.857 1545.32 710.768 1545.94C711.715 1546.56 713.483 1547.11 716.07 1547.58C717.783 1547.91 719.15 1548.24 720.17 1548.57C721.227 1548.86 722.248 1549.31 723.232 1549.93C724.252 1550.55 724.981 1551.37 725.418 1552.39C725.892 1553.38 726.129 1554.6 726.129 1556.06C726.129 1558.72 725.218 1560.83 723.396 1562.4C721.61 1563.96 719.022 1564.75 715.633 1564.75ZM733.152 1564.26L733.152 1535.67L737.689 1535.67L737.689 1564.26L733.152 1564.26ZM737.416 1528.83C736.833 1529.42 736.14 1529.71 735.338 1529.71C734.537 1529.71 733.826 1529.42 733.206 1528.83C732.623 1528.25 732.332 1527.54 732.332 1526.7C732.332 1525.86 732.623 1525.15 733.206 1524.57C733.826 1523.99 734.537 1523.69 735.338 1523.69C736.14 1523.69 736.833 1523.99 737.416 1524.57C738.035 1525.15 738.345 1525.86 738.345 1526.7C738.345 1527.54 738.035 1528.25 737.416 1528.83ZM758.838 1564.75C754.793 1564.75 751.44 1563.44 748.78 1560.81C746.156 1558.15 744.844 1554.63 744.844 1550.26L744.844 1549.82C744.844 1545.52 746.174 1542.01 748.834 1539.27C751.531 1536.54 754.83 1535.17 758.729 1535.17C762.009 1535.17 764.797 1535.99 767.093 1537.63C769.389 1539.24 770.737 1541.75 771.138 1545.18L766.656 1545.18C766 1541.02 763.357 1538.95 758.729 1538.95C756.069 1538.95 753.864 1539.95 752.114 1541.95C750.402 1543.92 749.545 1546.54 749.545 1549.82L749.545 1550.26C749.545 1553.69 750.383 1556.33 752.06 1558.19C753.773 1560.05 756.05 1560.98 758.893 1560.98C761.043 1560.98 762.884 1560.37 764.414 1559.17C765.981 1557.93 766.874 1556.2 767.093 1553.98L771.302 1553.98C771.011 1557.11 769.699 1559.7 767.366 1561.74C765.07 1563.75 762.228 1564.75 758.838 1564.75ZM482.294 1631.26L482.294 1602.67L486.831 1602.67L486.831 1607.8C487.815 1606.02 489.018 1604.65 490.439 1603.7C491.897 1602.76 493.828 1602.25 496.234 1602.17L496.234 1606.44C493.1 1606.58 490.749 1607.31 489.182 1608.62C487.615 1609.94 486.831 1612.25 486.831 1615.57L486.831 1631.26L482.294 1631.26ZM513.745 1631.75C509.663 1631.75 506.329 1630.44 503.741 1627.81C501.19 1625.15 499.914 1621.63 499.914 1617.26L499.914 1616.82C499.914 1612.52 501.153 1609.01 503.632 1606.27C506.146 1603.54 509.372 1602.17 513.308 1602.17C516.952 1602.17 519.995 1603.36 522.437 1605.73C524.915 1608.06 526.154 1611.61 526.154 1616.39L526.154 1617.86L504.616 1617.86C504.725 1621.14 505.545 1623.66 507.076 1625.41C508.643 1627.12 510.884 1627.98 513.8 1627.98C518.282 1627.98 520.815 1626.32 521.398 1623L525.935 1623C525.462 1625.81 524.131 1627.98 521.945 1629.51C519.758 1631 517.025 1631.75 513.745 1631.75ZM504.78 1614.2L521.507 1614.2C521.107 1608.7 518.373 1605.95 513.308 1605.95C511.012 1605.95 509.116 1606.69 507.622 1608.19C506.128 1609.64 505.181 1611.65 504.78 1614.2ZM544.979 1631.75C540.934 1631.75 537.581 1630.44 534.92 1627.81C532.296 1625.15 530.984 1621.63 530.984 1617.26L530.984 1616.82C530.984 1612.52 532.315 1609.01 534.975 1606.27C537.672 1603.54 540.97 1602.17 544.869 1602.17C548.149 1602.17 550.937 1602.99 553.233 1604.63C555.529 1606.24 556.878 1608.75 557.279 1612.18L552.796 1612.18C552.14 1608.02 549.498 1605.95 544.869 1605.95C542.209 1605.95 540.004 1606.95 538.255 1608.95C536.542 1610.92 535.686 1613.54 535.686 1616.82L535.686 1617.26C535.686 1620.69 536.524 1623.33 538.2 1625.19C539.913 1627.05 542.191 1627.98 545.033 1627.98C547.184 1627.98 549.024 1627.37 550.555 1626.17C552.122 1624.93 553.015 1623.2 553.233 1620.98L557.443 1620.98C557.151 1624.11 555.839 1626.7 553.507 1628.74C551.211 1630.75 548.368 1631.75 544.979 1631.75ZM576.21 1627.98C579.053 1627.98 581.312 1626.99 582.989 1625.02C584.702 1623.06 585.558 1620.45 585.558 1617.21L585.558 1616.82C585.558 1613.51 584.702 1610.87 582.989 1608.9C581.312 1606.93 579.053 1605.95 576.21 1605.95C573.331 1605.95 571.053 1606.93 569.377 1608.9C567.701 1610.87 566.862 1613.49 566.862 1616.77L566.862 1617.21C566.862 1620.49 567.701 1623.11 569.377 1625.08C571.053 1627.01 573.331 1627.98 576.21 1627.98ZM576.156 1631.75C572.11 1631.75 568.757 1630.38 566.097 1627.65C563.473 1624.88 562.161 1621.4 562.161 1617.21L562.161 1616.77C562.161 1612.51 563.473 1609.01 566.097 1606.27C568.757 1603.54 572.128 1602.17 576.21 1602.17C580.292 1602.17 583.645 1603.54 586.269 1606.27C588.929 1608.97 590.259 1612.45 590.259 1616.71L590.259 1617.15C590.259 1621.45 588.929 1624.97 586.269 1627.7C583.608 1630.4 580.237 1631.75 576.156 1631.75ZM597.285 1631.26L597.285 1602.67L601.822 1602.67L601.822 1607.04C602.515 1605.62 603.608 1604.45 605.102 1603.54C606.633 1602.63 608.382 1602.17 610.35 1602.17C614.541 1602.17 617.329 1603.96 618.714 1607.53C619.625 1605.78 620.992 1604.45 622.814 1603.54C624.673 1602.63 626.568 1602.17 628.499 1602.17C631.305 1602.17 633.601 1603.1 635.387 1604.96C637.209 1606.78 638.12 1609.64 638.12 1613.54L638.12 1631.26L633.583 1631.26L633.583 1613.22C633.583 1608.48 631.56 1606.11 627.515 1606.11C625.474 1606.11 623.707 1606.78 622.213 1608.13C620.718 1609.48 619.971 1611.36 619.971 1613.76L619.971 1631.26L615.434 1631.26L615.434 1613.22C615.434 1608.48 613.411 1606.11 609.366 1606.11C607.325 1606.11 605.558 1606.78 604.063 1608.13C602.569 1609.48 601.822 1611.36 601.822 1613.76L601.822 1631.26L597.285 1631.26ZM647.039 1631.26L647.039 1602.67L651.577 1602.67L651.577 1607.04C652.269 1605.62 653.363 1604.45 654.857 1603.54C656.387 1602.63 658.137 1602.17 660.105 1602.17C664.296 1602.17 667.084 1603.96 668.469 1607.53C669.38 1605.78 670.746 1604.45 672.569 1603.54C674.427 1602.63 676.322 1602.17 678.254 1602.17C681.06 1602.17 683.356 1603.1 685.142 1604.96C686.964 1606.78 687.875 1609.64 687.875 1613.54L687.875 1631.26L683.338 1631.26L683.338 1613.22C683.338 1608.48 681.315 1606.11 677.27 1606.11C675.229 1606.11 673.461 1606.78 671.967 1608.13C670.473 1609.48 669.726 1611.36 669.726 1613.76L669.726 1631.26L665.189 1631.26L665.189 1613.22C665.189 1608.48 663.166 1606.11 659.121 1606.11C657.08 1606.11 655.312 1606.78 653.818 1608.13C652.324 1609.48 651.577 1611.36 651.577 1613.76L651.577 1631.26L647.039 1631.26ZM708.493 1631.75C704.411 1631.75 701.076 1630.44 698.489 1627.81C695.938 1625.15 694.662 1621.63 694.662 1617.26L694.662 1616.82C694.662 1612.52 695.901 1609.01 698.379 1606.27C700.894 1603.54 704.119 1602.17 708.055 1602.17C711.7 1602.17 714.743 1603.36 717.185 1605.73C719.663 1608.06 720.902 1611.61 720.902 1616.39L720.902 1617.86L699.363 1617.86C699.473 1621.14 700.293 1623.66 701.823 1625.41C703.391 1627.12 705.632 1627.98 708.547 1627.98C713.03 1627.98 715.563 1626.32 716.146 1623L720.683 1623C720.209 1625.81 718.879 1627.98 716.693 1629.51C714.506 1631 711.773 1631.75 708.493 1631.75ZM699.527 1614.2L716.255 1614.2C715.854 1608.7 713.121 1605.95 708.055 1605.95C705.759 1605.95 703.864 1606.69 702.37 1608.19C700.876 1609.64 699.928 1611.65 699.527 1614.2ZM727.864 1631.26L727.864 1602.67L732.401 1602.67L732.401 1607.2C733.094 1605.74 734.242 1604.54 735.845 1603.59C737.449 1602.65 739.362 1602.17 741.585 1602.17C744.719 1602.17 747.179 1603.1 748.965 1604.96C750.751 1606.82 751.644 1609.74 751.644 1613.71L751.644 1631.26L747.107 1631.26L747.107 1613.38C747.107 1610.87 746.56 1609.02 745.467 1607.86C744.373 1606.69 742.679 1606.11 740.383 1606.11C738.16 1606.11 736.264 1606.8 734.697 1608.19C733.167 1609.57 732.401 1611.48 732.401 1613.93L732.401 1631.26L727.864 1631.26ZM771.305 1631.75C767.478 1631.75 764.362 1630.47 761.957 1627.92C759.588 1625.37 758.404 1621.91 758.404 1617.53L758.404 1617.1C758.404 1612.72 759.643 1609.15 762.121 1606.38C764.599 1603.58 767.806 1602.17 771.742 1602.17C775.97 1602.17 779.086 1603.87 781.09 1607.26L781.09 1589L785.627 1589L785.627 1631.26L781.09 1631.26L781.09 1626.34C780.215 1627.79 778.867 1629.07 777.045 1630.16C775.223 1631.22 773.309 1631.75 771.305 1631.75ZM771.797 1627.98C774.603 1627.98 776.881 1627.06 778.63 1625.24C780.379 1623.38 781.254 1620.69 781.254 1617.15L781.254 1616.71C781.254 1613.14 780.452 1610.46 778.849 1608.68C777.282 1606.86 775.059 1605.95 772.179 1605.95C769.337 1605.95 767.114 1606.91 765.51 1608.84C763.907 1610.74 763.105 1613.42 763.105 1616.88L763.105 1617.32C763.105 1620.78 763.907 1623.42 765.51 1625.24C767.15 1627.06 769.246 1627.98 771.797 1627.98ZM801.97 1631.75C799.164 1631.75 796.868 1631.06 795.082 1629.67C793.333 1628.25 792.458 1626.14 792.458 1623.33C792.458 1620.27 793.806 1618.03 796.503 1616.61C799.237 1615.18 802.662 1614.47 806.781 1614.47L810.88 1614.47L810.88 1612.4C810.88 1610.1 810.407 1608.46 809.459 1607.48C808.512 1606.46 806.945 1605.95 804.758 1605.95C800.822 1605.95 798.635 1607.66 798.198 1611.08L793.661 1611.08C793.952 1608.02 795.155 1605.78 797.269 1604.36C799.382 1602.9 801.952 1602.17 804.977 1602.17C811.937 1602.17 815.418 1605.58 815.418 1612.4L815.418 1631.26L810.88 1631.26L810.88 1627.65C808.694 1630.38 805.724 1631.75 801.97 1631.75ZM802.407 1628.14C804.885 1628.14 806.908 1627.54 808.475 1626.34C810.079 1625.1 810.88 1623.4 810.88 1621.25L810.88 1617.7L806.945 1617.7C800.312 1617.7 796.995 1619.58 796.995 1623.33C796.995 1626.54 798.799 1628.14 802.407 1628.14ZM833.022 1631.64C830.508 1631.64 828.594 1630.96 827.282 1629.62C825.97 1628.27 825.314 1626.43 825.314 1624.09L825.314 1606.49L821.214 1606.49L821.214 1602.67L825.314 1602.67L825.314 1596.16L829.852 1596.16L829.852 1602.67L836.521 1602.67L836.521 1606.49L829.852 1606.49L829.852 1623.66C829.852 1626.43 831.036 1627.81 833.405 1627.81C834.717 1627.81 835.883 1627.61 836.904 1627.21L836.904 1631.04C835.774 1631.44 834.48 1631.64 833.022 1631.64ZM843.872 1631.26L843.872 1602.67L848.409 1602.67L848.409 1631.26L843.872 1631.26ZM848.136 1595.83C847.553 1596.42 846.86 1596.71 846.058 1596.71C845.257 1596.71 844.546 1596.42 843.926 1595.83C843.343 1595.25 843.052 1594.54 843.052 1593.7C843.052 1592.86 843.343 1592.15 843.926 1591.57C844.546 1590.99 845.257 1590.69 846.058 1590.69C846.86 1590.69 847.553 1590.99 848.136 1591.57C848.755 1592.15 849.065 1592.86 849.065 1593.7C849.065 1594.54 848.755 1595.25 848.136 1595.83ZM869.613 1627.98C872.456 1627.98 874.715 1626.99 876.392 1625.02C878.105 1623.06 878.961 1620.45 878.961 1617.21L878.961 1616.82C878.961 1613.51 878.105 1610.87 876.392 1608.9C874.715 1606.93 872.456 1605.95 869.613 1605.95C866.734 1605.95 864.456 1606.93 862.78 1608.9C861.103 1610.87 860.265 1613.49 860.265 1616.77L860.265 1617.21C860.265 1620.49 861.103 1623.11 862.78 1625.08C864.456 1627.01 866.734 1627.98 869.613 1627.98ZM869.559 1631.75C865.513 1631.75 862.16 1630.38 859.5 1627.65C856.876 1624.88 855.564 1621.4 855.564 1617.21L855.564 1616.77C855.564 1612.51 856.876 1609.01 859.5 1606.27C862.16 1603.54 865.531 1602.17 869.613 1602.17C873.695 1602.17 877.048 1603.54 879.672 1606.27C882.332 1608.97 883.662 1612.45 883.662 1616.71L883.662 1617.15C883.662 1621.45 882.332 1624.97 879.672 1627.7C877.011 1630.4 873.64 1631.75 869.559 1631.75ZM890.688 1631.26L890.688 1602.67L895.225 1602.67L895.225 1607.2C895.918 1605.74 897.065 1604.54 898.669 1603.59C900.273 1602.65 902.186 1602.17 904.409 1602.17C907.543 1602.17 910.003 1603.1 911.789 1604.96C913.575 1606.82 914.468 1609.74 914.468 1613.71L914.468 1631.26L909.93 1631.26L909.93 1613.38C909.93 1610.87 909.384 1609.02 908.29 1607.86C907.197 1606.69 905.502 1606.11 903.206 1606.11C900.983 1606.11 899.088 1606.8 897.521 1608.19C895.99 1609.57 895.225 1611.48 895.225 1613.93L895.225 1631.26L890.688 1631.26Z" fill="black"/>
<path d="M698.235 1488.41V1508.12V1488.41Z" fill="black"/>
<path d="M698.235 1488.41V1508.12" stroke="black" stroke-width="2.34188"/>
<path d="M1091.29 1564.75C1086.45 1564.75 1082.84 1563.62 1080.47 1561.36C1078.14 1559.06 1076.77 1556.06 1076.37 1552.34L1080.96 1552.34C1081.14 1553.61 1081.4 1554.73 1081.73 1555.67C1082.09 1556.62 1082.64 1557.51 1083.37 1558.35C1084.1 1559.19 1085.12 1559.83 1086.43 1560.27C1087.78 1560.7 1089.4 1560.92 1091.29 1560.92C1093.84 1560.92 1095.96 1560.25 1097.63 1558.9C1099.35 1557.51 1100.2 1555.73 1100.2 1553.54C1100.2 1551.28 1099.55 1549.62 1098.24 1548.57C1096.92 1547.47 1094.43 1546.64 1090.75 1546.05C1086.34 1545.4 1083.06 1544.27 1080.91 1542.66C1078.76 1541.02 1077.68 1538.56 1077.68 1535.28C1077.68 1532.26 1078.87 1529.74 1081.23 1527.74C1083.6 1525.7 1086.61 1524.68 1090.25 1524.68C1094.19 1524.68 1097.33 1525.61 1099.66 1527.47C1101.99 1529.32 1103.34 1531.98 1103.7 1535.45L1099.44 1535.45C1098.97 1533.01 1098 1531.24 1096.54 1530.14C1095.08 1529.05 1092.99 1528.5 1090.25 1528.5C1087.67 1528.5 1085.66 1529.09 1084.24 1530.25C1082.82 1531.42 1082.11 1532.95 1082.11 1534.85C1082.11 1536.89 1082.73 1538.42 1083.97 1539.44C1085.21 1540.46 1087.72 1541.26 1091.51 1541.84C1096.1 1542.57 1099.46 1543.77 1101.57 1545.45C1103.72 1547.09 1104.8 1549.68 1104.8 1553.21C1104.8 1556.49 1103.5 1559.24 1100.91 1561.47C1098.36 1563.65 1095.16 1564.75 1091.29 1564.75ZM1112.61 1574.21L1112.61 1535.67L1117.15 1535.67L1117.15 1540.48C1118.02 1539.02 1119.35 1537.78 1121.14 1536.76C1122.92 1535.7 1124.82 1535.17 1126.82 1535.17C1130.65 1535.17 1133.77 1536.49 1136.17 1539.11C1138.61 1541.7 1139.83 1545.18 1139.83 1549.55L1139.83 1549.99C1139.83 1554.4 1138.63 1557.97 1136.23 1560.7C1133.86 1563.4 1130.72 1564.75 1126.82 1564.75C1124.6 1564.75 1122.65 1564.27 1120.97 1563.33C1119.3 1562.34 1118.02 1561.09 1117.15 1559.55L1117.15 1574.21L1112.61 1574.21ZM1126.39 1560.98C1129.23 1560.98 1131.4 1560.05 1132.89 1558.19C1134.39 1556.33 1135.13 1553.67 1135.13 1550.21L1135.13 1549.77C1135.13 1546.31 1134.29 1543.65 1132.62 1541.79C1130.98 1539.89 1128.88 1538.95 1126.33 1538.95C1123.56 1538.95 1121.3 1539.87 1119.55 1541.73C1117.84 1543.56 1116.98 1546.23 1116.98 1549.77L1116.98 1550.21C1116.98 1553.74 1117.82 1556.42 1119.5 1558.24C1121.21 1560.06 1123.51 1560.98 1126.39 1560.98ZM1158.8 1560.98C1161.64 1560.98 1163.9 1559.99 1165.58 1558.02C1167.29 1556.06 1168.15 1553.45 1168.15 1550.21L1168.15 1549.82C1168.15 1546.51 1167.29 1543.87 1165.58 1541.9C1163.9 1539.93 1161.64 1538.95 1158.8 1538.95C1155.92 1538.95 1153.64 1539.93 1151.97 1541.9C1150.29 1543.87 1149.45 1546.49 1149.45 1549.77L1149.45 1550.21C1149.45 1553.49 1150.29 1556.11 1151.97 1558.08C1153.64 1560.01 1155.92 1560.98 1158.8 1560.98ZM1158.75 1564.75C1154.7 1564.75 1151.35 1563.38 1148.69 1560.65C1146.06 1557.88 1144.75 1554.4 1144.75 1550.21L1144.75 1549.77C1144.75 1545.51 1146.06 1542.01 1148.69 1539.27C1151.35 1536.54 1154.72 1535.17 1158.8 1535.17C1162.88 1535.17 1166.24 1536.54 1168.86 1539.27C1171.52 1541.97 1172.85 1545.45 1172.85 1549.71L1172.85 1550.15C1172.85 1554.45 1171.52 1557.97 1168.86 1560.7C1166.2 1563.4 1162.83 1564.75 1158.75 1564.75ZM1188.57 1564.64C1186.05 1564.64 1184.14 1563.96 1182.83 1562.62C1181.52 1561.27 1180.86 1559.43 1180.86 1557.09L1180.86 1539.49L1176.76 1539.49L1176.76 1535.67L1180.86 1535.67L1180.86 1529.16L1185.4 1529.16L1185.4 1535.67L1192.07 1535.67L1192.07 1539.49L1185.4 1539.49L1185.4 1556.66C1185.4 1559.43 1186.58 1560.81 1188.95 1560.81C1190.26 1560.81 1191.43 1560.61 1192.45 1560.21L1192.45 1564.04C1191.32 1564.44 1190.03 1564.64 1188.57 1564.64ZM1199.42 1564.26L1199.42 1535.67L1203.95 1535.67L1203.95 1564.26L1199.42 1564.26ZM1203.68 1528.83C1203.1 1529.42 1202.41 1529.71 1201.6 1529.71C1200.8 1529.71 1200.09 1529.42 1199.47 1528.83C1198.89 1528.25 1198.6 1527.54 1198.6 1526.7C1198.6 1525.86 1198.89 1525.15 1199.47 1524.57C1200.09 1523.99 1200.8 1523.69 1201.6 1523.69C1202.41 1523.69 1203.1 1523.99 1203.68 1524.57C1204.3 1525.15 1204.61 1525.86 1204.61 1526.7C1204.61 1527.54 1204.3 1528.25 1203.68 1528.83ZM1214.23 1564.26L1214.23 1539.49L1210.13 1539.49L1210.13 1535.67L1214.23 1535.67L1214.23 1531.02C1214.23 1528.07 1214.94 1525.81 1216.36 1524.24C1217.81 1522.64 1219.95 1521.83 1222.75 1521.83C1223.92 1521.83 1225.05 1522.02 1226.14 1522.38L1226.14 1526.21C1225.12 1525.81 1224.05 1525.61 1222.92 1525.61C1220.15 1525.61 1218.76 1527.25 1218.76 1530.53L1218.76 1535.67L1225.76 1535.67L1225.76 1539.49L1218.76 1539.49L1218.76 1564.26L1214.23 1564.26ZM1235.24 1574.21L1240.65 1561.3L1229.45 1535.67L1234.31 1535.67L1243.06 1556.17L1250.99 1535.67L1255.63 1535.67L1239.83 1574.21L1235.24 1574.21ZM1060.73 1631.26L1050.57 1592.17L1055.43 1592.17L1063.36 1623.71L1072.54 1592.17L1075.93 1592.17L1085.12 1623.82L1093.15 1592.17L1097.58 1592.17L1087.41 1631.26L1083.04 1631.26L1074.18 1600.37L1065.05 1631.26L1060.73 1631.26ZM1102.95 1631.26L1102.95 1602.67L1107.49 1602.67L1107.49 1607.8C1108.47 1606.02 1109.67 1604.65 1111.09 1603.7C1112.55 1602.76 1114.48 1602.25 1116.89 1602.17L1116.89 1606.44C1113.75 1606.58 1111.4 1607.31 1109.84 1608.62C1108.27 1609.94 1107.49 1612.25 1107.49 1615.57L1107.49 1631.26L1102.95 1631.26ZM1130.4 1631.75C1127.59 1631.75 1125.29 1631.06 1123.51 1629.67C1121.76 1628.25 1120.88 1626.14 1120.88 1623.33C1120.88 1620.27 1122.23 1618.03 1124.93 1616.61C1127.66 1615.18 1131.09 1614.47 1135.21 1614.47L1139.31 1614.47L1139.31 1612.4C1139.31 1610.1 1138.83 1608.46 1137.88 1607.48C1136.94 1606.46 1135.37 1605.95 1133.18 1605.95C1129.25 1605.95 1127.06 1607.66 1126.62 1611.08L1122.09 1611.08C1122.38 1608.02 1123.58 1605.78 1125.69 1604.36C1127.81 1602.9 1130.38 1602.17 1133.4 1602.17C1140.36 1602.17 1143.84 1605.58 1143.84 1612.4L1143.84 1631.26L1139.31 1631.26L1139.31 1627.65C1137.12 1630.38 1134.15 1631.75 1130.4 1631.75ZM1130.83 1628.14C1133.31 1628.14 1135.33 1627.54 1136.9 1626.34C1138.5 1625.1 1139.31 1623.4 1139.31 1621.25L1139.31 1617.7L1135.37 1617.7C1128.74 1617.7 1125.42 1619.58 1125.42 1623.33C1125.42 1626.54 1127.22 1628.14 1130.83 1628.14ZM1152.76 1641.21L1152.76 1602.67L1157.29 1602.67L1157.29 1607.48C1158.17 1606.02 1159.5 1604.78 1161.28 1603.76C1163.07 1602.7 1164.96 1602.17 1166.97 1602.17C1170.8 1602.17 1173.91 1603.49 1176.32 1606.11C1178.76 1608.7 1179.98 1612.18 1179.98 1616.55L1179.98 1616.99C1179.98 1621.4 1178.78 1624.97 1176.37 1627.7C1174 1630.4 1170.87 1631.75 1166.97 1631.75C1164.75 1631.75 1162.8 1631.27 1161.12 1630.33C1159.44 1629.34 1158.17 1628.09 1157.29 1626.55L1157.29 1641.21L1152.76 1641.21ZM1166.53 1627.98C1169.37 1627.98 1171.54 1627.05 1173.04 1625.19C1174.53 1623.33 1175.28 1620.67 1175.28 1617.21L1175.28 1616.77C1175.28 1613.31 1174.44 1610.65 1172.76 1608.79C1171.12 1606.89 1169.03 1605.95 1166.48 1605.95C1163.71 1605.95 1161.45 1606.87 1159.7 1608.73C1157.99 1610.56 1157.13 1613.23 1157.13 1616.77L1157.13 1617.21C1157.13 1620.74 1157.97 1623.42 1159.64 1625.24C1161.36 1627.06 1163.65 1627.98 1166.53 1627.98ZM1187.03 1641.21L1187.03 1602.67L1191.57 1602.67L1191.57 1607.48C1192.44 1606.02 1193.77 1604.78 1195.56 1603.76C1197.34 1602.7 1199.24 1602.17 1201.24 1602.17C1205.07 1602.17 1208.18 1603.49 1210.59 1606.11C1213.03 1608.7 1214.25 1612.18 1214.25 1616.55L1214.25 1616.99C1214.25 1621.4 1213.05 1624.97 1210.64 1627.7C1208.28 1630.4 1205.14 1631.75 1201.24 1631.75C1199.02 1631.75 1197.07 1631.27 1195.39 1630.33C1193.72 1629.34 1192.44 1628.09 1191.57 1626.55L1191.57 1641.21L1187.03 1641.21ZM1200.81 1627.98C1203.65 1627.98 1205.82 1627.05 1207.31 1625.19C1208.8 1623.33 1209.55 1620.67 1209.55 1617.21L1209.55 1616.77C1209.55 1613.31 1208.71 1610.65 1207.04 1608.79C1205.4 1606.89 1203.3 1605.95 1200.75 1605.95C1197.98 1605.95 1195.72 1606.87 1193.97 1608.73C1192.26 1610.56 1191.4 1613.23 1191.4 1616.77L1191.4 1617.21C1191.4 1620.74 1192.24 1623.42 1193.92 1625.24C1195.63 1627.06 1197.93 1627.98 1200.81 1627.98ZM1233 1631.75C1228.92 1631.75 1225.58 1630.44 1223 1627.81C1220.45 1625.15 1219.17 1621.63 1219.17 1617.26L1219.17 1616.82C1219.17 1612.52 1220.41 1609.01 1222.89 1606.27C1225.4 1603.54 1228.63 1602.17 1232.56 1602.17C1236.21 1602.17 1239.25 1603.36 1241.69 1605.73C1244.17 1608.06 1245.41 1611.61 1245.41 1616.39L1245.41 1617.86L1223.87 1617.86C1223.98 1621.14 1224.8 1623.66 1226.33 1625.41C1227.9 1627.12 1230.14 1627.98 1233.06 1627.98C1237.54 1627.98 1240.07 1626.32 1240.65 1623L1245.19 1623C1244.72 1625.81 1243.39 1627.98 1241.2 1629.51C1239.01 1631 1236.28 1631.75 1233 1631.75ZM1224.04 1614.2L1240.76 1614.2C1240.36 1608.7 1237.63 1605.95 1232.56 1605.95C1230.27 1605.95 1228.37 1606.69 1226.88 1608.19C1225.38 1609.64 1224.44 1611.65 1224.04 1614.2ZM1263.14 1631.75C1259.31 1631.75 1256.2 1630.47 1253.79 1627.92C1251.42 1625.37 1250.24 1621.91 1250.24 1617.53L1250.24 1617.1C1250.24 1612.72 1251.48 1609.15 1253.96 1606.38C1256.44 1603.58 1259.64 1602.17 1263.58 1602.17C1267.81 1602.17 1270.92 1603.87 1272.93 1607.26L1272.93 1589L1277.46 1589L1277.46 1631.26L1272.93 1631.26L1272.93 1626.34C1272.05 1627.79 1270.7 1629.07 1268.88 1630.16C1267.06 1631.22 1265.15 1631.75 1263.14 1631.75ZM1263.63 1627.98C1266.44 1627.98 1268.72 1627.06 1270.47 1625.24C1272.22 1623.38 1273.09 1620.69 1273.09 1617.15L1273.09 1616.71C1273.09 1613.14 1272.29 1610.46 1270.69 1608.68C1269.12 1606.86 1266.9 1605.95 1264.02 1605.95C1261.17 1605.95 1258.95 1606.91 1257.35 1608.84C1255.74 1610.74 1254.94 1613.42 1254.94 1616.88L1254.94 1617.32C1254.94 1620.78 1255.74 1623.42 1257.35 1625.24C1258.99 1627.06 1261.08 1627.98 1263.63 1627.98Z" fill="black"/>
<path d="M1165.38 1488.41V1508.12V1488.41Z" fill="black"/>
<path d="M1165.38 1488.41V1508.12" stroke="black" stroke-width="2.34188"/>
<path d="M1557.22 1559.78C1552.38 1559.78 1548.77 1558.65 1546.4 1556.39C1544.07 1554.09 1542.7 1551.09 1542.3 1547.37L1546.89 1547.37C1547.07 1548.65 1547.33 1549.76 1547.66 1550.7C1548.02 1551.65 1548.57 1552.54 1549.3 1553.38C1550.03 1554.22 1551.05 1554.86 1552.36 1555.3C1553.71 1555.73 1555.33 1555.95 1557.22 1555.95C1559.78 1555.95 1561.89 1555.28 1563.57 1553.93C1565.28 1552.54 1566.13 1550.76 1566.13 1548.57C1566.13 1546.31 1565.48 1544.65 1564.17 1543.6C1562.85 1542.5 1560.36 1541.67 1556.68 1541.08C1552.27 1540.43 1548.99 1539.3 1546.84 1537.69C1544.69 1536.05 1543.61 1533.59 1543.61 1530.31C1543.61 1527.29 1544.8 1524.77 1547.17 1522.77C1549.53 1520.73 1552.54 1519.71 1556.19 1519.71C1560.12 1519.71 1563.26 1520.64 1565.59 1522.5C1567.92 1524.36 1569.27 1527.02 1569.63 1530.48L1565.37 1530.48C1564.9 1528.04 1563.93 1526.27 1562.47 1525.18C1561.01 1524.08 1558.92 1523.54 1556.19 1523.54C1553.6 1523.54 1551.59 1524.12 1550.17 1525.28C1548.75 1526.45 1548.04 1527.98 1548.04 1529.88C1548.04 1531.92 1548.66 1533.45 1549.9 1534.47C1551.14 1535.49 1553.65 1536.29 1557.44 1536.87C1562.03 1537.6 1565.39 1538.81 1567.5 1540.48C1569.65 1542.12 1570.73 1544.71 1570.73 1548.24C1570.73 1551.52 1569.43 1554.28 1566.85 1556.5C1564.29 1558.69 1561.09 1559.78 1557.22 1559.78ZM1590.46 1556.01C1593.3 1556.01 1595.56 1555.02 1597.24 1553.06C1598.95 1551.09 1599.81 1548.48 1599.81 1545.24L1599.81 1544.86C1599.81 1541.54 1598.95 1538.9 1597.24 1536.93C1595.56 1534.96 1593.3 1533.98 1590.46 1533.98C1587.58 1533.98 1585.3 1534.96 1583.63 1536.93C1581.95 1538.9 1581.11 1541.52 1581.11 1544.8L1581.11 1545.24C1581.11 1548.52 1581.95 1551.14 1583.63 1553.11C1585.3 1555.04 1587.58 1556.01 1590.46 1556.01ZM1590.4 1559.78C1586.36 1559.78 1583.01 1558.41 1580.35 1555.68C1577.72 1552.91 1576.41 1549.43 1576.41 1545.24L1576.41 1544.8C1576.41 1540.54 1577.72 1537.04 1580.35 1534.3C1583.01 1531.57 1586.38 1530.2 1590.46 1530.2C1594.54 1530.2 1597.89 1531.57 1600.52 1534.3C1603.18 1537 1604.51 1540.48 1604.51 1544.75L1604.51 1545.18C1604.51 1549.48 1603.18 1553 1600.52 1555.73C1597.86 1558.43 1594.49 1559.78 1590.4 1559.78ZM1623.4 1559.78C1619.35 1559.78 1616 1558.47 1613.34 1555.84C1610.71 1553.18 1609.4 1549.67 1609.4 1545.29L1609.4 1544.86C1609.4 1540.55 1610.73 1537.04 1613.39 1534.3C1616.09 1531.57 1619.39 1530.2 1623.29 1530.2C1626.57 1530.2 1629.35 1531.02 1631.65 1532.66C1633.95 1534.27 1635.29 1536.78 1635.7 1540.21L1631.21 1540.21C1630.56 1536.05 1627.91 1533.98 1623.29 1533.98C1620.63 1533.98 1618.42 1534.98 1616.67 1536.98C1614.96 1538.95 1614.1 1541.58 1614.1 1544.86L1614.1 1545.29C1614.1 1548.72 1614.94 1551.36 1616.62 1553.22C1618.33 1555.08 1620.61 1556.01 1623.45 1556.01C1625.6 1556.01 1627.44 1555.41 1628.97 1554.2C1630.54 1552.96 1631.43 1551.23 1631.65 1549.01L1635.86 1549.01C1635.57 1552.14 1634.26 1554.73 1631.92 1556.77C1629.63 1558.78 1626.79 1559.78 1623.4 1559.78ZM1642.82 1559.29L1642.82 1530.7L1647.36 1530.7L1647.36 1559.29L1642.82 1559.29ZM1647.08 1523.86C1646.5 1524.45 1645.81 1524.74 1645.01 1524.74C1644.2 1524.74 1643.49 1524.45 1642.87 1523.86C1642.29 1523.28 1642 1522.57 1642 1521.73C1642 1520.89 1642.29 1520.18 1642.87 1519.6C1643.49 1519.02 1644.2 1518.72 1645.01 1518.72C1645.81 1518.72 1646.5 1519.02 1647.08 1519.6C1647.7 1520.18 1648.01 1520.89 1648.01 1521.73C1648.01 1522.57 1647.7 1523.28 1647.08 1523.86ZM1663.8 1559.78C1661 1559.78 1658.7 1559.09 1656.92 1557.7C1655.17 1556.28 1654.29 1554.17 1654.29 1551.36C1654.29 1548.3 1655.64 1546.06 1658.34 1544.64C1661.07 1543.22 1664.5 1542.5 1668.62 1542.5L1672.72 1542.5L1672.72 1540.43C1672.72 1538.13 1672.24 1536.49 1671.29 1535.51C1670.35 1534.49 1668.78 1533.98 1666.59 1533.98C1662.66 1533.98 1660.47 1535.69 1660.03 1539.12L1655.5 1539.12C1655.79 1536.05 1656.99 1533.81 1659.1 1532.39C1661.22 1530.93 1663.79 1530.2 1666.81 1530.2C1673.77 1530.2 1677.25 1533.61 1677.25 1540.43L1677.25 1559.29L1672.72 1559.29L1672.72 1555.68C1670.53 1558.41 1667.56 1559.78 1663.8 1559.78ZM1664.24 1556.17C1666.72 1556.17 1668.74 1555.57 1670.31 1554.37C1671.91 1553.13 1672.72 1551.43 1672.72 1549.28L1672.72 1545.73L1668.78 1545.73C1662.15 1545.73 1658.83 1547.61 1658.83 1551.36C1658.83 1554.57 1660.63 1556.17 1664.24 1556.17ZM1686.27 1559.29L1686.27 1517.03L1690.87 1517.03L1690.87 1559.29L1686.27 1559.29Z" fill="black"/>
<path d="M1617.62 1483.44V1503.15V1483.44Z" fill="black"/>
<path d="M1617.62 1483.44V1503.15" stroke="black" stroke-width="2.34188"/>
<path d="M1925.59 1564.26L1939.04 1525.17L1945.27 1525.17L1958.5 1564.26L1953.8 1564.26L1949.97 1552.99L1933.84 1552.99L1930.07 1564.26L1925.59 1564.26ZM1941.94 1529.11L1935.16 1549.22L1948.71 1549.22L1941.94 1529.11ZM1975.95 1564.75C1971.87 1564.75 1968.53 1563.44 1965.94 1560.81C1963.39 1558.15 1962.12 1554.63 1962.12 1550.26L1962.12 1549.82C1962.12 1545.52 1963.36 1542.01 1965.83 1539.27C1968.35 1536.54 1971.57 1535.17 1975.51 1535.17C1979.15 1535.17 1982.2 1536.36 1984.64 1538.73C1987.12 1541.06 1988.36 1544.61 1988.36 1549.39L1988.36 1550.86L1966.82 1550.86C1966.93 1554.14 1967.75 1556.66 1969.28 1558.41C1970.85 1560.12 1973.09 1560.98 1976 1560.98C1980.48 1560.98 1983.02 1559.32 1983.6 1556L1988.14 1556C1987.66 1558.81 1986.33 1560.98 1984.15 1562.51C1981.96 1564 1979.23 1564.75 1975.95 1564.75ZM1966.98 1547.2L1983.71 1547.2C1983.31 1541.7 1980.58 1538.95 1975.51 1538.95C1973.21 1538.95 1971.32 1539.69 1969.82 1541.19C1968.33 1542.64 1967.38 1544.65 1966.98 1547.2ZM2004.44 1564.75C2001.02 1564.75 1998.32 1563.93 1996.35 1562.29C1994.42 1560.65 1993.38 1558.37 1993.24 1555.45L1997.66 1555.45C1998.03 1559.14 2000.27 1560.98 2004.39 1560.98C2008.54 1560.98 2010.62 1559.46 2010.62 1556.44C2010.62 1555.02 2010.09 1553.98 2009.03 1553.32C2008.01 1552.63 2006.32 1552.07 2003.95 1551.63C2000.23 1550.94 1997.65 1549.99 1996.19 1548.79C1994.73 1547.55 1994 1545.69 1994 1543.21C1994 1540.73 1994.98 1538.78 1996.95 1537.36C1998.96 1535.9 2001.2 1535.17 2003.68 1535.17C2009.87 1535.17 2013.32 1537.93 2014.01 1543.43L2009.64 1543.43C2009.31 1541.86 2008.67 1540.73 2007.72 1540.04C2006.77 1539.31 2005.41 1538.95 2003.62 1538.95C2001.98 1538.95 2000.67 1539.33 1999.69 1540.09C1998.7 1540.82 1998.21 1541.81 1998.21 1543.05C1998.21 1544.36 1998.67 1545.32 1999.58 1545.94C2000.52 1546.56 2002.29 1547.11 2004.88 1547.58C2006.59 1547.91 2007.96 1548.24 2008.98 1548.57C2010.04 1548.86 2011.06 1549.31 2012.04 1549.93C2013.06 1550.55 2013.79 1551.37 2014.23 1552.39C2014.7 1553.38 2014.94 1554.6 2014.94 1556.06C2014.94 1558.72 2014.03 1560.83 2012.2 1562.4C2010.42 1563.96 2007.83 1564.75 2004.44 1564.75ZM2030.54 1564.64C2028.03 1564.64 2026.12 1563.96 2024.8 1562.62C2023.49 1561.27 2022.84 1559.43 2022.84 1557.09L2022.84 1539.49L2018.74 1539.49L2018.74 1535.67L2022.84 1535.67L2022.84 1529.16L2027.37 1529.16L2027.37 1535.67L2034.04 1535.67L2034.04 1539.49L2027.37 1539.49L2027.37 1556.66C2027.37 1559.43 2028.56 1560.81 2030.93 1560.81C2032.24 1560.81 2033.4 1560.61 2034.42 1560.21L2034.42 1564.04C2033.29 1564.44 2032 1564.64 2030.54 1564.64ZM2041.28 1564.26L2041.28 1522L2045.82 1522L2045.82 1540.2C2046.51 1538.75 2047.66 1537.54 2049.26 1536.59C2050.87 1535.65 2052.78 1535.17 2055 1535.17C2058.14 1535.17 2060.6 1536.1 2062.38 1537.96C2064.17 1539.82 2065.06 1542.74 2065.06 1546.71L2065.06 1564.26L2060.53 1564.26L2060.53 1546.38C2060.53 1543.87 2059.98 1542.02 2058.89 1540.86C2057.79 1539.69 2056.1 1539.11 2053.8 1539.11C2051.58 1539.11 2049.68 1539.8 2048.12 1541.19C2046.59 1542.57 2045.82 1544.48 2045.82 1546.93L2045.82 1564.26L2041.28 1564.26ZM2085.65 1564.75C2081.57 1564.75 2078.24 1563.44 2075.65 1560.81C2073.1 1558.15 2071.82 1554.63 2071.82 1550.26L2071.82 1549.82C2071.82 1545.52 2073.06 1542.01 2075.54 1539.27C2078.05 1536.54 2081.28 1535.17 2085.22 1535.17C2088.86 1535.17 2091.9 1536.36 2094.35 1538.73C2096.82 1541.06 2098.06 1544.61 2098.06 1549.39L2098.06 1550.86L2076.52 1550.86C2076.63 1554.14 2077.45 1556.66 2078.98 1558.41C2080.55 1560.12 2082.79 1560.98 2085.71 1560.98C2090.19 1560.98 2092.72 1559.32 2093.31 1556L2097.84 1556C2097.37 1558.81 2096.04 1560.98 2093.85 1562.51C2091.67 1564 2088.93 1564.75 2085.65 1564.75ZM2076.69 1547.2L2093.42 1547.2C2093.02 1541.7 2090.28 1538.95 2085.22 1538.95C2082.92 1538.95 2081.02 1539.69 2079.53 1541.19C2078.04 1542.64 2077.09 1544.65 2076.69 1547.2ZM2113.72 1564.64C2111.2 1564.64 2109.29 1563.96 2107.98 1562.62C2106.66 1561.27 2106.01 1559.43 2106.01 1557.09L2106.01 1539.49L2101.91 1539.49L2101.91 1535.67L2106.01 1535.67L2106.01 1529.16L2110.55 1529.16L2110.55 1535.67L2117.22 1535.67L2117.22 1539.49L2110.55 1539.49L2110.55 1556.66C2110.55 1559.43 2111.73 1560.81 2114.1 1560.81C2115.41 1560.81 2116.58 1560.61 2117.6 1560.21L2117.6 1564.04C2116.47 1564.44 2115.17 1564.64 2113.72 1564.64ZM2124.57 1564.26L2124.57 1535.67L2129.1 1535.67L2129.1 1564.26L2124.57 1564.26ZM2128.83 1528.83C2128.25 1529.42 2127.55 1529.71 2126.75 1529.71C2125.95 1529.71 2125.24 1529.42 2124.62 1528.83C2124.04 1528.25 2123.75 1527.54 2123.75 1526.7C2123.75 1525.86 2124.04 1525.15 2124.62 1524.57C2125.24 1523.99 2125.95 1523.69 2126.75 1523.69C2127.55 1523.69 2128.25 1523.99 2128.83 1524.57C2129.45 1525.15 2129.76 1525.86 2129.76 1526.7C2129.76 1527.54 2129.45 1528.25 2128.83 1528.83ZM2150.25 1564.75C2146.21 1564.75 2142.85 1563.44 2140.19 1560.81C2137.57 1558.15 2136.26 1554.63 2136.26 1550.26L2136.26 1549.82C2136.26 1545.52 2137.59 1542.01 2140.25 1539.27C2142.95 1536.54 2146.24 1535.17 2150.14 1535.17C2153.42 1535.17 2156.21 1535.99 2158.51 1537.63C2160.8 1539.24 2162.15 1541.75 2162.55 1545.18L2158.07 1545.18C2157.41 1541.02 2154.77 1538.95 2150.14 1538.95C2147.48 1538.95 2145.28 1539.95 2143.53 1541.95C2141.82 1543.92 2140.96 1546.54 2140.96 1549.82L2140.96 1550.26C2140.96 1553.69 2141.8 1556.33 2143.47 1558.19C2145.19 1560.05 2147.46 1560.98 2150.31 1560.98C2152.46 1560.98 2154.3 1560.37 2155.83 1559.17C2157.4 1557.93 2158.29 1556.2 2158.51 1553.98L2162.72 1553.98C2162.43 1557.11 2161.11 1559.7 2158.78 1561.74C2156.48 1563.75 2153.64 1564.75 2150.25 1564.75ZM2178.42 1564.75C2175 1564.75 2172.3 1563.93 2170.33 1562.29C2168.4 1560.65 2167.36 1558.37 2167.22 1555.45L2171.64 1555.45C2172.01 1559.14 2174.25 1560.98 2178.37 1560.98C2182.52 1560.98 2184.6 1559.46 2184.6 1556.44C2184.6 1555.02 2184.07 1553.98 2183.01 1553.32C2181.99 1552.63 2180.3 1552.07 2177.93 1551.63C2174.21 1550.94 2171.63 1549.99 2170.17 1548.79C2168.71 1547.55 2167.98 1545.69 2167.98 1543.21C2167.98 1540.73 2168.97 1538.78 2170.93 1537.36C2172.94 1535.9 2175.18 1535.17 2177.66 1535.17C2183.85 1535.17 2187.3 1537.92 2187.99 1543.43L2183.62 1543.43C2183.29 1541.86 2182.65 1540.73 2181.7 1540.04C2180.76 1539.31 2179.39 1538.95 2177.6 1538.95C2175.96 1538.95 2174.65 1539.33 2173.67 1540.09C2172.68 1540.82 2172.19 1541.81 2172.19 1543.05C2172.19 1544.36 2172.65 1545.32 2173.56 1545.94C2174.51 1546.56 2176.27 1547.11 2178.86 1547.58C2180.57 1547.91 2181.94 1548.24 2182.96 1548.57C2184.02 1548.86 2185.04 1549.31 2186.02 1549.93C2187.04 1550.55 2187.77 1551.37 2188.21 1552.39C2188.68 1553.38 2188.92 1554.6 2188.92 1556.06C2188.92 1558.72 2188.01 1560.83 2186.19 1562.4C2184.4 1563.96 2181.81 1564.75 2178.42 1564.75Z" fill="black"/>
<path d="M2057.43 1488.41V1508.12V1488.41Z" fill="black"/>
<path d="M2057.43 1488.41V1508.12" stroke="black" stroke-width="2.34188"/>
<path d="M1177.31 1868.03C1171.74 1868.03 1167.57 1866.8 1164.78 1864.33C1162.04 1861.87 1160.51 1858.49 1160.19 1854.2L1167.83 1854.2C1168.14 1856.7 1168.98 1858.65 1170.33 1860.04C1171.68 1861.39 1174.01 1862.07 1177.31 1862.07C1179.69 1862.07 1181.62 1861.47 1183.09 1860.28C1184.6 1859.05 1185.36 1857.46 1185.36 1855.51C1185.36 1853.52 1184.74 1852.07 1183.51 1851.15C1182.28 1850.24 1179.93 1849.5 1176.47 1848.95C1171.19 1848.23 1167.35 1846.96 1164.96 1845.13C1162.62 1843.26 1161.45 1840.38 1161.45 1836.48C1161.45 1832.95 1162.82 1830.02 1165.56 1827.72C1168.3 1825.41 1171.88 1824.26 1176.29 1824.26C1180.91 1824.26 1184.54 1825.31 1187.21 1827.42C1189.87 1829.49 1191.4 1832.55 1191.8 1836.6L1184.52 1836.6C1184.13 1834.38 1183.27 1832.77 1181.96 1831.77C1180.65 1830.74 1178.76 1830.22 1176.29 1830.22C1173.95 1830.22 1172.14 1830.74 1170.87 1831.77C1169.6 1832.77 1168.96 1834.12 1168.96 1835.83C1168.96 1837.66 1169.54 1839.03 1170.69 1839.94C1171.88 1840.86 1174.25 1841.57 1177.79 1842.09C1183.07 1842.81 1186.93 1844.1 1189.35 1845.97C1191.78 1847.79 1192.99 1850.76 1192.99 1854.85C1192.99 1858.63 1191.54 1861.77 1188.64 1864.27C1185.74 1866.78 1181.96 1868.03 1177.31 1868.03ZM1200.07 1878.11L1200.07 1836.25L1207.29 1836.25L1207.29 1841.25C1208.21 1839.66 1209.58 1838.33 1211.41 1837.26C1213.27 1836.15 1215.3 1835.59 1217.49 1835.59C1221.5 1835.59 1224.8 1837.02 1227.39 1839.88C1230.01 1842.71 1231.32 1846.56 1231.32 1851.45L1231.32 1851.93C1231.32 1856.86 1230.03 1860.78 1227.45 1863.68C1224.9 1866.58 1221.58 1868.03 1217.49 1868.03C1215.14 1868.03 1213.08 1867.53 1211.29 1866.54C1209.5 1865.51 1208.17 1864.17 1207.29 1862.54L1207.29 1878.11L1200.07 1878.11ZM1215.7 1862.31C1218.36 1862.31 1220.39 1861.43 1221.78 1859.68C1223.21 1857.93 1223.93 1855.39 1223.93 1852.05L1223.93 1851.57C1223.93 1848.23 1223.15 1845.69 1221.6 1843.94C1220.09 1842.15 1218.1 1841.25 1215.64 1841.25C1213.06 1841.25 1210.97 1842.15 1209.38 1843.94C1207.83 1845.69 1207.05 1848.23 1207.05 1851.57L1207.05 1852.05C1207.05 1855.43 1207.81 1857.99 1209.32 1859.74C1210.87 1861.45 1213 1862.31 1215.7 1862.31ZM1251.77 1862.43C1254.43 1862.43 1256.52 1861.51 1258.03 1859.68C1259.58 1857.81 1260.36 1855.27 1260.36 1852.05L1260.36 1851.63C1260.36 1848.41 1259.58 1845.89 1258.03 1844.06C1256.52 1842.19 1254.43 1841.25 1251.77 1841.25C1249.06 1841.25 1246.94 1842.17 1245.39 1844C1243.88 1845.83 1243.12 1848.35 1243.12 1851.57L1243.12 1852.05C1243.12 1855.27 1243.88 1857.81 1245.39 1859.68C1246.94 1861.51 1249.06 1862.43 1251.77 1862.43ZM1263.22 1863.62C1260.2 1866.56 1256.36 1868.03 1251.71 1868.03C1247.06 1868.03 1243.22 1866.56 1240.2 1863.62C1237.22 1860.68 1235.73 1856.86 1235.73 1852.17L1235.73 1851.69C1235.73 1846.92 1237.24 1843.04 1240.26 1840.06C1243.28 1837.08 1247.12 1835.59 1251.77 1835.59C1256.38 1835.59 1260.2 1837.06 1263.22 1840C1266.24 1842.94 1267.75 1846.78 1267.75 1851.51L1267.75 1851.99C1267.75 1856.8 1266.24 1860.68 1263.22 1863.62ZM1284.89 1867.97C1281.82 1867.97 1279.48 1867.18 1277.85 1865.59C1276.26 1864 1275.46 1861.71 1275.46 1858.73L1275.46 1841.67L1271.29 1841.67L1271.29 1836.25L1275.46 1836.25L1275.46 1829.39L1282.68 1829.39L1282.68 1836.25L1289.54 1836.25L1289.54 1841.67L1282.68 1841.67L1282.68 1858.07C1282.68 1860.74 1283.87 1862.07 1286.26 1862.07C1287.65 1862.07 1288.82 1861.87 1289.78 1861.47L1289.78 1867.2C1288.38 1867.71 1286.75 1867.97 1284.89 1867.97ZM1296.46 1867.43L1296.46 1836.25L1303.68 1836.25L1303.68 1867.43L1296.46 1867.43ZM1303.02 1829.92C1302.19 1830.72 1301.17 1831.12 1299.98 1831.12C1298.79 1831.12 1297.78 1830.72 1296.94 1829.92C1296.11 1829.13 1295.69 1828.15 1295.69 1827C1295.69 1825.81 1296.11 1824.81 1296.94 1824.02C1297.78 1823.22 1298.79 1822.83 1299.98 1822.83C1301.17 1822.83 1302.19 1823.22 1303.02 1824.02C1303.86 1824.81 1304.28 1825.81 1304.28 1827C1304.28 1828.15 1303.86 1829.13 1303.02 1829.92ZM1313.73 1867.43L1313.73 1841.67L1309.49 1841.67L1309.49 1836.25L1313.73 1836.25L1313.73 1832.07C1313.73 1828.65 1314.64 1826.05 1316.47 1824.26C1318.3 1822.43 1320.88 1821.52 1324.22 1821.52C1325.73 1821.52 1327.1 1821.71 1328.34 1822.11L1328.34 1827.72C1327.34 1827.36 1326.25 1827.18 1325.06 1827.18C1322.31 1827.18 1320.94 1828.71 1320.94 1831.77L1320.94 1836.25L1328.04 1836.25L1328.04 1841.67L1320.94 1841.67L1320.94 1867.43L1313.73 1867.43ZM1338.12 1878.11L1343.79 1864.27L1331.44 1836.25L1339.25 1836.25L1347.54 1856.34L1355.18 1836.25L1362.21 1836.25L1345.22 1878.11L1338.12 1878.11ZM1390.01 1868.03C1386.94 1868.03 1384.44 1867.28 1382.49 1865.76C1380.54 1864.21 1379.57 1861.89 1379.57 1858.79C1379.57 1855.37 1381.02 1852.86 1383.92 1851.27C1386.83 1849.68 1390.7 1848.89 1395.55 1848.89L1399.43 1848.89L1399.43 1847.28C1399.43 1845.13 1398.99 1843.56 1398.12 1842.57C1397.28 1841.53 1395.83 1841.02 1393.76 1841.02C1390.14 1841.02 1388.16 1842.65 1387.8 1845.91L1380.82 1845.91C1381.1 1842.45 1382.45 1839.86 1384.88 1838.15C1387.34 1836.44 1390.44 1835.59 1394.18 1835.59C1402.49 1835.59 1406.64 1839.39 1406.64 1846.98L1406.64 1867.43L1399.55 1867.43L1399.55 1863.62C1397.32 1866.56 1394.14 1868.03 1390.01 1868.03ZM1391.74 1862.84C1394 1862.84 1395.85 1862.29 1397.28 1861.17C1398.71 1860.02 1399.43 1858.47 1399.43 1856.52L1399.43 1853.42L1395.73 1853.42C1389.73 1853.42 1386.73 1855.11 1386.73 1858.49C1386.73 1861.39 1388.4 1862.84 1391.74 1862.84ZM1425.59 1868.03C1421.57 1868.03 1418.43 1867.14 1416.17 1865.35C1413.9 1863.56 1412.69 1861.01 1412.53 1857.71L1419.33 1857.71C1419.53 1859.38 1420.1 1860.64 1421.06 1861.47C1422.01 1862.31 1423.5 1862.72 1425.53 1862.72C1429.27 1862.72 1431.14 1861.39 1431.14 1858.73C1431.14 1857.5 1430.62 1856.58 1429.59 1855.98C1428.59 1855.35 1426.88 1854.83 1424.46 1854.43C1420.28 1853.76 1417.36 1852.74 1415.69 1851.39C1414.02 1850 1413.19 1847.85 1413.19 1844.95C1413.19 1842.01 1414.34 1839.72 1416.64 1838.09C1418.95 1836.42 1421.69 1835.59 1424.87 1835.59C1432.35 1835.59 1436.42 1838.73 1437.1 1845.01L1430.42 1845.01C1430.1 1843.58 1429.51 1842.53 1428.63 1841.85C1427.8 1841.17 1426.54 1840.84 1424.87 1840.84C1423.32 1840.84 1422.11 1841.17 1421.24 1841.85C1420.36 1842.53 1419.92 1843.42 1419.92 1844.53C1419.92 1845.65 1420.38 1846.48 1421.3 1847.04C1422.21 1847.6 1423.9 1848.09 1426.36 1848.53C1430.42 1849.17 1433.38 1850.14 1435.25 1851.45C1437.12 1852.76 1438.05 1854.97 1438.05 1858.07C1438.05 1861.25 1436.96 1863.72 1434.77 1865.47C1432.63 1867.18 1429.57 1868.03 1425.59 1868.03ZM1444.38 1878.11L1444.38 1836.25L1451.6 1836.25L1451.6 1841.25C1452.51 1839.66 1453.89 1838.33 1455.71 1837.26C1457.58 1836.15 1459.61 1835.59 1461.8 1835.59C1465.81 1835.59 1469.11 1837.02 1471.7 1839.88C1474.32 1842.71 1475.63 1846.56 1475.63 1851.45L1475.63 1851.93C1475.63 1856.86 1474.34 1860.78 1471.76 1863.68C1469.21 1866.58 1465.89 1868.03 1461.8 1868.03C1459.45 1868.03 1457.38 1867.53 1455.59 1866.54C1453.81 1865.51 1452.47 1864.17 1451.6 1862.54L1451.6 1878.11L1444.38 1878.11ZM1460.01 1862.31C1462.67 1862.31 1464.7 1861.43 1466.09 1859.68C1467.52 1857.93 1468.24 1855.39 1468.24 1852.05L1468.24 1851.57C1468.24 1848.23 1467.46 1845.69 1465.91 1843.94C1464.4 1842.15 1462.41 1841.25 1459.95 1841.25C1457.36 1841.25 1455.28 1842.15 1453.69 1843.94C1452.14 1845.69 1451.36 1848.23 1451.36 1851.57L1451.36 1852.05C1451.36 1855.43 1452.12 1857.99 1453.63 1859.74C1455.18 1861.45 1457.3 1862.31 1460.01 1862.31ZM1495.84 1868.03C1491.19 1868.03 1487.39 1866.6 1484.45 1863.74C1481.51 1860.87 1480.03 1857.02 1480.03 1852.17L1480.03 1851.69C1480.03 1846.92 1481.49 1843.04 1484.39 1840.06C1487.33 1837.08 1491.05 1835.59 1495.54 1835.59C1499.75 1835.59 1503.25 1836.9 1506.04 1839.53C1508.86 1842.15 1510.27 1846.08 1510.27 1851.33L1510.27 1853.42L1487.43 1853.42C1487.55 1856.4 1488.34 1858.69 1489.81 1860.28C1491.29 1861.87 1493.35 1862.66 1496.02 1862.66C1500.23 1862.66 1502.62 1861.07 1503.17 1857.89L1510.15 1857.89C1509.63 1861.15 1508.12 1863.66 1505.62 1865.41C1503.11 1867.16 1499.85 1868.03 1495.84 1868.03ZM1487.55 1848.59L1503.11 1848.59C1502.76 1843.42 1500.23 1840.84 1495.54 1840.84C1493.39 1840.84 1491.6 1841.53 1490.17 1842.92C1488.78 1844.28 1487.91 1846.16 1487.55 1848.59ZM1530.37 1868.03C1525.8 1868.03 1522.02 1866.62 1519.04 1863.8C1516.1 1860.93 1514.63 1857.08 1514.63 1852.23L1514.63 1851.75C1514.63 1846.9 1516.14 1843 1519.16 1840.06C1522.18 1837.08 1525.92 1835.59 1530.37 1835.59C1534.19 1835.59 1537.41 1836.54 1540.03 1838.45C1542.7 1840.32 1544.23 1843.26 1544.62 1847.28L1537.65 1847.28C1537.09 1843.34 1534.7 1841.37 1530.49 1841.37C1527.99 1841.37 1525.94 1842.29 1524.35 1844.12C1522.8 1845.95 1522.02 1848.45 1522.02 1851.63L1522.02 1852.11C1522.02 1855.45 1522.78 1858.01 1524.29 1859.8C1525.84 1861.59 1527.97 1862.48 1530.67 1862.48C1532.66 1862.48 1534.35 1861.91 1535.74 1860.76C1537.17 1859.56 1537.98 1857.91 1538.18 1855.81L1544.8 1855.81C1544.53 1859.46 1543.09 1862.43 1540.51 1864.69C1537.93 1866.92 1534.55 1868.03 1530.37 1868.03ZM1561.63 1867.97C1558.57 1867.97 1556.23 1867.18 1554.6 1865.59C1553 1864 1552.21 1861.71 1552.21 1858.73L1552.21 1841.67L1548.04 1841.67L1548.04 1836.25L1552.21 1836.25L1552.21 1829.39L1559.43 1829.39L1559.43 1836.25L1566.28 1836.25L1566.28 1841.67L1559.43 1841.67L1559.43 1858.07C1559.43 1860.74 1560.62 1862.07 1563 1862.07C1564.4 1862.07 1565.57 1861.87 1566.52 1861.47L1566.52 1867.2C1565.13 1867.71 1563.5 1867.97 1561.63 1867.97Z" fill="black"/>
<path d="M529.068 77L512.43 13.0407H520.391L533.362 64.6554L548.39 13.0407H553.936L568.964 64.8343L582.114 13.0407H589.36L572.722 77H565.565L551.074 26.4587L536.135 77H529.068ZM599.892 77V7.8524H607.316V37.6404C608.449 35.255 610.328 33.287 612.952 31.7365C615.576 30.186 618.707 29.4107 622.345 29.4107C627.473 29.4107 631.499 30.9314 634.421 33.9728C637.343 37.0143 638.804 41.7851 638.804 48.2854V77H631.379V47.7487C631.379 43.6338 630.485 40.6222 628.696 38.7139C626.907 36.8055 624.134 35.8514 620.377 35.8514C616.739 35.8514 613.638 36.9844 611.073 39.2506C608.569 41.5168 607.316 44.6476 607.316 48.6432V77H599.892ZM656.248 93.2805L665.104 72.1695L646.766 30.2158H654.727L669.04 63.7609L682.011 30.2158H689.614L663.762 93.2805H656.248ZM738.898 77.8051C733.949 77.8051 729.983 76.344 727.001 73.4219C724.079 70.4997 722.618 65.9674 722.618 59.8249V30.2158H730.042V59.4671C730.042 63.582 730.907 66.5936 732.637 68.5019C734.426 70.4103 737.169 71.3644 740.866 71.3644C744.385 71.3644 747.396 70.2313 749.901 67.9652C752.465 65.699 753.748 62.5682 753.748 58.5726V30.2158H761.172V77H753.748V69.5754C752.614 71.9608 750.736 73.9288 748.112 75.4793C745.548 77.0298 742.476 77.8051 738.898 77.8051ZM790.67 77.8051C785.064 77.8051 780.651 76.4633 777.43 73.7797C774.27 71.0961 772.57 67.3688 772.332 62.598H779.577C780.174 68.6212 783.841 71.6328 790.58 71.6328C797.379 71.6328 800.778 69.1579 800.778 64.2081C800.778 61.8823 799.913 60.1827 798.184 59.1093C796.514 57.9762 793.741 57.0519 789.864 56.3362C783.782 55.2032 779.547 53.6526 777.162 51.6846C774.777 49.657 773.584 46.6156 773.584 42.5604C773.584 38.5052 775.194 35.3146 778.414 32.9889C781.694 30.6034 785.362 29.4107 789.417 29.4107C799.555 29.4107 805.191 33.9132 806.324 42.9182H799.168C798.631 40.3539 797.587 38.5052 796.037 37.3721C794.486 36.1794 792.25 35.583 789.328 35.583C786.644 35.583 784.497 36.2092 782.887 37.4615C781.277 38.6542 780.472 40.2644 780.472 42.292C780.472 44.4389 781.217 46.0193 782.708 47.0331C784.259 48.0469 787.151 48.9414 791.385 49.7167C794.188 50.2534 796.424 50.7901 798.094 51.3268C799.824 51.8039 801.493 52.5494 803.104 53.5632C804.773 54.577 805.966 55.9188 806.682 57.5886C807.457 59.1987 807.845 61.1965 807.845 63.582C807.845 67.9354 806.354 71.3942 803.372 73.9586C800.45 76.5229 796.216 77.8051 790.67 77.8051ZM838.301 77.8051C831.622 77.8051 826.165 75.6582 821.931 71.3644C817.756 67.011 815.669 61.2562 815.669 54.0999V53.3843C815.669 46.3472 817.697 40.5924 821.752 36.1197C825.867 31.647 831.144 29.4107 837.585 29.4107C843.549 29.4107 848.528 31.3489 852.524 35.2252C856.579 39.0419 858.607 44.8564 858.607 52.6686V55.0839H823.362C823.541 60.4511 824.883 64.566 827.387 67.4285C829.952 70.2313 833.619 71.6328 838.39 71.6328C845.725 71.6328 849.87 68.9194 850.824 63.4925H858.249C857.474 68.0845 855.297 71.6328 851.719 74.1375C848.141 76.5826 843.668 77.8051 838.301 77.8051ZM823.63 49.0905H851.003C850.347 40.0855 845.874 35.583 837.585 35.583C833.828 35.583 830.727 36.8055 828.282 39.2506C825.837 41.636 824.286 44.916 823.63 49.0905ZM869.999 77V30.2158H877.424V38.6244C879.034 35.7023 881.002 33.4659 883.328 31.9154C885.713 30.3649 888.874 29.53 892.81 29.4107V36.3881C887.681 36.6266 883.835 37.8193 881.271 39.9662C878.706 42.1131 877.424 45.9 877.424 51.3268V77H869.999ZM917.687 77.8051C912.081 77.8051 907.668 76.4633 904.447 73.7797C901.287 71.0961 899.587 67.3688 899.349 62.598H906.594C907.191 68.6212 910.858 71.6328 917.597 71.6328C924.396 71.6328 927.795 69.1579 927.795 64.2081C927.795 61.8823 926.93 60.1827 925.201 59.1093C923.531 57.9762 920.758 57.0519 916.881 56.3362C910.799 55.2032 906.565 53.6526 904.179 51.6846C901.794 49.657 900.601 46.6156 900.601 42.5604C900.601 38.5052 902.211 35.3146 905.431 32.9889C908.711 30.6034 912.379 29.4107 916.434 29.4107C926.572 29.4107 932.208 33.9132 933.341 42.9182H926.185C925.648 40.3539 924.604 38.5052 923.054 37.3721C921.503 36.1794 919.267 35.583 916.345 35.583C913.661 35.583 911.514 36.2092 909.904 37.4615C908.294 38.6542 907.489 40.2644 907.489 42.292C907.489 44.4389 908.234 46.0193 909.725 47.0331C911.276 48.0469 914.168 48.9414 918.402 49.7167C921.205 50.2534 923.441 50.7901 925.111 51.3268C926.841 51.8039 928.51 52.5494 930.121 53.5632C931.79 54.577 932.983 55.9188 933.699 57.5886C934.474 59.1987 934.862 61.1965 934.862 63.582C934.862 67.9354 933.371 71.3942 930.389 73.9586C927.467 76.5229 923.233 77.8051 917.687 77.8051ZM989.26 77.8051C982.64 77.8051 977.154 75.6582 972.8 71.3644C968.507 67.011 966.36 61.2562 966.36 54.0999V53.3843C966.36 46.3472 968.536 40.5924 972.89 36.1197C977.303 31.647 982.7 29.4107 989.081 29.4107C994.448 29.4107 999.01 30.7525 1002.77 33.4361C1006.52 36.0601 1008.73 40.175 1009.39 45.7807H1002.05C1000.98 38.9822 996.655 35.583 989.081 35.583C984.728 35.583 981.12 37.223 978.257 40.5029C975.454 43.7233 974.053 48.017 974.053 53.3843V54.0999C974.053 59.7056 975.424 64.0292 978.168 67.0707C980.971 70.1121 984.698 71.6328 989.349 71.6328C992.868 71.6328 995.879 70.6488 998.384 68.6808C1000.95 66.6532 1002.41 63.8205 1002.77 60.1827H1009.66C1009.18 65.3114 1007.03 69.5455 1003.21 72.8851C999.458 76.1651 994.806 77.8051 989.26 77.8051ZM1020.86 77V7.8524H1028.29V37.6404C1029.42 35.255 1031.3 33.287 1033.93 31.7365C1036.55 30.186 1039.68 29.4107 1043.32 29.4107C1048.45 29.4107 1052.47 30.9314 1055.39 33.9728C1058.32 37.0143 1059.78 41.7851 1059.78 48.2854V77H1052.35V47.7487C1052.35 43.6338 1051.46 40.6222 1049.67 38.7139C1047.88 36.8055 1045.11 35.8514 1041.35 35.8514C1037.71 35.8514 1034.61 36.9844 1032.05 39.2506C1029.54 41.5168 1028.29 44.6476 1028.29 48.6432V77H1020.86ZM1093.83 71.6328C1098.48 71.6328 1102.18 70.0226 1104.92 66.8023C1107.72 63.582 1109.12 59.318 1109.12 54.0104V53.3843C1109.12 47.9574 1107.72 43.6338 1104.92 40.4135C1102.18 37.1932 1098.48 35.583 1093.83 35.583C1089.12 35.583 1085.39 37.1932 1082.65 40.4135C1079.9 43.6338 1078.53 47.9276 1078.53 53.2948V54.0104C1078.53 59.3776 1079.9 63.6714 1082.65 66.8917C1085.39 70.0524 1089.12 71.6328 1093.83 71.6328ZM1093.74 77.8051C1087.12 77.8051 1081.63 75.5687 1077.28 71.0961C1072.99 66.5638 1070.84 60.8685 1070.84 54.0104V53.2948C1070.84 46.3174 1072.99 40.5924 1077.28 36.1197C1081.63 31.647 1087.15 29.4107 1093.83 29.4107C1100.51 29.4107 1105.99 31.647 1110.29 36.1197C1114.64 40.5328 1116.82 46.228 1116.82 53.2054V53.921C1116.82 60.958 1114.64 66.7128 1110.29 71.1855C1105.93 75.5986 1100.42 77.8051 1093.74 77.8051ZM1147.81 71.6328C1152.47 71.6328 1156.16 70.0226 1158.91 66.8023C1161.71 63.582 1163.11 59.318 1163.11 54.0104V53.3843C1163.11 47.9574 1161.71 43.6338 1158.91 40.4135C1156.16 37.1932 1152.47 35.583 1147.81 35.583C1143.1 35.583 1139.38 37.1932 1136.63 40.4135C1133.89 43.6338 1132.52 47.9276 1132.52 53.2948V54.0104C1132.52 59.3776 1133.89 63.6714 1136.63 66.8917C1139.38 70.0524 1143.1 71.6328 1147.81 71.6328ZM1147.73 77.8051C1141.11 77.8051 1135.62 75.5687 1131.27 71.0961C1126.97 66.5638 1124.83 60.8685 1124.83 54.0104V53.2948C1124.83 46.3174 1126.97 40.5924 1131.27 36.1197C1135.62 31.647 1141.14 29.4107 1147.81 29.4107C1154.49 29.4107 1159.98 31.647 1164.27 36.1197C1168.63 40.5328 1170.8 46.228 1170.8 53.2054V53.921C1170.8 60.958 1168.63 66.7128 1164.27 71.1855C1159.92 75.5986 1154.4 77.8051 1147.73 77.8051ZM1196.79 77.8051C1191.19 77.8051 1186.77 76.4633 1183.55 73.7797C1180.39 71.0961 1178.69 67.3688 1178.45 62.598H1185.7C1186.3 68.6212 1189.96 71.6328 1196.7 71.6328C1203.5 71.6328 1206.9 69.1579 1206.9 64.2081C1206.9 61.8823 1206.04 60.1827 1204.31 59.1093C1202.64 57.9762 1199.86 57.0519 1195.99 56.3362C1189.9 55.2032 1185.67 53.6526 1183.28 51.6846C1180.9 49.657 1179.71 46.6156 1179.71 42.5604C1179.71 38.5052 1181.32 35.3146 1184.54 32.9889C1187.82 30.6034 1191.48 29.4107 1195.54 29.4107C1205.68 29.4107 1211.31 33.9132 1212.45 42.9182H1205.29C1204.75 40.3539 1203.71 38.5052 1202.16 37.3721C1200.61 36.1794 1198.37 35.583 1195.45 35.583C1192.77 35.583 1190.62 36.2092 1189.01 37.4615C1187.4 38.6542 1186.59 40.2644 1186.59 42.292C1186.59 44.4389 1187.34 46.0193 1188.83 47.0331C1190.38 48.0469 1193.27 48.9414 1197.51 49.7167C1200.31 50.2534 1202.55 50.7901 1204.22 51.3268C1205.95 51.8039 1207.62 52.5494 1209.23 53.5632C1210.9 54.577 1212.09 55.9188 1212.8 57.5886C1213.58 59.1987 1213.97 61.1965 1213.97 63.582C1213.97 67.9354 1212.48 71.3942 1209.49 73.9586C1206.57 76.5229 1202.34 77.8051 1196.79 77.8051ZM1244.42 77.8051C1237.74 77.8051 1232.29 75.6582 1228.05 71.3644C1223.88 67.011 1221.79 61.2562 1221.79 54.0999V53.3843C1221.79 46.3472 1223.82 40.5924 1227.87 36.1197C1231.99 31.647 1237.27 29.4107 1243.71 29.4107C1249.67 29.4107 1254.65 31.3489 1258.65 35.2252C1262.7 39.0419 1264.73 44.8564 1264.73 52.6686V55.0839H1229.48C1229.66 60.4511 1231.01 64.566 1233.51 67.4285C1236.07 70.2313 1239.74 71.6328 1244.51 71.6328C1251.85 71.6328 1255.99 68.9194 1256.95 63.4925H1264.37C1263.6 68.0845 1261.42 71.6328 1257.84 74.1375C1254.26 76.5826 1249.79 77.8051 1244.42 77.8051ZM1229.75 49.0905H1257.13C1256.47 40.0855 1252 35.583 1243.71 35.583C1239.95 35.583 1236.85 36.8055 1234.4 39.2506C1231.96 41.636 1230.41 44.916 1229.75 49.0905ZM1321 77.8051C1313.06 77.8051 1307.16 75.9564 1303.28 72.259C1299.47 68.5019 1297.23 63.582 1296.58 57.4991H1304.09C1304.39 59.5864 1304.81 61.4053 1305.34 62.9558C1305.94 64.5063 1306.83 65.9674 1308.03 67.339C1309.22 68.7106 1310.89 69.7543 1313.03 70.4699C1315.24 71.1855 1317.9 71.5433 1321 71.5433C1325.17 71.5433 1328.63 70.4401 1331.37 68.2336C1334.18 65.9674 1335.58 63.0452 1335.58 59.4671C1335.58 55.7697 1334.5 53.0563 1332.36 51.3268C1330.21 49.5378 1326.13 48.1661 1320.1 47.212C1312.89 46.1385 1307.52 44.2898 1304 41.6658C1300.48 38.9822 1298.72 34.9568 1298.72 29.5896C1298.72 24.6399 1300.66 20.525 1304.54 17.245C1308.41 13.9054 1313.33 12.2356 1319.3 12.2356C1325.74 12.2356 1330.87 13.7563 1334.68 16.7978C1338.5 19.8392 1340.71 24.1926 1341.3 29.858H1334.32C1333.55 25.8624 1331.97 22.9701 1329.58 21.181C1327.2 19.3919 1323.77 18.4974 1319.3 18.4974C1315.06 18.4974 1311.78 19.4515 1309.46 21.3599C1307.13 23.2682 1305.97 25.7729 1305.97 28.874C1305.97 32.2136 1306.98 34.7183 1309.01 36.3881C1311.04 38.0579 1315.15 39.3699 1321.35 40.324C1328.87 41.5168 1334.35 43.4847 1337.81 46.228C1341.33 48.9116 1343.09 53.1457 1343.09 58.9304C1343.09 64.2976 1340.97 68.8001 1336.74 72.4379C1332.57 76.016 1327.32 77.8051 1321 77.8051ZM1355.88 93.2805V30.2158H1363.3V38.0877C1364.73 35.7023 1366.91 33.6747 1369.83 32.0049C1372.76 30.2754 1375.86 29.4107 1379.14 29.4107C1385.4 29.4107 1390.5 31.5576 1394.43 35.8514C1398.43 40.0855 1400.43 45.7807 1400.43 52.937V53.6526C1400.43 60.8685 1398.46 66.7128 1394.52 71.1855C1390.65 75.5986 1385.52 77.8051 1379.14 77.8051C1375.5 77.8051 1372.31 77.0298 1369.57 75.4793C1366.82 73.8691 1364.73 71.8117 1363.3 69.307V93.2805H1355.88ZM1378.42 71.6328C1383.07 71.6328 1386.62 70.1121 1389.07 67.0707C1391.51 64.0292 1392.73 59.6758 1392.73 54.0104V53.2948C1392.73 47.6294 1391.36 43.276 1388.62 40.2346C1385.94 37.1335 1382.51 35.583 1378.33 35.583C1373.8 35.583 1370.1 37.1037 1367.24 40.1451C1364.44 43.1269 1363.04 47.5101 1363.04 53.2948V54.0104C1363.04 59.7951 1364.41 64.1783 1367.15 67.1601C1369.95 70.1419 1373.71 71.6328 1378.42 71.6328ZM1431.46 71.6328C1436.11 71.6328 1439.81 70.0226 1442.56 66.8023C1445.36 63.582 1446.76 59.318 1446.76 54.0104V53.3843C1446.76 47.9574 1445.36 43.6338 1442.56 40.4135C1439.81 37.1932 1436.11 35.583 1431.46 35.583C1426.75 35.583 1423.02 37.1932 1420.28 40.4135C1417.54 43.6338 1416.17 47.9276 1416.17 53.2948V54.0104C1416.17 59.3776 1417.54 63.6714 1420.28 66.8917C1423.02 70.0524 1426.75 71.6328 1431.46 71.6328ZM1431.37 77.8051C1424.75 77.8051 1419.27 75.5687 1414.91 71.0961C1410.62 66.5638 1408.47 60.8685 1408.47 54.0104V53.2948C1408.47 46.3174 1410.62 40.5924 1414.91 36.1197C1419.27 31.647 1424.78 29.4107 1431.46 29.4107C1438.14 29.4107 1443.63 31.647 1447.92 36.1197C1452.28 40.5328 1454.45 46.228 1454.45 53.2054V53.921C1454.45 60.958 1452.28 66.7128 1447.92 71.1855C1443.57 75.5986 1438.05 77.8051 1431.37 77.8051ZM1480.17 77.6262C1476.06 77.6262 1472.93 76.5229 1470.78 74.3164C1468.63 72.1099 1467.56 69.0983 1467.56 65.2816V36.4775H1460.85V30.2158H1467.56V19.5708H1474.98V30.2158H1485.9V36.4775H1474.98V64.566C1474.98 69.0983 1476.92 71.3644 1480.8 71.3644C1482.94 71.3644 1484.85 71.0364 1486.52 70.3804V76.6422C1484.67 77.2982 1482.56 77.6262 1480.17 77.6262ZM1497.93 77V30.2158H1505.35V77H1497.93ZM1504.9 19.0341C1503.95 19.9883 1502.82 20.4654 1501.5 20.4654C1500.19 20.4654 1499.03 19.9883 1498.02 19.0341C1497.06 18.0799 1496.58 16.917 1496.58 15.5454C1496.58 14.1738 1497.06 13.0109 1498.02 12.0567C1499.03 11.1025 1500.19 10.6255 1501.5 10.6255C1502.82 10.6255 1503.95 11.1025 1504.9 12.0567C1505.92 13.0109 1506.42 14.1738 1506.42 15.5454C1506.42 16.917 1505.92 18.0799 1504.9 19.0341ZM1522.16 77V36.4775H1515.45V30.2158H1522.16V22.6122C1522.16 17.7817 1523.32 14.0843 1525.65 11.52C1528.03 8.89603 1531.52 7.58404 1536.11 7.58404C1538.02 7.58404 1539.87 7.88222 1541.66 8.47858V14.7403C1539.99 14.0843 1538.23 13.7563 1536.38 13.7563C1531.85 13.7563 1529.58 16.4399 1529.58 21.8072V30.2158H1541.03V36.4775H1529.58V77H1522.16ZM1556.55 93.2805L1565.41 72.1695L1547.07 30.2158H1555.03L1569.34 63.7609L1582.31 30.2158H1589.92L1564.06 93.2805H1556.55ZM1642.87 71.6328C1647.52 71.6328 1651.22 70.0226 1653.96 66.8023C1656.76 63.582 1658.16 59.318 1658.16 54.0104V53.3843C1658.16 47.9574 1656.76 43.6338 1653.96 40.4135C1651.22 37.1932 1647.52 35.583 1642.87 35.583C1638.16 35.583 1634.43 37.1932 1631.69 40.4135C1628.94 43.6338 1627.57 47.9276 1627.57 53.2948V54.0104C1627.57 59.3776 1628.94 63.6714 1631.69 66.8917C1634.43 70.0524 1638.16 71.6328 1642.87 71.6328ZM1642.78 77.8051C1636.16 77.8051 1630.67 75.5687 1626.32 71.0961C1622.02 66.5638 1619.88 60.8685 1619.88 54.0104V53.2948C1619.88 46.3174 1622.02 40.5924 1626.32 36.1197C1630.67 31.647 1636.19 29.4107 1642.87 29.4107C1649.55 29.4107 1655.03 31.647 1659.33 36.1197C1663.68 40.5328 1665.86 46.228 1665.86 53.2054V53.921C1665.86 60.958 1663.68 66.7128 1659.33 71.1855C1654.97 75.5986 1649.46 77.8051 1642.78 77.8051ZM1687.76 77L1670.76 30.2158H1678.82L1692.68 69.4859L1706.37 30.2158H1714.06L1697.24 77H1687.76ZM1741.66 77.8051C1734.98 77.8051 1729.52 75.6582 1725.29 71.3644C1721.11 67.011 1719.03 61.2562 1719.03 54.0999V53.3843C1719.03 46.3472 1721.06 40.5924 1725.11 36.1197C1729.23 31.647 1734.5 29.4107 1740.94 29.4107C1746.91 29.4107 1751.89 31.3489 1755.88 35.2252C1759.94 39.0419 1761.97 44.8564 1761.97 52.6686V55.0839H1726.72C1726.9 60.4511 1728.24 64.566 1730.75 67.4285C1733.31 70.2313 1736.98 71.6328 1741.75 71.6328C1749.08 71.6328 1753.23 68.9194 1754.18 63.4925H1761.61C1760.83 68.0845 1758.66 71.6328 1755.08 74.1375C1751.5 76.5826 1747.03 77.8051 1741.66 77.8051ZM1726.99 49.0905H1754.36C1753.71 40.0855 1749.23 35.583 1740.94 35.583C1737.19 35.583 1734.09 36.8055 1731.64 39.2506C1729.2 41.636 1727.64 44.916 1726.99 49.0905ZM1773.36 77V30.2158H1780.78V38.6244C1782.39 35.7023 1784.36 33.4659 1786.69 31.9154C1789.07 30.3649 1792.23 29.53 1796.17 29.4107V36.3881C1791.04 36.6266 1787.19 37.8193 1784.63 39.9662C1782.06 42.1131 1780.78 45.9 1780.78 51.3268V77H1773.36ZM1850.08 77.8051C1843.46 77.8051 1837.97 75.6582 1833.62 71.3644C1829.32 67.011 1827.18 61.2562 1827.18 54.0999V53.3843C1827.18 46.3472 1829.35 40.5924 1833.71 36.1197C1838.12 31.647 1843.52 29.4107 1849.9 29.4107C1855.26 29.4107 1859.83 30.7525 1863.58 33.4361C1867.34 36.0601 1869.55 40.175 1870.2 45.7807H1862.87C1861.79 38.9822 1857.47 35.583 1849.9 35.583C1845.54 35.583 1841.94 37.223 1839.07 40.5029C1836.27 43.7233 1834.87 48.017 1834.87 53.3843V54.0999C1834.87 59.7056 1836.24 64.0292 1838.98 67.0707C1841.79 70.1121 1845.51 71.6328 1850.17 71.6328C1853.68 71.6328 1856.7 70.6488 1859.2 68.6808C1861.76 66.6532 1863.23 63.8205 1863.58 60.1827H1870.47C1869.99 65.3114 1867.85 69.5455 1864.03 72.8851C1860.27 76.1651 1855.62 77.8051 1850.08 77.8051ZM1901.18 71.6328C1905.83 71.6328 1909.53 70.0226 1912.27 66.8023C1915.08 63.582 1916.48 59.318 1916.48 54.0104V53.3843C1916.48 47.9574 1915.08 43.6338 1912.27 40.4135C1909.53 37.1932 1905.83 35.583 1901.18 35.583C1896.47 35.583 1892.74 37.1932 1890 40.4135C1887.26 43.6338 1885.89 47.9276 1885.89 53.2948V54.0104C1885.89 59.3776 1887.26 63.6714 1890 66.8917C1892.74 70.0524 1896.47 71.6328 1901.18 71.6328ZM1901.09 77.8051C1894.47 77.8051 1888.99 75.5687 1884.63 71.0961C1880.34 66.5638 1878.19 60.8685 1878.19 54.0104V53.2948C1878.19 46.3174 1880.34 40.5924 1884.63 36.1197C1888.99 31.647 1894.5 29.4107 1901.18 29.4107C1907.86 29.4107 1913.35 31.647 1917.64 36.1197C1921.99 40.5328 1924.17 46.228 1924.17 53.2054V53.921C1924.17 60.958 1921.99 66.7128 1917.64 71.1855C1913.29 75.5986 1907.77 77.8051 1901.09 77.8051ZM1935.67 77V30.2158H1943.09V37.3721C1944.23 35.0463 1946.01 33.1379 1948.46 31.647C1950.96 30.1562 1953.83 29.4107 1957.05 29.4107C1963.9 29.4107 1968.47 32.3329 1970.73 38.1772C1972.22 35.3146 1974.46 33.1379 1977.44 31.647C1980.48 30.1562 1983.58 29.4107 1986.75 29.4107C1991.34 29.4107 1995.09 30.9314 1998.02 33.9728C2001 36.9546 2002.49 41.636 2002.49 48.017V77H1995.06V47.4803C1995.06 39.7277 1991.75 35.8514 1985.14 35.8514C1981.8 35.8514 1978.9 36.9546 1976.46 39.1611C1974.01 41.3677 1972.79 44.4389 1972.79 48.3749V77H1965.37V47.4803C1965.37 39.7277 1962.06 35.8514 1955.44 35.8514C1952.1 35.8514 1949.2 36.9546 1946.76 39.1611C1944.31 41.3677 1943.09 44.4389 1943.09 48.3749V77H1935.67ZM2017.08 93.2805V30.2158H2024.51V38.0877C2025.94 35.7023 2028.12 33.6747 2031.04 32.0049C2033.96 30.2754 2037.06 29.4107 2040.34 29.4107C2046.6 29.4107 2051.7 31.5576 2055.64 35.8514C2059.63 40.0855 2061.63 45.7807 2061.63 52.937V53.6526C2061.63 60.8685 2059.66 66.7128 2055.73 71.1855C2051.85 75.5986 2046.72 77.8051 2040.34 77.8051C2036.7 77.8051 2033.51 77.0298 2030.77 75.4793C2028.03 73.8691 2025.94 71.8117 2024.51 69.307V93.2805H2017.08ZM2039.63 71.6328C2044.28 71.6328 2047.83 70.1121 2050.27 67.0707C2052.72 64.0292 2053.94 59.6758 2053.94 54.0104V53.2948C2053.94 47.6294 2052.57 43.276 2049.82 40.2346C2047.14 37.1335 2043.71 35.583 2039.54 35.583C2035 35.583 2031.31 37.1037 2028.44 40.1451C2025.64 43.1269 2024.24 47.5101 2024.24 53.2948V54.0104C2024.24 59.7951 2025.61 64.1783 2028.36 67.1601C2031.16 70.1419 2034.92 71.6328 2039.63 71.6328ZM2092.31 77.8051C2085.63 77.8051 2080.17 75.6582 2075.94 71.3644C2071.77 67.011 2069.68 61.2562 2069.68 54.0999V53.3843C2069.68 46.3472 2071.71 40.5924 2075.76 36.1197C2079.88 31.647 2085.15 29.4107 2091.59 29.4107C2097.56 29.4107 2102.54 31.3489 2106.53 35.2252C2110.59 39.0419 2112.62 44.8564 2112.62 52.6686V55.0839H2077.37C2077.55 60.4511 2078.89 64.566 2081.4 67.4285C2083.96 70.2313 2087.63 71.6328 2092.4 71.6328C2099.73 71.6328 2103.88 68.9194 2104.83 63.4925H2112.26C2111.48 68.0845 2109.31 71.6328 2105.73 74.1375C2102.15 76.5826 2097.68 77.8051 2092.31 77.8051ZM2077.64 49.0905H2105.01C2104.36 40.0855 2099.88 35.583 2091.59 35.583C2087.84 35.583 2084.74 36.8055 2082.29 39.2506C2079.85 41.636 2078.3 44.916 2077.64 49.0905ZM2138.23 77.6262C2134.12 77.6262 2130.99 76.5229 2128.84 74.3164C2126.69 72.1099 2125.62 69.0983 2125.62 65.2816V36.4775H2118.91V30.2158H2125.62V19.5708H2133.04V30.2158H2143.96V36.4775H2133.04V64.566C2133.04 69.0983 2134.98 71.3644 2138.86 71.3644C2141.01 71.3644 2142.91 71.0364 2144.58 70.3804V76.6422C2142.73 77.2982 2140.62 77.6262 2138.23 77.6262ZM2155.99 77V30.2158H2163.41V77H2155.99ZM2162.96 19.0341C2162.01 19.9883 2160.88 20.4654 2159.56 20.4654C2158.25 20.4654 2157.09 19.9883 2156.08 19.0341C2155.12 18.0799 2154.64 16.917 2154.64 15.5454C2154.64 14.1738 2155.12 13.0109 2156.08 12.0567C2157.09 11.1025 2158.25 10.6255 2159.56 10.6255C2160.88 10.6255 2162.01 11.1025 2162.96 12.0567C2163.98 13.0109 2164.48 14.1738 2164.48 15.5454C2164.48 16.917 2163.98 18.0799 2162.96 19.0341ZM2192.83 77.6262C2188.72 77.6262 2185.58 76.5229 2183.44 74.3164C2181.29 72.1099 2180.22 69.0983 2180.22 65.2816V36.4775H2173.51V30.2158H2180.22V19.5708H2187.64V30.2158H2198.56V36.4775H2187.64V64.566C2187.64 69.0983 2189.58 71.3644 2193.46 71.3644C2195.6 71.3644 2197.51 71.0364 2199.18 70.3804V76.6422C2197.33 77.2982 2195.22 77.6262 2192.83 77.6262ZM2229.91 71.6328C2234.56 71.6328 2238.25 70.0226 2241 66.8023C2243.8 63.582 2245.2 59.318 2245.2 54.0104V53.3843C2245.2 47.9574 2243.8 43.6338 2241 40.4135C2238.25 37.1932 2234.56 35.583 2229.91 35.583C2225.19 35.583 2221.47 37.1932 2218.72 40.4135C2215.98 43.6338 2214.61 47.9276 2214.61 53.2948V54.0104C2214.61 59.3776 2215.98 63.6714 2218.72 66.8917C2221.47 70.0524 2225.19 71.6328 2229.91 71.6328ZM2229.82 77.8051C2223.2 77.8051 2217.71 75.5687 2213.36 71.0961C2209.06 66.5638 2206.92 60.8685 2206.92 54.0104V53.2948C2206.92 46.3174 2209.06 40.5924 2213.36 36.1197C2217.71 31.647 2223.23 29.4107 2229.91 29.4107C2236.59 29.4107 2242.07 31.647 2246.37 36.1197C2250.72 40.5328 2252.9 46.228 2252.9 53.2054V53.921C2252.9 60.958 2250.72 66.7128 2246.37 71.1855C2242.01 75.5986 2236.5 77.8051 2229.82 77.8051ZM2264.39 77V30.2158H2271.82V38.6244C2273.43 35.7023 2275.39 33.4659 2277.72 31.9154C2280.11 30.3649 2283.27 29.53 2287.2 29.4107V36.3881C2282.07 36.6266 2278.23 37.8193 2275.66 39.9662C2273.1 42.1131 2271.82 45.9 2271.82 51.3268V77H2264.39ZM2312.08 77.8051C2306.47 77.8051 2302.06 76.4633 2298.84 73.7797C2295.68 71.0961 2293.98 67.3688 2293.74 62.598H2300.99C2301.58 68.6212 2305.25 71.6328 2311.99 71.6328C2318.79 71.6328 2322.19 69.1579 2322.19 64.2081C2322.19 61.8823 2321.32 60.1827 2319.59 59.1093C2317.92 57.9762 2315.15 57.0519 2311.27 56.3362C2305.19 55.2032 2300.96 53.6526 2298.57 51.6846C2296.19 49.657 2294.99 46.6156 2294.99 42.5604C2294.99 38.5052 2296.6 35.3146 2299.82 32.9889C2303.1 30.6034 2306.77 29.4107 2310.83 29.4107C2320.96 29.4107 2326.6 33.9132 2327.73 42.9182H2320.58C2320.04 40.3539 2319 38.5052 2317.45 37.3721C2315.9 36.1794 2313.66 35.583 2310.74 35.583C2308.05 35.583 2305.91 36.2092 2304.3 37.4615C2302.69 38.6542 2301.88 40.2644 2301.88 42.292C2301.88 44.4389 2302.63 46.0193 2304.12 47.0331C2305.67 48.0469 2308.56 48.9414 2312.79 49.7167C2315.6 50.2534 2317.83 50.7901 2319.5 51.3268C2321.23 51.8039 2322.9 52.5494 2324.51 53.5632C2326.18 54.577 2327.38 55.9188 2328.09 57.5886C2328.87 59.1987 2329.25 61.1965 2329.25 63.582C2329.25 67.9354 2327.76 71.3942 2324.78 73.9586C2321.86 76.5229 2317.62 77.8051 2312.08 77.8051Z" fill="black"/>
<path d="M370.691 1266.57C366.645 1266.57 363.529 1265.57 361.343 1263.56C359.192 1261.56 357.972 1258.88 357.68 1255.53H362.217C362.655 1257.9 363.475 1259.7 364.677 1260.94C365.88 1262.14 367.866 1262.74 370.636 1262.74C373.296 1262.74 375.392 1261.9 376.922 1260.23C378.453 1258.55 379.218 1256.24 379.218 1253.29C379.218 1250.52 378.471 1248.31 376.977 1246.67C375.483 1244.99 373.497 1244.16 371.019 1244.16C367.083 1244.16 364.003 1245.41 361.78 1247.93H360.031V1226.99H382.006V1231.09H363.967V1243.01C365.898 1241.22 368.559 1240.33 371.948 1240.33C375.519 1240.33 378.435 1241.51 380.694 1243.88C382.954 1246.22 384.084 1249.35 384.084 1253.29C384.084 1257.29 382.808 1260.52 380.257 1262.96C377.706 1265.37 374.517 1266.57 370.691 1266.57Z" fill="black"/>
<path d="M343.516 1027.54V993.15L334.77 999.437V995.009L343.844 988.449H348.272V1027.54H343.516ZM373.605 1024.09C376.995 1024.09 379.564 1022.82 381.313 1020.26C383.063 1017.68 383.937 1013.91 383.937 1008.95V1006.76C383.937 1002.17 383.008 998.526 381.149 995.829C379.327 993.132 376.776 991.784 373.496 991.784C370.18 991.784 367.592 993.114 365.733 995.774C363.875 998.398 362.945 1002.1 362.945 1006.87V1009.06C362.945 1013.91 363.893 1017.62 365.788 1020.21C367.683 1022.8 370.289 1024.09 373.605 1024.09ZM373.605 1028.03C368.94 1028.03 365.187 1026.3 362.344 1022.83C359.501 1019.37 358.08 1014.8 358.08 1009.11V1006.93C358.08 1001.13 359.447 996.521 362.18 993.096C364.95 989.67 368.722 987.957 373.496 987.957C378.234 987.957 381.951 989.688 384.648 993.15C387.381 996.612 388.748 1001.17 388.748 1006.82V1009C388.748 1014.76 387.399 1019.37 384.703 1022.83C382.042 1026.3 378.343 1028.03 373.605 1028.03Z" fill="black"/>
<path d="M348.486 788.991V754.606L339.74 760.893V756.465L348.814 749.905H353.242V788.991H348.486ZM375.131 789.483C371.086 789.483 367.97 788.481 365.783 786.477C363.633 784.472 362.412 781.794 362.121 778.441H366.658C367.095 780.81 367.915 782.614 369.118 783.853C370.32 785.055 372.307 785.657 375.076 785.657C377.737 785.657 379.832 784.818 381.363 783.142C382.894 781.466 383.659 779.151 383.659 776.199C383.659 773.43 382.912 771.225 381.418 769.585C379.923 767.908 377.937 767.07 375.459 767.07C371.523 767.07 368.444 768.327 366.221 770.842H364.471V749.905H386.447V754.005H368.407V765.922C370.339 764.136 372.999 763.244 376.388 763.244C379.96 763.244 382.875 764.428 385.135 766.797C387.395 769.129 388.524 772.263 388.524 776.199C388.524 780.208 387.249 783.433 384.698 785.875C382.147 788.281 378.958 789.483 375.131 789.483Z" fill="black"/>
<path d="M326.55 550.45V549.357L342.075 533.012C345.829 529.039 347.706 525.267 347.706 521.696C347.706 519.509 347.086 517.796 345.847 516.557C344.645 515.318 342.932 514.699 340.709 514.699C335.934 514.699 333.183 517.596 332.454 523.39H328.026C328.318 519.527 329.575 516.484 331.798 514.261C334.058 512.002 337.028 510.872 340.709 510.872C344.317 510.872 347.177 511.874 349.291 513.879C351.441 515.847 352.517 518.507 352.517 521.86C352.517 526.197 349.893 530.934 344.645 536.073L333.875 546.569H352.735V550.45H326.55ZM374.319 547.006C377.708 547.006 380.277 545.731 382.027 543.18C383.776 540.592 384.651 536.82 384.651 531.864V529.677C384.651 525.085 383.721 521.441 381.863 518.744C380.041 516.047 377.489 514.699 374.21 514.699C370.893 514.699 368.306 516.029 366.447 518.689C364.588 521.313 363.659 525.012 363.659 529.786V531.973C363.659 536.82 364.607 540.537 366.502 543.125C368.397 545.712 371.002 547.006 374.319 547.006ZM374.319 550.942C369.654 550.942 365.9 549.211 363.058 545.749C360.215 542.287 358.794 537.713 358.794 532.028V529.841C358.794 524.046 360.16 519.436 362.894 516.011C365.663 512.585 369.435 510.872 374.21 510.872C378.947 510.872 382.665 512.603 385.361 516.065C388.095 519.527 389.461 524.083 389.461 529.732V531.918C389.461 537.677 388.113 542.287 385.416 545.749C382.756 549.211 379.057 550.942 374.319 550.942Z" fill="black"/>
<path d="M334.004 311.906V310.813L349.53 294.468C353.283 290.495 355.16 286.723 355.16 283.152C355.16 280.965 354.541 279.252 353.302 278.013C352.099 276.774 350.386 276.155 348.163 276.155C343.389 276.155 340.637 279.052 339.908 284.847H335.48C335.772 280.983 337.029 277.94 339.252 275.717C341.512 273.458 344.482 272.328 348.163 272.328C351.771 272.328 354.632 273.33 356.746 275.335C358.896 277.303 359.971 279.963 359.971 283.316C359.971 287.653 357.347 292.39 352.099 297.529L341.33 308.025H360.19V311.906H334.004ZM378.596 312.398C374.551 312.398 371.435 311.396 369.248 309.392C367.098 307.387 365.877 304.709 365.586 301.356H370.123C370.56 303.725 371.38 305.529 372.583 306.768C373.786 307.97 375.772 308.572 378.542 308.572C381.202 308.572 383.297 307.733 384.828 306.057C386.359 304.381 387.124 302.066 387.124 299.114C387.124 296.345 386.377 294.14 384.883 292.5C383.389 290.823 381.402 289.985 378.924 289.985C374.988 289.985 371.909 291.242 369.686 293.757H367.936V272.82H389.912V276.92H371.872V288.837C373.804 287.051 376.464 286.159 379.853 286.159C383.425 286.159 386.341 287.343 388.6 289.712C390.86 292.044 391.989 295.178 391.989 299.114C391.989 303.123 390.714 306.349 388.163 308.79C385.612 311.196 382.423 312.398 378.596 312.398Z" fill="black"/>
<path d="M374.134 1501.18C377.524 1501.18 380.093 1499.9 381.842 1497.35C383.592 1494.76 384.466 1490.99 384.466 1486.04V1483.85C384.466 1479.26 383.537 1475.61 381.678 1472.92C379.856 1470.22 377.305 1468.87 374.025 1468.87C370.709 1468.87 368.121 1470.2 366.263 1472.86C364.404 1475.49 363.475 1479.18 363.475 1483.96V1486.14C363.475 1490.99 364.422 1494.71 366.317 1497.3C368.212 1499.88 370.818 1501.18 374.134 1501.18ZM374.134 1505.11C369.47 1505.11 365.716 1503.38 362.873 1499.92C360.031 1496.46 358.609 1491.88 358.609 1486.2V1484.01C358.609 1478.22 359.976 1473.61 362.709 1470.18C365.479 1466.76 369.251 1465.04 374.025 1465.04C378.763 1465.04 382.48 1466.77 385.177 1470.24C387.91 1473.7 389.277 1478.25 389.277 1483.9V1486.09C389.277 1491.85 387.929 1496.46 385.232 1499.92C382.571 1503.38 378.872 1505.11 374.134 1505.11Z" fill="black"/>
</svg>
