<svg width="2560" height="1914" viewBox="0 0 2560 1914" fill="none" xmlns="http://www.w3.org/2000/svg">
<path d="M380.63 1313.78C376.584 1313.78 373.468 1312.78 371.282 1310.77C369.132 1308.77 367.911 1306.09 367.619 1302.74H372.156C372.594 1305.11 373.414 1306.91 374.616 1308.15C375.819 1309.35 377.805 1309.95 380.575 1309.95C383.235 1309.95 385.331 1309.12 386.862 1307.44C388.392 1305.76 389.158 1303.45 389.158 1300.5C389.158 1297.73 388.411 1295.52 386.916 1293.88C385.422 1292.21 383.436 1291.37 380.958 1291.37C377.022 1291.37 373.942 1292.63 371.719 1295.14H369.97V1274.2H391.946V1278.3H373.906V1290.22C375.837 1288.43 378.498 1287.54 381.887 1287.54C385.459 1287.54 388.374 1288.73 390.634 1291.09C392.893 1293.43 394.023 1296.56 394.023 1300.5C394.023 1304.51 392.747 1307.73 390.196 1310.17C387.645 1312.58 384.456 1313.78 380.63 1313.78Z" fill="black"/>
<path d="M353.456 1074.75V1040.36L344.709 1046.65V1042.22L353.784 1035.66H358.212V1074.75H353.456ZM383.545 1071.3C386.934 1071.3 389.503 1070.03 391.252 1067.48C393.002 1064.89 393.876 1061.12 393.876 1056.16V1053.97C393.876 1049.38 392.947 1045.74 391.088 1043.04C389.266 1040.34 386.715 1038.99 383.435 1038.99C380.119 1038.99 377.531 1040.32 375.673 1042.99C373.814 1045.61 372.885 1049.31 372.885 1054.08V1056.27C372.885 1061.12 373.832 1064.83 375.727 1067.42C377.622 1070.01 380.228 1071.3 383.545 1071.3ZM383.545 1075.24C378.88 1075.24 375.126 1073.51 372.283 1070.04C369.441 1066.58 368.019 1062.01 368.019 1056.32V1054.14C368.019 1048.34 369.386 1043.73 372.119 1040.31C374.889 1036.88 378.661 1035.17 383.435 1035.17C388.173 1035.17 391.89 1036.9 394.587 1040.36C397.32 1043.82 398.687 1048.38 398.687 1054.03V1056.21C398.687 1061.97 397.339 1066.58 394.642 1070.04C391.981 1073.51 388.282 1075.24 383.545 1075.24Z" fill="black"/>
<path d="M358.425 836.204V801.819L349.679 808.106V803.678L358.753 797.118H363.181V836.204H358.425ZM385.07 836.696C381.025 836.696 377.909 835.694 375.722 833.689C373.572 831.685 372.351 829.006 372.06 825.654H376.597C377.034 828.022 377.854 829.826 379.057 831.065C380.26 832.268 382.246 832.869 385.016 832.869C387.676 832.869 389.772 832.031 391.302 830.355C392.833 828.678 393.598 826.364 393.598 823.412C393.598 820.642 392.851 818.438 391.357 816.798C389.863 815.121 387.876 814.283 385.398 814.283C381.462 814.283 378.383 815.54 376.16 818.055H374.41V797.118H396.386V801.218H378.346V813.135C380.278 811.349 382.938 810.456 386.328 810.456C389.899 810.456 392.815 811.641 395.074 814.01C397.334 816.342 398.463 819.476 398.463 823.412C398.463 827.421 397.188 830.646 394.637 833.088C392.086 835.493 388.897 836.696 385.07 836.696Z" fill="black"/>
<path d="M336.489 597.661V596.568L352.014 580.223C355.768 576.25 357.645 572.478 357.645 568.907C357.645 566.72 357.026 565.007 355.786 563.768C354.584 562.529 352.871 561.91 350.648 561.91C345.874 561.91 343.122 564.807 342.393 570.601H337.965C338.257 566.738 339.514 563.695 341.737 561.472C343.997 559.213 346.967 558.083 350.648 558.083C354.256 558.083 357.117 559.085 359.23 561.09C361.381 563.058 362.456 565.718 362.456 569.071C362.456 573.408 359.832 578.145 354.584 583.284L343.815 593.78H362.674V597.661H336.489ZM384.258 594.217C387.647 594.217 390.217 592.942 391.966 590.391C393.715 587.803 394.59 584.031 394.59 579.075V576.888C394.59 572.296 393.661 568.652 391.802 565.955C389.98 563.258 387.429 561.91 384.149 561.91C380.832 561.91 378.245 563.24 376.386 565.9C374.528 568.524 373.598 572.223 373.598 576.997V579.184C373.598 584.031 374.546 587.748 376.441 590.336C378.336 592.923 380.942 594.217 384.258 594.217ZM384.258 598.153C379.593 598.153 375.839 596.422 372.997 592.96C370.154 589.498 368.733 584.924 368.733 579.239V577.052C368.733 571.257 370.1 566.647 372.833 563.222C375.603 559.796 379.375 558.083 384.149 558.083C388.886 558.083 392.604 559.814 395.301 563.276C398.034 566.738 399.401 571.294 399.401 576.943V579.129C399.401 584.887 398.052 589.498 395.355 592.96C392.695 596.422 388.996 598.153 384.258 598.153Z" fill="black"/>
<path d="M343.944 359.118V358.025L359.469 341.68C363.223 337.707 365.099 333.935 365.099 330.364C365.099 328.177 364.48 326.464 363.241 325.225C362.038 323.986 360.325 323.367 358.102 323.367C353.328 323.367 350.576 326.264 349.848 332.058H345.42C345.711 328.195 346.969 325.152 349.192 322.929C351.451 320.67 354.421 319.54 358.102 319.54C361.71 319.54 364.571 320.542 366.685 322.547C368.835 324.515 369.91 327.175 369.91 330.528C369.91 334.865 367.286 339.602 362.038 344.741L351.269 355.237H370.129V359.118H343.944ZM388.535 359.61C384.49 359.61 381.374 358.608 379.187 356.604C377.037 354.599 375.816 351.92 375.525 348.568H380.062C380.499 350.936 381.319 352.74 382.522 353.98C383.725 355.182 385.711 355.784 388.481 355.784C391.141 355.784 393.237 354.945 394.767 353.269C396.298 351.592 397.063 349.278 397.063 346.326C397.063 343.557 396.316 341.352 394.822 339.712C393.328 338.035 391.342 337.197 388.863 337.197C384.927 337.197 381.848 338.454 379.625 340.969H377.875V320.032H399.851V324.132H381.811V336.049C383.743 334.263 386.403 333.37 389.793 333.37C393.364 333.37 396.28 334.555 398.539 336.924C400.799 339.256 401.929 342.39 401.929 346.326C401.929 350.335 400.653 353.56 398.102 356.002C395.551 358.408 392.362 359.61 388.535 359.61Z" fill="black"/>
<path d="M384.074 1548.39C387.463 1548.39 390.032 1547.11 391.782 1544.56C393.531 1541.97 394.406 1538.2 394.406 1533.25V1531.06C394.406 1526.47 393.476 1522.82 391.618 1520.13C389.795 1517.43 387.244 1516.08 383.964 1516.08C380.648 1516.08 378.06 1517.41 376.202 1520.07C374.343 1522.7 373.414 1526.4 373.414 1531.17V1533.36C373.414 1538.2 374.361 1541.92 376.256 1544.51C378.152 1547.1 380.757 1548.39 384.074 1548.39ZM384.074 1552.33C379.409 1552.33 375.655 1550.59 372.812 1547.13C369.97 1543.67 368.549 1539.1 368.549 1533.41V1531.22C368.549 1525.43 369.915 1520.82 372.648 1517.39C375.418 1513.97 379.19 1512.25 383.964 1512.25C388.702 1512.25 392.419 1513.99 395.116 1517.45C397.85 1520.91 399.216 1525.47 399.216 1531.11V1533.3C399.216 1539.06 397.868 1543.67 395.171 1547.13C392.51 1550.59 388.811 1552.33 384.074 1552.33Z" fill="black"/>
<path d="M544.772 77V13.0407H552.554V42.0237H586.189V13.0407H593.971V77H586.189V48.5538H552.554V77H544.772ZM629.079 71.6328C633.731 71.6328 637.428 70.0226 640.171 66.8023C642.974 63.582 644.376 59.318 644.376 54.0104V53.3843C644.376 47.9574 642.974 43.6338 640.171 40.4135C637.428 37.1932 633.731 35.583 629.079 35.583C624.368 35.583 620.641 37.1932 617.897 40.4135C615.154 43.6338 613.783 47.9276 613.783 53.2948V54.0104C613.783 59.3776 615.154 63.6714 617.897 66.8917C620.641 70.0524 624.368 71.6328 629.079 71.6328ZM628.99 77.8051C622.37 77.8051 616.884 75.5687 612.53 71.0961C608.237 66.5638 606.09 60.8685 606.09 54.0104V53.2948C606.09 46.3174 608.237 40.5924 612.53 36.1197C616.884 31.647 622.4 29.4107 629.079 29.4107C635.758 29.4107 641.245 31.647 645.539 36.1197C649.892 40.5328 652.069 46.228 652.069 53.2054V53.921C652.069 60.958 649.892 66.7128 645.539 71.1855C641.185 75.5986 635.669 77.8051 628.99 77.8051ZM672.084 77L657.682 30.2158H665.733L676.646 67.8757L688.007 30.2158H694.447L705.092 67.8757L716.095 30.2158H723.699L709.118 77H700.888L691.138 41.9342L680.224 77H672.084ZM775.009 77.8051C768.747 77.8051 763.648 75.7178 759.712 71.5433C755.836 67.3688 753.898 61.7034 753.898 54.5472V53.8315C753.898 46.6752 755.925 40.8309 759.98 36.2986C764.036 31.7067 769.284 29.4107 775.724 29.4107C782.642 29.4107 787.741 32.1838 791.021 37.7299V7.8524H798.446V77H791.021V68.9492C789.59 71.3346 787.383 73.4219 784.401 75.2109C781.42 76.9404 778.289 77.8051 775.009 77.8051ZM775.814 71.6328C780.406 71.6328 784.133 70.1419 786.995 67.1601C789.858 64.1187 791.289 59.7056 791.289 53.921V53.2054C791.289 47.3611 789.977 42.9778 787.353 40.0557C784.789 37.0739 781.151 35.583 776.44 35.583C771.788 35.583 768.151 37.1633 765.527 40.324C762.903 43.4251 761.591 47.8083 761.591 53.4737V54.1893C761.591 59.8547 762.903 64.1783 765.527 67.1601C768.21 70.1419 771.639 71.6328 775.814 71.6328ZM832.97 71.6328C837.622 71.6328 841.319 70.0226 844.063 66.8023C846.866 63.582 848.267 59.318 848.267 54.0104V53.3843C848.267 47.9574 846.866 43.6338 844.063 40.4135C841.319 37.1932 837.622 35.583 832.97 35.583C828.259 35.583 824.532 37.1932 821.789 40.4135C819.045 43.6338 817.674 47.9276 817.674 53.2948V54.0104C817.674 59.3776 819.045 63.6714 821.789 66.8917C824.532 70.0524 828.259 71.6328 832.97 71.6328ZM832.881 77.8051C826.261 77.8051 820.775 75.5687 816.421 71.0961C812.128 66.5638 809.981 60.8685 809.981 54.0104V53.2948C809.981 46.3174 812.128 40.5924 816.421 36.1197C820.775 31.647 826.291 29.4107 832.97 29.4107C839.65 29.4107 845.136 31.647 849.43 36.1197C853.783 40.5328 855.96 46.228 855.96 53.2054V53.921C855.96 60.958 853.783 66.7128 849.43 71.1855C845.076 75.5986 839.56 77.8051 832.881 77.8051ZM906.963 77.8051C902.013 77.8051 898.048 76.344 895.066 73.4219C892.144 70.4997 890.683 65.9674 890.683 59.8249V30.2158H898.107V59.4671C898.107 63.582 898.972 66.5936 900.701 68.5019C902.49 70.4103 905.234 71.3644 908.931 71.3644C912.45 71.3644 915.461 70.2313 917.966 67.9652C920.53 65.699 921.812 62.5682 921.812 58.5726V30.2158H929.237V77H921.812V69.5754C920.679 71.9608 918.801 73.9288 916.177 75.4793C913.613 77.0298 910.541 77.8051 906.963 77.8051ZM958.734 77.8051C953.129 77.8051 948.716 76.4633 945.495 73.7797C942.335 71.0961 940.635 67.3688 940.396 62.598H947.642C948.239 68.6212 951.906 71.6328 958.645 71.6328C965.443 71.6328 968.843 69.1579 968.843 64.2081C968.843 61.8823 967.978 60.1827 966.248 59.1093C964.579 57.9762 961.806 57.0519 957.929 56.3362C951.846 55.2032 947.612 53.6526 945.227 51.6846C942.841 49.657 941.649 46.6156 941.649 42.5604C941.649 38.5052 943.259 35.3146 946.479 32.9889C949.759 30.6034 953.427 29.4107 957.482 29.4107C967.62 29.4107 973.256 33.9132 974.389 42.9182H967.232C966.696 40.3539 965.652 38.5052 964.102 37.3721C962.551 36.1794 960.315 35.583 957.393 35.583C954.709 35.583 952.562 36.2092 950.952 37.4615C949.342 38.6542 948.537 40.2644 948.537 42.292C948.537 44.4389 949.282 46.0193 950.773 47.0331C952.324 48.0469 955.216 48.9414 959.45 49.7167C962.253 50.2534 964.489 50.7901 966.159 51.3268C967.888 51.8039 969.558 52.5494 971.168 53.5632C972.838 54.577 974.031 55.9188 974.747 57.5886C975.522 59.1987 975.909 61.1965 975.909 63.582C975.909 67.9354 974.419 71.3942 971.437 73.9586C968.515 76.5229 964.281 77.8051 958.734 77.8051ZM1006.37 77.8051C999.686 77.8051 994.23 75.6582 989.996 71.3644C985.821 67.011 983.734 61.2562 983.734 54.0999V53.3843C983.734 46.3472 985.761 40.5924 989.817 36.1197C993.932 31.647 999.209 29.4107 1005.65 29.4107C1011.61 29.4107 1016.59 31.3489 1020.59 35.2252C1024.64 39.0419 1026.67 44.8564 1026.67 52.6686V55.0839H991.427C991.606 60.4511 992.948 64.566 995.452 67.4285C998.017 70.2313 1001.68 71.6328 1006.46 71.6328C1013.79 71.6328 1017.93 68.9194 1018.89 63.4925H1026.31C1025.54 68.0845 1023.36 71.6328 1019.78 74.1375C1016.21 76.5826 1011.73 77.8051 1006.37 77.8051ZM991.695 49.0905H1019.07C1018.41 40.0855 1013.94 35.583 1005.65 35.583C1001.89 35.583 998.792 36.8055 996.347 39.2506C993.902 41.636 992.351 44.916 991.695 49.0905ZM1038.06 77V30.2158H1045.49V38.6244C1047.1 35.7023 1049.07 33.4659 1051.39 31.9154C1053.78 30.3649 1056.94 29.53 1060.87 29.4107V36.3881C1055.75 36.6266 1051.9 37.8193 1049.34 39.9662C1046.77 42.1131 1045.49 45.9 1045.49 51.3268V77H1038.06ZM1085.75 77.8051C1080.15 77.8051 1075.73 76.4633 1072.51 73.7797C1069.35 71.0961 1067.65 67.3688 1067.41 62.598H1074.66C1075.26 68.6212 1078.92 71.6328 1085.66 71.6328C1092.46 71.6328 1095.86 69.1579 1095.86 64.2081C1095.86 61.8823 1094.99 60.1827 1093.27 59.1093C1091.6 57.9762 1088.82 57.0519 1084.95 56.3362C1078.86 55.2032 1074.63 53.6526 1072.24 51.6846C1069.86 49.657 1068.67 46.6156 1068.67 42.5604C1068.67 38.5052 1070.28 35.3146 1073.5 32.9889C1076.78 30.6034 1080.44 29.4107 1084.5 29.4107C1094.64 29.4107 1100.27 33.9132 1101.41 42.9182H1094.25C1093.71 40.3539 1092.67 38.5052 1091.12 37.3721C1089.57 36.1794 1087.33 35.583 1084.41 35.583C1081.73 35.583 1079.58 36.2092 1077.97 37.4615C1076.36 38.6542 1075.55 40.2644 1075.55 42.292C1075.55 44.4389 1076.3 46.0193 1077.79 47.0331C1079.34 48.0469 1082.23 48.9414 1086.47 49.7167C1089.27 50.2534 1091.51 50.7901 1093.18 51.3268C1094.91 51.8039 1096.58 52.5494 1098.19 53.5632C1099.86 54.577 1101.05 55.9188 1101.76 57.5886C1102.54 59.1987 1102.93 61.1965 1102.93 63.582C1102.93 67.9354 1101.44 71.3942 1098.45 73.9586C1095.53 76.5229 1091.3 77.8051 1085.75 77.8051ZM1138.09 77V7.8524H1145.61V77H1138.09ZM1172.52 77.8051C1167.93 77.8051 1164.17 76.672 1161.25 74.4058C1158.39 72.0801 1156.95 68.6212 1156.95 64.0292C1156.95 59.0198 1159.16 55.3522 1163.57 53.0264C1168.05 50.7007 1173.65 49.5378 1180.39 49.5378H1187.1V46.1385C1187.1 42.3815 1186.32 39.6979 1184.77 38.0877C1183.22 36.4179 1180.66 35.583 1177.08 35.583C1170.64 35.583 1167.06 38.3859 1166.35 43.9916H1158.92C1159.4 38.9822 1161.37 35.3146 1164.83 32.9889C1168.29 30.6034 1172.49 29.4107 1177.44 29.4107C1188.83 29.4107 1194.52 34.9866 1194.52 46.1385V77H1187.1V71.0961C1183.52 75.5687 1178.66 77.8051 1172.52 77.8051ZM1173.23 71.9011C1177.29 71.9011 1180.6 70.9172 1183.16 68.9492C1185.79 66.9216 1187.1 64.1485 1187.1 60.63V54.8155H1180.66C1169.81 54.8155 1164.38 57.8868 1164.38 64.0292C1164.38 69.2772 1167.33 71.9011 1173.23 71.9011ZM1209.11 77V30.2158H1216.53V37.6404C1217.67 35.255 1219.55 33.287 1222.17 31.7365C1224.79 30.186 1227.92 29.4107 1231.56 29.4107C1236.69 29.4107 1240.72 30.9314 1243.64 33.9728C1246.56 37.0143 1248.02 41.7851 1248.02 48.2854V77H1240.6V47.7487C1240.6 43.6338 1239.7 40.6222 1237.91 38.7139C1236.12 36.8055 1233.35 35.8514 1229.59 35.8514C1225.96 35.8514 1222.86 36.9844 1220.29 39.2506C1217.79 41.5168 1216.53 44.6476 1216.53 48.6432V77H1209.11ZM1280.19 77.8051C1273.93 77.8051 1268.83 75.7178 1264.9 71.5433C1261.02 67.3688 1259.08 61.7034 1259.08 54.5472V53.8315C1259.08 46.6752 1261.11 40.8309 1265.17 36.2986C1269.22 31.7067 1274.47 29.4107 1280.91 29.4107C1287.83 29.4107 1292.93 32.1838 1296.21 37.7299V7.8524H1303.63V77H1296.21V68.9492C1294.78 71.3346 1292.57 73.4219 1289.59 75.2109C1286.6 76.9404 1283.47 77.8051 1280.19 77.8051ZM1281 71.6328C1285.59 71.6328 1289.32 70.1419 1292.18 67.1601C1295.04 64.1187 1296.47 59.7056 1296.47 53.921V53.2054C1296.47 47.3611 1295.16 42.9778 1292.54 40.0557C1289.97 37.0739 1286.34 35.583 1281.63 35.583C1276.97 35.583 1273.34 37.1633 1270.71 40.324C1268.09 43.4251 1266.78 47.8083 1266.78 53.4737V54.1893C1266.78 59.8547 1268.09 64.1783 1270.71 67.1601C1273.4 70.1419 1276.82 71.6328 1281 71.6328ZM1361.83 71.6328C1366.48 71.6328 1370.18 70.0226 1372.92 66.8023C1375.72 63.582 1377.13 59.318 1377.13 54.0104V53.3843C1377.13 47.9574 1375.72 43.6338 1372.92 40.4135C1370.18 37.1932 1366.48 35.583 1361.83 35.583C1357.12 35.583 1353.39 37.1932 1350.65 40.4135C1347.9 43.6338 1346.53 47.9276 1346.53 53.2948V54.0104C1346.53 59.3776 1347.9 63.6714 1350.65 66.8917C1353.39 70.0524 1357.12 71.6328 1361.83 71.6328ZM1361.74 77.8051C1355.12 77.8051 1349.63 75.5687 1345.28 71.0961C1340.99 66.5638 1338.84 60.8685 1338.84 54.0104V53.2948C1338.84 46.3174 1340.99 40.5924 1345.28 36.1197C1349.63 31.647 1355.15 29.4107 1361.83 29.4107C1368.51 29.4107 1374 31.647 1378.29 36.1197C1382.64 40.5328 1384.82 46.228 1384.82 53.2054V53.921C1384.82 60.958 1382.64 66.7128 1378.29 71.1855C1373.94 75.5986 1368.42 77.8051 1361.74 77.8051ZM1396.32 77V30.2158H1403.74V37.6404C1404.87 35.255 1406.75 33.287 1409.38 31.7365C1412 30.186 1415.13 29.4107 1418.77 29.4107C1423.9 29.4107 1427.92 30.9314 1430.84 33.9728C1433.77 37.0143 1435.23 41.7851 1435.23 48.2854V77H1427.8V47.7487C1427.8 43.6338 1426.91 40.6222 1425.12 38.7139C1423.33 36.8055 1420.56 35.8514 1416.8 35.8514C1413.16 35.8514 1410.06 36.9844 1407.5 39.2506C1404.99 41.5168 1403.74 44.6476 1403.74 48.6432V77H1396.32ZM1485.17 77.8051C1480.58 77.8051 1476.82 76.672 1473.9 74.4058C1471.04 72.0801 1469.61 68.6212 1469.61 64.0292C1469.61 59.0198 1471.81 55.3522 1476.22 53.0264C1480.7 50.7007 1486.3 49.5378 1493.04 49.5378H1499.75V46.1385C1499.75 42.3815 1498.98 39.6979 1497.43 38.0877C1495.87 36.4179 1493.31 35.583 1489.73 35.583C1483.29 35.583 1479.71 38.3859 1479 43.9916H1471.57C1472.05 38.9822 1474.02 35.3146 1477.48 32.9889C1480.94 30.6034 1485.14 29.4107 1490.09 29.4107C1501.48 29.4107 1507.18 34.9866 1507.18 46.1385V77H1499.75V71.0961C1496.17 75.5687 1491.31 77.8051 1485.17 77.8051ZM1485.89 71.9011C1489.94 71.9011 1493.25 70.9172 1495.81 68.9492C1498.44 66.9216 1499.75 64.1485 1499.75 60.63V54.8155H1493.31C1482.46 54.8155 1477.03 57.8868 1477.03 64.0292C1477.03 69.2772 1479.98 71.9011 1485.89 71.9011ZM1547.04 77V36.4775H1540.33V30.2158H1547.04V22.6122C1547.04 17.7817 1548.21 14.0843 1550.53 11.52C1552.92 8.89603 1556.41 7.58404 1561 7.58404C1562.91 7.58404 1564.76 7.88222 1566.54 8.47858V14.7403C1564.87 14.0843 1563.12 13.7563 1561.27 13.7563C1556.73 13.7563 1554.47 16.4399 1554.47 21.8072V30.2158H1565.92V36.4775H1554.47V77H1547.04ZM1576.36 77V30.2158H1583.78V38.6244C1585.39 35.7023 1587.36 33.4659 1589.69 31.9154C1592.07 30.3649 1595.23 29.53 1599.17 29.4107V36.3881C1594.04 36.6266 1590.19 37.8193 1587.63 39.9662C1585.06 42.1131 1583.78 45.9 1583.78 51.3268V77H1576.36ZM1610.17 77V30.2158H1617.59V77H1610.17ZM1617.15 19.0341C1616.19 19.9883 1615.06 20.4654 1613.75 20.4654C1612.44 20.4654 1611.27 19.9883 1610.26 19.0341C1609.3 18.0799 1608.83 16.917 1608.83 15.5454C1608.83 14.1738 1609.3 13.0109 1610.26 12.0567C1611.27 11.1025 1612.44 10.6255 1613.75 10.6255C1615.06 10.6255 1616.19 11.1025 1617.15 12.0567C1618.16 13.0109 1618.67 14.1738 1618.67 15.5454C1618.67 16.917 1618.16 18.0799 1617.15 19.0341ZM1651.93 77.8051C1645.25 77.8051 1639.8 75.6582 1635.56 71.3644C1631.39 67.011 1629.3 61.2562 1629.3 54.0999V53.3843C1629.3 46.3472 1631.33 40.5924 1635.38 36.1197C1639.5 31.647 1644.78 29.4107 1651.22 29.4107C1657.18 29.4107 1662.16 31.3489 1666.16 35.2252C1670.21 39.0419 1672.24 44.8564 1672.24 52.6686V55.0839H1637C1637.17 60.4511 1638.52 64.566 1641.02 67.4285C1643.58 70.2313 1647.25 71.6328 1652.02 71.6328C1659.36 71.6328 1663.5 68.9194 1664.46 63.4925H1671.88C1671.11 68.0845 1668.93 71.6328 1665.35 74.1375C1661.77 76.5826 1657.3 77.8051 1651.93 77.8051ZM1637.26 49.0905H1664.64C1663.98 40.0855 1659.51 35.583 1651.22 35.583C1647.46 35.583 1644.36 36.8055 1641.91 39.2506C1639.47 41.636 1637.92 44.916 1637.26 49.0905ZM1683.63 77V30.2158H1691.06V37.6404C1692.19 35.255 1694.07 33.287 1696.69 31.7365C1699.32 30.186 1702.45 29.4107 1706.09 29.4107C1711.21 29.4107 1715.24 30.9314 1718.16 33.9728C1721.08 37.0143 1722.54 41.7851 1722.54 48.2854V77H1715.12V47.7487C1715.12 43.6338 1714.23 40.6222 1712.44 38.7139C1710.65 36.8055 1707.87 35.8514 1704.12 35.8514C1700.48 35.8514 1697.38 36.9844 1694.81 39.2506C1692.31 41.5168 1691.06 44.6476 1691.06 48.6432V77H1683.63ZM1754.72 77.8051C1748.46 77.8051 1743.36 75.7178 1739.42 71.5433C1735.54 67.3688 1733.61 61.7034 1733.61 54.5472V53.8315C1733.61 46.6752 1735.63 40.8309 1739.69 36.2986C1743.74 31.7067 1748.99 29.4107 1755.43 29.4107C1762.35 29.4107 1767.45 32.1838 1770.73 37.7299V7.8524H1778.15V77H1770.73V68.9492C1769.3 71.3346 1767.09 73.4219 1764.11 75.2109C1761.13 76.9404 1758 77.8051 1754.72 77.8051ZM1755.52 71.6328C1760.11 71.6328 1763.84 70.1419 1766.7 67.1601C1769.57 64.1187 1771 59.7056 1771 53.921V53.2054C1771 47.3611 1769.69 42.9778 1767.06 40.0557C1764.5 37.0739 1760.86 35.583 1756.15 35.583C1751.5 35.583 1747.86 37.1633 1745.24 40.324C1742.61 43.4251 1741.3 47.8083 1741.3 53.4737V54.1893C1741.3 59.8547 1742.61 64.1783 1745.24 67.1601C1747.92 70.1419 1751.35 71.6328 1755.52 71.6328ZM1794.43 33.3467L1789.87 31.0209L1797.83 12.0567L1804.9 15.277L1794.43 33.3467ZM1822.43 77.8051C1816.83 77.8051 1812.41 76.4633 1809.19 73.7797C1806.03 71.0961 1804.33 67.3688 1804.09 62.598H1811.34C1811.94 68.6212 1815.6 71.6328 1822.34 71.6328C1829.14 71.6328 1832.54 69.1579 1832.54 64.2081C1832.54 61.8823 1831.68 60.1827 1829.95 59.1093C1828.28 57.9762 1825.5 57.0519 1821.63 56.3362C1815.55 55.2032 1811.31 53.6526 1808.93 51.6846C1806.54 49.657 1805.35 46.6156 1805.35 42.5604C1805.35 38.5052 1806.96 35.3146 1810.18 32.9889C1813.46 30.6034 1817.13 29.4107 1821.18 29.4107C1831.32 29.4107 1836.95 33.9132 1838.09 42.9182H1830.93C1830.39 40.3539 1829.35 38.5052 1827.8 37.3721C1826.25 36.1794 1824.01 35.583 1821.09 35.583C1818.41 35.583 1816.26 36.2092 1814.65 37.4615C1813.04 38.6542 1812.24 40.2644 1812.24 42.292C1812.24 44.4389 1812.98 46.0193 1814.47 47.0331C1816.02 48.0469 1818.91 48.9414 1823.15 49.7167C1825.95 50.2534 1828.19 50.7901 1829.86 51.3268C1831.59 51.8039 1833.26 52.5494 1834.87 53.5632C1836.54 54.577 1837.73 55.9188 1838.45 57.5886C1839.22 59.1987 1839.61 61.1965 1839.61 63.582C1839.61 67.9354 1838.12 71.3942 1835.14 73.9586C1832.21 76.5229 1827.98 77.8051 1822.43 77.8051ZM1874.59 93.2805V30.2158H1882.02V38.0877C1883.45 35.7023 1885.63 33.6747 1888.55 32.0049C1891.47 30.2754 1894.57 29.4107 1897.85 29.4107C1904.11 29.4107 1909.21 31.5576 1913.15 35.8514C1917.14 40.0855 1919.14 45.7807 1919.14 52.937V53.6526C1919.14 60.8685 1917.17 66.7128 1913.24 71.1855C1909.36 75.5986 1904.23 77.8051 1897.85 77.8051C1894.21 77.8051 1891.02 77.0298 1888.28 75.4793C1885.54 73.8691 1883.45 71.8117 1882.02 69.307V93.2805H1874.59ZM1897.14 71.6328C1901.79 71.6328 1905.34 70.1121 1907.78 67.0707C1910.23 64.0292 1911.45 59.6758 1911.45 54.0104V53.2948C1911.45 47.6294 1910.08 43.276 1907.33 40.2346C1904.65 37.1335 1901.22 35.583 1897.05 35.583C1892.52 35.583 1888.82 37.1037 1885.96 40.1451C1883.15 43.1269 1881.75 47.5101 1881.75 53.2948V54.0104C1881.75 59.7951 1883.12 64.1783 1885.87 67.1601C1888.67 70.1419 1892.43 71.6328 1897.14 71.6328ZM1930.68 77V30.2158H1938.1V38.6244C1939.71 35.7023 1941.68 33.4659 1944.01 31.9154C1946.39 30.3649 1949.55 29.53 1953.49 29.4107V36.3881C1948.36 36.6266 1944.51 37.8193 1941.95 39.9662C1939.38 42.1131 1938.1 45.9 1938.1 51.3268V77H1930.68ZM1982.5 71.6328C1987.15 71.6328 1990.85 70.0226 1993.59 66.8023C1996.4 63.582 1997.8 59.318 1997.8 54.0104V53.3843C1997.8 47.9574 1996.4 43.6338 1993.59 40.4135C1990.85 37.1932 1987.15 35.583 1982.5 35.583C1977.79 35.583 1974.06 37.1932 1971.32 40.4135C1968.58 43.6338 1967.2 47.9276 1967.2 53.2948V54.0104C1967.2 59.3776 1968.58 63.6714 1971.32 66.8917C1974.06 70.0524 1977.79 71.6328 1982.5 71.6328ZM1982.41 77.8051C1975.79 77.8051 1970.31 75.5687 1965.95 71.0961C1961.66 66.5638 1959.51 60.8685 1959.51 54.0104V53.2948C1959.51 46.3174 1961.66 40.5924 1965.95 36.1197C1970.31 31.647 1975.82 29.4107 1982.5 29.4107C1989.18 29.4107 1994.67 31.647 1998.96 36.1197C2003.31 40.5328 2005.49 46.228 2005.49 53.2054V53.921C2005.49 60.958 2003.31 66.7128 1998.96 71.1855C1994.61 75.5986 1989.09 77.8051 1982.41 77.8051ZM2018.6 77V36.4775H2011.89V30.2158H2018.6V22.6122C2018.6 17.7817 2019.76 14.0843 2022.09 11.52C2024.41 8.89603 2027.84 7.58404 2032.37 7.58404C2034.52 7.58404 2036.22 7.82258 2037.47 8.29967V14.5614C2036.16 14.0247 2034.55 13.7563 2032.64 13.7563C2028.23 13.7563 2026.02 16.4399 2026.02 21.8072V30.2158H2037.47V36.4775H2026.02V77H2018.6ZM2046.78 77V30.2158H2054.2V77H2046.78ZM2053.76 19.0341C2052.8 19.9883 2051.67 20.4654 2050.36 20.4654C2049.05 20.4654 2047.88 19.9883 2046.87 19.0341C2045.91 18.0799 2045.44 16.917 2045.44 15.5454C2045.44 14.1738 2045.91 13.0109 2046.87 12.0567C2047.88 11.1025 2049.05 10.6255 2050.36 10.6255C2051.67 10.6255 2052.8 11.1025 2053.76 12.0567C2054.77 13.0109 2055.28 14.1738 2055.28 15.5454C2055.28 16.917 2054.77 18.0799 2053.76 19.0341ZM2069.58 77V7.8524H2077.09V77H2069.58ZM2111.43 77.8051C2104.75 77.8051 2099.3 75.6582 2095.06 71.3644C2090.89 67.011 2088.8 61.2562 2088.8 54.0999V53.3843C2088.8 46.3472 2090.83 40.5924 2094.88 36.1197C2099 31.647 2104.28 29.4107 2110.72 29.4107C2116.68 29.4107 2121.66 31.3489 2125.65 35.2252C2129.71 39.0419 2131.74 44.8564 2131.74 52.6686V55.0839H2096.49C2096.67 60.4511 2098.01 64.566 2100.52 67.4285C2103.08 70.2313 2106.75 71.6328 2111.52 71.6328C2118.86 71.6328 2123 68.9194 2123.95 63.4925H2131.38C2130.6 68.0845 2128.43 71.6328 2124.85 74.1375C2121.27 76.5826 2116.8 77.8051 2111.43 77.8051ZM2096.76 49.0905H2124.13C2123.48 40.0855 2119.01 35.583 2110.72 35.583C2106.96 35.583 2103.86 36.8055 2101.41 39.2506C2098.97 41.636 2097.42 44.916 2096.76 49.0905ZM2150.75 58.9304V54.4577C2150.75 52.1915 2151.29 49.985 2152.36 47.8381C2153.44 45.6913 2154.45 44.0811 2155.41 43.0076C2156.36 41.9342 2157.88 40.3837 2159.97 38.3561C2161.4 36.9248 2162.5 35.7619 2163.28 34.8674C2164.05 33.9132 2164.77 32.7801 2165.43 31.4681C2166.14 30.0965 2166.5 28.7249 2166.5 27.3533C2166.5 24.61 2165.69 22.4333 2164.08 20.8232C2162.53 19.213 2160.15 18.4079 2156.93 18.4079C2153.59 18.4079 2150.84 19.4814 2148.7 21.6282C2146.55 23.7155 2145.33 26.5184 2145.03 30.0369H2138.05C2138.35 24.7293 2140.23 20.4355 2143.69 17.1556C2147.15 13.8756 2151.59 12.2356 2157.02 12.2356C2162.68 12.2356 2166.92 13.6669 2169.72 16.5294C2172.58 19.3919 2174.01 22.9104 2174.01 27.0849C2174.01 29.1125 2173.51 31.1401 2172.49 33.1678C2171.54 35.1357 2170.58 36.6564 2169.63 37.7299C2168.68 38.7437 2167.21 40.175 2165.25 42.0237C2163.52 43.6935 2162.2 45.0353 2161.31 46.0491C2160.42 47.0032 2159.52 48.3152 2158.63 49.985C2157.79 51.6548 2157.37 53.3544 2157.37 55.0839V58.9304H2150.75ZM2157.91 75.8371C2156.78 76.9105 2155.44 77.4473 2153.89 77.4473C2152.34 77.4473 2150.99 76.9105 2149.86 75.8371C2148.73 74.704 2148.16 73.3324 2148.16 71.7222C2148.16 70.1121 2148.73 68.7703 2149.86 67.6968C2150.99 66.5638 2152.34 65.9972 2153.89 65.9972C2155.44 65.9972 2156.78 66.5638 2157.91 67.6968C2159.04 68.7703 2159.61 70.1121 2159.61 71.7222C2159.61 73.3324 2159.04 74.704 2157.91 75.8371Z" fill="black"/>
<path d="M619.811 1618.92L619.811 1579.84L642.662 1579.84L642.662 1583.72L624.567 1583.72L624.567 1597.55L638.671 1597.55L638.671 1601.43L624.567 1601.43L624.567 1618.92L619.811 1618.92ZM648.258 1618.92L648.258 1590.33L652.795 1590.33L652.795 1595.47C653.779 1593.69 654.981 1592.32 656.403 1591.37C657.861 1590.42 659.792 1589.91 662.197 1589.84L662.197 1594.1C659.063 1594.25 656.713 1594.98 655.145 1596.29C653.578 1597.6 652.795 1599.92 652.795 1603.23L652.795 1618.92L648.258 1618.92ZM668.92 1618.92L668.92 1590.33L673.457 1590.33L673.457 1618.92L668.92 1618.92ZM673.184 1583.5C672.601 1584.08 671.908 1584.37 671.107 1584.37C670.305 1584.37 669.594 1584.08 668.975 1583.5C668.392 1582.92 668.1 1582.21 668.1 1581.37C668.1 1580.53 668.392 1579.82 668.975 1579.24C669.594 1578.65 670.305 1578.36 671.107 1578.36C671.908 1578.36 672.601 1578.65 673.184 1579.24C673.804 1579.82 674.113 1580.53 674.113 1581.37C674.113 1582.21 673.804 1582.92 673.184 1583.5ZM694.443 1619.41C690.361 1619.41 687.026 1618.1 684.439 1615.48C681.888 1612.82 680.612 1609.3 680.612 1604.93L680.612 1604.49C680.612 1600.19 681.851 1596.67 684.329 1593.94C686.844 1591.21 690.069 1589.84 694.005 1589.84C697.65 1589.84 700.693 1591.02 703.135 1593.39C705.613 1595.73 706.852 1599.28 706.852 1604.05L706.852 1605.53L685.313 1605.53C685.423 1608.81 686.243 1611.32 687.773 1613.07C689.341 1614.79 691.582 1615.64 694.497 1615.64C698.98 1615.64 701.513 1613.98 702.096 1610.67L706.633 1610.67C706.159 1613.47 704.829 1615.64 702.643 1617.17C700.456 1618.67 697.723 1619.41 694.443 1619.41ZM685.477 1601.87L702.205 1601.87C701.804 1596.36 699.071 1593.61 694.005 1593.61C691.709 1593.61 689.814 1594.36 688.32 1595.85C686.826 1597.31 685.878 1599.32 685.477 1601.87ZM713.814 1618.92L713.814 1590.33L718.351 1590.33L718.351 1594.87C719.044 1593.41 720.192 1592.21 721.795 1591.26C723.399 1590.31 725.312 1589.84 727.535 1589.84C730.669 1589.84 733.129 1590.77 734.915 1592.63C736.701 1594.49 737.594 1597.4 737.594 1601.38L737.594 1618.92L733.057 1618.92L733.057 1601.05C733.057 1598.53 732.51 1596.69 731.417 1595.53C730.323 1594.36 728.629 1593.78 726.333 1593.78C724.11 1593.78 722.214 1594.47 720.647 1595.85C719.117 1597.24 718.351 1599.15 718.351 1601.59L718.351 1618.92L713.814 1618.92ZM757.255 1619.41C753.428 1619.41 750.312 1618.14 747.907 1615.59C745.538 1613.04 744.354 1609.57 744.354 1605.2L744.354 1604.76C744.354 1600.39 745.593 1596.82 748.071 1594.05C750.549 1591.24 753.756 1589.84 757.692 1589.84C761.92 1589.84 765.036 1591.54 767.04 1594.92L767.04 1576.67L771.577 1576.67L771.577 1618.92L767.04 1618.92L767.04 1614C766.165 1615.46 764.817 1616.74 762.995 1617.83C761.173 1618.89 759.259 1619.41 757.255 1619.41ZM757.747 1615.64C760.553 1615.64 762.831 1614.73 764.58 1612.91C766.329 1611.05 767.204 1608.35 767.204 1604.82L767.204 1604.38C767.204 1600.81 766.402 1598.13 764.799 1596.35C763.232 1594.52 761.009 1593.61 758.129 1593.61C755.287 1593.61 753.064 1594.58 751.46 1596.51C749.857 1598.4 749.055 1601.08 749.055 1604.55L749.055 1604.98C749.055 1608.45 749.857 1611.09 751.46 1612.91C753.1 1614.73 755.196 1615.64 757.747 1615.64ZM563.223 1686.41C560.417 1686.41 558.121 1685.72 556.335 1684.34C554.586 1682.92 553.711 1680.8 553.711 1678C553.711 1674.93 555.06 1672.69 557.757 1671.27C560.49 1669.85 563.916 1669.14 568.034 1669.14L572.134 1669.14L572.134 1667.06C572.134 1664.77 571.66 1663.13 570.713 1662.14C569.765 1661.12 568.198 1660.61 566.011 1660.61C562.075 1660.61 559.889 1662.33 559.451 1665.75L554.914 1665.75C555.206 1662.69 556.408 1660.45 558.522 1659.03C560.636 1657.57 563.205 1656.84 566.23 1656.84C573.191 1656.84 576.671 1660.25 576.671 1667.06L576.671 1685.92L572.134 1685.92L572.134 1682.31C569.947 1685.05 566.977 1686.41 563.223 1686.41ZM563.661 1682.81C566.139 1682.81 568.161 1682.21 569.729 1681C571.332 1679.76 572.134 1678.07 572.134 1675.92L572.134 1672.37L568.198 1672.37C561.565 1672.37 558.249 1674.24 558.249 1678C558.249 1681.2 560.053 1682.81 563.661 1682.81ZM597.446 1686.41C593.401 1686.41 590.048 1685.1 587.388 1682.48C584.764 1679.82 583.452 1676.3 583.452 1671.93L583.452 1671.49C583.452 1667.19 584.782 1663.67 587.442 1660.94C590.139 1658.21 593.438 1656.84 597.337 1656.84C600.617 1656.84 603.405 1657.66 605.701 1659.3C607.997 1660.9 609.345 1663.42 609.746 1666.84L605.264 1666.84C604.608 1662.69 601.965 1660.61 597.337 1660.61C594.677 1660.61 592.472 1661.61 590.722 1663.62C589.01 1665.59 588.153 1668.21 588.153 1671.49L588.153 1671.93C588.153 1675.35 588.991 1678 590.668 1679.85C592.381 1681.71 594.658 1682.64 597.501 1682.64C599.651 1682.64 601.492 1682.04 603.022 1680.84C604.589 1679.6 605.482 1677.87 605.701 1675.65L609.91 1675.65C609.619 1678.78 608.307 1681.37 605.974 1683.41C603.678 1685.41 600.836 1686.41 597.446 1686.41ZM625.452 1686.31C622.938 1686.31 621.025 1685.63 619.713 1684.28C618.401 1682.93 617.745 1681.09 617.745 1678.76L617.745 1661.16L613.645 1661.16L613.645 1657.33L617.745 1657.33L617.745 1650.83L622.282 1650.83L622.282 1657.33L628.951 1657.33L628.951 1661.16L622.282 1661.16L622.282 1678.32C622.282 1681.09 623.466 1682.48 625.835 1682.48C627.147 1682.48 628.313 1682.28 629.334 1681.88L629.334 1685.7C628.204 1686.11 626.91 1686.31 625.452 1686.31ZM636.302 1685.92L636.302 1657.33L640.839 1657.33L640.839 1685.92L636.302 1685.92ZM640.566 1650.5C639.983 1651.08 639.29 1651.37 638.489 1651.37C637.687 1651.37 636.976 1651.08 636.357 1650.5C635.774 1649.92 635.482 1649.21 635.482 1648.37C635.482 1647.53 635.774 1646.82 636.357 1646.24C636.976 1645.65 637.687 1645.36 638.489 1645.36C639.29 1645.36 639.983 1645.65 640.566 1646.24C641.185 1646.82 641.495 1647.53 641.495 1648.37C641.495 1649.21 641.185 1649.92 640.566 1650.5ZM657.287 1685.92L646.901 1657.33L651.821 1657.33L660.294 1681.33L668.658 1657.33L673.359 1657.33L663.082 1685.92L657.287 1685.92ZM679.437 1685.92L679.437 1657.33L683.974 1657.33L683.974 1685.92L679.437 1685.92ZM683.701 1650.5C683.118 1651.08 682.425 1651.37 681.624 1651.37C680.822 1651.37 680.111 1651.08 679.492 1650.5C678.908 1649.92 678.617 1649.21 678.617 1648.37C678.617 1647.53 678.908 1646.82 679.492 1646.24C680.111 1645.65 680.822 1645.36 681.624 1645.36C682.425 1645.36 683.118 1645.65 683.701 1646.24C684.32 1646.82 684.63 1647.53 684.63 1648.37C684.63 1649.21 684.32 1649.92 683.701 1650.5ZM701.953 1686.31C699.438 1686.31 697.525 1685.63 696.213 1684.28C694.901 1682.93 694.245 1681.09 694.245 1678.76L694.245 1661.16L690.145 1661.16L690.145 1657.33L694.245 1657.33L694.245 1650.83L698.782 1650.83L698.782 1657.33L705.452 1657.33L705.452 1661.16L698.782 1661.16L698.782 1678.32C698.782 1681.09 699.967 1682.48 702.336 1682.48C703.648 1682.48 704.814 1682.28 705.834 1681.88L705.834 1685.7C704.704 1686.11 703.411 1686.31 701.953 1686.31ZM715.262 1695.87L720.674 1682.97L709.468 1657.33L714.333 1657.33L723.08 1677.83L731.006 1657.33L735.653 1657.33L719.854 1695.87L715.262 1695.87ZM756.204 1685.92L756.204 1643.67L760.796 1643.67L760.796 1685.92L756.204 1685.92ZM770.191 1685.92L770.191 1657.33L774.728 1657.33L774.728 1685.92L770.191 1685.92ZM774.455 1650.5C773.872 1651.08 773.179 1651.37 772.378 1651.37C771.576 1651.37 770.865 1651.08 770.246 1650.5C769.663 1649.92 769.371 1649.21 769.371 1648.37C769.371 1647.53 769.663 1646.82 770.246 1646.24C770.865 1645.65 771.576 1645.36 772.378 1645.36C773.179 1645.36 773.872 1645.65 774.455 1646.24C775.075 1646.82 775.384 1647.53 775.384 1648.37C775.384 1649.21 775.075 1649.92 774.455 1650.5ZM792.871 1686.41C789.445 1686.41 786.748 1685.59 784.781 1683.95C782.849 1682.31 781.81 1680.04 781.665 1677.12L786.092 1677.12C786.457 1680.8 788.698 1682.64 792.816 1682.64C796.971 1682.64 799.048 1681.13 799.048 1678.11C799.048 1676.68 798.52 1675.65 797.463 1674.99C796.443 1674.3 794.748 1673.73 792.379 1673.29C788.662 1672.6 786.074 1671.65 784.617 1670.45C783.159 1669.21 782.43 1667.35 782.43 1664.88C782.43 1662.4 783.414 1660.45 785.382 1659.03C787.386 1657.57 789.628 1656.84 792.106 1656.84C798.301 1656.84 801.745 1659.59 802.438 1665.1L798.064 1665.1C797.736 1663.53 797.099 1662.4 796.151 1661.71C795.204 1660.98 793.837 1660.61 792.051 1660.61C790.411 1660.61 789.099 1661 788.115 1661.76C787.131 1662.49 786.639 1663.47 786.639 1664.71C786.639 1666.02 787.095 1666.99 788.006 1667.61C788.953 1668.23 790.721 1668.78 793.308 1669.25C795.021 1669.58 796.388 1669.91 797.408 1670.23C798.465 1670.53 799.486 1670.98 800.47 1671.6C801.49 1672.22 802.219 1673.04 802.656 1674.06C803.13 1675.04 803.367 1676.27 803.367 1677.72C803.367 1680.38 802.456 1682.5 800.634 1684.06C798.848 1685.63 796.26 1686.41 792.871 1686.41ZM818.972 1686.31C816.458 1686.31 814.544 1685.63 813.232 1684.28C811.92 1682.93 811.264 1681.09 811.264 1678.76L811.264 1661.16L807.165 1661.16L807.165 1657.33L811.264 1657.33L811.264 1650.83L815.802 1650.83L815.802 1657.33L822.471 1657.33L822.471 1661.16L815.802 1661.16L815.802 1678.32C815.802 1681.09 816.986 1682.48 819.355 1682.48C820.667 1682.48 821.833 1682.28 822.854 1681.88L822.854 1685.7C821.724 1686.11 820.43 1686.31 818.972 1686.31Z" fill="black"/>
<path d="M688.295 1543.07V1562.78V1543.07Z" fill="black"/>
<path d="M688.295 1543.07V1562.78" stroke="black" stroke-width="2.34188"/>
<path d="M995.269 1618.92L995.269 1579.84L1018.12 1579.84L1018.12 1583.72L1000.02 1583.72L1000.02 1597.55L1014.13 1597.55L1014.13 1601.43L1000.02 1601.43L1000.02 1618.92L995.269 1618.92ZM1035.05 1615.64C1037.89 1615.64 1040.15 1614.66 1041.82 1612.69C1043.54 1610.72 1044.39 1608.12 1044.39 1604.87L1044.39 1604.49C1044.39 1601.17 1043.54 1598.53 1041.82 1596.56C1040.15 1594.6 1037.89 1593.61 1035.05 1593.61C1032.17 1593.61 1029.89 1594.6 1028.21 1596.56C1026.54 1598.53 1025.7 1601.16 1025.7 1604.44L1025.7 1604.87C1025.7 1608.15 1026.54 1610.78 1028.21 1612.75C1029.89 1614.68 1032.17 1615.64 1035.05 1615.64ZM1034.99 1619.41C1030.95 1619.41 1027.59 1618.05 1024.93 1615.31C1022.31 1612.55 1021 1609.06 1021 1604.87L1021 1604.44C1021 1600.17 1022.31 1596.67 1024.93 1593.94C1027.59 1591.21 1030.96 1589.84 1035.05 1589.84C1039.13 1589.84 1042.48 1591.21 1045.1 1593.94C1047.76 1596.64 1049.09 1600.12 1049.09 1604.38L1049.09 1604.82C1049.09 1609.12 1047.76 1612.64 1045.1 1615.37C1042.44 1618.07 1039.07 1619.41 1034.99 1619.41ZM1056.23 1618.92L1056.23 1576.67L1060.82 1576.67L1060.82 1618.92L1056.23 1618.92ZM1070.22 1618.92L1070.22 1576.67L1074.81 1576.67L1074.81 1618.92L1070.22 1618.92ZM1096.01 1615.64C1098.85 1615.64 1101.11 1614.66 1102.79 1612.69C1104.5 1610.72 1105.36 1608.12 1105.36 1604.87L1105.36 1604.49C1105.36 1601.17 1104.5 1598.53 1102.79 1596.56C1101.11 1594.6 1098.85 1593.61 1096.01 1593.61C1093.13 1593.61 1090.85 1594.6 1089.18 1596.56C1087.5 1598.53 1086.66 1601.16 1086.66 1604.44L1086.66 1604.87C1086.66 1608.15 1087.5 1610.78 1089.18 1612.75C1090.85 1614.68 1093.13 1615.64 1096.01 1615.64ZM1095.96 1619.41C1091.91 1619.41 1088.56 1618.05 1085.9 1615.31C1083.27 1612.55 1081.96 1609.06 1081.96 1604.87L1081.96 1604.44C1081.96 1600.17 1083.27 1596.67 1085.9 1593.94C1088.56 1591.21 1091.93 1589.84 1096.01 1589.84C1100.09 1589.84 1103.45 1591.21 1106.07 1593.94C1108.73 1596.64 1110.06 1600.12 1110.06 1604.38L1110.06 1604.82C1110.06 1609.12 1108.73 1612.64 1106.07 1615.37C1103.41 1618.07 1100.04 1619.41 1095.96 1619.41ZM1122.29 1618.92L1113.49 1590.33L1118.41 1590.33L1125.08 1613.35L1132.02 1590.33L1135.96 1590.33L1142.46 1613.35L1149.19 1590.33L1153.83 1590.33L1144.92 1618.92L1139.89 1618.92L1133.94 1597.49L1127.27 1618.92L1122.29 1618.92ZM1171.12 1619.41C1167.04 1619.41 1163.7 1618.1 1161.11 1615.48C1158.56 1612.82 1157.29 1609.3 1157.29 1604.93L1157.29 1604.49C1157.29 1600.19 1158.53 1596.67 1161 1593.94C1163.52 1591.21 1166.74 1589.84 1170.68 1589.84C1174.33 1589.84 1177.37 1591.02 1179.81 1593.39C1182.29 1595.73 1183.53 1599.28 1183.53 1604.05L1183.53 1605.53L1161.99 1605.53C1162.1 1608.81 1162.92 1611.32 1164.45 1613.07C1166.02 1614.79 1168.26 1615.64 1171.17 1615.64C1175.66 1615.64 1178.19 1613.98 1178.77 1610.67L1183.31 1610.67C1182.83 1613.47 1181.5 1615.64 1179.32 1617.17C1177.13 1618.67 1174.4 1619.41 1171.12 1619.41ZM1162.15 1601.87L1178.88 1601.87C1178.48 1596.36 1175.75 1593.61 1170.68 1593.61C1168.38 1593.61 1166.49 1594.36 1165 1595.85C1163.5 1597.31 1162.55 1599.32 1162.15 1601.87ZM1190.49 1618.92L1190.49 1590.33L1195.03 1590.33L1195.03 1595.47C1196.01 1593.69 1197.21 1592.32 1198.63 1591.37C1200.09 1590.42 1202.02 1589.91 1204.43 1589.84L1204.43 1594.1C1201.3 1594.25 1198.94 1594.98 1197.38 1596.29C1195.81 1597.6 1195.03 1599.92 1195.03 1603.23L1195.03 1618.92L1190.49 1618.92ZM1219.63 1619.41C1216.21 1619.41 1213.51 1618.59 1211.54 1616.95C1209.61 1615.31 1208.57 1613.04 1208.43 1610.12L1212.85 1610.12C1213.22 1613.8 1215.46 1615.64 1219.58 1615.64C1223.73 1615.64 1225.81 1614.13 1225.81 1611.11C1225.81 1609.68 1225.28 1608.65 1224.22 1607.99C1223.2 1607.3 1221.51 1606.73 1219.14 1606.29C1215.42 1605.6 1212.83 1604.65 1211.38 1603.45C1209.92 1602.21 1209.19 1600.35 1209.19 1597.88C1209.19 1595.4 1210.17 1593.45 1212.14 1592.03C1214.15 1590.57 1216.39 1589.84 1218.87 1589.84C1225.06 1589.84 1228.51 1592.59 1229.2 1598.1L1224.82 1598.1C1224.5 1596.53 1223.86 1595.4 1222.91 1594.71C1221.96 1593.98 1220.6 1593.61 1218.81 1593.61C1217.17 1593.61 1215.86 1594 1214.88 1594.76C1213.89 1595.49 1213.4 1596.47 1213.4 1597.71C1213.4 1599.02 1213.86 1599.99 1214.77 1600.61C1215.71 1601.23 1217.48 1601.78 1220.07 1602.25C1221.78 1602.58 1223.15 1602.91 1224.17 1603.23C1225.23 1603.53 1226.25 1603.98 1227.23 1604.6C1228.25 1605.22 1228.98 1606.04 1229.42 1607.06C1229.89 1608.04 1230.13 1609.27 1230.13 1610.72C1230.13 1613.38 1229.22 1615.5 1227.39 1617.06C1225.61 1618.63 1223.02 1619.41 1219.63 1619.41ZM1251.62 1618.92L1251.62 1576.67L1256.21 1576.67L1256.21 1618.92L1251.62 1618.92ZM1265.6 1618.92L1265.6 1590.33L1270.14 1590.33L1270.14 1618.92L1265.6 1618.92ZM1269.87 1583.5C1269.29 1584.08 1268.59 1584.37 1267.79 1584.37C1266.99 1584.37 1266.28 1584.08 1265.66 1583.5C1265.08 1582.92 1264.78 1582.21 1264.78 1581.37C1264.78 1580.53 1265.08 1579.82 1265.66 1579.24C1266.28 1578.65 1266.99 1578.36 1267.79 1578.36C1268.59 1578.36 1269.29 1578.65 1269.87 1579.24C1270.49 1579.82 1270.8 1580.53 1270.8 1581.37C1270.8 1582.21 1270.49 1582.92 1269.87 1583.5ZM1288.28 1619.41C1284.86 1619.41 1282.16 1618.59 1280.19 1616.95C1278.26 1615.31 1277.22 1613.04 1277.08 1610.12L1281.51 1610.12C1281.87 1613.8 1284.11 1615.64 1288.23 1615.64C1292.38 1615.64 1294.46 1614.13 1294.46 1611.11C1294.46 1609.68 1293.93 1608.65 1292.88 1607.99C1291.86 1607.3 1290.16 1606.73 1287.79 1606.29C1284.08 1605.6 1281.49 1604.65 1280.03 1603.45C1278.57 1602.21 1277.84 1600.35 1277.84 1597.88C1277.84 1595.4 1278.83 1593.45 1280.8 1592.03C1282.8 1590.57 1285.04 1589.84 1287.52 1589.84C1293.71 1589.84 1297.16 1592.59 1297.85 1598.1L1293.48 1598.1C1293.15 1596.53 1292.51 1595.4 1291.56 1594.71C1290.62 1593.98 1289.25 1593.61 1287.46 1593.61C1285.82 1593.61 1284.51 1594 1283.53 1594.76C1282.54 1595.49 1282.05 1596.47 1282.05 1597.71C1282.05 1599.02 1282.51 1599.99 1283.42 1600.61C1284.37 1601.23 1286.13 1601.78 1288.72 1602.25C1290.43 1602.58 1291.8 1602.91 1292.82 1603.23C1293.88 1603.53 1294.9 1603.98 1295.88 1604.6C1296.9 1605.22 1297.63 1606.04 1298.07 1607.06C1298.54 1608.04 1298.78 1609.27 1298.78 1610.72C1298.78 1613.38 1297.87 1615.5 1296.05 1617.06C1294.26 1618.63 1291.67 1619.41 1288.28 1619.41ZM1314.39 1619.31C1311.87 1619.31 1309.96 1618.63 1308.65 1617.28C1307.33 1615.93 1306.68 1614.09 1306.68 1611.76L1306.68 1594.16L1302.58 1594.16L1302.58 1590.33L1306.68 1590.33L1306.68 1583.83L1311.22 1583.83L1311.22 1590.33L1317.88 1590.33L1317.88 1594.16L1311.22 1594.16L1311.22 1611.32C1311.22 1614.09 1312.4 1615.48 1314.77 1615.48C1316.08 1615.48 1317.25 1615.28 1318.27 1614.88L1318.27 1618.7C1317.14 1619.11 1315.84 1619.31 1314.39 1619.31Z" fill="black"/>
<path d="M1155.44 1543.07V1562.78V1543.07Z" fill="black"/>
<path d="M1155.44 1543.07V1562.78" stroke="black" stroke-width="2.34188"/>
<path d="M1535.86 1614.45C1531.01 1614.45 1527.41 1613.32 1525.04 1611.06C1522.7 1608.76 1521.34 1605.75 1520.94 1602.04L1525.53 1602.04C1525.71 1603.31 1525.97 1604.42 1526.29 1605.37C1526.66 1606.32 1527.21 1607.21 1527.93 1608.05C1528.66 1608.89 1529.68 1609.53 1531 1609.96C1532.34 1610.4 1533.97 1610.62 1535.86 1610.62C1538.41 1610.62 1540.53 1609.94 1542.2 1608.6C1543.91 1607.21 1544.77 1605.43 1544.77 1603.24C1544.77 1600.98 1544.12 1599.32 1542.8 1598.26C1541.49 1597.17 1538.99 1596.33 1535.31 1595.75C1530.9 1595.09 1527.62 1593.96 1525.47 1592.36C1523.32 1590.72 1522.25 1588.26 1522.25 1584.98C1522.25 1581.96 1523.43 1579.44 1525.8 1577.44C1528.17 1575.4 1531.18 1574.37 1534.82 1574.37C1538.76 1574.37 1541.89 1575.3 1544.22 1577.16C1546.56 1579.02 1547.91 1581.68 1548.27 1585.14L1544.01 1585.14C1543.53 1582.7 1542.57 1580.93 1541.11 1579.84C1539.65 1578.75 1537.56 1578.2 1534.82 1578.2C1532.23 1578.2 1530.23 1578.78 1528.81 1579.95C1527.39 1581.12 1526.68 1582.65 1526.68 1584.54C1526.68 1586.58 1527.3 1588.11 1528.54 1589.13C1529.77 1590.16 1532.29 1590.96 1536.08 1591.54C1540.67 1592.27 1544.02 1593.47 1546.14 1595.15C1548.29 1596.79 1549.36 1599.38 1549.36 1602.91C1549.36 1606.19 1548.07 1608.94 1545.48 1611.17C1542.93 1613.35 1539.72 1614.45 1535.86 1614.45ZM1568.88 1614.45C1564.79 1614.45 1561.46 1613.13 1558.87 1610.51C1556.32 1607.85 1555.05 1604.33 1555.05 1599.96L1555.05 1599.52C1555.05 1595.22 1556.28 1591.7 1558.76 1588.97C1561.28 1586.24 1564.5 1584.87 1568.44 1584.87C1572.08 1584.87 1575.13 1586.06 1577.57 1588.42C1580.05 1590.76 1581.29 1594.31 1581.29 1599.08L1581.29 1600.56L1559.75 1600.56C1559.86 1603.84 1560.68 1606.35 1562.21 1608.1C1563.77 1609.82 1566.02 1610.67 1568.93 1610.67C1573.41 1610.67 1575.95 1609.01 1576.53 1605.7L1581.07 1605.7C1580.59 1608.5 1579.26 1610.67 1577.08 1612.2C1574.89 1613.7 1572.16 1614.45 1568.88 1614.45ZM1559.91 1596.9L1576.64 1596.9C1576.24 1591.39 1573.5 1588.64 1568.44 1588.64C1566.14 1588.64 1564.25 1589.39 1562.75 1590.88C1561.26 1592.34 1560.31 1594.35 1559.91 1596.9ZM1595.68 1614.45C1592.87 1614.45 1590.57 1613.75 1588.79 1612.37C1587.04 1610.95 1586.16 1608.83 1586.16 1606.03C1586.16 1602.97 1587.51 1600.72 1590.21 1599.3C1592.94 1597.88 1596.37 1597.17 1600.49 1597.17L1604.59 1597.17L1604.59 1595.09C1604.59 1592.8 1604.11 1591.16 1603.17 1590.17C1602.22 1589.15 1600.65 1588.64 1598.46 1588.64C1594.53 1588.64 1592.34 1590.36 1591.9 1593.78L1587.37 1593.78C1587.66 1590.72 1588.86 1588.48 1590.97 1587.06C1593.09 1585.6 1595.66 1584.87 1598.68 1584.87C1605.64 1584.87 1609.12 1588.28 1609.12 1595.09L1609.12 1613.95L1604.59 1613.95L1604.59 1610.35C1602.4 1613.08 1599.43 1614.45 1595.68 1614.45ZM1596.11 1610.84C1598.59 1610.84 1600.61 1610.24 1602.18 1609.03C1603.78 1607.79 1604.59 1606.1 1604.59 1603.95L1604.59 1600.4L1600.65 1600.4C1594.02 1600.4 1590.7 1602.27 1590.7 1606.03C1590.7 1609.23 1592.51 1610.84 1596.11 1610.84ZM1618.04 1613.95L1618.04 1585.36L1622.57 1585.36L1622.57 1590.5C1623.56 1588.72 1624.76 1587.35 1626.18 1586.4C1627.64 1585.45 1629.57 1584.94 1631.98 1584.87L1631.98 1589.13C1628.84 1589.28 1626.49 1590.01 1624.92 1591.32C1623.36 1592.63 1622.57 1594.95 1622.57 1598.26L1622.57 1613.95L1618.04 1613.95ZM1649.65 1614.45C1645.61 1614.45 1642.25 1613.13 1639.59 1610.51C1636.97 1607.85 1635.66 1604.33 1635.66 1599.96L1635.66 1599.52C1635.66 1595.22 1636.99 1591.7 1639.65 1588.97C1642.34 1586.24 1645.64 1584.87 1649.54 1584.87C1652.82 1584.87 1655.61 1585.69 1657.91 1587.33C1660.2 1588.93 1661.55 1591.45 1661.95 1594.87L1657.47 1594.87C1656.81 1590.72 1654.17 1588.64 1649.54 1588.64C1646.88 1588.64 1644.68 1589.64 1642.93 1591.65C1641.21 1593.62 1640.36 1596.24 1640.36 1599.52L1640.36 1599.96C1640.36 1603.38 1641.2 1606.03 1642.87 1607.89C1644.59 1609.74 1646.86 1610.67 1649.71 1610.67C1651.86 1610.67 1653.7 1610.07 1655.23 1608.87C1656.79 1607.63 1657.69 1605.9 1657.91 1603.68L1662.12 1603.68C1661.82 1606.81 1660.51 1609.4 1658.18 1611.44C1655.88 1613.44 1653.04 1614.45 1649.65 1614.45ZM1668.97 1613.95L1668.97 1571.7L1673.5 1571.7L1673.5 1589.9C1674.2 1588.44 1675.34 1587.24 1676.95 1586.29C1678.55 1585.34 1680.46 1584.87 1682.69 1584.87C1685.82 1584.87 1688.28 1585.8 1690.07 1587.66C1691.85 1589.52 1692.75 1592.43 1692.75 1596.41L1692.75 1613.95L1688.21 1613.95L1688.21 1596.08C1688.21 1593.56 1687.66 1591.72 1686.57 1590.56C1685.47 1589.39 1683.78 1588.81 1681.48 1588.81C1679.26 1588.81 1677.37 1589.5 1675.8 1590.88C1674.27 1592.27 1673.5 1594.18 1673.5 1596.62L1673.5 1613.95L1668.97 1613.95Z" fill="black"/>
<path d="M1607.68 1538.1V1557.81V1538.1Z" fill="black"/>
<path d="M1607.68 1538.1V1557.81" stroke="black" stroke-width="2.34188"/>
<path d="M23.5561 956.102C16.9564 956.102 11.8278 954.154 8.1701 950.258C4.5522 946.362 2.74325 941.094 2.74325 934.454L2.74325 933.977C2.74325 927.616 4.69135 922.408 8.58754 918.353C12.5235 914.258 17.4733 912.21 23.4368 912.21C28.5257 912.21 32.7201 913.483 36.02 916.027C39.3596 918.571 41.2679 922.269 41.745 927.119L33.6942 927.119C32.7798 921.394 29.3805 918.532 23.4965 918.532C19.7195 918.532 16.698 919.923 14.4318 922.706C12.2054 925.449 11.0922 929.187 11.0922 933.918L11.0922 934.395C11.0922 939.205 12.1856 942.962 14.3722 945.666C16.5589 948.33 19.6202 949.662 23.5561 949.662C26.5777 949.662 29.0426 948.906 30.9509 947.395C32.899 945.845 34.0719 943.599 34.4694 940.657L42.2221 940.657C41.6257 945.666 39.6577 949.503 36.3181 952.166C33.0183 954.79 28.7643 956.102 23.5561 956.102ZM62.4512 950.496C65.1149 950.496 67.2021 949.582 68.7129 947.753C70.2634 945.885 71.0387 943.34 71.0387 940.12L71.0387 939.702C71.0387 936.482 70.2634 933.957 68.7129 932.129C67.2021 930.26 65.1149 929.326 62.4512 929.326C59.7477 929.326 57.6207 930.24 56.0701 932.069C54.5594 933.898 53.804 936.422 53.804 939.643L53.804 940.12C53.804 943.34 54.5594 945.885 56.0701 947.753C57.6207 949.582 59.7477 950.496 62.4512 950.496ZM73.9012 951.689C70.8797 954.631 67.0431 956.102 62.3915 956.102C57.7399 956.102 53.9034 954.631 50.8818 951.689C47.9001 948.747 46.4092 944.93 46.4092 940.239L46.4092 939.762C46.4092 934.991 47.9199 931.115 50.9415 928.133C53.963 925.151 57.7996 923.66 62.4512 923.66C67.063 923.66 70.8797 925.131 73.9012 928.073C76.9228 931.015 78.4335 934.852 78.4335 939.583L78.4335 940.06C78.4335 944.871 76.9228 948.747 73.9012 951.689ZM95.3896 956.102C92.1295 956.102 89.5255 955.128 87.5774 953.18C85.6293 951.232 84.6552 948.27 84.6552 944.294L84.6552 924.316L91.8711 924.316L91.8711 943.459C91.8711 945.805 92.3681 947.535 93.362 948.648C94.3559 949.761 95.9065 950.318 98.0136 950.318C100.081 950.318 101.81 949.662 103.202 948.35C104.593 947.038 105.289 945.209 105.289 942.863L105.289 924.316L112.505 924.316L112.505 955.506L105.289 955.506L105.289 950.616C104.454 952.246 103.182 953.578 101.472 954.611C99.8027 955.605 97.7751 956.102 95.3896 956.102ZM121.061 955.506L121.061 924.316L128.277 924.316L128.277 929.266C129.072 927.636 130.344 926.304 132.094 925.271C133.843 924.197 135.93 923.66 138.355 923.66C141.655 923.66 144.259 924.674 146.168 926.702C148.076 928.69 149.03 931.751 149.03 935.886L149.03 955.506L141.814 955.506L141.814 936.542C141.814 934.196 141.317 932.467 140.323 931.353C139.329 930.24 137.759 929.684 135.612 929.684C133.465 929.684 131.696 930.34 130.304 931.652C128.953 932.924 128.277 934.753 128.277 937.138L128.277 955.506L121.061 955.506ZM167.958 956.043C164.897 956.043 162.551 955.247 160.921 953.657C159.331 952.067 158.536 949.781 158.536 946.799L158.536 929.743L154.361 929.743L154.361 924.316L158.536 924.316L158.536 917.458L165.752 917.458L165.752 924.316L172.61 924.316L172.61 929.743L165.752 929.743L165.752 946.143C165.752 948.807 166.945 950.139 169.33 950.139C170.721 950.139 171.894 949.94 172.848 949.542L172.848 955.267C171.457 955.784 169.827 956.043 167.958 956.043Z" fill="black"/>
<path d="M1070.7 1879.86L1060.08 1837.22L1068.19 1837.22L1075.59 1868.53L1083.88 1837.22L1090.44 1837.22L1098.91 1868.71L1106.54 1837.22L1113.94 1837.22L1103.26 1879.86L1095.33 1879.86L1086.92 1848.79L1078.27 1879.86L1070.7 1879.86ZM1125.86 1880.45C1122.8 1880.45 1120.29 1879.7 1118.34 1878.19C1116.4 1876.64 1115.42 1874.31 1115.42 1871.21C1115.42 1867.79 1116.87 1865.29 1119.77 1863.7C1122.68 1862.11 1126.55 1861.31 1131.4 1861.31L1135.28 1861.31L1135.28 1859.7C1135.28 1857.55 1134.84 1855.98 1133.97 1854.99C1133.13 1853.96 1131.68 1853.44 1129.61 1853.44C1126 1853.44 1124.01 1855.07 1123.65 1858.33L1116.67 1858.33C1116.95 1854.87 1118.3 1852.29 1120.73 1850.58C1123.19 1848.87 1126.29 1848.01 1130.03 1848.01C1138.34 1848.01 1142.5 1851.81 1142.5 1859.4L1142.5 1879.86L1135.4 1879.86L1135.4 1876.04C1133.17 1878.98 1129.99 1880.45 1125.86 1880.45ZM1127.59 1875.27C1129.85 1875.27 1131.7 1874.71 1133.13 1873.6C1134.56 1872.44 1135.28 1870.89 1135.28 1868.95L1135.28 1865.84L1131.58 1865.84C1125.58 1865.84 1122.58 1867.53 1122.58 1870.91C1122.58 1873.82 1124.25 1875.27 1127.59 1875.27ZM1153.35 1890.53L1159.02 1876.7L1146.67 1848.67L1154.49 1848.67L1162.77 1868.77L1170.41 1848.67L1177.44 1848.67L1160.45 1890.53L1153.35 1890.53ZM1193.53 1880.45C1189.52 1880.45 1186.37 1879.56 1184.11 1877.77C1181.84 1875.98 1180.63 1873.44 1180.47 1870.14L1187.27 1870.14C1187.47 1871.81 1188.04 1873.06 1189 1873.89C1189.95 1874.73 1191.44 1875.15 1193.47 1875.15C1197.21 1875.15 1199.08 1873.82 1199.08 1871.15C1199.08 1869.92 1198.56 1869 1197.53 1868.41C1196.53 1867.77 1194.82 1867.26 1192.4 1866.86C1188.22 1866.18 1185.3 1865.17 1183.63 1863.82C1181.96 1862.42 1181.13 1860.28 1181.13 1857.38C1181.13 1854.43 1182.28 1852.15 1184.59 1850.52C1186.89 1848.85 1189.63 1848.01 1192.81 1848.01C1200.29 1848.01 1204.36 1851.15 1205.04 1857.44L1198.36 1857.44C1198.04 1856 1197.45 1854.95 1196.57 1854.27C1195.74 1853.6 1194.48 1853.26 1192.81 1853.26C1191.26 1853.26 1190.05 1853.6 1189.18 1854.27C1188.3 1854.95 1187.87 1855.85 1187.87 1856.96C1187.87 1858.07 1188.32 1858.91 1189.24 1859.46C1190.15 1860.02 1191.84 1860.52 1194.31 1860.95C1198.36 1861.59 1201.32 1862.56 1203.19 1863.88C1205.06 1865.19 1205.99 1867.39 1205.99 1870.5C1205.99 1873.68 1204.9 1876.14 1202.71 1877.89C1200.57 1879.6 1197.51 1880.45 1193.53 1880.45ZM1237.15 1880.4C1234.09 1880.4 1231.74 1879.6 1230.11 1878.01C1228.52 1876.42 1227.73 1874.13 1227.73 1871.15L1227.73 1854.1L1223.55 1854.1L1223.55 1848.67L1227.73 1848.67L1227.73 1841.81L1234.94 1841.81L1234.94 1848.67L1241.8 1848.67L1241.8 1854.1L1234.94 1854.1L1234.94 1870.5C1234.94 1873.16 1236.14 1874.49 1238.52 1874.49C1239.91 1874.49 1241.09 1874.29 1242.04 1873.89L1242.04 1879.62C1240.65 1880.14 1239.02 1880.4 1237.15 1880.4ZM1262.5 1874.85C1265.17 1874.85 1267.25 1873.93 1268.76 1872.11C1270.32 1870.24 1271.09 1867.69 1271.09 1864.47L1271.09 1864.05C1271.09 1860.83 1270.32 1858.31 1268.76 1856.48C1267.25 1854.61 1265.17 1853.68 1262.5 1853.68C1259.8 1853.68 1257.67 1854.59 1256.12 1856.42C1254.61 1858.25 1253.86 1860.77 1253.86 1864L1253.86 1864.47C1253.86 1867.69 1254.61 1870.24 1256.12 1872.11C1257.67 1873.93 1259.8 1874.85 1262.5 1874.85ZM1273.95 1876.04C1270.93 1878.98 1267.09 1880.45 1262.44 1880.45C1257.79 1880.45 1253.96 1878.98 1250.93 1876.04C1247.95 1873.1 1246.46 1869.28 1246.46 1864.59L1246.46 1864.11C1246.46 1859.34 1247.97 1855.47 1250.99 1852.49C1254.01 1849.5 1257.85 1848.01 1262.5 1848.01C1267.11 1848.01 1270.93 1849.48 1273.95 1852.43C1276.97 1855.37 1278.49 1859.2 1278.49 1863.94L1278.49 1864.41C1278.49 1869.22 1276.97 1873.1 1273.95 1876.04ZM1307.39 1879.86L1295.99 1848.67L1303.75 1848.67L1311.92 1872.46L1319.97 1848.67L1327.07 1848.67L1315.79 1879.86L1307.39 1879.86ZM1332.59 1879.86L1332.59 1848.67L1339.81 1848.67L1339.81 1879.86L1332.59 1879.86ZM1339.15 1842.35C1338.31 1843.14 1337.3 1843.54 1336.11 1843.54C1334.92 1843.54 1333.9 1843.14 1333.07 1842.35C1332.23 1841.55 1331.81 1840.58 1331.81 1839.43C1331.81 1838.23 1332.23 1837.24 1333.07 1836.44C1333.9 1835.65 1334.92 1835.25 1336.11 1835.25C1337.3 1835.25 1338.31 1835.65 1339.15 1836.44C1339.98 1837.24 1340.4 1838.23 1340.4 1839.43C1340.4 1840.58 1339.98 1841.55 1339.15 1842.35ZM1359.28 1880.45C1355.26 1880.45 1352.12 1879.56 1349.85 1877.77C1347.59 1875.98 1346.37 1873.44 1346.22 1870.14L1353.01 1870.14C1353.21 1871.81 1353.79 1873.06 1354.74 1873.89C1355.7 1874.73 1357.19 1875.15 1359.22 1875.15C1362.95 1875.15 1364.82 1873.82 1364.82 1871.15C1364.82 1869.92 1364.31 1869 1363.27 1868.41C1362.28 1867.77 1360.57 1867.26 1358.14 1866.86C1353.97 1866.18 1351.05 1865.17 1349.38 1863.82C1347.71 1862.42 1346.87 1860.28 1346.87 1857.38C1346.87 1854.43 1348.02 1852.15 1350.33 1850.52C1352.64 1848.85 1355.38 1848.01 1358.56 1848.01C1366.03 1848.01 1370.11 1851.15 1370.79 1857.44L1364.11 1857.44C1363.79 1856 1363.19 1854.95 1362.32 1854.27C1361.48 1853.6 1360.23 1853.26 1358.56 1853.26C1357.01 1853.26 1355.8 1853.6 1354.92 1854.27C1354.05 1854.95 1353.61 1855.85 1353.61 1856.96C1353.61 1858.07 1354.07 1858.91 1354.98 1859.46C1355.9 1860.02 1357.59 1860.52 1360.05 1860.95C1364.11 1861.59 1367.07 1862.56 1368.94 1863.88C1370.81 1865.19 1371.74 1867.39 1371.74 1870.5C1371.74 1873.68 1370.65 1876.14 1368.46 1877.89C1366.31 1879.6 1363.25 1880.45 1359.28 1880.45ZM1378.25 1879.86L1378.25 1848.67L1385.46 1848.67L1385.46 1879.86L1378.25 1879.86ZM1384.81 1842.35C1383.97 1843.14 1382.96 1843.54 1381.77 1843.54C1380.57 1843.54 1379.56 1843.14 1378.73 1842.35C1377.89 1841.55 1377.47 1840.58 1377.47 1839.43C1377.47 1838.23 1377.89 1837.24 1378.73 1836.44C1379.56 1835.65 1380.57 1835.25 1381.77 1835.25C1382.96 1835.25 1383.97 1835.65 1384.81 1836.44C1385.64 1837.24 1386.06 1838.23 1386.06 1839.43C1386.06 1840.58 1385.64 1841.55 1384.81 1842.35ZM1404.87 1880.4C1401.81 1880.4 1399.47 1879.6 1397.84 1878.01C1396.25 1876.42 1395.45 1874.13 1395.45 1871.15L1395.45 1854.1L1391.28 1854.1L1391.28 1848.67L1395.45 1848.67L1395.45 1841.81L1402.67 1841.81L1402.67 1848.67L1409.53 1848.67L1409.53 1854.1L1402.67 1854.1L1402.67 1870.5C1402.67 1873.16 1403.86 1874.49 1406.25 1874.49C1407.64 1874.49 1408.81 1874.29 1409.77 1873.89L1409.77 1879.62C1408.37 1880.14 1406.74 1880.4 1404.87 1880.4ZM1438.65 1880.45C1435.59 1880.45 1433.09 1879.7 1431.14 1878.19C1429.19 1876.64 1428.22 1874.31 1428.22 1871.21C1428.22 1867.79 1429.67 1865.29 1432.57 1863.7C1435.47 1862.11 1439.35 1861.31 1444.2 1861.31L1448.08 1861.31L1448.08 1859.7C1448.08 1857.55 1447.64 1855.98 1446.76 1854.99C1445.93 1853.96 1444.48 1853.44 1442.41 1853.44C1438.79 1853.44 1436.81 1855.07 1436.45 1858.33L1429.47 1858.33C1429.75 1854.87 1431.1 1852.29 1433.53 1850.58C1435.99 1848.87 1439.09 1848.01 1442.83 1848.01C1451.14 1848.01 1455.29 1851.81 1455.29 1859.4L1455.29 1879.86L1448.2 1879.86L1448.2 1876.04C1445.97 1878.98 1442.79 1880.45 1438.65 1880.45ZM1440.38 1875.27C1442.65 1875.27 1444.5 1874.71 1445.93 1873.6C1447.36 1872.44 1448.08 1870.89 1448.08 1868.94L1448.08 1865.84L1444.38 1865.84C1438.38 1865.84 1435.37 1867.53 1435.37 1870.91C1435.37 1873.82 1437.04 1875.27 1440.38 1875.27ZM1477.77 1890.53L1477.77 1848.67L1484.99 1848.67L1484.99 1853.68C1485.9 1852.09 1487.27 1850.76 1489.1 1849.68C1490.97 1848.57 1493 1848.01 1495.19 1848.01C1499.2 1848.01 1502.5 1849.44 1505.09 1852.31C1507.71 1855.13 1509.02 1858.99 1509.02 1863.88L1509.02 1864.35C1509.02 1869.28 1507.73 1873.2 1505.15 1876.1C1502.6 1879 1499.28 1880.45 1495.19 1880.45C1492.84 1880.45 1490.77 1879.96 1488.98 1878.96C1487.2 1877.93 1485.86 1876.6 1484.99 1874.97L1484.99 1890.53L1477.77 1890.53ZM1493.4 1874.73C1496.06 1874.73 1498.09 1873.85 1499.48 1872.11C1500.91 1870.36 1501.63 1867.81 1501.63 1864.47L1501.63 1864C1501.63 1860.66 1500.85 1858.11 1499.3 1856.36C1497.79 1854.57 1495.8 1853.68 1493.34 1853.68C1490.75 1853.68 1488.67 1854.57 1487.08 1856.36C1485.53 1858.11 1484.75 1860.66 1484.75 1864L1484.75 1864.47C1484.75 1867.85 1485.51 1870.42 1487.02 1872.17C1488.57 1873.87 1490.69 1874.73 1493.4 1874.73ZM1515.51 1879.86L1515.51 1848.67L1522.73 1848.67L1522.73 1854.51C1524.79 1850.34 1528.17 1848.23 1532.87 1848.19L1532.87 1854.93C1529.49 1854.97 1526.94 1855.65 1525.23 1856.96C1523.56 1858.27 1522.73 1860.5 1522.73 1863.64L1522.73 1879.86L1515.51 1879.86ZM1552.59 1874.85C1555.25 1874.85 1557.34 1873.93 1558.85 1872.11C1560.4 1870.24 1561.17 1867.69 1561.17 1864.47L1561.17 1864.05C1561.17 1860.83 1560.4 1858.31 1558.85 1856.48C1557.34 1854.61 1555.25 1853.68 1552.59 1853.68C1549.88 1853.68 1547.76 1854.59 1546.21 1856.42C1544.69 1858.25 1543.94 1860.77 1543.94 1864L1543.94 1864.47C1543.94 1867.69 1544.69 1870.24 1546.21 1872.11C1547.76 1873.93 1549.88 1874.85 1552.59 1874.85ZM1564.04 1876.04C1561.01 1878.98 1557.18 1880.45 1552.53 1880.45C1547.88 1880.45 1544.04 1878.98 1541.02 1876.04C1538.04 1873.1 1536.54 1869.28 1536.54 1864.59L1536.54 1864.11C1536.54 1859.34 1538.06 1855.47 1541.08 1852.49C1544.1 1849.5 1547.93 1848.01 1552.59 1848.01C1557.2 1848.01 1561.01 1849.48 1564.04 1852.43C1567.06 1855.37 1568.57 1859.2 1568.57 1863.94L1568.57 1864.41C1568.57 1869.22 1567.06 1873.1 1564.04 1876.04ZM1576.34 1879.86L1576.34 1854.1L1572.11 1854.1L1572.11 1848.67L1576.34 1848.67L1576.34 1844.49C1576.34 1841.08 1577.24 1838.47 1579.02 1836.68C1580.81 1834.85 1583.38 1833.94 1586.72 1833.94C1588.19 1833.94 1589.5 1834.12 1590.65 1834.48L1590.65 1840.08C1589.9 1839.76 1588.88 1839.6 1587.61 1839.6C1584.91 1839.6 1583.56 1841.13 1583.56 1844.2L1583.56 1848.67L1590.65 1848.67L1590.65 1854.1L1583.56 1854.1L1583.56 1879.86L1576.34 1879.86ZM1596.06 1879.86L1596.06 1848.67L1603.27 1848.67L1603.27 1879.86L1596.06 1879.86ZM1602.62 1842.35C1601.78 1843.14 1600.77 1843.54 1599.58 1843.54C1598.38 1843.54 1597.37 1843.14 1596.54 1842.35C1595.7 1841.55 1595.28 1840.58 1595.28 1839.43C1595.28 1838.23 1595.7 1837.24 1596.54 1836.44C1597.37 1835.65 1598.38 1835.25 1599.58 1835.25C1600.77 1835.25 1601.78 1835.65 1602.62 1836.44C1603.45 1837.24 1603.87 1838.23 1603.87 1839.43C1603.87 1840.58 1603.45 1841.55 1602.62 1842.35ZM1612.25 1879.86L1612.25 1834.24L1619.46 1834.24L1619.46 1879.86L1612.25 1879.86ZM1641.98 1880.45C1637.32 1880.45 1633.53 1879.02 1630.59 1876.16C1627.64 1873.3 1626.17 1869.44 1626.17 1864.59L1626.17 1864.11C1626.17 1859.34 1627.62 1855.47 1630.53 1852.49C1633.47 1849.5 1637.19 1848.01 1641.68 1848.01C1645.89 1848.01 1649.39 1849.32 1652.17 1851.95C1655 1854.57 1656.41 1858.51 1656.41 1863.76L1656.41 1865.84L1633.57 1865.84C1633.69 1868.83 1634.48 1871.11 1635.95 1872.7C1637.42 1874.29 1639.49 1875.09 1642.16 1875.09C1646.37 1875.09 1648.75 1873.5 1649.31 1870.32L1656.29 1870.32C1655.77 1873.58 1654.26 1876.08 1651.76 1877.83C1649.25 1879.58 1645.99 1880.45 1641.98 1880.45ZM1633.69 1861.01L1649.25 1861.01C1648.89 1855.84 1646.37 1853.26 1641.68 1853.26C1639.53 1853.26 1637.74 1853.96 1636.31 1855.35C1634.92 1856.7 1634.04 1858.59 1633.69 1861.01Z" fill="black"/>
<g clip-path="url(#clip0)">
<path d="M435.408 1539.14H2316.16V314.718H435.408V1539.14Z" fill="white"/>
<path d="M971.565 1538.1H1331.86V544.176H971.565V1538.1Z" fill="#F8DD74"/>
<path d="M1420.78 1539.14H1780.73V1110.71H1420.78V1539.14Z" fill="#FFCD9C"/>
<path d="M435.408 1539.14V314.718" stroke="black" stroke-width="2.34188" stroke-linecap="square"/>
<path d="M435.408 1539.14H2316.16" stroke="black" stroke-width="2.34188" stroke-linecap="square"/>
</g>
<path d="M521.812 1538.11H879.627V183.878H521.812V1538.11Z" fill="#B4FFD6"/>
<path d="M435.275 1537.42H415.566H435.275Z" fill="black"/>
<path d="M435.275 1537.42H415.566" stroke="black" stroke-width="2.34188"/>
<path d="M435.275 1296.98H415.566H435.275Z" fill="black"/>
<path d="M435.275 1296.98H415.566" stroke="black" stroke-width="2.34188"/>
<path d="M435.275 1056.54H415.566H435.275Z" fill="black"/>
<path d="M435.275 1056.54H415.566" stroke="black" stroke-width="2.34188"/>
<path d="M435.275 816.106H415.566H435.275Z" fill="black"/>
<path d="M435.275 816.106H415.566" stroke="black" stroke-width="2.34188"/>
<path d="M435.275 575.67H415.566H435.275Z" fill="black"/>
<path d="M435.275 575.67H415.566" stroke="black" stroke-width="2.34188"/>
<path d="M435.275 335.233H415.566H435.275Z" fill="black"/>
<path d="M435.275 335.233H415.566" stroke="black" stroke-width="2.34188"/>
<defs>
<clipPath id="clip0">
<rect width="2427.67" height="1242.41" fill="white" transform="translate(131.695 298.179)"/>
</clipPath>
</defs>
</svg>
