<svg width="595" height="570" viewBox="0 0 595 570" fill="none" xmlns="http://www.w3.org/2000/svg">
<rect y="0.000488281" width="297.618" height="570" fill="#1E4C43"/>
<path d="M297.618 0H594.371V298.488H297.618V0Z" fill="#F1ECD5"/>
<path d="M297.498 298.748H445.622V569.997H297.498V298.748Z" fill="#C4C4C4"/>
<path d="M445.557 297.864H594.366V433.619H445.557V297.864Z" fill="#E3C96B"/>
<path d="M445.557 433.619H594.366V569.375H445.557V433.619Z" fill="#5A605F"/>
<rect x="297.498" y="298.123" width="148.124" height="271.248" fill="#E47756"/>
<path d="M23.1499 29.7623L23.4749 27.4748H22.2624L21.9374 29.7623H21.0874L21.4124 27.4748H20.3749V26.5998H21.5499L21.7874 24.9498H20.7249V24.0748H21.9124L22.2124 22.0623H23.0624L22.7624 24.0748H23.9749L24.2749 22.0623H25.1248L24.8248 24.0748H25.9123V24.9498H24.6998L24.4624 26.5998H25.5623V27.4748H24.3249L23.9999 29.7623H23.1499ZM22.6374 24.9498L22.3999 26.5998H23.6124L23.8499 24.9498H22.6374ZM28.9431 30.9998V23.1373L26.9431 24.5748V23.5623L29.0181 22.0623H30.0306V30.9998H28.9431ZM32.6482 30.9998V22.0623H37.8607V22.9498H33.7357V25.9873H37.0607V26.8748H33.7357V30.1123H38.0857V30.9998H32.6482ZM43.5657 30.9998V29.1248H39.0908V28.7748L43.1783 22.0623H44.6282V28.2373H45.8657V29.1248H44.6282V30.9998H43.5657ZM40.4658 28.2373H43.5657V22.8873L40.4658 28.2373ZM51.1805 31.1123C49.8889 31.1123 48.8681 30.7039 48.1181 29.8873C47.3764 29.0706 47.0056 27.9706 47.0056 26.5873V26.4873C47.0056 25.1623 47.4014 24.0706 48.1931 23.2123C48.9847 22.354 49.9889 21.9248 51.2055 21.9248C52.1805 21.9248 53.0055 22.179 53.6805 22.6873C54.3555 23.1956 54.7389 23.9165 54.8305 24.8498H53.7555C53.5305 23.4748 52.6847 22.7873 51.218 22.7873C50.2931 22.7873 49.5472 23.1248 48.9806 23.7998C48.4139 24.4665 48.1306 25.3581 48.1306 26.4748V26.5748C48.1306 27.7164 48.4014 28.6123 48.9431 29.2623C49.4931 29.9039 50.2472 30.2248 51.2055 30.2248C51.9472 30.2248 52.5555 30.0414 53.0305 29.6748C53.5055 29.2998 53.7972 28.7539 53.9055 28.0373H54.918C54.768 29.0456 54.3639 29.8123 53.7055 30.3373C53.0472 30.8539 52.2055 31.1123 51.1805 31.1123ZM60.4113 30.9998V29.1248H55.9364V28.7748L60.0239 22.0623H61.4738V28.2373H62.7113V29.1248H61.4738V30.9998H60.4113ZM57.3114 28.2373H60.4113V22.8873L57.3114 28.2373ZM66.7887 31.1123C65.8637 31.1123 65.1178 30.8539 64.5512 30.3373C63.9928 29.8206 63.697 29.1623 63.6637 28.3623H64.6637C64.7137 28.9289 64.9137 29.3831 65.2637 29.7248C65.622 30.0664 66.1387 30.2373 66.8137 30.2373C67.497 30.2373 68.0053 30.0873 68.3386 29.7873C68.6803 29.4789 68.8511 29.0539 68.8511 28.5123C68.8511 27.3539 68.222 26.7748 66.9637 26.7748H66.2887V25.8623H66.9137C68.0303 25.8623 68.5886 25.354 68.5886 24.3373C68.5886 23.8956 68.447 23.5373 68.1636 23.2623C67.8886 22.979 67.4887 22.8373 66.9637 22.8373C66.4137 22.8373 65.9595 22.9915 65.6012 23.2998C65.2512 23.6081 65.047 24.0165 64.9887 24.5248H64.0387C64.072 23.7998 64.3595 23.1915 64.9012 22.6998C65.4428 22.1998 66.1303 21.9498 66.9637 21.9498C67.7803 21.9498 68.4303 22.1831 68.9136 22.6498C69.4053 23.1081 69.6511 23.6623 69.6511 24.3123C69.6511 25.2206 69.1803 25.8706 68.2386 26.2623C68.7803 26.404 69.2011 26.6664 69.5011 27.0498C69.8095 27.4248 69.9636 27.9123 69.9636 28.5123C69.9636 29.3123 69.6678 29.9456 69.0761 30.4123C68.4928 30.8789 67.7303 31.1123 66.7887 31.1123Z" fill="#FDFBF3"/>
<path d="M320.648 29.7623L320.973 27.4748H319.761L319.436 29.7623H318.586L318.911 27.4748H317.873V26.5998H319.048L319.286 24.9498H318.223V24.0748H319.411L319.711 22.0623H320.561L320.261 24.0748H321.473L321.773 22.0623H322.623L322.323 24.0748H323.411V24.9498H322.198L321.961 26.5998H323.061V27.4748H321.823L321.498 29.7623H320.648ZM320.136 24.9498L319.898 26.5998H321.111L321.348 24.9498H320.136ZM324.91 30.9998V22.0623H330.135V22.9498H325.997V26.1123H329.222V26.9998H325.997V30.9998H324.91ZM333.021 30.9998V23.1373L331.021 24.5748V23.5623L333.096 22.0623H334.108V30.9998H333.021ZM336.726 30.9998V22.0623H341.938V22.9498H337.813V25.9873H341.138V26.8748H337.813V30.1123H342.163V30.9998H336.726ZM347.421 31.1123C346.13 31.1123 345.109 30.7039 344.359 29.8873C343.617 29.0706 343.246 27.9706 343.246 26.5873V26.4873C343.246 25.1623 343.642 24.0706 344.434 23.2123C345.226 22.354 346.23 21.9248 347.446 21.9248C348.421 21.9248 349.246 22.179 349.921 22.6873C350.596 23.1956 350.98 23.9165 351.071 24.8498H349.996C349.771 23.4748 348.926 22.7873 347.459 22.7873C346.534 22.7873 345.788 23.1248 345.221 23.7998C344.655 24.4665 344.371 25.3581 344.371 26.4748V26.5748C344.371 27.7164 344.642 28.6123 345.184 29.2623C345.734 29.9039 346.488 30.2248 347.446 30.2248C348.188 30.2248 348.796 30.0414 349.271 29.6748C349.746 29.2998 350.038 28.7539 350.146 28.0373H351.159C351.009 29.0456 350.605 29.8123 349.946 30.3373C349.288 30.8539 348.446 31.1123 347.421 31.1123ZM353.902 30.1123H355.127C356.252 30.1123 357.106 29.7998 357.69 29.1748C358.281 28.5414 358.577 27.6664 358.577 26.5498V26.4498C358.577 25.3581 358.294 24.4998 357.727 23.8748C357.169 23.2498 356.298 22.9373 355.115 22.9373H353.902V30.1123ZM352.815 30.9998V22.0623H355.177C356.652 22.0623 357.773 22.4665 358.54 23.2748C359.315 24.0831 359.702 25.1415 359.702 26.4498V26.5623C359.702 27.8706 359.315 28.9373 358.54 29.7623C357.773 30.5873 356.644 30.9998 355.152 30.9998H352.815ZM363.906 31.1123C362.981 31.1123 362.268 30.8831 361.768 30.4248C361.277 29.9664 360.997 29.3539 360.931 28.5873H361.968C362.068 29.1289 362.256 29.5414 362.531 29.8248C362.806 30.0998 363.26 30.2373 363.893 30.2373C364.502 30.2373 364.981 30.0456 365.331 29.6623C365.681 29.2789 365.856 28.7498 365.856 28.0748C365.856 27.4414 365.685 26.9373 365.343 26.5623C365.002 26.179 364.547 25.9873 363.981 25.9873C363.081 25.9873 362.377 26.2748 361.868 26.8498H361.468V22.0623H366.493V22.9998H362.368V25.7248C362.81 25.3165 363.418 25.1123 364.193 25.1123C365.01 25.1123 365.677 25.3831 366.193 25.9248C366.71 26.4581 366.968 27.1748 366.968 28.0748C366.968 28.9914 366.677 29.7289 366.093 30.2873C365.51 30.8373 364.781 31.1123 363.906 31.1123Z" fill="#5A605F"/>
<path d="M316.898 324.136L317.223 321.848H316.011L315.686 324.136H314.836L315.161 321.848H314.123V320.973H315.298L315.536 319.323H314.473V318.448H315.661L315.961 316.436H316.811L316.511 318.448H317.723L318.023 316.436H318.873L318.573 318.448H319.661V319.323H318.448L318.211 320.973H319.311V321.848H318.073L317.748 324.136H316.898ZM316.386 319.323L316.148 320.973H317.361L317.598 319.323H316.386ZM321.16 325.373V316.436H326.372V317.323H322.247V320.361H325.572V321.248H322.247V324.486H326.597V325.373H321.16ZM332.077 325.373V323.498H327.602V323.148L331.69 316.436H333.14V322.611H334.377V323.498H333.14V325.373H332.077ZM328.977 322.611H332.077V317.261L328.977 322.611ZM336.41 325.373L339.523 317.311H334.985V316.436H340.873V316.586L337.523 325.373H336.41ZM342.978 325.373L346.09 317.311H341.553V316.436H347.44V316.586L344.09 325.373H342.978ZM351.232 325.486C350.307 325.486 349.595 325.257 349.095 324.798C348.603 324.34 348.324 323.727 348.258 322.961H349.295C349.395 323.502 349.582 323.915 349.857 324.198C350.132 324.473 350.587 324.611 351.22 324.611C351.828 324.611 352.307 324.419 352.657 324.036C353.007 323.652 353.182 323.123 353.182 322.448C353.182 321.815 353.012 321.311 352.67 320.936C352.328 320.552 351.874 320.361 351.307 320.361C350.407 320.361 349.703 320.648 349.195 321.223H348.795V316.436H353.82V317.373H349.695V320.098C350.137 319.69 350.745 319.486 351.52 319.486C352.337 319.486 353.003 319.757 353.52 320.298C354.037 320.832 354.295 321.548 354.295 322.448C354.295 323.365 354.003 324.102 353.42 324.661C352.837 325.211 352.107 325.486 351.232 325.486ZM358.897 325.486C358.305 325.486 357.797 325.382 357.372 325.173C356.947 324.965 356.613 324.669 356.372 324.286C356.13 323.902 355.955 323.477 355.847 323.011C355.738 322.536 355.684 322.007 355.684 321.423V321.211C355.684 319.644 356.001 318.44 356.634 317.598C357.276 316.748 358.126 316.323 359.184 316.323C359.893 316.323 360.476 316.507 360.934 316.873C361.393 317.24 361.68 317.778 361.797 318.486H360.759C360.659 318.053 360.48 317.732 360.222 317.523C359.963 317.315 359.593 317.211 359.109 317.211C358.418 317.211 357.859 317.519 357.434 318.136C357.009 318.752 356.784 319.636 356.759 320.786C356.976 320.419 357.284 320.127 357.684 319.911C358.093 319.686 358.551 319.573 359.059 319.573C359.934 319.573 360.638 319.852 361.172 320.411C361.713 320.969 361.984 321.665 361.984 322.498C361.984 323.398 361.705 324.123 361.147 324.673C360.588 325.215 359.838 325.486 358.897 325.486ZM358.897 324.636C359.488 324.636 359.963 324.444 360.322 324.061C360.688 323.677 360.872 323.173 360.872 322.548C360.872 321.907 360.693 321.394 360.334 321.011C359.976 320.619 359.493 320.423 358.884 320.423C358.284 320.423 357.793 320.607 357.409 320.973C357.026 321.34 356.834 321.815 356.834 322.398C356.834 323.107 357.022 323.657 357.397 324.048C357.78 324.44 358.28 324.636 358.897 324.636Z" fill="#1E4C43"/>
<path d="M465.647 322.886L465.972 320.598H464.76L464.435 322.886H463.585L463.91 320.598H462.872V319.723H464.047L464.285 318.073H463.222V317.198H464.41L464.71 315.186H465.56L465.26 317.198H466.472L466.772 315.186H467.622L467.322 317.198H468.41V318.073H467.197L466.96 319.723H468.06V320.598H466.822L466.497 322.886H465.647ZM465.135 318.073L464.897 319.723H466.11L466.347 318.073H465.135ZM469.909 324.123V315.186H475.121V316.073H470.996V319.111H474.321V319.998H470.996V323.236H475.346V324.123H469.909ZM479.489 324.236C478.564 324.236 477.818 323.977 477.251 323.461C476.693 322.944 476.397 322.286 476.364 321.486H477.364C477.414 322.052 477.614 322.506 477.964 322.848C478.322 323.19 478.839 323.361 479.514 323.361C480.197 323.361 480.705 323.211 481.039 322.911C481.38 322.602 481.551 322.177 481.551 321.636C481.551 320.477 480.922 319.898 479.664 319.898H478.989V318.986H479.614C480.73 318.986 481.289 318.477 481.289 317.461C481.289 317.019 481.147 316.661 480.864 316.386C480.589 316.102 480.189 315.961 479.664 315.961C479.114 315.961 478.66 316.115 478.301 316.423C477.951 316.731 477.747 317.14 477.689 317.648H476.739C476.772 316.923 477.06 316.315 477.601 315.823C478.143 315.323 478.83 315.073 479.664 315.073C480.48 315.073 481.13 315.306 481.614 315.773C482.105 316.231 482.351 316.786 482.351 317.436C482.351 318.344 481.88 318.994 480.939 319.386C481.48 319.527 481.901 319.79 482.201 320.173C482.509 320.548 482.664 321.036 482.664 321.636C482.664 322.436 482.368 323.069 481.776 323.536C481.193 324.002 480.43 324.236 479.489 324.236ZM488.27 324.236C486.978 324.236 485.958 323.827 485.208 323.011C484.466 322.194 484.095 321.094 484.095 319.711V319.611C484.095 318.286 484.491 317.194 485.283 316.336C486.074 315.477 487.078 315.048 488.295 315.048C489.27 315.048 490.095 315.302 490.77 315.811C491.445 316.319 491.828 317.04 491.92 317.973H490.845C490.62 316.598 489.774 315.911 488.308 315.911C487.383 315.911 486.637 316.248 486.07 316.923C485.503 317.59 485.22 318.481 485.22 319.598V319.698C485.22 320.84 485.491 321.736 486.033 322.386C486.583 323.027 487.337 323.348 488.295 323.348C489.037 323.348 489.645 323.165 490.12 322.798C490.595 322.423 490.887 321.877 490.995 321.161H492.008C491.858 322.169 491.453 322.936 490.795 323.461C490.137 323.977 489.295 324.236 488.27 324.236ZM496.163 324.223C495.347 324.223 494.693 324.023 494.201 323.623C493.709 323.215 493.405 322.648 493.288 321.923H494.338C494.447 322.39 494.643 322.744 494.926 322.986C495.218 323.219 495.638 323.336 496.188 323.336C496.913 323.336 497.472 323.04 497.863 322.448C498.263 321.848 498.468 320.961 498.476 319.786C498.259 320.152 497.947 320.444 497.538 320.661C497.13 320.869 496.672 320.973 496.163 320.973C495.297 320.973 494.588 320.698 494.038 320.148C493.497 319.598 493.226 318.898 493.226 318.048C493.226 317.148 493.505 316.427 494.063 315.886C494.622 315.336 495.372 315.061 496.313 315.061C497.363 315.061 498.159 315.406 498.701 316.098C499.251 316.781 499.526 317.769 499.526 319.061V319.623C499.526 321.098 499.234 322.236 498.651 323.036C498.068 323.827 497.238 324.223 496.163 324.223ZM496.326 320.123C496.926 320.123 497.418 319.944 497.801 319.586C498.184 319.227 498.376 318.761 498.376 318.186C498.376 317.469 498.184 316.911 497.801 316.511C497.426 316.111 496.93 315.911 496.313 315.911C495.722 315.911 495.243 316.102 494.876 316.486C494.518 316.869 494.338 317.373 494.338 317.998C494.338 318.64 494.518 319.156 494.876 319.548C495.234 319.931 495.718 320.123 496.326 320.123ZM504.252 324.236C503.661 324.236 503.152 324.131 502.727 323.923C502.302 323.715 501.969 323.419 501.727 323.036C501.486 322.652 501.311 322.227 501.202 321.761C501.094 321.286 501.04 320.756 501.04 320.173V319.961C501.04 318.394 501.356 317.19 501.99 316.348C502.631 315.498 503.481 315.073 504.54 315.073C505.248 315.073 505.831 315.256 506.29 315.623C506.748 315.99 507.036 316.527 507.152 317.236H506.115C506.015 316.802 505.836 316.481 505.577 316.273C505.319 316.065 504.948 315.961 504.465 315.961C503.773 315.961 503.215 316.269 502.79 316.886C502.365 317.502 502.14 318.386 502.115 319.536C502.331 319.169 502.64 318.877 503.04 318.661C503.448 318.436 503.906 318.323 504.415 318.323C505.29 318.323 505.994 318.602 506.527 319.161C507.069 319.719 507.34 320.415 507.34 321.248C507.34 322.148 507.061 322.873 506.502 323.423C505.944 323.965 505.194 324.236 504.252 324.236ZM504.252 323.386C504.844 323.386 505.319 323.194 505.677 322.811C506.044 322.427 506.227 321.923 506.227 321.298C506.227 320.656 506.048 320.144 505.69 319.761C505.331 319.369 504.848 319.173 504.24 319.173C503.64 319.173 503.148 319.356 502.765 319.723C502.381 320.09 502.19 320.565 502.19 321.148C502.19 321.856 502.377 322.406 502.752 322.798C503.136 323.19 503.636 323.386 504.252 323.386ZM509.154 324.123V315.186H511.841C513.758 315.186 514.716 315.956 514.716 317.498V317.548C514.716 318.498 514.266 319.127 513.366 319.436C514.008 319.586 514.466 319.831 514.741 320.173C515.016 320.515 515.154 320.981 515.154 321.573V321.623C515.154 322.448 514.891 323.073 514.366 323.498C513.85 323.915 513.133 324.123 512.216 324.123H509.154ZM510.217 323.273H512.191C513.458 323.273 514.091 322.719 514.091 321.611V321.561C514.091 321.002 513.925 320.594 513.591 320.336C513.266 320.069 512.75 319.936 512.041 319.936H510.217V323.273ZM510.217 319.086H511.841C512.491 319.086 512.954 318.965 513.229 318.723C513.512 318.473 513.654 318.069 513.654 317.511V317.461C513.654 316.961 513.504 316.598 513.204 316.373C512.912 316.148 512.45 316.036 511.816 316.036H510.217V319.086Z" fill="#1E4C43"/>
<path d="M465.647 457.885L465.972 455.597H464.76L464.435 457.885H463.585L463.91 455.597H462.872V454.722H464.047L464.285 453.072H463.222V452.197H464.41L464.71 450.185H465.56L465.26 452.197H466.472L466.772 450.185H467.622L467.322 452.197H468.41V453.072H467.197L466.96 454.722H468.06V455.597H466.822L466.497 457.885H465.647ZM465.135 453.072L464.897 454.722H466.11L466.347 453.072H465.135ZM469.909 459.122V450.185H475.121V451.072H470.996V454.11H474.321V454.997H470.996V458.235H475.346V459.122H469.909ZM478.276 459.122V451.26L476.276 452.697V451.685L478.351 450.185H479.364V459.122H478.276ZM481.981 459.122V450.185H487.206V451.072H483.069V454.235H486.294V455.122H483.069V459.122H481.981ZM488.805 459.122V450.185H491.493C493.409 450.185 494.367 450.956 494.367 452.497V452.547C494.367 453.497 493.917 454.127 493.017 454.435C493.659 454.585 494.117 454.831 494.392 455.172C494.667 455.514 494.805 455.981 494.805 456.572V456.622C494.805 457.447 494.542 458.072 494.017 458.497C493.501 458.914 492.784 459.122 491.867 459.122H488.805ZM489.868 458.272H491.842C493.109 458.272 493.742 457.718 493.742 456.61V456.56C493.742 456.001 493.576 455.593 493.242 455.335C492.917 455.068 492.401 454.935 491.692 454.935H489.868V458.272ZM489.868 454.085H491.493C492.142 454.085 492.605 453.964 492.88 453.722C493.163 453.472 493.305 453.068 493.305 452.51V452.46C493.305 451.96 493.155 451.597 492.855 451.372C492.563 451.147 492.101 451.035 491.468 451.035H489.868V454.085ZM499.081 459.222C498.264 459.222 497.61 459.022 497.118 458.622C496.627 458.214 496.323 457.647 496.206 456.922H497.256C497.364 457.389 497.56 457.743 497.843 457.985C498.135 458.218 498.556 458.335 499.106 458.335C499.831 458.335 500.389 458.039 500.781 457.447C501.181 456.847 501.385 455.96 501.393 454.785C501.177 455.152 500.864 455.443 500.456 455.66C500.047 455.868 499.589 455.972 499.081 455.972C498.214 455.972 497.506 455.697 496.956 455.147C496.414 454.597 496.143 453.897 496.143 453.047C496.143 452.147 496.423 451.427 496.981 450.885C497.539 450.335 498.289 450.06 499.231 450.06C500.281 450.06 501.077 450.406 501.618 451.097C502.168 451.781 502.443 452.768 502.443 454.06V454.622C502.443 456.097 502.152 457.235 501.568 458.035C500.985 458.826 500.156 459.222 499.081 459.222ZM499.243 455.122C499.843 455.122 500.335 454.943 500.718 454.585C501.102 454.227 501.293 453.76 501.293 453.185C501.293 452.468 501.102 451.91 500.718 451.51C500.343 451.11 499.847 450.91 499.231 450.91C498.639 450.91 498.16 451.102 497.793 451.485C497.435 451.868 497.256 452.372 497.256 452.997C497.256 453.639 497.435 454.156 497.793 454.547C498.152 454.931 498.635 455.122 499.243 455.122ZM507.507 458.335C508.282 458.335 508.87 458.043 509.27 457.46C509.67 456.868 509.87 456.006 509.87 454.872V454.372C509.87 453.322 509.657 452.489 509.232 451.872C508.816 451.256 508.232 450.947 507.482 450.947C506.724 450.947 506.132 451.252 505.707 451.86C505.282 452.46 505.07 453.306 505.07 454.397V454.897C505.07 456.006 505.286 456.856 505.72 457.447C506.153 458.039 506.749 458.335 507.507 458.335ZM507.507 459.235C506.441 459.235 505.582 458.839 504.932 458.047C504.282 457.256 503.957 456.21 503.957 454.91V454.41C503.957 453.085 504.27 452.031 504.895 451.247C505.528 450.464 506.391 450.072 507.482 450.072C508.566 450.072 509.416 450.468 510.032 451.26C510.657 452.052 510.97 453.093 510.97 454.385V454.885C510.97 456.201 510.661 457.256 510.045 458.047C509.436 458.839 508.591 459.235 507.507 459.235Z" fill="#F1ECD5"/>
</svg>
