<svg width="4099" height="4541" viewBox="0 0 4099 4541" fill="none" xmlns="http://www.w3.org/2000/svg">
<rect width="4099" height="4541" fill="#E5E5E5"/>
<rect width="5343" height="89234" transform="translate(-318 -20703)" fill="white"/>
<g clip-path="url(#clip0)">
<rect x="61.2005" y="3634.38" width="3976.6" height="845.419" stroke="#E4E4E4" stroke-width="8.53958"/>
<rect x="61.2005" y="380.641" width="3976.6" height="3188.27" stroke="#E4E4E4" stroke-width="8.53958"/>
<line y1="-4.26979" x2="5110.97" y2="-4.26979" transform="matrix(0.780352 -0.625341 0.457601 0.889158 56.9307 3573.18)" stroke="#E4E4E4" stroke-width="8.53958"/>
<line y1="-4.26979" x2="5110.97" y2="-4.26979" transform="matrix(-0.780352 -0.625341 -0.457601 0.889158 4045.28 3573.17)" stroke="#E4E4E4" stroke-width="8.53958"/>
<g clip-path="url(#clip1)">
<path fill-rule="evenodd" clip-rule="evenodd" d="M2316.21 2615.05C2314.85 2589.79 2313.18 2564.55 2311.18 2539.34C2307.2 2489.11 2301.98 2438.85 2293.31 2389.2C2284.74 2340.21 2272.76 2292.58 2255.5 2245.9C2247.49 2224.25 2238.82 2205.77 2226.24 2186.3C2214.34 2167.9 2199.16 2155.42 2180.25 2144.31C2163.21 2134.3 2143.41 2116.93 2127.06 2105.72C2120.24 2101.04 2106.2 2101.35 2101.52 2094.43C2095.4 2085.36 2099.37 2071.49 2093.19 2062.45C2086.13 2052.12 2076.24 2044.09 2065.09 2038.26C2052.91 2030.02 2038.58 2026.28 2024.2 2026.8C2003 2025.51 1981.65 2032.26 1968.04 2049.53C1961.24 2058.14 1957.28 2068.08 1956.73 2079.09C1956.59 2081.95 1957.51 2084.21 1959.02 2085.83C1958.12 2087.03 1957.23 2088.24 1956.34 2089.44C1953.56 2085.32 1947.05 2083.13 1942.71 2086.24C1928.53 2096.43 1913.2 2104.53 1897.01 2110.46C1893.23 2108.67 1888.64 2109.5 1885.4 2112.43C1884.08 2113.61 1882.69 2114.63 1881.23 2115.49C1875.23 2117.12 1869.13 2118.48 1862.95 2119.53C1861.01 2119.86 1859.37 2120.96 1858.13 2122.44C1856.29 2120.72 1853.76 2119.89 1850.93 2120.97C1818.27 2133.42 1787.42 2152.77 1763.98 2178.98C1738.01 2208.02 1724.37 2244.15 1713.98 2281.16C1702.74 2321.22 1695.56 2362.28 1689.52 2403.41C1683.41 2445.08 1677.38 2486.92 1673.18 2528.84C1670.81 2552.42 1669.91 2576.23 1670.98 2599.92C1671.51 2611.76 1672.59 2623.56 1674.32 2635.29C1674.72 2638.03 1675.14 2641.19 1675.81 2644.35C1673.76 2643.95 1671.31 2645.68 1671.73 2648.47C1674.63 2667.85 1698.05 2673.5 1714.21 2675.73C1740.63 2679.38 1767.19 2681.4 1793.87 2681.56C1820.09 2681.71 1846.3 2680.03 1872.46 2678.52C1899.29 2676.97 1926.11 2675.42 1952.93 2673.85C2060.4 2667.54 2167.87 2661.31 2275.33 2655C2285.15 2654.43 2296.36 2653.65 2304.77 2647.95C2316.3 2640.14 2316.89 2627.73 2316.21 2615.05Z" fill="white"/>
<path fill-rule="evenodd" clip-rule="evenodd" d="M1792.32 2398.26C1791.95 2397.56 1792.81 2396.93 1793.39 2397.44C1806.43 2408.89 1813.26 2427.28 1814.7 2444.29C1816.21 2462.31 1814.06 2480.98 1813.24 2499C1812.33 2519.07 1811.5 2539.15 1810.39 2559.22C1809.25 2579.57 1808.03 2599.92 1806.98 2620.28L1804.63 2666.08C1804.38 2670.96 1804.92 2676.97 1803.05 2681.52C1800.15 2688.59 1791.53 2687.49 1789.71 2681.59L1789.66 2681.4L1789.49 2681.52C1787.89 2676.2 1789.09 2669.89 1789.36 2664.39L1791.83 2614.35C1793.57 2578.98 1795.13 2543.61 1797 2508.24L1797.64 2496.46C1798.51 2480.59 1799.19 2464.76 1799.72 2448.9L1799.9 2443.61C1800.41 2427.68 1800.01 2412.64 1792.32 2398.26ZM2108.58 2104.64C2115.84 2103.95 2121.33 2106.36 2127.93 2108.9C2130.8 2110 2133.53 2111.28 2136.28 2112.6C2139.74 2114.26 2141.96 2117.19 2144.08 2120.28L2145.22 2121.95C2154.07 2134.93 2160.03 2149.9 2166.75 2164.02C2174.61 2180.55 2182.55 2197.04 2190.24 2213.64L2194.03 2221.82C2195.93 2225.91 2197.82 2230 2199.69 2234.11L2202.91 2241.25C2206.14 2248.5 2209.04 2256.17 2204.43 2263.64C2200.15 2270.6 2192.54 2275.98 2186.52 2281.35C2181.5 2285.83 2176.48 2290.32 2171.46 2294.8C2181.84 2305.2 2188.81 2318.3 2192.91 2332.35C2198.73 2329.92 2205.84 2329.46 2211.86 2328.41C2220.29 2326.94 2221.32 2339.7 2213.36 2339.55C2207.49 2339.43 2200.6 2340.03 2194.58 2338.79C2195.62 2343.41 2196.38 2348.1 2196.87 2352.79C2199.4 2377.42 2193.87 2402.19 2188.1 2426.02L2187.62 2427.98C2181.35 2453.77 2175.41 2479.62 2170.1 2505.63C2164.77 2531.69 2159.98 2557.86 2155.72 2584.11C2151.39 2610.84 2148.33 2637.71 2145.04 2664.58C2144.54 2668.64 2141.98 2672.13 2137.49 2672.13C2133.75 2672.13 2129.47 2668.63 2129.94 2664.58C2133.34 2635.32 2138.16 2606.22 2142.95 2577.16C2151.19 2527.12 2161.57 2477.51 2173.51 2428.23L2175.59 2419.65C2180.96 2397.4 2185.84 2374.46 2183.14 2351.5C2180.95 2332.81 2173.14 2312.88 2157.69 2301.27L2157.22 2300.92C2153.62 2298.27 2152.23 2293.21 2155.78 2289.72C2158.04 2287.51 2160.3 2285.29 2162.57 2283.08L2176.16 2269.8L2178.9 2267.12C2181.19 2264.89 2183.49 2262.67 2185.85 2260.52C2187.28 2259.22 2191.16 2256.74 2191.45 2254.6C2191.63 2253.2 2189.98 2250.75 2189.31 2249.46L2186.24 2243.27C2184.5 2239.73 2182.81 2236.18 2181.11 2232.62C2177.58 2225.26 2174.01 2217.92 2170.56 2210.53L2149.84 2166.11C2143.99 2153.58 2138.78 2140.35 2131.14 2128.77L2129.64 2126.51C2128.38 2124.61 2127.27 2122.78 2126.47 2120.46C2125.71 2118.22 2124.75 2115.76 2123.34 2113.85C2120.03 2109.37 2113.7 2106.83 2108.41 2105.89C2107.64 2105.76 2107.92 2104.7 2108.58 2104.64ZM1949.21 2092.97C1949.67 2092.97 1949.74 2093.63 1949.32 2093.75C1942.93 2095.68 1936.83 2098.77 1931.85 2103.25C1929.47 2105.39 1927.07 2107.82 1925.6 2110.7C1925.04 2111.81 1924.73 2112.97 1924.5 2114.18L1924.43 2114.58C1924.05 2116.77 1923.5 2117.98 1922.4 2119.73L1922.21 2120.02C1915.88 2129.8 1911.44 2140.66 1907.39 2151.53L1898.56 2175.23L1889.74 2198.94C1886.89 2206.57 1884.05 2214.21 1881.2 2221.85C1879.63 2226.07 1878.02 2230.27 1876.4 2234.47C1875.7 2236.29 1874.95 2238.09 1874.31 2239.94C1874.23 2240.19 1873.95 2241.7 1873.74 2242.07L1873.81 2242.2C1875.59 2245.19 1880.34 2247.69 1883.03 2249.87L1892.29 2257.36C1898.9 2262.71 1905.67 2267.9 1912.08 2273.48C1916.1 2276.98 1913.6 2283.26 1909.11 2284.72C1901.59 2287.18 1894.22 2290.11 1886.81 2292.88C1883.82 2294 1880.7 2294.98 1877.74 2296.21L1875.94 2296.99C1875.24 2297.31 1875.58 2297.3 1875.61 2298.6C1875.63 2299.96 1876.02 2301.38 1876.24 2302.72C1878.74 2317.82 1881.38 2332.88 1884.17 2347.93C1894.05 2401.12 1905.85 2453.92 1919.31 2506.32C1926.1 2532.78 1933.39 2559.11 1940.34 2585.53C1947.27 2611.88 1956.38 2637.86 1965.09 2663.66C1967.55 2670.94 1956.01 2674.08 1953.61 2666.83C1943.58 2636.48 1934.4 2605.86 1924.92 2575.33C1908.09 2521.09 1894.81 2465.68 1883.08 2410.12C1877.26 2382.59 1871.94 2354.95 1867.12 2327.23C1866.21 2321.98 1865.32 2316.73 1864.44 2311.47L1863.16 2303.74C1862.29 2298.23 1861.79 2292.5 1866.07 2288.14C1870.25 2283.88 1877.42 2282.37 1882.92 2280.38L1883.32 2280.23C1886.82 2278.92 1890.35 2277.66 1893.86 2276.37C1888.69 2272.29 1883.58 2268.13 1878.42 2264.06C1874.26 2260.77 1870.03 2257.55 1865.92 2254.19C1862.54 2251.42 1859.78 2247.86 1859.43 2243.36C1859.07 2238.75 1861.04 2234.48 1862.63 2230.25L1862.79 2229.84C1864.35 2225.62 1865.92 2221.41 1867.52 2217.21L1877.47 2191.2C1883.78 2174.67 1889.84 2158.01 1896.48 2141.61C1899.11 2135.12 1901.97 2128.73 1905.36 2122.59C1906.99 2119.63 1908.74 2116.74 1910.65 2113.95C1912.78 2110.82 1914.71 2109.29 1918.02 2107.56C1923.3 2104.8 1927.44 2100.17 1932.74 2097.32C1937.95 2094.53 1943.31 2093.03 1949.21 2092.97ZM1966.36 2063.48C1966.56 2063.13 1967.1 2063.29 1967.1 2063.68C1967.24 2071.9 1965.29 2080.29 1964.09 2088.41C1962.88 2096.57 1962.5 2105.17 1960.75 2113.23C1960.72 2113.61 1960.64 2113.98 1960.54 2114.34L1960.46 2114.62C1959.72 2116.88 1957.81 2118.79 1955.46 2119.39C1956.2 2123.49 1956.89 2127.59 1957.48 2131.71C1958.48 2138.8 1959.4 2145.9 1960.3 2153L1961.38 2161.52C1962.4 2169.55 1963.4 2177.58 1964.38 2185.62C1966.87 2186.66 1969.42 2187.52 1972.02 2188.27C1978.02 2189.98 1984.17 2190.68 1990.37 2191.29C2002.98 2192.53 2015.69 2193.1 2028.35 2193.8L2031.06 2193.96C2045.29 2194.77 2059.6 2194.92 2073.79 2193.46C2080.83 2192.73 2087.82 2191.52 2094.68 2189.79C2098.17 2188.92 2101.56 2187.61 2105.04 2186.76C2106.19 2186.47 2107.22 2185.82 2108.38 2185.12C2108.9 2184.47 2109.62 2183.98 2110.56 2183.79L2110.81 2183.74L2111.06 2183.71L2111.15 2183.67L2111.14 2183.7C2111.85 2183.6 2112.53 2183.6 2113.17 2183.69C2113.42 2177.42 2113.7 2171.16 2114.04 2164.9C2114.97 2148.07 2117.53 2130.53 2114.11 2113.85C2114 2113.29 2114.76 2113.1 2114.96 2113.62C2121.66 2131.27 2120.9 2150.57 2121.24 2169.15C2121.57 2187.32 2121.37 2205.5 2121.28 2223.67C2122.58 2224.23 2123.74 2224.98 2124.66 2226.03C2126.5 2228.14 2127.03 2231.8 2124.66 2233.83C2123.61 2234.73 2122.45 2235.35 2121.22 2235.79C2121.16 2251.58 2121.05 2267.36 2120.89 2283.15C2123.89 2285.47 2124.17 2290.98 2120.78 2293.27C2120.21 2344.39 2119.28 2395.52 2118.51 2446.64L2116.9 2553.89C2116.68 2568.18 2116.33 2582.47 2116.2 2596.76L2116.3 2596.8L2116.66 2596.96C2117.26 2597.24 2118.15 2597.7 2118.34 2598.17C2118.39 2598.29 2118.4 2598.38 2118.39 2598.44C2119.38 2598.58 2120.36 2599.04 2121.2 2599.84C2123.28 2601.82 2122.86 2604.81 2121.2 2606.83L2120.76 2607.37C2119.72 2608.62 2117.76 2609.11 2116.15 2608.85C2116.17 2617.77 2116.22 2626.69 2116.2 2635.61C2116.19 2638.33 2116.14 2641.05 2116.1 2643.78L2115.99 2650.31C2115.91 2654.04 2115.58 2658.77 2111.77 2660.45C2107.46 2662.34 2103.6 2660.79 2101.86 2656.41C2101.38 2655.23 2101.49 2654.13 2101.66 2652.95C2101.6 2651.19 2101.33 2649.15 2101.36 2647.52L2101.51 2640.71C2101.53 2639.66 2101.57 2638.61 2101.6 2637.56L2101.48 2637.58C2086.18 2638.32 2070.78 2637.96 2055.45 2637.95L2048.64 2637.96C2042.95 2637.96 2037.26 2637.93 2031.58 2637.71L2029.45 2637.62C2025.2 2637.42 2020.73 2637.36 2016.32 2636.98C2016.89 2641.51 2017.41 2646.03 2017.88 2650.57C2018.32 2654.86 2013.89 2658.52 2009.93 2658.52C2005.23 2658.52 2002.55 2654.82 2001.98 2650.57C1999.33 2630.49 1998.24 2610.23 1995.71 2590.14C1993.44 2572.14 1991.47 2554.11 1989.46 2536.08L1988.79 2530.07C1981.47 2464.47 1974.35 2398.83 1967.55 2333.17L1964.38 2302.48C1961.18 2271.54 1957.96 2240.6 1955.25 2209.62C1953.7 2191.9 1952.27 2174.19 1950.92 2156.45C1949.93 2143.43 1949.31 2130.47 1948.91 2117.47C1947.32 2115.83 1946.52 2113.44 1947.22 2110.97C1947.64 2109.53 1948.12 2108.09 1948.62 2106.66C1948.59 2105.25 1948.56 2103.85 1948.53 2102.44C1948.5 2101.11 1949.86 2100.42 1950.94 2100.64C1952.91 2095.87 1955.08 2091.15 1956.88 2086.43C1959.81 2078.79 1962.22 2070.55 1966.36 2063.48ZM1802.87 2146.07C1833.47 2126.89 1869.9 2113.08 1906.38 2114.57C1907.21 2114.6 1907.45 2115.87 1906.59 2116.06C1887.13 2120.4 1867.45 2125.7 1849.03 2133.4C1830.55 2141.13 1812.98 2151.54 1797.33 2164.04C1768.46 2187.12 1746.02 2217.13 1731.25 2250.96C1722.59 2270.78 1716.52 2291.7 1711.23 2312.63C1705.62 2334.78 1701 2357.17 1697.16 2379.69C1689.57 2424.18 1685.15 2469.16 1682.8 2514.22C1680.41 2560.05 1681.4 2605.92 1679.69 2651.76C1679.4 2659.7 1668.05 2659.55 1667.47 2651.76C1663.61 2599.64 1665.75 2546.69 1669.32 2494.61C1672.54 2447.79 1678.15 2401.07 1687.19 2355L1687.97 2351.01C1696.42 2308.39 1706.61 2264.74 1727.03 2226.14C1744.47 2193.19 1771.39 2165.81 1802.87 2146.07ZM2227.82 2349.76C2227.98 2349.31 2228.58 2349.31 2228.74 2349.76C2232.23 2359.53 2232.36 2370.56 2233.28 2380.85L2233.36 2381.64C2234.25 2391.04 2234.92 2400.44 2235.54 2409.85L2235.77 2413.38C2238.27 2451.78 2241.39 2490.13 2246.1 2528.32C2250.79 2566.37 2257.13 2604.16 2263.99 2641.87C2264.75 2646.07 2262.89 2650.34 2258.49 2651.55C2254.61 2652.62 2249.63 2650.23 2248.81 2646.05C2244.55 2624.41 2241.11 2602.74 2238.04 2580.9C2232.63 2542.46 2228.6 2503.84 2226 2465.1C2224.7 2445.65 2223.9 2426.2 2223.58 2406.7C2223.43 2397.66 2223.67 2388.59 2224.15 2379.55L2224.27 2377.47C2224.8 2368.23 2224.74 2358.57 2227.82 2349.76ZM1897.15 2594.32C1897.56 2594.1 1898.07 2594.56 1897.81 2594.98C1891.88 2604.61 1883.87 2612.92 1876.12 2621.1C1868.02 2629.66 1860.12 2638.48 1851.86 2646.87C1845.89 2652.93 1836.28 2643.15 1842.58 2637.59C1851.44 2629.77 1860.7 2622.35 1869.72 2614.7L1873.66 2611.36C1881.06 2605.11 1888.67 2598.92 1897.15 2594.32ZM2178.59 2589.5C2178.15 2588.65 2179.16 2587.97 2179.84 2588.53C2184.62 2592.42 2188.91 2597.06 2193.52 2601.16C2198.09 2605.22 2202.83 2609.01 2207.7 2612.71C2212.59 2616.42 2217.59 2619.99 2222.72 2623.36C2226.98 2626.16 2231.37 2628.4 2235.83 2630.72C2237.89 2630.99 2239.8 2632 2241.33 2633.92C2243.75 2636.96 2244.01 2642.69 2240.65 2645.33L2240.05 2645.8C2236.14 2648.88 2231.49 2649.26 2227.63 2645.8C2223.33 2641.95 2219.26 2637.7 2215.12 2633.63L2213.88 2632.41C2209.44 2628.09 2205.11 2623.63 2201.02 2618.97L2197.32 2614.76C2190.46 2606.94 2183.32 2598.5 2178.59 2589.5ZM2156.57 2138.18C2155.78 2137.65 2156.27 2136.24 2157.25 2136.57L2159.05 2137.2C2166.57 2139.81 2174.31 2142.71 2181.14 2146.74C2188.48 2151.06 2195.25 2156.21 2201.73 2161.74C2215.12 2173.18 2226.52 2187.26 2236.21 2201.92C2255.65 2231.35 2267.67 2265.05 2277.38 2298.77C2287.72 2334.73 2295.69 2371.46 2302.2 2408.29C2308.81 2445.73 2313.91 2483.5 2317.26 2521.37C2318.91 2540.02 2320.02 2558.68 2320.58 2577.4C2320.86 2587.03 2320.85 2596.65 2320.77 2606.28C2320.75 2608.76 2320.77 2611.24 2320.8 2613.71L2320.89 2621.14C2320.94 2625.84 2321.5 2630.78 2320.39 2635.36C2318.59 2642.75 2306.38 2641.37 2306.78 2633.82C2306.42 2631.31 2306.4 2628.72 2306.5 2626.11C2306.44 2625.78 2306.38 2625.44 2306.31 2625.09C2306.11 2624.09 2306.28 2623.17 2306.67 2622.37C2306.73 2621.12 2306.79 2619.88 2306.81 2618.67C2306.89 2613.71 2306.88 2608.77 2306.75 2603.81C2306.46 2593.35 2306.04 2582.9 2305.62 2572.45C2304.78 2551.57 2303.62 2530.68 2301.92 2509.85C2296.04 2437.35 2283.61 2364.43 2262.73 2294.67C2253.03 2262.28 2239.66 2230.48 2220.49 2202.49C2211.97 2190.07 2202.37 2178.59 2191.73 2167.94C2181.01 2157.22 2169.21 2146.55 2156.57 2138.18ZM2012.09 2605.57L2013.54 2616.04C2014.26 2621.28 2014.98 2626.52 2015.66 2631.76C2020.28 2631.13 2025 2630.86 2029.45 2630.47C2037.24 2629.78 2045.09 2629.44 2052.9 2629.12C2069.06 2628.45 2085.3 2627.3 2101.48 2627.38C2101.64 2627.38 2101.8 2627.39 2101.95 2627.4L2102.76 2606.74L2091.39 2606.73C2081.76 2606.71 2072.14 2606.63 2062.51 2606.55C2053.84 2606.47 2045.16 2606.46 2036.49 2606.28L2032.77 2606.19C2026.2 2606.01 2018.94 2606.38 2012.09 2605.57ZM2103.71 2575.59C2103.25 2575.64 2102.78 2575.69 2102.27 2575.71C2100.02 2575.81 2097.75 2575.74 2095.5 2575.76C2090.7 2575.8 2085.91 2575.83 2081.11 2575.83C2071.52 2575.83 2061.93 2575.89 2052.34 2576C2042.46 2576.12 2032.59 2576.3 2022.72 2576.32C2017.93 2576.32 2013.16 2576.2 2008.38 2576.06C2009.16 2582.86 2009.96 2589.66 2010.86 2596.43C2018.28 2595.43 2026.27 2595.94 2033.53 2595.87L2034.47 2595.86C2044.38 2595.69 2054.3 2595.81 2064.21 2595.82C2074.4 2595.83 2084.6 2595.87 2094.79 2595.95L2103.17 2596.02L2103.18 2595.6C2103.43 2588.94 2103.59 2582.26 2103.71 2575.59ZM2004.7 2543.06C2005.63 2551.09 2006.5 2559.13 2007.39 2567.17C2007.98 2567.07 2008.58 2567 2009.18 2566.93C2013.98 2566.43 2018.76 2566 2023.57 2565.7C2033.15 2565.11 2042.74 2564.79 2052.34 2564.54C2062.21 2564.27 2072.08 2564.07 2081.96 2563.93C2086.76 2563.86 2091.55 2563.87 2096.35 2563.9C2098.6 2563.92 2100.87 2563.85 2103.12 2564C2103.39 2564.02 2103.64 2564.04 2103.9 2564.07L2104.07 2552.01C2104.1 2550 2104.13 2547.98 2104.16 2545.97C2096.74 2546.43 2089.2 2546.26 2081.79 2546.26L2080.09 2546.26C2070.77 2546.31 2061.46 2546.18 2052.15 2545.98C2042.55 2545.78 2032.96 2545.47 2023.38 2544.86C2019.49 2544.61 2015.64 2544.28 2011.77 2543.85L2009.84 2543.63C2008.16 2543.43 2006.43 2543.27 2004.7 2543.06ZM2104.92 2509.01C2087.06 2510.43 2069.3 2511.02 2051.39 2511.2L2048.71 2511.22C2032.88 2511.34 2016.93 2511.99 2001.07 2511.57C2002.01 2519.8 2002.96 2528.02 2003.91 2536.25C2006.18 2536.14 2008.47 2536.14 2010.69 2536.06C2015.2 2535.9 2019.7 2535.86 2024.22 2535.85C2033.53 2535.83 2042.84 2535.91 2052.15 2535.89C2061.75 2535.87 2071.34 2535.71 2080.93 2535.53C2088.71 2535.38 2096.57 2534.79 2104.37 2534.82L2104.92 2509.01ZM2105.68 2473.92C2103.61 2474.6 2101.17 2474.65 2098.49 2474.77L2091.57 2475.12C2088.37 2475.27 2085.17 2475.42 2081.96 2475.54C2071.27 2475.93 2060.59 2476.3 2049.9 2476.64C2038.95 2476.98 2027.95 2477.18 2017 2476.84C2011.63 2476.67 2006.31 2476.39 2000.97 2475.94C1999.64 2475.83 1998.3 2475.76 1996.95 2475.66C1998.19 2486.56 1999.44 2497.46 2000.69 2508.35C2016.48 2506.42 2032.39 2505.21 2048.15 2503.2L2062.41 2501.38C2076.66 2499.56 2090.9 2497.78 2105.2 2496.27L2105.68 2473.92ZM2106.44 2438.44C2103.4 2439.19 2099.94 2439.15 2097.03 2439.33L2096.49 2439.37C2090.96 2439.79 2085.42 2440 2079.88 2440.14C2069.03 2440.4 2058.17 2440.54 2047.31 2440.6L2040.78 2440.64C2032.08 2440.69 2023.38 2440.72 2014.68 2440.51C2009.09 2440.38 2003.52 2440.11 1997.94 2439.83C1996.27 2439.75 1994.56 2439.69 1992.84 2439.61C1994.01 2449.92 1995.19 2460.24 1996.36 2470.55C1998.2 2470.26 2000.04 2470.04 2001.8 2469.74C2006.29 2468.98 2010.78 2468.38 2015.31 2467.83C2025.12 2466.66 2034.99 2465.81 2044.84 2465.1C2054.96 2464.36 2065.09 2463.74 2075.21 2463.03L2082.38 2462.53C2084.77 2462.36 2087.16 2462.2 2089.55 2462.06C2093.63 2461.8 2098.38 2462.09 2102.43 2461.2C2103.52 2460.74 2104.74 2460.64 2105.96 2460.9L2106.44 2438.44ZM2107.36 2396.91C2106.31 2398.24 2104.74 2398.94 2102.87 2399.18C2093.12 2400.45 2083.13 2400.65 2073.3 2401.25L2071.57 2401.36C2061.42 2402.03 2051.26 2402.55 2041.11 2403.09C2030.68 2403.65 2020.25 2404.1 2009.81 2404.46C2005.37 2404.62 2000.92 2404.63 1996.48 2404.58L1994.58 2404.55C1992.76 2404.52 1990.85 2404.52 1988.93 2404.46C1989.99 2414.11 1991.06 2423.75 1992.15 2433.4C1994.1 2433.19 1996.05 2433.02 1997.94 2432.82C2003.52 2432.23 2009.09 2431.65 2014.67 2431.21C2025.27 2430.38 2035.87 2429.87 2046.48 2429.35C2057.33 2428.81 2068.2 2428.45 2079.05 2427.95C2084.32 2427.7 2089.58 2427.39 2094.83 2426.91C2098.51 2426.57 2102.88 2425.32 2106.72 2425.78C2106.93 2416.15 2107.14 2406.53 2107.36 2396.91ZM2108.22 2359.71C2108.05 2359.96 2107.86 2360.21 2107.62 2360.44C2103.33 2364.68 2098.04 2364.36 2092.36 2364.8L2092.01 2364.83C2086.43 2365.3 2080.86 2365.75 2075.28 2366.15C2064.13 2366.95 2052.96 2367.52 2041.79 2368.02C2030.36 2368.53 2018.86 2368.89 2007.42 2368.65C2000.09 2368.5 1992.42 2368.53 1984.95 2367.81C1986.09 2378.44 1987.25 2389.06 1988.41 2399.69C1990.51 2399.29 1992.63 2398.99 1994.63 2398.67C1999.68 2397.88 2004.73 2397.08 2009.81 2396.5C2019.95 2395.33 2030.1 2394.23 2040.26 2393.25C2048.96 2392.41 2057.65 2391.55 2066.35 2390.78L2071.57 2390.33C2081.95 2389.45 2092.46 2388.01 2102.87 2387.8C2104.58 2387.77 2106.53 2388.7 2107.51 2390.17C2107.74 2380.02 2107.98 2369.86 2108.22 2359.71ZM2108.94 2329.59C2106.29 2329.91 2103.43 2329.73 2100.98 2329.81C2094.8 2330.01 2088.61 2330.2 2082.43 2330.38L2045.32 2331.47C2032.68 2331.85 2020 2332.13 2007.36 2331.95C2001.8 2331.87 1996.22 2331.86 1990.66 2331.56L1988.81 2331.44C1986.52 2331.29 1983.71 2331.27 1980.97 2330.99L1984.21 2360.98C1991.64 2359.91 1999.31 2359.5 2006.68 2358.87L2008.26 2358.74C2019.13 2357.74 2030.06 2357.09 2040.95 2356.35C2052.12 2355.59 2063.28 2354.68 2074.44 2353.74C2080.02 2353.27 2085.6 2352.8 2091.17 2352.29L2091.86 2352.22C2097.13 2351.67 2102.08 2350.5 2106.74 2353.6C2107.42 2354.06 2107.96 2354.66 2108.32 2355.34C2108.52 2346.76 2108.72 2338.17 2108.94 2329.59ZM2109.8 2294.59C2087.2 2295.5 2064.59 2296.19 2041.98 2296.49C2029.24 2296.66 2016.53 2296.54 2003.8 2296.28C1998.28 2296.16 1992.71 2295.9 1987.2 2295.47L1985.13 2295.31C1982.51 2295.09 1979.75 2294.93 1977.01 2294.66C1978.15 2304.97 1979.27 2315.29 1980.39 2325.6C1983.08 2325.1 1985.9 2324.87 1988.27 2324.57L1988.81 2324.49C1994.68 2323.69 2000.61 2323.21 2006.52 2322.69C2018.02 2321.68 2029.57 2321.03 2041.1 2320.47C2052.91 2319.9 2064.72 2319.42 2076.52 2318.9L2088.33 2318.37C2090.3 2318.28 2092.27 2318.2 2094.24 2318.11C2097.05 2317.99 2099.86 2317.88 2102.67 2317.76C2104.06 2317.71 2105.5 2317.52 2106.89 2317.59L2107.28 2317.54C2107.47 2317.51 2107.63 2317.5 2107.78 2317.48C2108.15 2317.19 2108.56 2316.95 2108.99 2316.77L2109.25 2316.67L2109.8 2294.59ZM1973.31 2261.42C1974.36 2270.7 1975.39 2279.99 1976.42 2289.27C1979.64 2288.9 1982.9 2288.7 1985.98 2288.42C1992.19 2287.87 1998.42 2287.38 2004.65 2287.09L2017.09 2286.52C2025.38 2286.13 2033.68 2285.76 2041.98 2285.46C2064.69 2284.63 2087.41 2283.68 2110.11 2282.52C2110.27 2276.22 2110.43 2269.92 2110.6 2263.63C2109.51 2264.79 2107.94 2265.56 2105.87 2265.56C2082.04 2265.49 2058.18 2265.63 2034.35 2265.24C2022.43 2265.04 2010.51 2264.75 1998.6 2264.14C1992.77 2263.84 1986.9 2263.23 1981.12 2262.43C1978.65 2262.09 1975.95 2261.84 1973.31 2261.42ZM1969.49 2228.35C1970.61 2237.85 1971.71 2247.37 1972.79 2256.88C1975.75 2256.35 1978.81 2256.07 1981.57 2255.69C1987.5 2254.89 1993.47 2254.24 1999.45 2253.91C2011.08 2253.25 2022.71 2252.92 2034.35 2252.67C2058.18 2252.16 2082.03 2252.17 2105.87 2251.98C2108.11 2251.96 2109.77 2252.85 2110.86 2254.17C2111.03 2248.23 2111.2 2242.29 2111.38 2236.35C2109.08 2236.11 2106.8 2235.77 2104.68 2235.62C2098.19 2235.17 2091.7 2234.75 2085.2 2234.38C2071.65 2233.6 2058.08 2232.94 2044.51 2232.35C2030.94 2231.76 2017.37 2231.18 2003.8 2230.68L1997.86 2230.46C1988.42 2230.11 1978.82 2229.67 1969.49 2228.35ZM1965.22 2192.53C1966.39 2202.16 1967.54 2211.8 1968.68 2221.43L1969.03 2224.41C1980.38 2222.2 1992.35 2221.56 2003.8 2221.07C2017.37 2220.49 2030.92 2220.19 2044.51 2220.24C2058.09 2220.28 2071.64 2220.6 2085.2 2221.16C2091.98 2221.44 2098.76 2221.76 2105.53 2222.13C2107.39 2222.23 2109.58 2222.18 2111.82 2222.21C2111.87 2220.7 2111.91 2219.18 2111.96 2217.67C2112.17 2211.54 2112.37 2205.41 2112.58 2199.28C2108 2201.63 2102.05 2202.58 2097.44 2203.58L2096.92 2203.7C2089.31 2205.41 2081.55 2206.51 2073.79 2207.19C2058.56 2208.52 2043.16 2208.02 2027.93 2206.74L2025.27 2206.51C2011.9 2205.35 1998.04 2203.88 1985.08 2200.57C1978.91 2198.99 1972.53 2196.79 1966.99 2193.59C1966.42 2193.26 1965.83 2192.91 1965.22 2192.53ZM2093.94 2078.09C2094.07 2077.57 2094.85 2077.45 2095.11 2077.94C2096.91 2081.36 2097.58 2085.47 2098.83 2089.13C2100.17 2093.08 2101.43 2097.05 2102.91 2100.94C2106.01 2109.07 2109.67 2116.89 2114.03 2124.42C2118.35 2131.88 2106.26 2137.21 2103.08 2129.04C2099.8 2120.61 2097.1 2111.9 2095.47 2102.99C2094.68 2098.64 2093.97 2094.24 2093.74 2089.82C2093.54 2086.03 2093 2081.79 2093.94 2078.09Z" fill="black"/>
<path fill-rule="evenodd" clip-rule="evenodd" d="M2118.15 1796.29C2062.12 1750.73 1972.33 1735.93 1912.35 1781.9C1865.74 1825.03 1846.46 1947.62 1854.7 2009.21C1857 2048.72 1887.17 2093.5 1931.46 2081C1938.98 2080.26 1946.28 2077.38 1953.87 2076.77C1962.95 2075.73 1972.1 2075.71 1981.16 2076.99C2000.91 2079.79 2018.41 2090.27 2037.58 2095.18C2073.14 2104.27 2112.81 2098.15 2143.42 2077.66C2244.57 2011.13 2198.75 1860.68 2118.15 1796.29Z" fill="white"/>
<path fill-rule="evenodd" clip-rule="evenodd" d="M2110.69 2096.27C2111.73 2095.91 2112.77 2095.54 2113.8 2095.16C2113.87 2095.4 2113.98 2095.62 2114.11 2095.85C2114.25 2096.21 2114.4 2096.55 2114.56 2096.9C2113.26 2096.91 2111.97 2096.68 2110.69 2096.27ZM2108.61 1654.77C2108.15 1653.74 2107.62 1652.75 2107.03 1651.8C2108.48 1652.27 2109.92 1652.91 2111.24 1653.75C2110.35 1654.05 2109.48 1654.39 2108.61 1654.77ZM1887.28 1789.57C1887.22 1789.56 1887.16 1789.55 1887.11 1789.54C1887.87 1787.52 1889.22 1785.61 1890.71 1784.23C1890.98 1783.98 1891.27 1783.75 1891.55 1783.51C1889.97 1785.4 1888.53 1787.42 1887.28 1789.57ZM2292.26 2001.23C2291.51 1994.13 2290.55 1987.04 2289.32 1980C2288.14 1973.26 2287.14 1966.05 2283.71 1960.07C2280.3 1954.11 2276.88 1948.32 2272.83 1943.08C2273.4 1940.41 2274.17 1937.89 2274.84 1935.86C2278.67 1924.19 2282.45 1909.36 2274.48 1898.51C2272.63 1895.99 2270.37 1894.07 2267.79 1892.33C2266.69 1891.59 2264.87 1890.91 2264.02 1889.89C2263.43 1889.17 2263.63 1889.56 2263.61 1889.2C2263.46 1887.28 2267.98 1883.21 2269.03 1881.68C2271.01 1878.86 2272.48 1875.68 2273.61 1872.44C2278.06 1859.58 2275.03 1845.43 2272.36 1832.55C2270.94 1825.72 2269.38 1818.88 2268.87 1811.91C2268.4 1805.36 2269.29 1798.97 2269.82 1792.46C2270.33 1786.03 2270.19 1779.4 2267.44 1773.45C2266.1 1770.55 2264.06 1768 2261.58 1766C2259.16 1764.05 2256.14 1762.92 2253.79 1760.98C2251.43 1759.04 2252.11 1756.42 2252.72 1753.75C2253.56 1750.12 2254.63 1746.51 2254.73 1742.76C2254.92 1736.22 2252.25 1729.86 2248.09 1724.91C2243.79 1719.81 2237.66 1716.36 2231.03 1715.58C2228 1715.22 2225.01 1715.83 2222 1715.62C2219.02 1715.41 2218.37 1713.92 2217.81 1711.19C2216.51 1704.95 2217.04 1698.78 2213.96 1692.95C2211.24 1687.76 2206.39 1684.25 2201.03 1682.18C2191.21 1678.38 2179.78 1679.16 2169.42 1681.4C2163.31 1663.41 2144.22 1651.6 2125.43 1651.46C2122.5 1646.48 2117.53 1642.76 2111.87 1640.58C2102.5 1636.96 2092.57 1639.07 2082.81 1639.07H2082.76C2081.78 1639.01 2080.8 1638.99 2079.82 1639C2078.9 1638.94 2077.98 1638.87 2077.06 1638.77C2065.95 1637.45 2054.96 1632.9 2043.96 1637.36C2039.05 1639.35 2035.15 1642.4 2032.68 1646.31C2028.95 1647.32 2025.28 1648.48 2021.68 1649.83C2006.06 1650.24 1990.59 1658.61 1982.69 1672.19C1971.58 1670.93 1959.51 1673.07 1952.16 1682.16C1950.24 1684.52 1948.76 1687.3 1947.78 1690.25C1940.28 1692.67 1933.34 1696.99 1928.8 1703.5C1924.66 1709.44 1923.86 1717.12 1926.67 1723.5C1919.97 1728.35 1914.74 1735.3 1912.22 1743.49C1910.69 1748.48 1910.46 1753.62 1911.45 1758.53C1904.6 1760.05 1898.04 1762.87 1892.24 1767.1C1886.15 1771.53 1878.55 1778.58 1878.15 1786.7C1878.12 1787.29 1878.14 1787.89 1878.19 1788.48C1864.79 1787.54 1851.13 1789.81 1842.08 1800.56C1835.28 1808.62 1832.32 1819 1834.14 1828.45C1818.2 1831.69 1803.13 1840.02 1792.61 1852.35C1784.97 1861.31 1778.18 1872.69 1778.59 1884.89C1778.72 1888.56 1779.58 1892.26 1781.07 1895.68V1895.69C1780.43 1896.89 1779.77 1898.23 1779.14 1899.65C1769.27 1906.56 1762.1 1917.4 1758.06 1929.34C1754.8 1939.01 1752.74 1951.57 1756.23 1961.42C1756.76 1962.92 1757.43 1964.33 1758.21 1965.64C1757.56 1966.34 1756.93 1967.04 1756.33 1967.75C1749.67 1975.53 1742.94 1985.33 1743.4 1996.04C1743.58 2000.36 1745.19 2004.7 1747.8 2008.26C1738.6 2017.59 1731.19 2029.37 1731.92 2042.52C1732.55 2053.97 1738.83 2065.59 1748.67 2071.09C1747.03 2079.91 1749.22 2089.22 1756.09 2096.1C1759.52 2099.55 1763.55 2101.81 1767.83 2103.02C1768.79 2113.41 1778 2121.77 1787.79 2124.18C1789.62 2124.63 1791.44 2124.9 1793.25 2125.03C1802.06 2129.35 1812.57 2128.86 1821.55 2124.89C1824.2 2128.26 1827.65 2131 1831.68 2132.97C1833.3 2133.77 1835.02 2134.44 1836.82 2134.97C1849.52 2138.73 1862.53 2133.64 1873.63 2127.69C1873.99 2127.5 1874.65 2127.26 1875.23 2127C1876.76 2128.71 1879.56 2130.41 1881.01 2131.24C1885.95 2134.08 1891.99 2135.4 1897.67 2135.03C1904.32 2134.58 1910.19 2132.38 1915.63 2129.26C1916.42 2129.39 1917.22 2129.47 1918.02 2129.51C1923.13 2129.78 1927.69 2128.17 1931.79 2125.61C1934.5 2125.97 1937.28 2125.93 1940.09 2125.44C1946.28 2127.01 1952.31 2124.51 1957.16 2120.53C1959.31 2118.77 1961.12 2116.69 1963.06 2114.72C1965.08 2112.66 1966.62 2112.19 1968.98 2110.8C1974.56 2107.54 1975.23 2099.26 1972.81 2093.28C1973.27 2092.23 1973.54 2091.07 1973.54 2089.77C1973.52 2078.47 1968.31 2068.11 1961.92 2059.06C1959.07 2055.03 1955.97 2051.08 1952.57 2047.51C1949.83 2044.63 1945.99 2039.97 1941.94 2038.8C1941.7 2038.62 1941.44 2038.44 1941.19 2038.28C1941.97 2035.53 1942.43 2032.74 1942.23 2029.88C1942.03 2026.95 1941.08 2024.17 1939.57 2021.8C1944.65 2011.94 1946.8 2001.12 1945.78 1989.84C1949.92 1983.97 1953.05 1977.48 1954.67 1970.37C1955.67 1965.98 1956.24 1961.35 1956.16 1956.84C1956.13 1954.67 1955.34 1951.94 1955.32 1949.7C1955.44 1950.4 1956.36 1947.76 1956.72 1947.11C1960.82 1939.48 1966.1 1933.53 1966.98 1924.54C1967.49 1919.28 1966.24 1913.47 1963.09 1909.15C1965.11 1901.19 1965.08 1892.64 1961.91 1885.05C1961.05 1883.02 1960.07 1881.04 1958.95 1879.15C1959.47 1877.57 1959.95 1875.97 1960.56 1874.52C1960.8 1873.95 1961.04 1873.37 1961.27 1872.8C1963.58 1870.76 1965.73 1868.53 1967.54 1866.35C1971.54 1861.52 1974.6 1855.98 1974.98 1849.6C1975.17 1846.4 1974.42 1843.34 1973.49 1840.31C1973.08 1838.93 1972.84 1837.41 1972.35 1836.07C1972.08 1835.33 1971.42 1834.57 1971.19 1833.87C1971.14 1833.72 1971.1 1833.59 1971.06 1833.49C1971.1 1833.39 1971.12 1833.17 1971.12 1832.77C1971.13 1829.71 1971.53 1826.72 1971.55 1823.77C1974.35 1826.6 1977.73 1828.71 1981.56 1829.95C1989.29 1832.43 1997.35 1831.31 2004.19 1827.48C2011.55 1832.52 2019.82 1837.09 2028.49 1838.93C2033.65 1840.02 2038.81 1839.56 2043.98 1840.24C2049.12 1840.91 2054.09 1843.15 2058.93 1844.9C2069.7 1848.79 2080.44 1852.79 2091.24 1856.58C2099.96 1859.64 2109.4 1862.07 2118.54 1860.35C2121.1 1864.31 2124.43 1867.65 2128.7 1870.1C2131.76 1871.85 2135.12 1873.03 2138.58 1873.62C2141.65 1874.14 2145.25 1873.94 2147.73 1876.04C2150.16 1878.09 2151.68 1881.14 2153.86 1883.44C2156.29 1886.01 2159.29 1888.25 2162.43 1889.85C2164.95 1891.14 2167.52 1892.06 2170.14 1892.67C2169.91 1898.49 2169.69 1904.3 2169.62 1910.13C2169.49 1922.8 2169.54 1935.46 2169.37 1948.13C2169.2 1960.75 2168.8 1973.37 2168.14 1985.98C2167.51 1997.81 2166.62 2009.68 2163.8 2021.22C2154.45 2059.51 2119.41 2086.93 2080.18 2088.33C2068.54 2088.75 2057.01 2087.11 2045.87 2083.68C2034.34 2080.13 2024.04 2072.82 2012.21 2070.57C2009.12 2069.99 2006.21 2073.1 2007.98 2076.09C2011.03 2081.23 2014.73 2084.37 2019.8 2087.46C2025.11 2090.69 2031.02 2093.09 2036.86 2095.18C2047.59 2099.03 2058.95 2101.27 2070.34 2101.89C2079.03 2102.37 2087.76 2101.77 2096.27 2100.13C2096.86 2101.97 2097.92 2103.75 2098.72 2105.44C2098.84 2105.69 2099.24 2105.52 2099.16 2105.26C2099.04 2104.84 2098.95 2104.46 2098.92 2104.16C2101.78 2107.89 2106.2 2110.47 2110.74 2111.73C2113.94 2112.61 2117.34 2112.88 2120.64 2112.51C2121.71 2112.39 2122.72 2112.21 2123.73 2111.99C2127.08 2114.93 2131.38 2116.89 2135.69 2117.87C2134.95 2122.37 2137.17 2127.28 2142.32 2128.56C2144.49 2129.09 2146.57 2129.1 2148.65 2128.91C2150.32 2129.69 2152.13 2130.31 2154.05 2130.72C2156.54 2131.27 2159.52 2130.57 2161.41 2128.76C2162.44 2129.49 2163.4 2129.99 2164.35 2131.14C2168.28 2135.88 2176.75 2132.1 2177.13 2126.62C2178.37 2126.62 2179.62 2126.64 2180.88 2126.68C2181.17 2126.82 2181.47 2126.96 2181.78 2127.1C2187.26 2129.65 2192.93 2131.87 2198.99 2129.87C2200.1 2129.5 2201.13 2129.04 2202.05 2128.49C2206.32 2128.87 2210.53 2128.88 2214.86 2127.48C2217.42 2126.66 2219.82 2125.34 2221.82 2123.62C2228.5 2125.58 2235.54 2126.47 2242.19 2124.04C2247.16 2122.23 2251.17 2119.36 2253.99 2115.59C2258.3 2115.74 2262.68 2114.7 2266.62 2112.65C2273.37 2109.15 2278.1 2102.51 2281.4 2095.86C2288.66 2081.17 2292.95 2065.39 2294.64 2049.12C2296.3 2033.1 2293.93 2017.16 2292.26 2001.23Z" fill="black"/>
<path fill-rule="evenodd" clip-rule="evenodd" d="M2085.93 2035.1C2080.2 2032.76 2075.09 2028.87 2071.36 2023.89C2070.06 2022.15 2069.72 2020.33 2070 2018.65C2070.3 2016.77 2071.41 2015.07 2072.93 2013.93C2074.45 2012.78 2076.35 2012.21 2078.19 2012.5C2079.79 2012.75 2081.38 2013.63 2082.64 2015.44L2082.91 2015.81C2085.13 2018.81 2088.02 2021.28 2091.32 2022.87C2094.5 2024.4 2098.05 2025.12 2101.73 2024.7C2108.74 2023.91 2113.57 2020.12 2118.7 2014.97C2119.34 2014.32 2119.97 2013.65 2120.61 2012.97C2121.02 2012.35 2121.58 2011.96 2122.2 2011.75C2122.89 2011.52 2123.67 2011.53 2124.39 2011.78C2125.08 2012.02 2125.7 2012.48 2126.11 2013.09C2126.5 2013.66 2126.73 2014.38 2126.66 2015.2C2126.19 2020.53 2123.4 2025.29 2119.44 2029.03C2115.04 2033.18 2109.21 2036.06 2103.72 2037.06C2097.67 2038.17 2091.51 2037.38 2085.93 2035.1ZM2106.57 1952.81C2113.01 1956.72 2122.81 1965.84 2115.89 1975.54C2107.74 1984.09 2096.01 1974.29 2090.23 1969.85C2084.87 1966.41 2078.85 1975.25 2083.82 1979.27C2125.59 2010.2 2142.54 1953.83 2109.83 1948.21C2106.23 1947.59 2104.89 1951.6 2106.57 1952.81ZM2031.73 1916.82C2032.44 1908 2045.88 1905.99 2047.21 1914.73C2048.41 1922.55 2047 1929.74 2043.48 1936.78C2040.11 1943.51 2031.65 1940.37 2031.01 1934.24C2030.15 1926.03 2031.29 1922.31 2031.73 1916.82ZM2134.02 1912.91C2135.89 1910.46 2138.6 1908.78 2141.84 1909.73C2151.96 1912.69 2148.98 1927.07 2145.42 1934.07C2143.49 1937.87 2137.24 1938.83 2134.42 1935.49C2129.82 1930.03 2127.62 1919.13 2133.47 1913.75C2133.62 1913.48 2133.8 1913.2 2134.02 1912.91ZM2043.34 1878.2L2044.93 1877.92C2049.88 1877.06 2056.04 1876.24 2059.54 1880.22C2061.39 1882.33 2062.03 1886.25 2059.54 1888.27C2055.15 1891.83 2050.29 1890.45 2045.03 1890.75C2040.7 1891 2036.53 1891.72 2032.36 1892.91C2023.2 1895.53 2015.73 1900.31 2007.91 1905.56C2006.88 1906.25 2005.84 1904.94 2006.32 1903.98C2010.84 1895.13 2019.59 1887.86 2028.36 1883.43C2033.04 1881.06 2038.16 1879.1 2043.34 1878.2ZM2124.79 1874.23L2126.01 1874.49C2139.33 1877.27 2156.64 1882.84 2162.95 1895.93C2163.19 1897.78 2162.94 1898.17 2162.73 1898.43L2162.66 1898.52C2162.49 1898.74 2162.36 1899.05 2161.55 1899.3C2161.33 1899.25 2161.11 1899.19 2160.88 1899.13C2157.99 1898.37 2155.7 1897.33 2153.48 1896.24L2151.08 1895.06C2148.3 1893.69 2145.49 1892.38 2142.51 1891.4C2136.15 1889.33 2129.61 1887.87 2122.97 1887.09C2121.53 1886.92 2120.14 1886.43 2119.05 1885.6C2118.01 1884.81 2117.22 1883.71 2116.86 1882.26C2116.39 1880.38 2116.52 1878.95 2117.53 1877.25C2118.29 1875.98 2119.38 1875.09 2120.63 1874.59C2121.9 1874.07 2123.35 1873.95 2124.79 1874.23Z" fill="black"/>
</g>
<text fill="#FFA954" xml:space="preserve" style="white-space: pre" font-family="Graphik" font-size="136.633" font-weight="600" letter-spacing="0em"><tspan x="2456.55" y="1972.71">See?</tspan></text>
<text fill="#FF7DF5" xml:space="preserve" style="white-space: pre" font-family="Graphik" font-size="136.633" font-weight="600" letter-spacing="0em"><tspan x="1525.74" y="1505.88">Think and Feel?</tspan></text>
<text fill="#70DCA1" xml:space="preserve" style="white-space: pre" font-family="Graphik" font-size="136.633" font-weight="600" letter-spacing="0em"><tspan x="1639.6" y="2519.25">Say and Do?</tspan></text>
<text fill="#E9C435" xml:space="preserve" style="white-space: pre" font-family="Graphik" font-size="136.633" font-weight="600" letter-spacing="0em"><tspan x="1250.16" y="1989.79">Hear?</tspan></text>
<g filter="url(#filter0_dd)">
<rect width="572" height="223.448" transform="translate(262 1142)" fill="#FFFBB0"/>
<text fill="#111111" xml:space="preserve" style="white-space: pre" font-family="Graphik" font-size="63.18" letter-spacing="0em"><tspan x="274" y="1253.32">Discover Weekly</tspan></text>
</g>
<g filter="url(#filter1_dd)">
<rect width="572" height="281.448" transform="translate(560 1518)" fill="#FFFBB0"/>
<text fill="#111111" xml:space="preserve" style="white-space: pre" font-family="Graphik" font-size="63.18" letter-spacing="0em"><tspan x="572" y="1629.32">Songs from </tspan><tspan x="572" y="1698.32">playlists</tspan></text>
</g>
<g filter="url(#filter2_dd)">
<rect width="572" height="223.448" transform="translate(160 1897)" fill="#FFFBB0"/>
<text fill="#111111" xml:space="preserve" style="white-space: pre" font-family="Graphik" font-size="63.18" letter-spacing="0em"><tspan x="172" y="2008.32">Really good music</tspan></text>
</g>
<g filter="url(#filter3_dd)">
<rect width="572" height="284.448" transform="translate(666 2159)" fill="#FFFBB0"/>
<text fill="#111111" xml:space="preserve" style="white-space: pre" font-family="Graphik" font-size="63.18" letter-spacing="0em"><tspan x="678" y="2270.32">The same type of </tspan><tspan x="678" y="2339.32">music</tspan></text>
</g>
<g filter="url(#filter4_dd)">
<rect width="572" height="353.448" transform="translate(154 2578)" fill="#FFFBB0"/>
<text fill="#111111" xml:space="preserve" style="white-space: pre" font-family="Graphik" font-size="63.18" letter-spacing="0em"><tspan x="166" y="2689.32">&#x201c;Have you viewed </tspan><tspan x="166" y="2758.32">your Spotify </tspan><tspan x="166" y="2827.32">Wrapped results?&#x201d;</tspan></text>
</g>
<g clip-path="url(#clip2)" filter="url(#filter5_dd)">
<rect width="572.33" height="264.711" transform="translate(1642 474)" fill="#FFCFE6"/>
<text fill="#111111" xml:space="preserve" style="white-space: pre" font-family="Graphik" font-size="63.18" letter-spacing="0em"><tspan x="1654" y="585.316">&#x201c;I listen to the </tspan><tspan x="1654" y="654.316">same music&#x201d;</tspan></text>
</g>
<g clip-path="url(#clip3)" filter="url(#filter6_dd)">
<rect width="572.33" height="264.711" transform="translate(1433 936)" fill="#FFCFE6"/>
<text fill="#111111" xml:space="preserve" style="white-space: pre" font-family="Graphik" font-size="63.18" letter-spacing="0em"><tspan x="1445" y="1047.32">&#x201c;What do my </tspan><tspan x="1445" y="1116.32">friends listen to?&#x201d;</tspan></text>
</g>
<g filter="url(#filter7_dd)">
<rect width="334" height="264.448" transform="translate(2295 823)" fill="#FFCFE6"/>
<text fill="#111111" xml:space="preserve" style="white-space: pre" font-family="Graphik" font-size="63.18" letter-spacing="0em"><tspan x="2335.24" y="934.316">Curious</tspan></text>
</g>
<g filter="url(#filter8_dd)">
<rect width="334" height="264.448" transform="translate(2438 433)" fill="#FFCFE6"/>
<text fill="#111111" xml:space="preserve" style="white-space: pre" font-family="Graphik" font-size="63.18" letter-spacing="0em"><tspan x="2488.98" y="544.316">Unsure</tspan></text>
</g>
<g filter="url(#filter9_dd)">
<rect width="334" height="264.448" transform="translate(2853 739)" fill="#FFCFE6"/>
<text fill="#111111" xml:space="preserve" style="white-space: pre" font-family="Graphik" font-size="63.18" letter-spacing="0em"><tspan x="2866.8" y="850.316">Energetic</tspan></text>
</g>
<g filter="url(#filter10_dd)">
<rect width="572" height="352.448" transform="translate(834 471)" fill="#FFCFE6"/>
<text fill="#111111" xml:space="preserve" style="white-space: pre" font-family="Graphik" font-size="63.18" letter-spacing="0em"><tspan x="846" y="582.316">&#x201c;What kind of </tspan><tspan x="846" y="651.316">music do I even </tspan><tspan x="846" y="720.316">listen to?&#x201d;</tspan></text>
</g>
<g clip-path="url(#clip4)" filter="url(#filter11_dd)">
<rect width="572" height="340" transform="translate(1250 2712)" fill="#D6F8CF"/>
<text fill="#111111" xml:space="preserve" style="white-space: pre" font-family="Graphik" font-size="63.18" letter-spacing="0em"><tspan x="1262" y="2823.32">&#x201c;What kind of </tspan><tspan x="1262" y="2892.32">songs have you </tspan><tspan x="1262" y="2961.32">been listening </tspan><tspan x="1262" y="3030.32">to?&#x201d;</tspan></text>
</g>
<g clip-path="url(#clip5)" filter="url(#filter12_dd)">
<rect width="572.33" height="284" transform="translate(678 3176)" fill="#D6F8CF"/>
<text fill="#111111" xml:space="preserve" style="white-space: pre" font-family="Graphik" font-size="63.18" letter-spacing="0em"><tspan x="690" y="3287.32">&#x201c;I have nothing to </tspan><tspan x="690" y="3356.32">listen to!&#x201d;</tspan></text>
</g>
<g clip-path="url(#clip6)" filter="url(#filter13_dd)">
<rect width="572.33" height="228" transform="translate(1713 3206)" fill="#D6F8CF"/>
<text fill="#111111" xml:space="preserve" style="white-space: pre" font-family="Graphik" font-size="63.18" letter-spacing="0em"><tspan x="1725" y="3317.32">&#x201c;Can you make </tspan><tspan x="1725" y="3386.32">me a playlist?&#x201d;</tspan></text>
</g>
<g clip-path="url(#clip7)" filter="url(#filter14_dd)">
<rect width="572" height="322" transform="translate(2152 2701)" fill="#D6F8CF"/>
<text fill="#111111" xml:space="preserve" style="white-space: pre" font-family="Graphik" font-size="63.18" letter-spacing="0em"><tspan x="2164" y="2812.32">Looks at </tspan><tspan x="2164" y="2881.32">recommended </tspan><tspan x="2164" y="2950.32">playlists</tspan></text>
</g>
<g clip-path="url(#clip8)" filter="url(#filter15_dd)">
<rect width="572" height="317" transform="translate(2605 3117)" fill="#D6F8CF"/>
<text fill="#111111" xml:space="preserve" style="white-space: pre" font-family="Graphik" font-size="63.18" letter-spacing="0em"><tspan x="2617" y="3228.32">Send song </tspan><tspan x="2617" y="3297.32">recommendation </tspan><tspan x="2617" y="3366.32">to friends</tspan></text>
</g>
<g clip-path="url(#clip9)" filter="url(#filter16_dd)">
<rect width="572.33" height="264.711" transform="translate(3307 1274)" fill="#FFC995"/>
<text fill="#111111" xml:space="preserve" style="white-space: pre" font-family="Arial" font-size="63.18" letter-spacing="0em"><tspan x="3319" y="1389.13">A lot of music to </tspan><tspan x="3319" y="1462.13">choose from</tspan></text>
</g>
<g filter="url(#filter17_dd)">
<rect width="572" height="366.448" transform="translate(2962 1754)" fill="#FFC995"/>
<text fill="#111111" xml:space="preserve" style="white-space: pre" font-family="Graphik" font-size="63.18" letter-spacing="0em"><tspan x="2974" y="1865.32">Friends listening </tspan><tspan x="2974" y="1934.32">to music in Friend </tspan><tspan x="2974" y="2003.32">Activity list</tspan></text>
</g>
<g filter="url(#filter18_dd)">
<rect width="572" height="198.448" transform="translate(3103 2306)" fill="#FFC995"/>
<text fill="#111111" xml:space="preserve" style="white-space: pre" font-family="Graphik" font-size="63.18" letter-spacing="0em"><tspan x="3115" y="2417.32">My playlist</tspan></text>
</g>
<g filter="url(#filter19_dd)">
<rect width="572" height="198.448" transform="translate(3319 2644)" fill="#FFC995"/>
<text fill="#111111" xml:space="preserve" style="white-space: pre" font-family="Graphik" font-size="63.18" letter-spacing="0em"><tspan x="3331" y="2755.32">Control bar</tspan></text>
</g>
<text fill="black" xml:space="preserve" style="white-space: pre" font-family="Graphik" font-size="136.633" font-weight="bold" letter-spacing="0em"><tspan x="1635.79" y="221.404">Spotify User</tspan></text>
<rect x="61.2005" y="39.0549" width="3979.45" height="276.113" stroke="#E4E4E4" stroke-width="8.53958"/>
<text fill="#E90000" xml:space="preserve" style="white-space: pre" font-family="Inter" font-size="136.633" font-weight="bold" letter-spacing="0em"><tspan x="768.562" y="3813.53">Pains</tspan></text>
<g filter="url(#filter20_dd)">
<rect width="572" height="274.448" transform="translate(154 3944)" fill="#FFD2C8"/>
<text fill="#111111" xml:space="preserve" style="white-space: pre" font-family="Graphik" font-size="63.18" letter-spacing="0em"><tspan x="166" y="4055.32">Listening to the </tspan><tspan x="166" y="4124.32">same music</tspan></text>
</g>
<g filter="url(#filter21_dd)">
<rect width="572" height="274.448" transform="translate(781 3944)" fill="#FFD2C8"/>
<text fill="#111111" xml:space="preserve" style="white-space: pre" font-family="Graphik" font-size="63.18" letter-spacing="0em"><tspan x="793" y="4055.32">Unsure of own </tspan><tspan x="793" y="4124.32">music taste</tspan></text>
</g>
<text fill="#00B407" xml:space="preserve" style="white-space: pre" font-family="Inter" font-size="136.633" font-weight="bold" letter-spacing="0em"><tspan x="2863.61" y="3793.61">Gains</tspan></text>
<g filter="url(#filter22_dd)">
<rect width="572" height="353.448" transform="translate(2143 3923)" fill="#C0FFAA"/>
<text fill="#111111" xml:space="preserve" style="white-space: pre" font-family="Graphik" font-size="63.18" letter-spacing="0em"><tspan x="2155" y="4034.32">Receiving </tspan><tspan x="2155" y="4103.32">recommendations</tspan></text>
</g>
<g filter="url(#filter23_dd)">
<rect width="572" height="353.448" transform="translate(2769 3923)" fill="#C0FFAA"/>
<text fill="#111111" xml:space="preserve" style="white-space: pre" font-family="Graphik" font-size="63.18" letter-spacing="0em"><tspan x="2781" y="4034.32">Spotify Wrapped = </tspan><tspan x="2781" y="4103.32">learn about music </tspan><tspan x="2781" y="4172.32">habits</tspan></text>
</g>
<g filter="url(#filter24_dd)">
<rect width="572" height="353.448" transform="translate(3395 3923)" fill="#C0FFAA"/>
<text fill="#111111" xml:space="preserve" style="white-space: pre" font-family="Graphik" font-size="63.18" letter-spacing="0em"><tspan x="3407" y="4034.32">Sharing music </tspan><tspan x="3407" y="4103.32">with friends</tspan></text>
</g>
<line x1="2048.08" y1="3646.32" x2="2048.08" y2="4467.85" stroke="#E4E4E4" stroke-width="8.53958"/>
</g>
<defs>
<filter id="filter0_dd" x="247.819" y="1142" width="600.362" height="251.809" filterUnits="userSpaceOnUse" color-interpolation-filters="sRGB">
<feFlood flood-opacity="0" result="BackgroundImageFix"/>
<feColorMatrix in="SourceAlpha" type="matrix" values="0 0 0 0 0 0 0 0 0 0 0 0 0 0 0 0 0 0 127 0"/>
<feOffset dy="14.1809"/>
<feGaussianBlur stdDeviation="7.09047"/>
<feColorMatrix type="matrix" values="0 0 0 0 0.0666667 0 0 0 0 0.0666667 0 0 0 0 0.0666667 0 0 0 0.1 0"/>
<feBlend mode="normal" in2="BackgroundImageFix" result="effect1_dropShadow"/>
<feColorMatrix in="SourceAlpha" type="matrix" values="0 0 0 0 0 0 0 0 0 0 0 0 0 0 0 0 0 0 127 0"/>
<feOffset dy="4.72698"/>
<feGaussianBlur stdDeviation="2.36349"/>
<feColorMatrix type="matrix" values="0 0 0 0 0.0666667 0 0 0 0 0.0666667 0 0 0 0 0.0666667 0 0 0 0.16 0"/>
<feBlend mode="normal" in2="effect1_dropShadow" result="effect2_dropShadow"/>
<feBlend mode="normal" in="SourceGraphic" in2="effect2_dropShadow" result="shape"/>
</filter>
<filter id="filter1_dd" x="545.819" y="1518" width="600.362" height="309.809" filterUnits="userSpaceOnUse" color-interpolation-filters="sRGB">
<feFlood flood-opacity="0" result="BackgroundImageFix"/>
<feColorMatrix in="SourceAlpha" type="matrix" values="0 0 0 0 0 0 0 0 0 0 0 0 0 0 0 0 0 0 127 0"/>
<feOffset dy="14.1809"/>
<feGaussianBlur stdDeviation="7.09047"/>
<feColorMatrix type="matrix" values="0 0 0 0 0.0666667 0 0 0 0 0.0666667 0 0 0 0 0.0666667 0 0 0 0.1 0"/>
<feBlend mode="normal" in2="BackgroundImageFix" result="effect1_dropShadow"/>
<feColorMatrix in="SourceAlpha" type="matrix" values="0 0 0 0 0 0 0 0 0 0 0 0 0 0 0 0 0 0 127 0"/>
<feOffset dy="4.72698"/>
<feGaussianBlur stdDeviation="2.36349"/>
<feColorMatrix type="matrix" values="0 0 0 0 0.0666667 0 0 0 0 0.0666667 0 0 0 0 0.0666667 0 0 0 0.16 0"/>
<feBlend mode="normal" in2="effect1_dropShadow" result="effect2_dropShadow"/>
<feBlend mode="normal" in="SourceGraphic" in2="effect2_dropShadow" result="shape"/>
</filter>
<filter id="filter2_dd" x="145.819" y="1897" width="600.362" height="251.809" filterUnits="userSpaceOnUse" color-interpolation-filters="sRGB">
<feFlood flood-opacity="0" result="BackgroundImageFix"/>
<feColorMatrix in="SourceAlpha" type="matrix" values="0 0 0 0 0 0 0 0 0 0 0 0 0 0 0 0 0 0 127 0"/>
<feOffset dy="14.1809"/>
<feGaussianBlur stdDeviation="7.09047"/>
<feColorMatrix type="matrix" values="0 0 0 0 0.0666667 0 0 0 0 0.0666667 0 0 0 0 0.0666667 0 0 0 0.1 0"/>
<feBlend mode="normal" in2="BackgroundImageFix" result="effect1_dropShadow"/>
<feColorMatrix in="SourceAlpha" type="matrix" values="0 0 0 0 0 0 0 0 0 0 0 0 0 0 0 0 0 0 127 0"/>
<feOffset dy="4.72698"/>
<feGaussianBlur stdDeviation="2.36349"/>
<feColorMatrix type="matrix" values="0 0 0 0 0.0666667 0 0 0 0 0.0666667 0 0 0 0 0.0666667 0 0 0 0.16 0"/>
<feBlend mode="normal" in2="effect1_dropShadow" result="effect2_dropShadow"/>
<feBlend mode="normal" in="SourceGraphic" in2="effect2_dropShadow" result="shape"/>
</filter>
<filter id="filter3_dd" x="651.819" y="2159" width="600.362" height="312.809" filterUnits="userSpaceOnUse" color-interpolation-filters="sRGB">
<feFlood flood-opacity="0" result="BackgroundImageFix"/>
<feColorMatrix in="SourceAlpha" type="matrix" values="0 0 0 0 0 0 0 0 0 0 0 0 0 0 0 0 0 0 127 0"/>
<feOffset dy="14.1809"/>
<feGaussianBlur stdDeviation="7.09047"/>
<feColorMatrix type="matrix" values="0 0 0 0 0.0666667 0 0 0 0 0.0666667 0 0 0 0 0.0666667 0 0 0 0.1 0"/>
<feBlend mode="normal" in2="BackgroundImageFix" result="effect1_dropShadow"/>
<feColorMatrix in="SourceAlpha" type="matrix" values="0 0 0 0 0 0 0 0 0 0 0 0 0 0 0 0 0 0 127 0"/>
<feOffset dy="4.72698"/>
<feGaussianBlur stdDeviation="2.36349"/>
<feColorMatrix type="matrix" values="0 0 0 0 0.0666667 0 0 0 0 0.0666667 0 0 0 0 0.0666667 0 0 0 0.16 0"/>
<feBlend mode="normal" in2="effect1_dropShadow" result="effect2_dropShadow"/>
<feBlend mode="normal" in="SourceGraphic" in2="effect2_dropShadow" result="shape"/>
</filter>
<filter id="filter4_dd" x="139.819" y="2578" width="600.362" height="381.809" filterUnits="userSpaceOnUse" color-interpolation-filters="sRGB">
<feFlood flood-opacity="0" result="BackgroundImageFix"/>
<feColorMatrix in="SourceAlpha" type="matrix" values="0 0 0 0 0 0 0 0 0 0 0 0 0 0 0 0 0 0 127 0"/>
<feOffset dy="14.1809"/>
<feGaussianBlur stdDeviation="7.09047"/>
<feColorMatrix type="matrix" values="0 0 0 0 0.0666667 0 0 0 0 0.0666667 0 0 0 0 0.0666667 0 0 0 0.1 0"/>
<feBlend mode="normal" in2="BackgroundImageFix" result="effect1_dropShadow"/>
<feColorMatrix in="SourceAlpha" type="matrix" values="0 0 0 0 0 0 0 0 0 0 0 0 0 0 0 0 0 0 127 0"/>
<feOffset dy="4.72698"/>
<feGaussianBlur stdDeviation="2.36349"/>
<feColorMatrix type="matrix" values="0 0 0 0 0.0666667 0 0 0 0 0.0666667 0 0 0 0 0.0666667 0 0 0 0.16 0"/>
<feBlend mode="normal" in2="effect1_dropShadow" result="effect2_dropShadow"/>
<feBlend mode="normal" in="SourceGraphic" in2="effect2_dropShadow" result="shape"/>
</filter>
<filter id="filter5_dd" x="1627.82" y="474" width="600.692" height="293.073" filterUnits="userSpaceOnUse" color-interpolation-filters="sRGB">
<feFlood flood-opacity="0" result="BackgroundImageFix"/>
<feColorMatrix in="SourceAlpha" type="matrix" values="0 0 0 0 0 0 0 0 0 0 0 0 0 0 0 0 0 0 127 0"/>
<feOffset dy="14.1809"/>
<feGaussianBlur stdDeviation="7.09047"/>
<feColorMatrix type="matrix" values="0 0 0 0 0.0666667 0 0 0 0 0.0666667 0 0 0 0 0.0666667 0 0 0 0.1 0"/>
<feBlend mode="normal" in2="BackgroundImageFix" result="effect1_dropShadow"/>
<feColorMatrix in="SourceAlpha" type="matrix" values="0 0 0 0 0 0 0 0 0 0 0 0 0 0 0 0 0 0 127 0"/>
<feOffset dy="4.72698"/>
<feGaussianBlur stdDeviation="2.36349"/>
<feColorMatrix type="matrix" values="0 0 0 0 0.0666667 0 0 0 0 0.0666667 0 0 0 0 0.0666667 0 0 0 0.16 0"/>
<feBlend mode="normal" in2="effect1_dropShadow" result="effect2_dropShadow"/>
<feBlend mode="normal" in="SourceGraphic" in2="effect2_dropShadow" result="shape"/>
</filter>
<filter id="filter6_dd" x="1418.82" y="936" width="600.692" height="293.073" filterUnits="userSpaceOnUse" color-interpolation-filters="sRGB">
<feFlood flood-opacity="0" result="BackgroundImageFix"/>
<feColorMatrix in="SourceAlpha" type="matrix" values="0 0 0 0 0 0 0 0 0 0 0 0 0 0 0 0 0 0 127 0"/>
<feOffset dy="14.1809"/>
<feGaussianBlur stdDeviation="7.09047"/>
<feColorMatrix type="matrix" values="0 0 0 0 0.0666667 0 0 0 0 0.0666667 0 0 0 0 0.0666667 0 0 0 0.1 0"/>
<feBlend mode="normal" in2="BackgroundImageFix" result="effect1_dropShadow"/>
<feColorMatrix in="SourceAlpha" type="matrix" values="0 0 0 0 0 0 0 0 0 0 0 0 0 0 0 0 0 0 127 0"/>
<feOffset dy="4.72698"/>
<feGaussianBlur stdDeviation="2.36349"/>
<feColorMatrix type="matrix" values="0 0 0 0 0.0666667 0 0 0 0 0.0666667 0 0 0 0 0.0666667 0 0 0 0.16 0"/>
<feBlend mode="normal" in2="effect1_dropShadow" result="effect2_dropShadow"/>
<feBlend mode="normal" in="SourceGraphic" in2="effect2_dropShadow" result="shape"/>
</filter>
<filter id="filter7_dd" x="2280.82" y="823" width="362.362" height="292.809" filterUnits="userSpaceOnUse" color-interpolation-filters="sRGB">
<feFlood flood-opacity="0" result="BackgroundImageFix"/>
<feColorMatrix in="SourceAlpha" type="matrix" values="0 0 0 0 0 0 0 0 0 0 0 0 0 0 0 0 0 0 127 0"/>
<feOffset dy="14.1809"/>
<feGaussianBlur stdDeviation="7.09047"/>
<feColorMatrix type="matrix" values="0 0 0 0 0.0666667 0 0 0 0 0.0666667 0 0 0 0 0.0666667 0 0 0 0.1 0"/>
<feBlend mode="normal" in2="BackgroundImageFix" result="effect1_dropShadow"/>
<feColorMatrix in="SourceAlpha" type="matrix" values="0 0 0 0 0 0 0 0 0 0 0 0 0 0 0 0 0 0 127 0"/>
<feOffset dy="4.72698"/>
<feGaussianBlur stdDeviation="2.36349"/>
<feColorMatrix type="matrix" values="0 0 0 0 0.0666667 0 0 0 0 0.0666667 0 0 0 0 0.0666667 0 0 0 0.16 0"/>
<feBlend mode="normal" in2="effect1_dropShadow" result="effect2_dropShadow"/>
<feBlend mode="normal" in="SourceGraphic" in2="effect2_dropShadow" result="shape"/>
</filter>
<filter id="filter8_dd" x="2423.82" y="433" width="362.362" height="292.809" filterUnits="userSpaceOnUse" color-interpolation-filters="sRGB">
<feFlood flood-opacity="0" result="BackgroundImageFix"/>
<feColorMatrix in="SourceAlpha" type="matrix" values="0 0 0 0 0 0 0 0 0 0 0 0 0 0 0 0 0 0 127 0"/>
<feOffset dy="14.1809"/>
<feGaussianBlur stdDeviation="7.09047"/>
<feColorMatrix type="matrix" values="0 0 0 0 0.0666667 0 0 0 0 0.0666667 0 0 0 0 0.0666667 0 0 0 0.1 0"/>
<feBlend mode="normal" in2="BackgroundImageFix" result="effect1_dropShadow"/>
<feColorMatrix in="SourceAlpha" type="matrix" values="0 0 0 0 0 0 0 0 0 0 0 0 0 0 0 0 0 0 127 0"/>
<feOffset dy="4.72698"/>
<feGaussianBlur stdDeviation="2.36349"/>
<feColorMatrix type="matrix" values="0 0 0 0 0.0666667 0 0 0 0 0.0666667 0 0 0 0 0.0666667 0 0 0 0.16 0"/>
<feBlend mode="normal" in2="effect1_dropShadow" result="effect2_dropShadow"/>
<feBlend mode="normal" in="SourceGraphic" in2="effect2_dropShadow" result="shape"/>
</filter>
<filter id="filter9_dd" x="2838.82" y="739" width="362.362" height="292.809" filterUnits="userSpaceOnUse" color-interpolation-filters="sRGB">
<feFlood flood-opacity="0" result="BackgroundImageFix"/>
<feColorMatrix in="SourceAlpha" type="matrix" values="0 0 0 0 0 0 0 0 0 0 0 0 0 0 0 0 0 0 127 0"/>
<feOffset dy="14.1809"/>
<feGaussianBlur stdDeviation="7.09047"/>
<feColorMatrix type="matrix" values="0 0 0 0 0.0666667 0 0 0 0 0.0666667 0 0 0 0 0.0666667 0 0 0 0.1 0"/>
<feBlend mode="normal" in2="BackgroundImageFix" result="effect1_dropShadow"/>
<feColorMatrix in="SourceAlpha" type="matrix" values="0 0 0 0 0 0 0 0 0 0 0 0 0 0 0 0 0 0 127 0"/>
<feOffset dy="4.72698"/>
<feGaussianBlur stdDeviation="2.36349"/>
<feColorMatrix type="matrix" values="0 0 0 0 0.0666667 0 0 0 0 0.0666667 0 0 0 0 0.0666667 0 0 0 0.16 0"/>
<feBlend mode="normal" in2="effect1_dropShadow" result="effect2_dropShadow"/>
<feBlend mode="normal" in="SourceGraphic" in2="effect2_dropShadow" result="shape"/>
</filter>
<filter id="filter10_dd" x="819.819" y="471" width="600.362" height="380.809" filterUnits="userSpaceOnUse" color-interpolation-filters="sRGB">
<feFlood flood-opacity="0" result="BackgroundImageFix"/>
<feColorMatrix in="SourceAlpha" type="matrix" values="0 0 0 0 0 0 0 0 0 0 0 0 0 0 0 0 0 0 127 0"/>
<feOffset dy="14.1809"/>
<feGaussianBlur stdDeviation="7.09047"/>
<feColorMatrix type="matrix" values="0 0 0 0 0.0666667 0 0 0 0 0.0666667 0 0 0 0 0.0666667 0 0 0 0.1 0"/>
<feBlend mode="normal" in2="BackgroundImageFix" result="effect1_dropShadow"/>
<feColorMatrix in="SourceAlpha" type="matrix" values="0 0 0 0 0 0 0 0 0 0 0 0 0 0 0 0 0 0 127 0"/>
<feOffset dy="4.72698"/>
<feGaussianBlur stdDeviation="2.36349"/>
<feColorMatrix type="matrix" values="0 0 0 0 0.0666667 0 0 0 0 0.0666667 0 0 0 0 0.0666667 0 0 0 0.16 0"/>
<feBlend mode="normal" in2="effect1_dropShadow" result="effect2_dropShadow"/>
<feBlend mode="normal" in="SourceGraphic" in2="effect2_dropShadow" result="shape"/>
</filter>
<filter id="filter11_dd" x="1235.82" y="2712" width="600.362" height="368.362" filterUnits="userSpaceOnUse" color-interpolation-filters="sRGB">
<feFlood flood-opacity="0" result="BackgroundImageFix"/>
<feColorMatrix in="SourceAlpha" type="matrix" values="0 0 0 0 0 0 0 0 0 0 0 0 0 0 0 0 0 0 127 0"/>
<feOffset dy="14.1809"/>
<feGaussianBlur stdDeviation="7.09047"/>
<feColorMatrix type="matrix" values="0 0 0 0 0.0666667 0 0 0 0 0.0666667 0 0 0 0 0.0666667 0 0 0 0.1 0"/>
<feBlend mode="normal" in2="BackgroundImageFix" result="effect1_dropShadow"/>
<feColorMatrix in="SourceAlpha" type="matrix" values="0 0 0 0 0 0 0 0 0 0 0 0 0 0 0 0 0 0 127 0"/>
<feOffset dy="4.72698"/>
<feGaussianBlur stdDeviation="2.36349"/>
<feColorMatrix type="matrix" values="0 0 0 0 0.0666667 0 0 0 0 0.0666667 0 0 0 0 0.0666667 0 0 0 0.16 0"/>
<feBlend mode="normal" in2="effect1_dropShadow" result="effect2_dropShadow"/>
<feBlend mode="normal" in="SourceGraphic" in2="effect2_dropShadow" result="shape"/>
</filter>
<filter id="filter12_dd" x="663.819" y="3176" width="600.692" height="312.362" filterUnits="userSpaceOnUse" color-interpolation-filters="sRGB">
<feFlood flood-opacity="0" result="BackgroundImageFix"/>
<feColorMatrix in="SourceAlpha" type="matrix" values="0 0 0 0 0 0 0 0 0 0 0 0 0 0 0 0 0 0 127 0"/>
<feOffset dy="14.1809"/>
<feGaussianBlur stdDeviation="7.09047"/>
<feColorMatrix type="matrix" values="0 0 0 0 0.0666667 0 0 0 0 0.0666667 0 0 0 0 0.0666667 0 0 0 0.1 0"/>
<feBlend mode="normal" in2="BackgroundImageFix" result="effect1_dropShadow"/>
<feColorMatrix in="SourceAlpha" type="matrix" values="0 0 0 0 0 0 0 0 0 0 0 0 0 0 0 0 0 0 127 0"/>
<feOffset dy="4.72698"/>
<feGaussianBlur stdDeviation="2.36349"/>
<feColorMatrix type="matrix" values="0 0 0 0 0.0666667 0 0 0 0 0.0666667 0 0 0 0 0.0666667 0 0 0 0.16 0"/>
<feBlend mode="normal" in2="effect1_dropShadow" result="effect2_dropShadow"/>
<feBlend mode="normal" in="SourceGraphic" in2="effect2_dropShadow" result="shape"/>
</filter>
<filter id="filter13_dd" x="1698.82" y="3206" width="600.692" height="256.362" filterUnits="userSpaceOnUse" color-interpolation-filters="sRGB">
<feFlood flood-opacity="0" result="BackgroundImageFix"/>
<feColorMatrix in="SourceAlpha" type="matrix" values="0 0 0 0 0 0 0 0 0 0 0 0 0 0 0 0 0 0 127 0"/>
<feOffset dy="14.1809"/>
<feGaussianBlur stdDeviation="7.09047"/>
<feColorMatrix type="matrix" values="0 0 0 0 0.0666667 0 0 0 0 0.0666667 0 0 0 0 0.0666667 0 0 0 0.1 0"/>
<feBlend mode="normal" in2="BackgroundImageFix" result="effect1_dropShadow"/>
<feColorMatrix in="SourceAlpha" type="matrix" values="0 0 0 0 0 0 0 0 0 0 0 0 0 0 0 0 0 0 127 0"/>
<feOffset dy="4.72698"/>
<feGaussianBlur stdDeviation="2.36349"/>
<feColorMatrix type="matrix" values="0 0 0 0 0.0666667 0 0 0 0 0.0666667 0 0 0 0 0.0666667 0 0 0 0.16 0"/>
<feBlend mode="normal" in2="effect1_dropShadow" result="effect2_dropShadow"/>
<feBlend mode="normal" in="SourceGraphic" in2="effect2_dropShadow" result="shape"/>
</filter>
<filter id="filter14_dd" x="2137.82" y="2701" width="600.362" height="350.362" filterUnits="userSpaceOnUse" color-interpolation-filters="sRGB">
<feFlood flood-opacity="0" result="BackgroundImageFix"/>
<feColorMatrix in="SourceAlpha" type="matrix" values="0 0 0 0 0 0 0 0 0 0 0 0 0 0 0 0 0 0 127 0"/>
<feOffset dy="14.1809"/>
<feGaussianBlur stdDeviation="7.09047"/>
<feColorMatrix type="matrix" values="0 0 0 0 0.0666667 0 0 0 0 0.0666667 0 0 0 0 0.0666667 0 0 0 0.1 0"/>
<feBlend mode="normal" in2="BackgroundImageFix" result="effect1_dropShadow"/>
<feColorMatrix in="SourceAlpha" type="matrix" values="0 0 0 0 0 0 0 0 0 0 0 0 0 0 0 0 0 0 127 0"/>
<feOffset dy="4.72698"/>
<feGaussianBlur stdDeviation="2.36349"/>
<feColorMatrix type="matrix" values="0 0 0 0 0.0666667 0 0 0 0 0.0666667 0 0 0 0 0.0666667 0 0 0 0.16 0"/>
<feBlend mode="normal" in2="effect1_dropShadow" result="effect2_dropShadow"/>
<feBlend mode="normal" in="SourceGraphic" in2="effect2_dropShadow" result="shape"/>
</filter>
<filter id="filter15_dd" x="2590.82" y="3117" width="600.362" height="345.362" filterUnits="userSpaceOnUse" color-interpolation-filters="sRGB">
<feFlood flood-opacity="0" result="BackgroundImageFix"/>
<feColorMatrix in="SourceAlpha" type="matrix" values="0 0 0 0 0 0 0 0 0 0 0 0 0 0 0 0 0 0 127 0"/>
<feOffset dy="14.1809"/>
<feGaussianBlur stdDeviation="7.09047"/>
<feColorMatrix type="matrix" values="0 0 0 0 0.0666667 0 0 0 0 0.0666667 0 0 0 0 0.0666667 0 0 0 0.1 0"/>
<feBlend mode="normal" in2="BackgroundImageFix" result="effect1_dropShadow"/>
<feColorMatrix in="SourceAlpha" type="matrix" values="0 0 0 0 0 0 0 0 0 0 0 0 0 0 0 0 0 0 127 0"/>
<feOffset dy="4.72698"/>
<feGaussianBlur stdDeviation="2.36349"/>
<feColorMatrix type="matrix" values="0 0 0 0 0.0666667 0 0 0 0 0.0666667 0 0 0 0 0.0666667 0 0 0 0.16 0"/>
<feBlend mode="normal" in2="effect1_dropShadow" result="effect2_dropShadow"/>
<feBlend mode="normal" in="SourceGraphic" in2="effect2_dropShadow" result="shape"/>
</filter>
<filter id="filter16_dd" x="3292.82" y="1274" width="600.692" height="293.073" filterUnits="userSpaceOnUse" color-interpolation-filters="sRGB">
<feFlood flood-opacity="0" result="BackgroundImageFix"/>
<feColorMatrix in="SourceAlpha" type="matrix" values="0 0 0 0 0 0 0 0 0 0 0 0 0 0 0 0 0 0 127 0"/>
<feOffset dy="14.1809"/>
<feGaussianBlur stdDeviation="7.09047"/>
<feColorMatrix type="matrix" values="0 0 0 0 0.0666667 0 0 0 0 0.0666667 0 0 0 0 0.0666667 0 0 0 0.1 0"/>
<feBlend mode="normal" in2="BackgroundImageFix" result="effect1_dropShadow"/>
<feColorMatrix in="SourceAlpha" type="matrix" values="0 0 0 0 0 0 0 0 0 0 0 0 0 0 0 0 0 0 127 0"/>
<feOffset dy="4.72698"/>
<feGaussianBlur stdDeviation="2.36349"/>
<feColorMatrix type="matrix" values="0 0 0 0 0.0666667 0 0 0 0 0.0666667 0 0 0 0 0.0666667 0 0 0 0.16 0"/>
<feBlend mode="normal" in2="effect1_dropShadow" result="effect2_dropShadow"/>
<feBlend mode="normal" in="SourceGraphic" in2="effect2_dropShadow" result="shape"/>
</filter>
<filter id="filter17_dd" x="2947.82" y="1754" width="600.362" height="394.809" filterUnits="userSpaceOnUse" color-interpolation-filters="sRGB">
<feFlood flood-opacity="0" result="BackgroundImageFix"/>
<feColorMatrix in="SourceAlpha" type="matrix" values="0 0 0 0 0 0 0 0 0 0 0 0 0 0 0 0 0 0 127 0"/>
<feOffset dy="14.1809"/>
<feGaussianBlur stdDeviation="7.09047"/>
<feColorMatrix type="matrix" values="0 0 0 0 0.0666667 0 0 0 0 0.0666667 0 0 0 0 0.0666667 0 0 0 0.1 0"/>
<feBlend mode="normal" in2="BackgroundImageFix" result="effect1_dropShadow"/>
<feColorMatrix in="SourceAlpha" type="matrix" values="0 0 0 0 0 0 0 0 0 0 0 0 0 0 0 0 0 0 127 0"/>
<feOffset dy="4.72698"/>
<feGaussianBlur stdDeviation="2.36349"/>
<feColorMatrix type="matrix" values="0 0 0 0 0.0666667 0 0 0 0 0.0666667 0 0 0 0 0.0666667 0 0 0 0.16 0"/>
<feBlend mode="normal" in2="effect1_dropShadow" result="effect2_dropShadow"/>
<feBlend mode="normal" in="SourceGraphic" in2="effect2_dropShadow" result="shape"/>
</filter>
<filter id="filter18_dd" x="3088.82" y="2306" width="600.362" height="226.809" filterUnits="userSpaceOnUse" color-interpolation-filters="sRGB">
<feFlood flood-opacity="0" result="BackgroundImageFix"/>
<feColorMatrix in="SourceAlpha" type="matrix" values="0 0 0 0 0 0 0 0 0 0 0 0 0 0 0 0 0 0 127 0"/>
<feOffset dy="14.1809"/>
<feGaussianBlur stdDeviation="7.09047"/>
<feColorMatrix type="matrix" values="0 0 0 0 0.0666667 0 0 0 0 0.0666667 0 0 0 0 0.0666667 0 0 0 0.1 0"/>
<feBlend mode="normal" in2="BackgroundImageFix" result="effect1_dropShadow"/>
<feColorMatrix in="SourceAlpha" type="matrix" values="0 0 0 0 0 0 0 0 0 0 0 0 0 0 0 0 0 0 127 0"/>
<feOffset dy="4.72698"/>
<feGaussianBlur stdDeviation="2.36349"/>
<feColorMatrix type="matrix" values="0 0 0 0 0.0666667 0 0 0 0 0.0666667 0 0 0 0 0.0666667 0 0 0 0.16 0"/>
<feBlend mode="normal" in2="effect1_dropShadow" result="effect2_dropShadow"/>
<feBlend mode="normal" in="SourceGraphic" in2="effect2_dropShadow" result="shape"/>
</filter>
<filter id="filter19_dd" x="3304.82" y="2644" width="600.362" height="226.809" filterUnits="userSpaceOnUse" color-interpolation-filters="sRGB">
<feFlood flood-opacity="0" result="BackgroundImageFix"/>
<feColorMatrix in="SourceAlpha" type="matrix" values="0 0 0 0 0 0 0 0 0 0 0 0 0 0 0 0 0 0 127 0"/>
<feOffset dy="14.1809"/>
<feGaussianBlur stdDeviation="7.09047"/>
<feColorMatrix type="matrix" values="0 0 0 0 0.0666667 0 0 0 0 0.0666667 0 0 0 0 0.0666667 0 0 0 0.1 0"/>
<feBlend mode="normal" in2="BackgroundImageFix" result="effect1_dropShadow"/>
<feColorMatrix in="SourceAlpha" type="matrix" values="0 0 0 0 0 0 0 0 0 0 0 0 0 0 0 0 0 0 127 0"/>
<feOffset dy="4.72698"/>
<feGaussianBlur stdDeviation="2.36349"/>
<feColorMatrix type="matrix" values="0 0 0 0 0.0666667 0 0 0 0 0.0666667 0 0 0 0 0.0666667 0 0 0 0.16 0"/>
<feBlend mode="normal" in2="effect1_dropShadow" result="effect2_dropShadow"/>
<feBlend mode="normal" in="SourceGraphic" in2="effect2_dropShadow" result="shape"/>
</filter>
<filter id="filter20_dd" x="139.819" y="3944" width="600.362" height="302.809" filterUnits="userSpaceOnUse" color-interpolation-filters="sRGB">
<feFlood flood-opacity="0" result="BackgroundImageFix"/>
<feColorMatrix in="SourceAlpha" type="matrix" values="0 0 0 0 0 0 0 0 0 0 0 0 0 0 0 0 0 0 127 0"/>
<feOffset dy="14.1809"/>
<feGaussianBlur stdDeviation="7.09047"/>
<feColorMatrix type="matrix" values="0 0 0 0 0.0666667 0 0 0 0 0.0666667 0 0 0 0 0.0666667 0 0 0 0.1 0"/>
<feBlend mode="normal" in2="BackgroundImageFix" result="effect1_dropShadow"/>
<feColorMatrix in="SourceAlpha" type="matrix" values="0 0 0 0 0 0 0 0 0 0 0 0 0 0 0 0 0 0 127 0"/>
<feOffset dy="4.72698"/>
<feGaussianBlur stdDeviation="2.36349"/>
<feColorMatrix type="matrix" values="0 0 0 0 0.0666667 0 0 0 0 0.0666667 0 0 0 0 0.0666667 0 0 0 0.16 0"/>
<feBlend mode="normal" in2="effect1_dropShadow" result="effect2_dropShadow"/>
<feBlend mode="normal" in="SourceGraphic" in2="effect2_dropShadow" result="shape"/>
</filter>
<filter id="filter21_dd" x="766.819" y="3944" width="600.362" height="302.809" filterUnits="userSpaceOnUse" color-interpolation-filters="sRGB">
<feFlood flood-opacity="0" result="BackgroundImageFix"/>
<feColorMatrix in="SourceAlpha" type="matrix" values="0 0 0 0 0 0 0 0 0 0 0 0 0 0 0 0 0 0 127 0"/>
<feOffset dy="14.1809"/>
<feGaussianBlur stdDeviation="7.09047"/>
<feColorMatrix type="matrix" values="0 0 0 0 0.0666667 0 0 0 0 0.0666667 0 0 0 0 0.0666667 0 0 0 0.1 0"/>
<feBlend mode="normal" in2="BackgroundImageFix" result="effect1_dropShadow"/>
<feColorMatrix in="SourceAlpha" type="matrix" values="0 0 0 0 0 0 0 0 0 0 0 0 0 0 0 0 0 0 127 0"/>
<feOffset dy="4.72698"/>
<feGaussianBlur stdDeviation="2.36349"/>
<feColorMatrix type="matrix" values="0 0 0 0 0.0666667 0 0 0 0 0.0666667 0 0 0 0 0.0666667 0 0 0 0.16 0"/>
<feBlend mode="normal" in2="effect1_dropShadow" result="effect2_dropShadow"/>
<feBlend mode="normal" in="SourceGraphic" in2="effect2_dropShadow" result="shape"/>
</filter>
<filter id="filter22_dd" x="2128.82" y="3923" width="600.362" height="381.809" filterUnits="userSpaceOnUse" color-interpolation-filters="sRGB">
<feFlood flood-opacity="0" result="BackgroundImageFix"/>
<feColorMatrix in="SourceAlpha" type="matrix" values="0 0 0 0 0 0 0 0 0 0 0 0 0 0 0 0 0 0 127 0"/>
<feOffset dy="14.1809"/>
<feGaussianBlur stdDeviation="7.09047"/>
<feColorMatrix type="matrix" values="0 0 0 0 0.0666667 0 0 0 0 0.0666667 0 0 0 0 0.0666667 0 0 0 0.1 0"/>
<feBlend mode="normal" in2="BackgroundImageFix" result="effect1_dropShadow"/>
<feColorMatrix in="SourceAlpha" type="matrix" values="0 0 0 0 0 0 0 0 0 0 0 0 0 0 0 0 0 0 127 0"/>
<feOffset dy="4.72698"/>
<feGaussianBlur stdDeviation="2.36349"/>
<feColorMatrix type="matrix" values="0 0 0 0 0.0666667 0 0 0 0 0.0666667 0 0 0 0 0.0666667 0 0 0 0.16 0"/>
<feBlend mode="normal" in2="effect1_dropShadow" result="effect2_dropShadow"/>
<feBlend mode="normal" in="SourceGraphic" in2="effect2_dropShadow" result="shape"/>
</filter>
<filter id="filter23_dd" x="2754.82" y="3923" width="600.362" height="381.809" filterUnits="userSpaceOnUse" color-interpolation-filters="sRGB">
<feFlood flood-opacity="0" result="BackgroundImageFix"/>
<feColorMatrix in="SourceAlpha" type="matrix" values="0 0 0 0 0 0 0 0 0 0 0 0 0 0 0 0 0 0 127 0"/>
<feOffset dy="14.1809"/>
<feGaussianBlur stdDeviation="7.09047"/>
<feColorMatrix type="matrix" values="0 0 0 0 0.0666667 0 0 0 0 0.0666667 0 0 0 0 0.0666667 0 0 0 0.1 0"/>
<feBlend mode="normal" in2="BackgroundImageFix" result="effect1_dropShadow"/>
<feColorMatrix in="SourceAlpha" type="matrix" values="0 0 0 0 0 0 0 0 0 0 0 0 0 0 0 0 0 0 127 0"/>
<feOffset dy="4.72698"/>
<feGaussianBlur stdDeviation="2.36349"/>
<feColorMatrix type="matrix" values="0 0 0 0 0.0666667 0 0 0 0 0.0666667 0 0 0 0 0.0666667 0 0 0 0.16 0"/>
<feBlend mode="normal" in2="effect1_dropShadow" result="effect2_dropShadow"/>
<feBlend mode="normal" in="SourceGraphic" in2="effect2_dropShadow" result="shape"/>
</filter>
<filter id="filter24_dd" x="3380.82" y="3923" width="600.362" height="381.809" filterUnits="userSpaceOnUse" color-interpolation-filters="sRGB">
<feFlood flood-opacity="0" result="BackgroundImageFix"/>
<feColorMatrix in="SourceAlpha" type="matrix" values="0 0 0 0 0 0 0 0 0 0 0 0 0 0 0 0 0 0 127 0"/>
<feOffset dy="14.1809"/>
<feGaussianBlur stdDeviation="7.09047"/>
<feColorMatrix type="matrix" values="0 0 0 0 0.0666667 0 0 0 0 0.0666667 0 0 0 0 0.0666667 0 0 0 0.1 0"/>
<feBlend mode="normal" in2="BackgroundImageFix" result="effect1_dropShadow"/>
<feColorMatrix in="SourceAlpha" type="matrix" values="0 0 0 0 0 0 0 0 0 0 0 0 0 0 0 0 0 0 127 0"/>
<feOffset dy="4.72698"/>
<feGaussianBlur stdDeviation="2.36349"/>
<feColorMatrix type="matrix" values="0 0 0 0 0.0666667 0 0 0 0 0.0666667 0 0 0 0 0.0666667 0 0 0 0.16 0"/>
<feBlend mode="normal" in2="effect1_dropShadow" result="effect2_dropShadow"/>
<feBlend mode="normal" in="SourceGraphic" in2="effect2_dropShadow" result="shape"/>
</filter>
<clipPath id="clip0">
<rect width="4099" height="4541" fill="white"/>
</clipPath>
<clipPath id="clip1">
<rect x="1719.3" y="1645.92" width="660.394" height="660.394" rx="330.197" fill="white"/>
</clipPath>
<clipPath id="clip2">
<rect width="572.33" height="264.711" fill="white" transform="translate(1642 474)"/>
</clipPath>
<clipPath id="clip3">
<rect width="572.33" height="264.711" fill="white" transform="translate(1433 936)"/>
</clipPath>
<clipPath id="clip4">
<rect width="572" height="340" fill="white" transform="translate(1250 2712)"/>
</clipPath>
<clipPath id="clip5">
<rect width="572.33" height="284" fill="white" transform="translate(678 3176)"/>
</clipPath>
<clipPath id="clip6">
<rect width="572.33" height="228" fill="white" transform="translate(1713 3206)"/>
</clipPath>
<clipPath id="clip7">
<rect width="572" height="322" fill="white" transform="translate(2152 2701)"/>
</clipPath>
<clipPath id="clip8">
<rect width="572" height="317" fill="white" transform="translate(2605 3117)"/>
</clipPath>
<clipPath id="clip9">
<rect width="572.33" height="264.711" fill="white" transform="translate(3307 1274)"/>
</clipPath>
</defs>
</svg>
