<svg width="389" height="439" viewBox="0 0 389 439" fill="none" xmlns="http://www.w3.org/2000/svg">
<rect width="389" height="438.3" fill="#1E4C43"/>
<path fill-rule="evenodd" clip-rule="evenodd" d="M329.833 178.409C329.833 103.812 269.36 43.3394 194.763 43.3394C120.167 43.3394 59.6938 103.812 59.6938 178.409C59.6938 253.006 120.167 313.478 194.763 313.478H194.771C269.364 313.474 329.833 253.003 329.833 178.409ZM118.154 191.916C119.871 222.259 127.312 249.649 138.556 270.713C107.464 251.74 86.7077 217.499 86.7077 178.409C86.7077 139.319 107.464 105.078 138.556 86.1042C127.312 107.169 119.871 134.559 118.154 164.902H145.216C146.989 137.156 154.118 113.251 163.793 96.2777C169.752 85.8225 175.793 79.2814 181.256 75.3851V164.902H208.27V75.3851C213.734 79.2814 219.775 85.8225 225.734 96.2777C235.409 113.251 242.537 137.156 244.311 164.902H271.373C269.656 134.559 262.214 107.169 250.97 86.1043C282.063 105.078 302.819 139.32 302.819 178.409C302.819 217.498 282.063 251.74 250.97 270.713C262.214 249.649 269.656 222.259 271.373 191.916H244.311C242.537 219.662 235.409 243.566 225.734 260.54C219.775 270.995 213.734 277.536 208.27 281.432V191.916H181.256V281.432C175.793 277.536 169.752 270.995 163.793 260.54C154.118 243.566 146.989 219.662 145.216 191.916H118.154Z" fill="#F1ECD5"/>
<path d="M62.4104 354.29L77.9246 388.613H84.2402L95.3152 360.743L105.887 388.613H112.202L119.96 371.452L127.717 354.29H121.31L109.64 381.611L98.6103 354.29H92.1117L81.3112 381.611L69.2751 354.29H62.4104Z" fill="#F1ECD5"/>
<path d="M126.375 381.932C126.33 386.371 130.174 389.346 135.986 389.346C142.027 389.346 146.786 386.829 147.885 383.076L148.022 388.613H152.873L152.919 373.328C152.873 366.967 148.663 362.482 141.478 362.482C136.764 362.482 131.547 364.083 128.709 366.463V371.452C131.638 368.889 136.306 367.195 140.929 367.195C144.864 367.195 147.793 369.392 147.839 372.641H144.59C134.155 372.641 126.467 376.348 126.375 381.932ZM131.776 381.383C131.776 378.591 137.084 376.623 145.002 376.623H147.29C147.29 384.998 131.776 387.469 131.776 381.383Z" fill="#F1ECD5"/>
<path d="M169.14 388.156C167.264 391.085 165.113 392.549 162.779 392.549C161.085 392.549 159.575 392.229 157.882 391.634V396.714C159.667 397.126 161.589 397.354 163.328 397.354C167.401 397.354 171.84 394.517 174.998 388.293L187.4 363.397H181.496L172.343 382.527L162.687 363.397H156.234L169.14 388.156Z" fill="#F1ECD5"/>
<path d="M191.363 369.438H197.77V388.613H203.49V369.438H214.611V364.77H203.49V362.207C203.49 359.69 205.733 358.043 209.074 358.043C212.003 358.043 215.16 359.049 216.991 360.514V355.205C215.526 354.107 212.369 353.375 209.074 353.375C202.3 353.375 197.77 356.898 197.77 362.207V364.77H191.408L191.363 369.438Z" fill="#F1ECD5"/>
<path d="M217.994 381.932C217.948 386.371 221.793 389.346 227.605 389.346C233.646 389.346 238.405 386.829 239.504 383.076L239.641 388.613H244.492L244.538 373.328C244.492 366.967 240.282 362.482 233.097 362.482C228.383 362.482 223.166 364.083 220.328 366.463V371.452C223.257 368.889 227.925 367.195 232.547 367.195C236.483 367.195 239.412 369.392 239.458 372.641H236.208C225.774 372.641 218.086 376.348 217.994 381.932ZM223.394 381.383C223.394 378.591 228.703 376.623 236.62 376.623H238.909C238.909 384.998 223.394 387.469 223.394 381.383Z" fill="#F1ECD5"/>
<path d="M251.279 388.613H257V373.557C257.961 370.079 261.073 367.47 264.826 367.47C267.297 367.47 269.723 368.66 270.867 369.713V364.267C269.356 363.214 267.297 362.482 265.695 362.482C261.439 362.482 257.961 364.999 257 368.385V363.397H251.279V388.613Z" fill="#F1ECD5"/>
<path d="M274.977 375.937C274.977 384.083 281.018 389.483 290.033 389.483C293.374 389.483 297.767 388.339 301.017 386.6V381.886C298.637 383.717 294.244 384.952 290.033 384.952C285.228 384.952 281.384 382.252 280.377 378.179H302.024V373.877C301.612 367.058 296.486 362.482 289.209 362.482C280.651 362.482 274.977 367.882 274.977 375.937ZM280.285 374.06C281.018 369.575 284.496 366.692 289.026 366.692C293.466 366.692 296.532 369.575 296.761 374.06H280.285Z" fill="#F1ECD5"/>
<path d="M307.368 388.613H313.089V373.557C314.05 370.079 317.162 367.47 320.914 367.47C323.386 367.47 325.811 368.66 326.955 369.713V364.267C325.445 363.214 323.386 362.482 321.784 362.482C317.528 362.482 314.05 364.999 313.089 368.385V363.397H307.368V388.613Z" fill="#F1ECD5"/>
</svg>
