<svg width="326" height="670" viewBox="0 0 326 670" fill="none" xmlns="http://www.w3.org/2000/svg">
<g filter="url(#filter0_d)">
<path d="M294.533 13H35.4667C26.9247 13 20 19.9247 20 28.4667V633.213C20 641.755 26.9247 648.68 35.4667 648.68H294.533C303.075 648.68 310 641.755 310 633.213V28.4667C310 19.9247 303.075 13 294.533 13Z" fill="#FDFBF3"/>
</g>
<path d="M290 13H40C28.9543 13 20 21.9543 20 33V33.9867C20 45.0324 28.9543 53.9867 40 53.9867H290C301.046 53.9867 310 45.0324 310 33.9867V33C310 21.9543 301.046 13 290 13Z" fill="white"/>
<g filter="url(#filter1_d)">
<path d="M235.48 176.707H83.1335C78.0083 176.707 73.8535 180.862 73.8535 185.987V205.32C73.8535 210.446 78.0083 214.6 83.1335 214.6H235.48C240.606 214.6 244.761 210.446 244.761 205.32V185.987C244.761 180.862 240.606 176.707 235.48 176.707Z" fill="#F5F1DF"/>
</g>
<g filter="url(#filter2_d)">
<path d="M236.254 236.253H83.907C78.7817 236.253 74.627 240.408 74.627 245.533V264.866C74.627 269.991 78.7817 274.146 83.907 274.146H236.254C241.379 274.146 245.534 269.991 245.534 264.866V245.533C245.534 240.408 241.379 236.253 236.254 236.253Z" fill="#F5F1DF"/>
</g>
<g filter="url(#filter3_d)">
<path d="M251.4 106.717H35.2936C33.8823 106.717 32.7383 107.861 32.7383 109.272V139.206C32.7383 140.617 33.8823 141.761 35.2936 141.761H251.4C252.811 141.761 253.955 140.617 253.955 139.206V109.272C253.955 107.861 252.811 106.717 251.4 106.717Z" fill="#FDFBF3"/>
<path d="M251.4 106.717H35.2936C33.8823 106.717 32.7383 107.861 32.7383 109.272V139.206C32.7383 140.617 33.8823 141.761 35.2936 141.761H251.4C252.811 141.761 253.955 140.617 253.955 139.206V109.272C253.955 107.861 252.811 106.717 251.4 106.717Z" stroke="#949494" stroke-width="0.730088"/>
</g>
<path d="M47.8042 128.869C46.7685 128.869 45.9975 128.627 45.4913 128.145C44.9929 127.654 44.7009 127.011 44.6152 126.217H45.5964C45.6354 126.49 45.6899 126.727 45.76 126.93C45.8378 127.132 45.9547 127.323 46.1104 127.502C46.2662 127.681 46.4842 127.817 46.7646 127.911C47.0527 128.004 47.3993 128.051 47.8042 128.051C48.3494 128.051 48.801 127.907 49.1593 127.619C49.5253 127.323 49.7083 126.941 49.7083 126.474C49.7083 125.991 49.5681 125.637 49.2878 125.411C49.0074 125.177 48.474 124.998 47.6874 124.874C46.7451 124.734 46.0442 124.492 45.5848 124.15C45.1253 123.799 44.8955 123.273 44.8955 122.573C44.8955 121.926 45.1486 121.389 45.6548 120.96C46.161 120.524 46.8035 120.306 47.5823 120.306C48.4233 120.306 49.0931 120.505 49.5915 120.902C50.0899 121.299 50.378 121.868 50.4559 122.608H49.5447C49.4435 122.086 49.2371 121.708 48.9256 121.474C48.6141 121.241 48.1663 121.124 47.5823 121.124C47.0294 121.124 46.601 121.249 46.2973 121.498C45.9936 121.747 45.8417 122.074 45.8417 122.479C45.8417 122.915 45.9741 123.242 46.2389 123.46C46.5037 123.678 47.041 123.85 47.8509 123.974C48.8322 124.13 49.5486 124.387 50.0003 124.745C50.4598 125.096 50.6895 125.649 50.6895 126.404C50.6895 127.105 50.4131 127.693 49.8601 128.168C49.315 128.635 48.6297 128.869 47.8042 128.869ZM54.8592 128.869C53.987 128.869 53.2745 128.588 52.7215 128.028C52.1764 127.459 51.9038 126.708 51.9038 125.773V125.68C51.9038 124.761 52.1686 124.009 52.6982 123.425C53.2355 122.841 53.9247 122.549 54.7658 122.549C55.5445 122.549 56.1948 122.802 56.7166 123.308C57.2461 123.807 57.5109 124.566 57.5109 125.586V125.902H52.9084C52.9318 126.603 53.107 127.14 53.4341 127.514C53.769 127.88 54.2479 128.063 54.8709 128.063C55.8288 128.063 56.37 127.708 56.4946 127H57.4642C57.363 127.599 57.0787 128.063 56.6114 128.39C56.1442 128.709 55.5601 128.869 54.8592 128.869ZM52.9435 125.119H56.518C56.4323 123.943 55.8483 123.355 54.7658 123.355C54.2752 123.355 53.8702 123.515 53.5509 123.834C53.2316 124.146 53.0292 124.574 52.9435 125.119ZM60.586 128.869C59.9863 128.869 59.4957 128.721 59.1141 128.425C58.7403 128.121 58.5534 127.67 58.5534 127.07C58.5534 126.416 58.8415 125.937 59.4178 125.633C60.0019 125.329 60.7339 125.177 61.6139 125.177H62.49V124.734C62.49 124.243 62.3888 123.893 62.1863 123.682C61.9838 123.464 61.649 123.355 61.1817 123.355C60.3406 123.355 59.8734 123.721 59.7799 124.453H58.8104C58.8727 123.799 59.1297 123.32 59.5814 123.016C60.033 122.705 60.5821 122.549 61.2284 122.549C62.7159 122.549 63.4596 123.277 63.4596 124.734V128.764H62.49V127.993C62.0228 128.577 61.3881 128.869 60.586 128.869ZM60.6794 128.098C61.209 128.098 61.6412 127.969 61.976 127.712C62.3187 127.448 62.49 127.085 62.49 126.626V125.867H61.649C60.2316 125.867 59.5229 126.268 59.5229 127.07C59.5229 127.755 59.9084 128.098 60.6794 128.098ZM65.3641 128.764V122.654H66.3337V123.752C66.5439 123.371 66.8009 123.079 67.1046 122.876C67.4161 122.674 67.8289 122.565 68.3429 122.549V123.46C67.6731 123.491 67.1708 123.647 66.836 123.928C66.5011 124.208 66.3337 124.702 66.3337 125.411V128.764H65.3641ZM72.1198 128.869C71.2554 128.869 70.5389 128.588 69.9704 128.028C69.4097 127.459 69.1294 126.708 69.1294 125.773V125.68C69.1294 124.761 69.4136 124.009 69.9821 123.425C70.5584 122.841 71.2632 122.549 72.0964 122.549C72.7973 122.549 73.3931 122.724 73.8837 123.075C74.3743 123.417 74.6624 123.955 74.7481 124.687H73.7902C73.6501 123.799 73.0855 123.355 72.0964 123.355C71.5279 123.355 71.0568 123.569 70.683 123.998C70.317 124.418 70.134 124.979 70.134 125.68V125.773C70.134 126.505 70.3131 127.07 70.6713 127.467C71.0373 127.864 71.524 128.063 72.1315 128.063C72.5909 128.063 72.9842 127.934 73.3113 127.677C73.6462 127.413 73.837 127.043 73.8837 126.568H74.7832C74.7209 127.237 74.4405 127.79 73.9421 128.226C73.4515 128.655 72.844 128.869 72.1198 128.869ZM76.247 128.764V119.734H77.2165V123.624C77.3645 123.312 77.6098 123.055 77.9525 122.853C78.2951 122.65 78.704 122.549 79.179 122.549C79.8487 122.549 80.3744 122.748 80.756 123.145C81.1376 123.542 81.3284 124.165 81.3284 125.014V128.764H80.3588V124.944C80.3588 124.407 80.242 124.013 80.0084 123.764C79.7748 123.515 79.4126 123.39 78.922 123.39C78.447 123.39 78.042 123.538 77.7072 123.834C77.3801 124.13 77.2165 124.539 77.2165 125.061V128.764H76.247ZM86.5302 128.764V123.472H85.6541V122.654H86.5302V121.661C86.5302 121.031 86.682 120.548 86.9857 120.213C87.2972 119.87 87.7528 119.699 88.3525 119.699C88.6017 119.699 88.8431 119.738 89.0767 119.816V120.633C88.8587 120.548 88.6289 120.505 88.3875 120.505C87.7957 120.505 87.4997 120.855 87.4997 121.556V122.654H88.9949V123.472H87.4997V128.764H86.5302ZM92.6082 128.063C93.2156 128.063 93.6984 127.853 94.0566 127.432C94.4227 127.011 94.6057 126.455 94.6057 125.762V125.68C94.6057 124.971 94.4227 124.407 94.0566 123.986C93.6984 123.565 93.2156 123.355 92.6082 123.355C91.9929 123.355 91.5062 123.565 91.148 123.986C90.7897 124.407 90.6106 124.967 90.6106 125.668V125.762C90.6106 126.462 90.7897 127.023 91.148 127.444C91.5062 127.856 91.9929 128.063 92.6082 128.063ZM92.5965 128.869C91.732 128.869 91.0156 128.577 90.4471 127.993C89.8864 127.401 89.606 126.657 89.606 125.762V125.668C89.606 124.757 89.8864 124.009 90.4471 123.425C91.0156 122.841 91.7359 122.549 92.6082 122.549C93.4804 122.549 94.1968 122.841 94.7575 123.425C95.326 124.002 95.6103 124.745 95.6103 125.656V125.75C95.6103 126.669 95.326 127.42 94.7575 128.004C94.189 128.581 93.4687 128.869 92.5965 128.869ZM97.1115 128.764V122.654H98.0811V123.752C98.2913 123.371 98.5483 123.079 98.852 122.876C99.1635 122.674 99.5763 122.565 100.09 122.549V123.46C99.4205 123.491 98.9182 123.647 98.5834 123.928C98.2485 124.208 98.0811 124.702 98.0811 125.411V128.764H97.1115ZM106.896 128.869C106.079 128.869 105.413 128.596 104.899 128.051C104.393 127.506 104.14 126.766 104.14 125.832V125.738C104.14 124.804 104.404 124.04 104.934 123.449C105.463 122.849 106.149 122.549 106.99 122.549C107.893 122.549 108.559 122.911 108.987 123.636V119.734H109.957V128.764H108.987V127.712C108.8 128.024 108.512 128.296 108.123 128.53C107.734 128.756 107.325 128.869 106.896 128.869ZM107.001 128.063C107.601 128.063 108.088 127.868 108.462 127.479C108.835 127.082 109.022 126.505 109.022 125.75V125.656C109.022 124.893 108.851 124.321 108.508 123.939C108.174 123.55 107.698 123.355 107.083 123.355C106.476 123.355 106.001 123.562 105.658 123.974C105.315 124.379 105.144 124.952 105.144 125.691V125.785C105.144 126.525 105.315 127.089 105.658 127.479C106.009 127.868 106.456 128.063 107.001 128.063ZM114.419 128.869C113.546 128.869 112.834 128.588 112.281 128.028C111.736 127.459 111.463 126.708 111.463 125.773V125.68C111.463 124.761 111.728 124.009 112.258 123.425C112.795 122.841 113.484 122.549 114.325 122.549C115.104 122.549 115.754 122.802 116.276 123.308C116.806 123.807 117.07 124.566 117.07 125.586V125.902H112.468C112.491 126.603 112.666 127.14 112.993 127.514C113.328 127.88 113.807 128.063 114.43 128.063C115.388 128.063 115.929 127.708 116.054 127H117.024C116.922 127.599 116.638 128.063 116.171 128.39C115.704 128.709 115.12 128.869 114.419 128.869ZM112.503 125.119H116.077C115.992 123.943 115.408 123.355 114.325 123.355C113.835 123.355 113.43 123.515 113.11 123.834C112.791 124.146 112.589 124.574 112.503 125.119ZM120.507 128.869C119.775 128.869 119.199 128.694 118.779 128.343C118.366 127.993 118.144 127.506 118.113 126.883H119.059C119.137 127.67 119.616 128.063 120.496 128.063C121.384 128.063 121.827 127.74 121.827 127.093C121.827 126.79 121.715 126.568 121.489 126.427C121.271 126.279 120.909 126.159 120.402 126.065C119.608 125.917 119.055 125.715 118.744 125.458C118.432 125.193 118.276 124.796 118.276 124.266C118.276 123.737 118.487 123.32 118.907 123.016C119.335 122.705 119.814 122.549 120.344 122.549C121.668 122.549 122.404 123.137 122.552 124.313H121.617C121.547 123.978 121.411 123.737 121.208 123.589C121.006 123.433 120.714 123.355 120.332 123.355C119.982 123.355 119.701 123.437 119.491 123.6C119.281 123.756 119.176 123.967 119.176 124.231C119.176 124.512 119.273 124.718 119.468 124.85C119.67 124.983 120.048 125.1 120.601 125.201C120.967 125.271 121.259 125.341 121.477 125.411C121.703 125.473 121.921 125.571 122.131 125.703C122.349 125.836 122.505 126.011 122.598 126.229C122.7 126.439 122.75 126.7 122.75 127.011C122.75 127.58 122.556 128.032 122.166 128.367C121.785 128.701 121.232 128.869 120.507 128.869ZM126.085 128.845C125.548 128.845 125.139 128.701 124.858 128.413C124.578 128.125 124.438 127.732 124.438 127.233V123.472H123.562V122.654H124.438V121.264H125.407V122.654H126.833V123.472H125.407V127.14C125.407 127.732 125.661 128.028 126.167 128.028C126.447 128.028 126.696 127.985 126.914 127.899V128.717C126.673 128.803 126.396 128.845 126.085 128.845ZM128.403 128.764V122.654H129.373V128.764H128.403ZM129.315 121.194C129.19 121.319 129.042 121.381 128.871 121.381C128.699 121.381 128.547 121.319 128.415 121.194C128.29 121.07 128.228 120.918 128.228 120.739C128.228 120.559 128.29 120.408 128.415 120.283C128.547 120.158 128.699 120.096 128.871 120.096C129.042 120.096 129.19 120.158 129.315 120.283C129.447 120.408 129.513 120.559 129.513 120.739C129.513 120.918 129.447 121.07 129.315 121.194ZM131.357 128.764V122.654H132.327V123.624C132.475 123.312 132.72 123.055 133.063 122.853C133.406 122.65 133.814 122.549 134.289 122.549C134.959 122.549 135.485 122.748 135.866 123.145C136.248 123.542 136.439 124.165 136.439 125.014V128.764H135.469V124.944C135.469 124.407 135.352 124.013 135.119 123.764C134.885 123.515 134.523 123.39 134.032 123.39C133.557 123.39 133.152 123.538 132.818 123.834C132.49 124.13 132.327 124.539 132.327 125.061V128.764H131.357ZM139.869 128.869C139.269 128.869 138.779 128.721 138.397 128.425C138.023 128.121 137.837 127.67 137.837 127.07C137.837 126.416 138.125 125.937 138.701 125.633C139.285 125.329 140.017 125.177 140.897 125.177H141.773V124.734C141.773 124.243 141.672 123.893 141.469 123.682C141.267 123.464 140.932 123.355 140.465 123.355C139.624 123.355 139.157 123.721 139.063 124.453H138.094C138.156 123.799 138.413 123.32 138.865 123.016C139.316 122.705 139.865 122.549 140.512 122.549C141.999 122.549 142.743 123.277 142.743 124.734V128.764H141.773V127.993C141.306 128.577 140.671 128.869 139.869 128.869ZM139.963 128.098C140.492 128.098 140.924 127.969 141.259 127.712C141.602 127.448 141.773 127.085 141.773 126.626V125.867H140.932C139.515 125.867 138.806 126.268 138.806 127.07C138.806 127.755 139.192 128.098 139.963 128.098ZM146.505 128.845C145.967 128.845 145.558 128.701 145.278 128.413C144.998 128.125 144.858 127.732 144.858 127.233V123.472H143.981V122.654H144.858V121.264H145.827V122.654H147.252V123.472H145.827V127.14C145.827 127.732 146.08 128.028 146.586 128.028C146.867 128.028 147.116 127.985 147.334 127.899V128.717C147.093 128.803 146.816 128.845 146.505 128.845ZM148.823 128.764V122.654H149.793V128.764H148.823ZM149.734 121.194C149.61 121.319 149.462 121.381 149.29 121.381C149.119 121.381 148.967 121.319 148.835 121.194C148.71 121.07 148.648 120.918 148.648 120.739C148.648 120.559 148.71 120.408 148.835 120.283C148.967 120.158 149.119 120.096 149.29 120.096C149.462 120.096 149.61 120.158 149.734 120.283C149.867 120.408 149.933 120.559 149.933 120.739C149.933 120.918 149.867 121.07 149.734 121.194ZM154.324 128.063C154.931 128.063 155.414 127.853 155.772 127.432C156.138 127.011 156.321 126.455 156.321 125.762V125.68C156.321 124.971 156.138 124.407 155.772 123.986C155.414 123.565 154.931 123.355 154.324 123.355C153.708 123.355 153.222 123.565 152.863 123.986C152.505 124.407 152.326 124.967 152.326 125.668V125.762C152.326 126.462 152.505 127.023 152.863 127.444C153.222 127.856 153.708 128.063 154.324 128.063ZM154.312 128.869C153.447 128.869 152.731 128.577 152.163 127.993C151.602 127.401 151.321 126.657 151.321 125.762V125.668C151.321 124.757 151.602 124.009 152.163 123.425C152.731 122.841 153.451 122.549 154.324 122.549C155.196 122.549 155.912 122.841 156.473 123.425C157.041 124.002 157.326 124.745 157.326 125.656V125.75C157.326 126.669 157.041 127.42 156.473 128.004C155.904 128.581 155.184 128.869 154.312 128.869ZM158.827 128.764V122.654H159.797V123.624C159.944 123.312 160.19 123.055 160.532 122.853C160.875 122.65 161.284 122.549 161.759 122.549C162.429 122.549 162.954 122.748 163.336 123.145C163.718 123.542 163.908 124.165 163.908 125.014V128.764H162.939V124.944C162.939 124.407 162.822 124.013 162.588 123.764C162.355 123.515 161.993 123.39 161.502 123.39C161.027 123.39 160.622 123.538 160.287 123.834C159.96 124.13 159.797 124.539 159.797 125.061V128.764H158.827ZM167.701 128.869C166.969 128.869 166.392 128.694 165.972 128.343C165.559 127.993 165.337 127.506 165.306 126.883H166.252C166.33 127.67 166.809 128.063 167.689 128.063C168.577 128.063 169.021 127.74 169.021 127.093C169.021 126.79 168.908 126.568 168.682 126.427C168.464 126.279 168.102 126.159 167.596 126.065C166.801 125.917 166.248 125.715 165.937 125.458C165.625 125.193 165.47 124.796 165.47 124.266C165.47 123.737 165.68 123.32 166.1 123.016C166.529 122.705 167.008 122.549 167.537 122.549C168.861 122.549 169.597 123.137 169.745 124.313H168.811C168.74 123.978 168.604 123.737 168.402 123.589C168.199 123.433 167.907 123.355 167.526 123.355C167.175 123.355 166.895 123.437 166.685 123.6C166.474 123.756 166.369 123.967 166.369 124.231C166.369 124.512 166.466 124.718 166.661 124.85C166.864 124.983 167.241 125.1 167.794 125.201C168.16 125.271 168.452 125.341 168.67 125.411C168.896 125.473 169.114 125.571 169.325 125.703C169.543 125.836 169.698 126.011 169.792 126.229C169.893 126.439 169.944 126.7 169.944 127.011C169.944 127.58 169.749 128.032 169.36 128.367C168.978 128.701 168.425 128.869 167.701 128.869Z" fill="#5A605F"/>
<g filter="url(#filter4_d)">
<path d="M297.627 124.349C297.627 115.807 290.702 108.883 282.16 108.883C273.618 108.883 266.693 115.807 266.693 124.349C266.693 132.891 273.618 139.816 282.16 139.816C290.702 139.816 297.627 132.891 297.627 124.349Z" fill="#EF6F48"/>
</g>
<path d="M284.369 126.569L289.423 131.623" stroke="#F1ECD5" stroke-width="1.45193" stroke-linecap="round"/>
<path fill-rule="evenodd" clip-rule="evenodd" d="M280.378 128.005C283.375 128.005 285.805 125.575 285.805 122.578C285.805 119.581 283.375 117.151 280.378 117.151C277.381 117.151 274.951 119.581 274.951 122.578C274.951 125.575 277.381 128.005 280.378 128.005Z" stroke="#F1ECD5" stroke-width="1.45193"/>
<path d="M251.4 106.717H35.2936C33.8823 106.717 32.7383 107.861 32.7383 109.272V139.206C32.7383 140.617 33.8823 141.761 35.2936 141.761H251.4C252.811 141.761 253.955 140.617 253.955 139.206V109.272C253.955 107.861 252.811 106.717 251.4 106.717Z" fill="#FDFBF3"/>
<path d="M251.4 106.717H35.2936C33.8823 106.717 32.7383 107.861 32.7383 109.272V139.206C32.7383 140.617 33.8823 141.761 35.2936 141.761H251.4C252.811 141.761 253.955 140.617 253.955 139.206V109.272C253.955 107.861 252.811 106.717 251.4 106.717Z" stroke="#949494" stroke-width="0.730088"/>
<path d="M47.8042 128.869C46.7685 128.869 45.9975 128.627 45.4913 128.145C44.9929 127.654 44.7009 127.011 44.6152 126.217H45.5964C45.6354 126.49 45.6899 126.727 45.76 126.93C45.8378 127.132 45.9547 127.323 46.1104 127.502C46.2662 127.681 46.4842 127.817 46.7646 127.911C47.0527 128.004 47.3993 128.051 47.8042 128.051C48.3494 128.051 48.801 127.907 49.1593 127.619C49.5253 127.323 49.7083 126.941 49.7083 126.474C49.7083 125.991 49.5681 125.637 49.2878 125.411C49.0074 125.177 48.474 124.998 47.6874 124.874C46.7451 124.734 46.0442 124.492 45.5848 124.15C45.1253 123.799 44.8955 123.273 44.8955 122.573C44.8955 121.926 45.1486 121.389 45.6548 120.96C46.161 120.524 46.8035 120.306 47.5823 120.306C48.4233 120.306 49.0931 120.505 49.5915 120.902C50.0899 121.299 50.378 121.868 50.4559 122.608H49.5447C49.4435 122.086 49.2371 121.708 48.9256 121.474C48.6141 121.241 48.1663 121.124 47.5823 121.124C47.0294 121.124 46.601 121.249 46.2973 121.498C45.9936 121.747 45.8417 122.074 45.8417 122.479C45.8417 122.915 45.9741 123.242 46.2389 123.46C46.5037 123.678 47.041 123.85 47.8509 123.974C48.8322 124.13 49.5486 124.387 50.0003 124.745C50.4598 125.096 50.6895 125.649 50.6895 126.404C50.6895 127.105 50.4131 127.693 49.8601 128.168C49.315 128.635 48.6297 128.869 47.8042 128.869ZM54.8592 128.869C53.987 128.869 53.2745 128.588 52.7215 128.028C52.1764 127.459 51.9038 126.708 51.9038 125.773V125.68C51.9038 124.761 52.1686 124.009 52.6982 123.425C53.2355 122.841 53.9247 122.549 54.7658 122.549C55.5445 122.549 56.1948 122.802 56.7166 123.308C57.2461 123.807 57.5109 124.566 57.5109 125.586V125.902H52.9084C52.9318 126.603 53.107 127.14 53.4341 127.514C53.769 127.88 54.2479 128.063 54.8709 128.063C55.8288 128.063 56.37 127.708 56.4946 127H57.4642C57.363 127.599 57.0787 128.063 56.6114 128.39C56.1442 128.709 55.5601 128.869 54.8592 128.869ZM52.9435 125.119H56.518C56.4323 123.943 55.8483 123.355 54.7658 123.355C54.2752 123.355 53.8702 123.515 53.5509 123.834C53.2316 124.146 53.0292 124.574 52.9435 125.119ZM60.586 128.869C59.9863 128.869 59.4957 128.721 59.1141 128.425C58.7403 128.121 58.5534 127.67 58.5534 127.07C58.5534 126.416 58.8415 125.937 59.4178 125.633C60.0019 125.329 60.7339 125.177 61.6139 125.177H62.49V124.734C62.49 124.243 62.3888 123.893 62.1863 123.682C61.9838 123.464 61.649 123.355 61.1817 123.355C60.3406 123.355 59.8734 123.721 59.7799 124.453H58.8104C58.8727 123.799 59.1297 123.32 59.5814 123.016C60.033 122.705 60.5821 122.549 61.2284 122.549C62.7159 122.549 63.4596 123.277 63.4596 124.734V128.764H62.49V127.993C62.0228 128.577 61.3881 128.869 60.586 128.869ZM60.6794 128.098C61.209 128.098 61.6412 127.969 61.976 127.712C62.3187 127.448 62.49 127.085 62.49 126.626V125.867H61.649C60.2316 125.867 59.5229 126.268 59.5229 127.07C59.5229 127.755 59.9084 128.098 60.6794 128.098ZM65.3641 128.764V122.654H66.3337V123.752C66.5439 123.371 66.8009 123.079 67.1046 122.876C67.4161 122.674 67.8289 122.565 68.3429 122.549V123.46C67.6731 123.491 67.1708 123.647 66.836 123.928C66.5011 124.208 66.3337 124.702 66.3337 125.411V128.764H65.3641ZM72.1198 128.869C71.2554 128.869 70.5389 128.588 69.9704 128.028C69.4097 127.459 69.1294 126.708 69.1294 125.773V125.68C69.1294 124.761 69.4136 124.009 69.9821 123.425C70.5584 122.841 71.2632 122.549 72.0964 122.549C72.7973 122.549 73.3931 122.724 73.8837 123.075C74.3743 123.417 74.6624 123.955 74.7481 124.687H73.7902C73.6501 123.799 73.0855 123.355 72.0964 123.355C71.5279 123.355 71.0568 123.569 70.683 123.998C70.317 124.418 70.134 124.979 70.134 125.68V125.773C70.134 126.505 70.3131 127.07 70.6713 127.467C71.0373 127.864 71.524 128.063 72.1315 128.063C72.5909 128.063 72.9842 127.934 73.3113 127.677C73.6462 127.413 73.837 127.043 73.8837 126.568H74.7832C74.7209 127.237 74.4405 127.79 73.9421 128.226C73.4515 128.655 72.844 128.869 72.1198 128.869ZM76.247 128.764V119.734H77.2165V123.624C77.3645 123.312 77.6098 123.055 77.9525 122.853C78.2951 122.65 78.704 122.549 79.179 122.549C79.8487 122.549 80.3744 122.748 80.756 123.145C81.1376 123.542 81.3284 124.165 81.3284 125.014V128.764H80.3588V124.944C80.3588 124.407 80.242 124.013 80.0084 123.764C79.7748 123.515 79.4126 123.39 78.922 123.39C78.447 123.39 78.042 123.538 77.7072 123.834C77.3801 124.13 77.2165 124.539 77.2165 125.061V128.764H76.247ZM86.5302 128.764V123.472H85.6541V122.654H86.5302V121.661C86.5302 121.031 86.682 120.548 86.9857 120.213C87.2972 119.87 87.7528 119.699 88.3525 119.699C88.6017 119.699 88.8431 119.738 89.0767 119.816V120.633C88.8587 120.548 88.6289 120.505 88.3875 120.505C87.7957 120.505 87.4997 120.855 87.4997 121.556V122.654H88.9949V123.472H87.4997V128.764H86.5302ZM92.6082 128.063C93.2156 128.063 93.6984 127.853 94.0566 127.432C94.4227 127.011 94.6057 126.455 94.6057 125.762V125.68C94.6057 124.971 94.4227 124.407 94.0566 123.986C93.6984 123.565 93.2156 123.355 92.6082 123.355C91.9929 123.355 91.5062 123.565 91.148 123.986C90.7897 124.407 90.6106 124.967 90.6106 125.668V125.762C90.6106 126.462 90.7897 127.023 91.148 127.444C91.5062 127.856 91.9929 128.063 92.6082 128.063ZM92.5965 128.869C91.732 128.869 91.0156 128.577 90.4471 127.993C89.8864 127.401 89.606 126.657 89.606 125.762V125.668C89.606 124.757 89.8864 124.009 90.4471 123.425C91.0156 122.841 91.7359 122.549 92.6082 122.549C93.4804 122.549 94.1968 122.841 94.7575 123.425C95.326 124.002 95.6103 124.745 95.6103 125.656V125.75C95.6103 126.669 95.326 127.42 94.7575 128.004C94.189 128.581 93.4687 128.869 92.5965 128.869ZM97.1115 128.764V122.654H98.0811V123.752C98.2913 123.371 98.5483 123.079 98.852 122.876C99.1635 122.674 99.5763 122.565 100.09 122.549V123.46C99.4205 123.491 98.9182 123.647 98.5834 123.928C98.2485 124.208 98.0811 124.702 98.0811 125.411V128.764H97.1115ZM106.896 128.869C106.079 128.869 105.413 128.596 104.899 128.051C104.393 127.506 104.14 126.766 104.14 125.832V125.738C104.14 124.804 104.404 124.04 104.934 123.449C105.463 122.849 106.149 122.549 106.99 122.549C107.893 122.549 108.559 122.911 108.987 123.636V119.734H109.957V128.764H108.987V127.712C108.8 128.024 108.512 128.296 108.123 128.53C107.734 128.756 107.325 128.869 106.896 128.869ZM107.001 128.063C107.601 128.063 108.088 127.868 108.462 127.479C108.835 127.082 109.022 126.505 109.022 125.75V125.656C109.022 124.893 108.851 124.321 108.508 123.939C108.174 123.55 107.698 123.355 107.083 123.355C106.476 123.355 106.001 123.562 105.658 123.974C105.315 124.379 105.144 124.952 105.144 125.691V125.785C105.144 126.525 105.315 127.089 105.658 127.479C106.009 127.868 106.456 128.063 107.001 128.063ZM114.419 128.869C113.546 128.869 112.834 128.588 112.281 128.028C111.736 127.459 111.463 126.708 111.463 125.773V125.68C111.463 124.761 111.728 124.009 112.258 123.425C112.795 122.841 113.484 122.549 114.325 122.549C115.104 122.549 115.754 122.802 116.276 123.308C116.806 123.807 117.07 124.566 117.07 125.586V125.902H112.468C112.491 126.603 112.666 127.14 112.993 127.514C113.328 127.88 113.807 128.063 114.43 128.063C115.388 128.063 115.929 127.708 116.054 127H117.024C116.922 127.599 116.638 128.063 116.171 128.39C115.704 128.709 115.12 128.869 114.419 128.869ZM112.503 125.119H116.077C115.992 123.943 115.408 123.355 114.325 123.355C113.835 123.355 113.43 123.515 113.11 123.834C112.791 124.146 112.589 124.574 112.503 125.119ZM120.507 128.869C119.775 128.869 119.199 128.694 118.779 128.343C118.366 127.993 118.144 127.506 118.113 126.883H119.059C119.137 127.67 119.616 128.063 120.496 128.063C121.384 128.063 121.827 127.74 121.827 127.093C121.827 126.79 121.715 126.568 121.489 126.427C121.271 126.279 120.909 126.159 120.402 126.065C119.608 125.917 119.055 125.715 118.744 125.458C118.432 125.193 118.276 124.796 118.276 124.266C118.276 123.737 118.487 123.32 118.907 123.016C119.335 122.705 119.814 122.549 120.344 122.549C121.668 122.549 122.404 123.137 122.552 124.313H121.617C121.547 123.978 121.411 123.737 121.208 123.589C121.006 123.433 120.714 123.355 120.332 123.355C119.982 123.355 119.701 123.437 119.491 123.6C119.281 123.756 119.176 123.967 119.176 124.231C119.176 124.512 119.273 124.718 119.468 124.85C119.67 124.983 120.048 125.1 120.601 125.201C120.967 125.271 121.259 125.341 121.477 125.411C121.703 125.473 121.921 125.571 122.131 125.703C122.349 125.836 122.505 126.011 122.598 126.229C122.7 126.439 122.75 126.7 122.75 127.011C122.75 127.58 122.556 128.032 122.166 128.367C121.785 128.701 121.232 128.869 120.507 128.869ZM126.085 128.845C125.548 128.845 125.139 128.701 124.858 128.413C124.578 128.125 124.438 127.732 124.438 127.233V123.472H123.562V122.654H124.438V121.264H125.407V122.654H126.833V123.472H125.407V127.14C125.407 127.732 125.661 128.028 126.167 128.028C126.447 128.028 126.696 127.985 126.914 127.899V128.717C126.673 128.803 126.396 128.845 126.085 128.845ZM128.403 128.764V122.654H129.373V128.764H128.403ZM129.315 121.194C129.19 121.319 129.042 121.381 128.871 121.381C128.699 121.381 128.547 121.319 128.415 121.194C128.29 121.07 128.228 120.918 128.228 120.739C128.228 120.559 128.29 120.408 128.415 120.283C128.547 120.158 128.699 120.096 128.871 120.096C129.042 120.096 129.19 120.158 129.315 120.283C129.447 120.408 129.513 120.559 129.513 120.739C129.513 120.918 129.447 121.07 129.315 121.194ZM131.357 128.764V122.654H132.327V123.624C132.475 123.312 132.72 123.055 133.063 122.853C133.406 122.65 133.814 122.549 134.289 122.549C134.959 122.549 135.485 122.748 135.866 123.145C136.248 123.542 136.439 124.165 136.439 125.014V128.764H135.469V124.944C135.469 124.407 135.352 124.013 135.119 123.764C134.885 123.515 134.523 123.39 134.032 123.39C133.557 123.39 133.152 123.538 132.818 123.834C132.49 124.13 132.327 124.539 132.327 125.061V128.764H131.357ZM139.869 128.869C139.269 128.869 138.779 128.721 138.397 128.425C138.023 128.121 137.837 127.67 137.837 127.07C137.837 126.416 138.125 125.937 138.701 125.633C139.285 125.329 140.017 125.177 140.897 125.177H141.773V124.734C141.773 124.243 141.672 123.893 141.469 123.682C141.267 123.464 140.932 123.355 140.465 123.355C139.624 123.355 139.157 123.721 139.063 124.453H138.094C138.156 123.799 138.413 123.32 138.865 123.016C139.316 122.705 139.865 122.549 140.512 122.549C141.999 122.549 142.743 123.277 142.743 124.734V128.764H141.773V127.993C141.306 128.577 140.671 128.869 139.869 128.869ZM139.963 128.098C140.492 128.098 140.924 127.969 141.259 127.712C141.602 127.448 141.773 127.085 141.773 126.626V125.867H140.932C139.515 125.867 138.806 126.268 138.806 127.07C138.806 127.755 139.192 128.098 139.963 128.098ZM146.505 128.845C145.967 128.845 145.558 128.701 145.278 128.413C144.998 128.125 144.858 127.732 144.858 127.233V123.472H143.981V122.654H144.858V121.264H145.827V122.654H147.252V123.472H145.827V127.14C145.827 127.732 146.08 128.028 146.586 128.028C146.867 128.028 147.116 127.985 147.334 127.899V128.717C147.093 128.803 146.816 128.845 146.505 128.845ZM148.823 128.764V122.654H149.793V128.764H148.823ZM149.734 121.194C149.61 121.319 149.462 121.381 149.29 121.381C149.119 121.381 148.967 121.319 148.835 121.194C148.71 121.07 148.648 120.918 148.648 120.739C148.648 120.559 148.71 120.408 148.835 120.283C148.967 120.158 149.119 120.096 149.29 120.096C149.462 120.096 149.61 120.158 149.734 120.283C149.867 120.408 149.933 120.559 149.933 120.739C149.933 120.918 149.867 121.07 149.734 121.194ZM154.324 128.063C154.931 128.063 155.414 127.853 155.772 127.432C156.138 127.011 156.321 126.455 156.321 125.762V125.68C156.321 124.971 156.138 124.407 155.772 123.986C155.414 123.565 154.931 123.355 154.324 123.355C153.708 123.355 153.222 123.565 152.863 123.986C152.505 124.407 152.326 124.967 152.326 125.668V125.762C152.326 126.462 152.505 127.023 152.863 127.444C153.222 127.856 153.708 128.063 154.324 128.063ZM154.312 128.869C153.447 128.869 152.731 128.577 152.163 127.993C151.602 127.401 151.321 126.657 151.321 125.762V125.668C151.321 124.757 151.602 124.009 152.163 123.425C152.731 122.841 153.451 122.549 154.324 122.549C155.196 122.549 155.912 122.841 156.473 123.425C157.041 124.002 157.326 124.745 157.326 125.656V125.75C157.326 126.669 157.041 127.42 156.473 128.004C155.904 128.581 155.184 128.869 154.312 128.869ZM158.827 128.764V122.654H159.797V123.624C159.944 123.312 160.19 123.055 160.532 122.853C160.875 122.65 161.284 122.549 161.759 122.549C162.429 122.549 162.954 122.748 163.336 123.145C163.718 123.542 163.908 124.165 163.908 125.014V128.764H162.939V124.944C162.939 124.407 162.822 124.013 162.588 123.764C162.355 123.515 161.993 123.39 161.502 123.39C161.027 123.39 160.622 123.538 160.287 123.834C159.96 124.13 159.797 124.539 159.797 125.061V128.764H158.827ZM167.701 128.869C166.969 128.869 166.392 128.694 165.972 128.343C165.559 127.993 165.337 127.506 165.306 126.883H166.252C166.33 127.67 166.809 128.063 167.689 128.063C168.577 128.063 169.021 127.74 169.021 127.093C169.021 126.79 168.908 126.568 168.682 126.427C168.464 126.279 168.102 126.159 167.596 126.065C166.801 125.917 166.248 125.715 165.937 125.458C165.625 125.193 165.47 124.796 165.47 124.266C165.47 123.737 165.68 123.32 166.1 123.016C166.529 122.705 167.008 122.549 167.537 122.549C168.861 122.549 169.597 123.137 169.745 124.313H168.811C168.74 123.978 168.604 123.737 168.402 123.589C168.199 123.433 167.907 123.355 167.526 123.355C167.175 123.355 166.895 123.437 166.685 123.6C166.474 123.756 166.369 123.967 166.369 124.231C166.369 124.512 166.466 124.718 166.661 124.85C166.864 124.983 167.241 125.1 167.794 125.201C168.16 125.271 168.452 125.341 168.67 125.411C168.896 125.473 169.114 125.571 169.325 125.703C169.543 125.836 169.698 126.011 169.792 126.229C169.893 126.439 169.944 126.7 169.944 127.011C169.944 127.58 169.749 128.032 169.36 128.367C168.978 128.701 168.425 128.869 167.701 128.869Z" fill="#3A3A3A"/>
<g filter="url(#filter5_d)">
<path d="M297.627 124.349C297.627 115.807 290.702 108.883 282.16 108.883C273.618 108.883 266.693 115.807 266.693 124.349C266.693 132.891 273.618 139.816 282.16 139.816C290.702 139.816 297.627 132.891 297.627 124.349Z" fill="#EF6F48"/>
</g>
<path d="M284.369 126.569L289.423 131.623" stroke="#F1ECD5" stroke-width="1.45193" stroke-linecap="round"/>
<path fill-rule="evenodd" clip-rule="evenodd" d="M280.378 128.005C283.375 128.005 285.805 125.575 285.805 122.578C285.805 119.581 283.375 117.151 280.378 117.151C277.381 117.151 274.951 119.581 274.951 122.578C274.951 125.575 277.381 128.005 280.378 128.005Z" stroke="#F1ECD5" stroke-width="1.45193"/>
<path d="M125.261 199.534V189.581H128.463C129.614 189.581 130.514 189.841 131.164 190.36C131.822 190.871 132.152 191.636 132.152 192.657V192.713C132.152 193.724 131.822 194.485 131.164 194.996C130.505 195.497 129.618 195.747 128.505 195.747H127.113V199.534H125.261ZM127.113 194.411H128.463C129.076 194.411 129.54 194.267 129.855 193.98C130.18 193.683 130.342 193.26 130.342 192.713V192.657C130.342 191.562 129.716 191.015 128.463 191.015H127.113V194.411ZM133.646 199.534V188.885H135.331V199.534H133.646ZM139.291 199.673C138.576 199.673 137.992 199.497 137.537 199.144C137.082 198.782 136.855 198.239 136.855 197.515C136.855 196.717 137.194 196.133 137.871 195.761C138.548 195.39 139.453 195.205 140.585 195.205H141.49V194.829C141.49 194.328 141.388 193.961 141.184 193.729C140.989 193.488 140.65 193.367 140.168 193.367C139.323 193.367 138.859 193.748 138.776 194.509H137.147C137.212 193.701 137.528 193.098 138.094 192.699C138.669 192.3 139.393 192.1 140.265 192.1C142.205 192.1 143.175 192.987 143.175 194.759V199.534H141.518V198.643C140.998 199.33 140.256 199.673 139.291 199.673ZM139.695 198.462C140.223 198.462 140.655 198.332 140.989 198.072C141.323 197.803 141.49 197.441 141.49 196.986V196.262H140.627C139.226 196.262 138.525 196.657 138.525 197.446C138.525 198.123 138.915 198.462 139.695 198.462ZM148.293 199.673C147.226 199.673 146.344 199.343 145.648 198.685C144.961 198.016 144.618 197.116 144.618 195.984V195.873C144.618 194.741 144.97 193.831 145.676 193.144C146.381 192.448 147.253 192.1 148.293 192.1C149.184 192.1 149.935 192.323 150.548 192.769C151.17 193.205 151.527 193.891 151.62 194.829H149.991C149.861 193.91 149.304 193.451 148.321 193.451C147.736 193.451 147.258 193.664 146.887 194.091C146.525 194.518 146.344 195.102 146.344 195.845V195.956C146.344 196.736 146.52 197.334 146.873 197.752C147.235 198.17 147.731 198.378 148.362 198.378C148.826 198.378 149.221 198.244 149.546 197.975C149.88 197.696 150.07 197.311 150.116 196.819H151.661C151.596 197.673 151.262 198.364 150.659 198.893C150.056 199.413 149.267 199.673 148.293 199.673ZM156.313 199.673C155.228 199.673 154.341 199.339 153.655 198.671C152.968 198.002 152.625 197.102 152.625 195.97V195.859C152.625 194.745 152.963 193.84 153.641 193.144C154.327 192.448 155.195 192.1 156.244 192.1C157.227 192.1 158.044 192.407 158.694 193.019C159.353 193.632 159.682 194.55 159.682 195.775V196.262H154.351C154.378 196.958 154.564 197.492 154.907 197.863C155.251 198.234 155.733 198.42 156.355 198.42C157.339 198.42 157.896 198.049 158.026 197.306H159.654C159.534 198.067 159.181 198.652 158.596 199.06C158.012 199.469 157.251 199.673 156.313 199.673ZM154.378 195.135H158.012C157.928 193.929 157.339 193.325 156.244 193.325C155.743 193.325 155.325 193.488 154.991 193.813C154.666 194.128 154.462 194.569 154.378 195.135ZM163.746 199.673C162.809 199.673 162.076 199.464 161.547 199.046C161.018 198.629 160.735 198.035 160.698 197.265H162.285C162.331 197.654 162.465 197.947 162.688 198.142C162.911 198.337 163.259 198.434 163.732 198.434C164.605 198.434 165.041 198.123 165.041 197.501C165.041 197.214 164.92 197 164.679 196.861C164.447 196.713 164.048 196.592 163.482 196.499C162.507 196.341 161.825 196.105 161.435 195.789C161.046 195.464 160.851 194.963 160.851 194.286C160.851 193.599 161.12 193.066 161.658 192.685C162.196 192.295 162.837 192.1 163.579 192.1C165.324 192.1 166.275 192.834 166.433 194.3H164.874C164.799 193.966 164.66 193.72 164.456 193.562C164.261 193.404 163.969 193.325 163.579 193.325C163.217 193.325 162.934 193.404 162.73 193.562C162.526 193.72 162.424 193.929 162.424 194.188C162.424 194.448 162.53 194.643 162.744 194.773C162.957 194.903 163.352 195.019 163.927 195.121C164.874 195.27 165.565 195.497 166.001 195.803C166.437 196.109 166.655 196.624 166.655 197.348C166.655 198.091 166.4 198.666 165.89 199.074C165.389 199.473 164.674 199.673 163.746 199.673ZM171.45 199.534V192.254H173.134V193.409C173.32 193.028 173.617 192.718 174.025 192.476C174.433 192.226 174.92 192.1 175.487 192.1C176.257 192.1 176.865 192.337 177.31 192.81C177.755 193.274 177.978 193.989 177.978 194.954V199.534H176.294V195.107C176.294 194.56 176.178 194.156 175.946 193.896C175.714 193.636 175.347 193.506 174.846 193.506C174.345 193.506 173.932 193.659 173.607 193.966C173.292 194.263 173.134 194.69 173.134 195.246V199.534H171.45ZM183.12 199.673C182.034 199.673 181.148 199.339 180.462 198.671C179.775 198.002 179.431 197.102 179.431 195.97V195.859C179.431 194.745 179.77 193.84 180.448 193.144C181.134 192.448 182.002 192.1 183.051 192.1C184.034 192.1 184.851 192.407 185.501 193.019C186.159 193.632 186.489 194.55 186.489 195.775V196.262H181.158C181.185 196.958 181.371 197.492 181.714 197.863C182.058 198.234 182.54 198.42 183.162 198.42C184.146 198.42 184.702 198.049 184.832 197.306H186.461C186.34 198.067 185.988 198.652 185.403 199.06C184.818 199.469 184.058 199.673 183.12 199.673ZM181.185 195.135H184.818C184.735 193.929 184.146 193.325 183.051 193.325C182.55 193.325 182.132 193.488 181.798 193.813C181.473 194.128 181.269 194.569 181.185 195.135ZM189.968 199.673C189.254 199.673 188.669 199.497 188.214 199.144C187.76 198.782 187.532 198.239 187.532 197.515C187.532 196.717 187.871 196.133 188.548 195.761C189.226 195.39 190.131 195.205 191.263 195.205H192.168V194.829C192.168 194.328 192.066 193.961 191.861 193.729C191.667 193.488 191.328 193.367 190.845 193.367C190.001 193.367 189.537 193.748 189.453 194.509H187.825C187.89 193.701 188.205 193.098 188.771 192.699C189.347 192.3 190.07 192.1 190.943 192.1C192.882 192.1 193.852 192.987 193.852 194.759V199.534H192.196V198.643C191.676 199.33 190.933 199.673 189.968 199.673ZM190.372 198.462C190.901 198.462 191.332 198.332 191.667 198.072C192.001 197.803 192.168 197.441 192.168 196.986V196.262H191.305C189.903 196.262 189.203 196.657 189.203 197.446C189.203 198.123 189.592 198.462 190.372 198.462ZM195.783 199.534V192.254H197.467V193.618C197.949 192.643 198.738 192.151 199.833 192.142V193.715C199.044 193.724 198.451 193.882 198.052 194.188C197.662 194.495 197.467 195.014 197.467 195.747V199.534H195.783ZM204.632 199.534V192.254H206.316V193.367C206.502 193.005 206.79 192.704 207.179 192.462C207.569 192.221 208.019 192.1 208.53 192.1C209.55 192.1 210.237 192.537 210.59 193.409C210.859 192.982 211.216 192.657 211.662 192.434C212.107 192.212 212.571 192.1 213.054 192.1C213.768 192.1 214.348 192.337 214.794 192.81C215.248 193.274 215.476 193.98 215.476 194.926V199.534H213.791V195.038C213.791 194.017 213.36 193.506 212.497 193.506C212.051 193.506 211.671 193.655 211.355 193.952C211.049 194.239 210.896 194.648 210.896 195.177V199.534H209.212V195.038C209.212 194.017 208.78 193.506 207.917 193.506C207.472 193.506 207.091 193.655 206.776 193.952C206.47 194.239 206.316 194.648 206.316 195.177V199.534H204.632ZM220.612 199.673C219.526 199.673 218.64 199.339 217.953 198.671C217.266 198.002 216.923 197.102 216.923 195.97V195.859C216.923 194.745 217.262 193.84 217.939 193.144C218.626 192.448 219.494 192.1 220.542 192.1C221.526 192.1 222.343 192.407 222.992 193.019C223.651 193.632 223.98 194.55 223.98 195.775V196.262H218.649C218.677 196.958 218.863 197.492 219.206 197.863C219.549 198.234 220.032 198.42 220.654 198.42C221.637 198.42 222.194 198.049 222.324 197.306H223.953C223.832 198.067 223.479 198.652 222.895 199.06C222.31 199.469 221.549 199.673 220.612 199.673ZM218.677 195.135H222.31C222.227 193.929 221.637 193.325 220.542 193.325C220.041 193.325 219.623 193.488 219.289 193.813C218.965 194.128 218.76 194.569 218.677 195.135Z" fill="black"/>
<path fill-rule="evenodd" clip-rule="evenodd" d="M96.2518 195.315L106.968 189.128L103.571 201.805L100.865 197.117L95.582 195.702L96.2518 195.315Z" fill="#1E4C43" stroke="#1E4C43" stroke-width="1.93333" stroke-linejoin="round"/>
<path d="M124.488 259.08V249.127H127.829C128.97 249.127 129.875 249.369 130.543 249.851C131.211 250.334 131.545 251.067 131.545 252.05V252.106C131.545 253.507 130.808 254.398 129.332 254.779L132.13 259.08H130.126L127.523 255.057H126.339V259.08H124.488ZM126.339 253.735H127.829C129.091 253.735 129.722 253.206 129.722 252.148V252.092C129.722 251.545 129.56 251.155 129.235 250.923C128.919 250.682 128.451 250.561 127.829 250.561H126.339V253.735ZM135.309 259.219C134.595 259.219 134.01 259.043 133.555 258.69C133.101 258.328 132.873 257.786 132.873 257.062C132.873 256.264 133.212 255.679 133.889 255.308C134.567 254.937 135.472 254.751 136.604 254.751H137.509V254.375C137.509 253.874 137.407 253.507 137.202 253.275C137.008 253.034 136.669 252.914 136.186 252.914C135.342 252.914 134.878 253.294 134.794 254.055H133.166C133.231 253.248 133.546 252.644 134.112 252.245C134.688 251.846 135.411 251.647 136.284 251.647C138.223 251.647 139.193 252.533 139.193 254.306V259.08H137.536V258.189C137.017 258.876 136.274 259.219 135.309 259.219ZM135.713 258.008C136.242 258.008 136.673 257.878 137.008 257.618C137.342 257.349 137.509 256.987 137.509 256.533V255.809H136.646C135.244 255.809 134.544 256.203 134.544 256.992C134.544 257.67 134.933 258.008 135.713 258.008ZM141.123 259.08V251.8H142.808V252.955C142.993 252.575 143.29 252.264 143.699 252.023C144.107 251.772 144.594 251.647 145.16 251.647C145.931 251.647 146.538 251.883 146.984 252.357C147.429 252.821 147.652 253.535 147.652 254.5V259.08H145.968V254.654C145.968 254.106 145.852 253.702 145.62 253.442C145.388 253.183 145.021 253.053 144.52 253.053C144.019 253.053 143.606 253.206 143.281 253.512C142.966 253.809 142.808 254.236 142.808 254.793V259.08H141.123ZM152.321 259.219C151.374 259.219 150.604 258.899 150.01 258.259C149.416 257.609 149.119 256.709 149.119 255.558V255.447C149.119 254.296 149.425 253.378 150.038 252.691C150.65 251.995 151.434 251.647 152.39 251.647C153.467 251.647 154.242 252.069 154.715 252.914V248.431H156.399V259.08H154.715V257.855C154.511 258.236 154.186 258.56 153.741 258.83C153.304 259.089 152.831 259.219 152.321 259.219ZM152.738 257.883C153.351 257.883 153.843 257.679 154.214 257.27C154.585 256.862 154.771 256.264 154.771 255.475V255.363C154.771 254.575 154.599 253.981 154.256 253.582C153.912 253.173 153.43 252.969 152.808 252.969C152.186 252.969 151.704 253.183 151.36 253.61C151.017 254.027 150.845 254.626 150.845 255.405V255.517C150.845 256.287 151.017 256.876 151.36 257.284C151.713 257.683 152.172 257.883 152.738 257.883ZM161.658 257.911C162.28 257.911 162.767 257.697 163.12 257.27C163.482 256.834 163.663 256.24 163.663 255.489V255.391C163.663 254.64 163.482 254.05 163.12 253.623C162.767 253.187 162.28 252.969 161.658 252.969C161.027 252.969 160.531 253.183 160.169 253.61C159.816 254.036 159.64 254.626 159.64 255.377V255.489C159.64 256.24 159.816 256.834 160.169 257.27C160.531 257.697 161.027 257.911 161.658 257.911ZM164.331 258.189C163.626 258.876 162.73 259.219 161.645 259.219C160.559 259.219 159.663 258.876 158.958 258.189C158.262 257.502 157.914 256.612 157.914 255.517V255.405C157.914 254.292 158.267 253.387 158.972 252.691C159.677 251.995 160.573 251.647 161.658 251.647C162.735 251.647 163.626 251.99 164.331 252.677C165.036 253.364 165.389 254.259 165.389 255.363V255.475C165.389 256.598 165.036 257.502 164.331 258.189ZM166.911 259.08V251.8H168.595V252.914C168.781 252.552 169.068 252.25 169.458 252.009C169.848 251.767 170.298 251.647 170.808 251.647C171.829 251.647 172.516 252.083 172.869 252.955C173.138 252.528 173.495 252.204 173.94 251.981C174.386 251.758 174.85 251.647 175.332 251.647C176.047 251.647 176.627 251.883 177.072 252.357C177.527 252.821 177.755 253.526 177.755 254.473V259.08H176.07V254.584C176.07 253.563 175.639 253.053 174.776 253.053C174.33 253.053 173.95 253.201 173.634 253.498C173.328 253.786 173.175 254.194 173.175 254.723V259.08H171.491V254.584C171.491 253.563 171.059 253.053 170.196 253.053C169.751 253.053 169.37 253.201 169.055 253.498C168.748 253.786 168.595 254.194 168.595 254.723V259.08H166.911ZM183.006 261.572V251.8H184.69V252.969C184.904 252.598 185.224 252.287 185.651 252.037C186.087 251.777 186.56 251.647 187.07 251.647C188.008 251.647 188.778 251.981 189.381 252.649C189.994 253.308 190.3 254.208 190.3 255.35V255.461C190.3 256.612 189.998 257.526 189.395 258.203C188.801 258.881 188.026 259.219 187.07 259.219C186.523 259.219 186.04 259.103 185.623 258.871C185.205 258.63 184.894 258.319 184.69 257.939V261.572H183.006ZM186.653 257.883C187.275 257.883 187.748 257.679 188.073 257.27C188.407 256.862 188.574 256.268 188.574 255.489V255.377C188.574 254.598 188.393 254.004 188.031 253.596C187.678 253.178 187.214 252.969 186.639 252.969C186.036 252.969 185.549 253.178 185.177 253.596C184.815 254.004 184.634 254.598 184.634 255.377V255.489C184.634 256.278 184.811 256.876 185.163 257.284C185.525 257.683 186.022 257.883 186.653 257.883ZM191.856 259.08V248.431H193.541V259.08H191.856ZM197.501 259.219C196.786 259.219 196.201 259.043 195.747 258.69C195.292 258.328 195.065 257.786 195.065 257.062C195.065 256.264 195.403 255.679 196.081 255.308C196.758 254.937 197.663 254.751 198.795 254.751H199.7V254.375C199.7 253.874 199.598 253.507 199.394 253.275C199.199 253.034 198.86 252.914 198.378 252.914C197.533 252.914 197.069 253.294 196.986 254.055H195.357C195.422 253.248 195.737 252.644 196.304 252.245C196.879 251.846 197.603 251.647 198.475 251.647C200.415 251.647 201.384 252.533 201.384 254.306V259.08H199.728V258.189C199.208 258.876 198.466 259.219 197.501 259.219ZM197.904 258.008C198.433 258.008 198.865 257.878 199.199 257.618C199.533 257.349 199.7 256.987 199.7 256.533V255.809H198.837C197.436 255.809 196.735 256.203 196.735 256.992C196.735 257.67 197.125 258.008 197.904 258.008ZM206.503 259.219C205.435 259.219 204.554 258.89 203.858 258.231C203.171 257.563 202.828 256.663 202.828 255.53V255.419C202.828 254.287 203.18 253.378 203.886 252.691C204.591 251.995 205.463 251.647 206.503 251.647C207.393 251.647 208.145 251.87 208.758 252.315C209.379 252.751 209.737 253.438 209.829 254.375H208.201C208.071 253.456 207.514 252.997 206.53 252.997C205.946 252.997 205.468 253.21 205.097 253.637C204.735 254.064 204.554 254.649 204.554 255.391V255.503C204.554 256.282 204.73 256.881 205.083 257.298C205.445 257.716 205.941 257.925 206.572 257.925C207.036 257.925 207.431 257.79 207.755 257.521C208.089 257.243 208.28 256.858 208.326 256.366H209.871C209.806 257.219 209.472 257.911 208.869 258.44C208.266 258.959 207.477 259.219 206.503 259.219ZM214.523 259.219C213.437 259.219 212.551 258.885 211.864 258.217C211.178 257.549 210.834 256.649 210.834 255.517V255.405C210.834 254.292 211.173 253.387 211.851 252.691C212.537 251.995 213.405 251.647 214.454 251.647C215.437 251.647 216.254 251.953 216.904 252.566C217.562 253.178 217.892 254.097 217.892 255.322V255.809H212.56C212.588 256.505 212.774 257.038 213.117 257.41C213.461 257.781 213.943 257.966 214.565 257.966C215.549 257.966 216.105 257.595 216.235 256.853H217.864C217.743 257.614 217.391 258.198 216.806 258.607C216.221 259.015 215.46 259.219 214.523 259.219ZM212.588 254.681H216.221C216.138 253.475 215.549 252.872 214.454 252.872C213.952 252.872 213.535 253.034 213.201 253.359C212.876 253.674 212.672 254.115 212.588 254.681Z" fill="black"/>
<path d="M109.427 257.938H106.929C105.418 257.938 104.001 257.111 103.133 255.72L101.537 253.165C100.668 251.775 99.2513 250.947 97.7399 250.947H95.5068" stroke="#1E4C43" stroke-width="1.93333" stroke-linecap="round"/>
<path d="M109.427 250.947H106.929C105.418 250.947 104.001 251.862 103.133 253.401L101.537 256.226C100.668 257.765 99.2513 258.68 97.7399 258.68H95.5068" stroke="#1E4C43" stroke-width="1.93333" stroke-linecap="round"/>
<path fill-rule="evenodd" clip-rule="evenodd" d="M107.88 248.627L110.2 250.947L107.88 253.267" fill="#1E4C43"/>
<path d="M107.88 248.627L110.2 250.947L107.88 253.267" stroke="#1E4C43" stroke-width="1.93333" stroke-linecap="round"/>
<path fill-rule="evenodd" clip-rule="evenodd" d="M107.88 255.587L110.2 257.907L107.88 260.227" fill="#1E4C43"/>
<path d="M107.88 255.587L110.2 257.907L107.88 260.227" stroke="#1E4C43" stroke-width="1.93333" stroke-linecap="round"/>
<path d="M52.6787 40.1992C55.1875 40.1992 56.6777 38.2373 56.6777 34.915C56.6777 31.6543 55.0918 29.8496 52.7334 29.8496C50.5869 29.8496 49.0693 31.292 49.0693 33.3154C49.0693 35.209 50.4365 36.5898 52.3164 36.5898C53.4716 36.5898 54.4082 36.0566 54.873 35.1201H54.9892C54.9687 37.4033 54.1416 38.7227 52.6992 38.7227C51.8515 38.7227 51.1748 38.2646 50.9628 37.5264H49.206C49.4931 39.1396 50.874 40.1992 52.6787 40.1992ZM52.7402 35.1953C51.5918 35.1953 50.7988 34.4023 50.7988 33.2607C50.7988 32.1602 51.6328 31.3193 52.747 31.3193C53.8613 31.3193 54.6953 32.1738 54.6953 33.2949C54.6953 34.3955 53.8818 35.1953 52.7402 35.1953ZM59.7744 38.5996C60.4238 38.5996 60.8681 38.1348 60.8681 37.5195C60.8681 36.8975 60.4238 36.4395 59.7744 36.4395C59.1318 36.4395 58.6806 36.8975 58.6806 37.5195C58.6806 38.1348 59.1318 38.5996 59.7744 38.5996ZM59.7744 33.6094C60.4238 33.6094 60.8681 33.1514 60.8681 32.5361C60.8681 31.9141 60.4238 31.4561 59.7744 31.4561C59.1318 31.4561 58.6806 31.9141 58.6806 32.5361C58.6806 33.1514 59.1318 33.6094 59.7744 33.6094ZM67.6835 39.96H69.372V38.0801H70.705V36.5898H69.372V30.0957H66.8837C65.5439 32.1328 64.1425 34.3818 62.8642 36.6104V38.0801H67.6835V39.96ZM64.498 36.5352C65.4619 34.874 66.6035 33.0625 67.6152 31.5312H67.7109V36.6309H64.498V36.5352ZM74.7451 39.96H76.5087V30.0957H74.7519L72.1748 31.9004V33.5957L74.6289 31.873H74.7451V39.96Z" fill="black"/>
<path d="M294.788 26.7886H281.905C280.978 26.7886 280.227 27.5399 280.227 28.4667V33.099C280.227 34.0258 280.978 34.7771 281.905 34.7771H294.788C295.715 34.7771 296.467 34.0258 296.467 33.099V28.4667C296.467 27.5399 295.715 26.7886 294.788 26.7886Z" stroke="black" stroke-opacity="0.4" stroke-width="0.773333"/>
<path d="M294.278 27.9487H282.415C281.847 27.9487 281.387 28.4092 281.387 28.9773V32.5887C281.387 33.1568 281.847 33.6173 282.415 33.6173H294.278C294.846 33.6173 295.307 33.1568 295.307 32.5887V28.9773C295.307 28.4092 294.846 27.9487 294.278 27.9487Z" fill="black"/>
<path fill-rule="evenodd" clip-rule="evenodd" d="M297.627 32.3302C298.231 32.0774 298.655 31.4807 298.655 30.785C298.655 30.0892 298.231 29.4925 297.627 29.2397V32.3302Z" fill="black" fill-opacity="0.4"/>
<path d="M270.039 28.163C271.753 28.1631 273.401 28.8215 274.643 30.0022C274.736 30.0934 274.886 30.0922 274.978 29.9997L275.872 29.0974C275.919 29.0505 275.945 28.9869 275.944 28.9207C275.944 28.8545 275.917 28.7912 275.87 28.7448C272.61 25.6209 267.468 25.6209 264.208 28.7448C264.161 28.7912 264.134 28.8544 264.134 28.9206C264.133 28.9868 264.159 29.0504 264.206 29.0974L265.1 29.9997C265.192 30.0924 265.342 30.0935 265.435 30.0022C266.677 28.8214 268.325 28.163 270.039 28.163ZM270.039 31.0983C270.981 31.0982 271.889 31.4482 272.587 32.0802C272.681 32.1699 272.83 32.1679 272.922 32.0758L273.815 31.1736C273.862 31.1263 273.888 31.0621 273.887 30.9953C273.886 30.9286 273.859 30.865 273.811 30.8186C271.686 28.8417 268.394 28.8417 266.269 30.8186C266.221 30.865 266.194 30.9287 266.193 30.9954C266.193 31.0621 266.219 31.1263 266.266 31.1736L267.159 32.0758C267.251 32.1679 267.399 32.1699 267.494 32.0802C268.191 31.4486 269.098 31.0987 270.039 31.0983ZM271.755 33.2515C271.803 33.2047 271.829 33.1402 271.828 33.0733C271.827 33.0064 271.798 32.943 271.748 32.8981C270.762 32.0638 269.317 32.0638 268.33 32.8981C268.281 32.943 268.252 33.0063 268.25 33.0732C268.249 33.1401 268.275 33.2046 268.323 33.2515L269.868 34.8103C269.913 34.8561 269.975 34.8819 270.039 34.8819C270.104 34.8819 270.165 34.8561 270.211 34.8103L271.755 33.2515Z" fill="black"/>
<path d="M247.878 31.8201H248.652C249.079 31.8201 249.425 32.1662 249.425 32.5933V34.14C249.425 34.5671 249.079 34.9133 248.652 34.9133H247.878C247.451 34.9133 247.105 34.5671 247.105 34.14V32.5933C247.105 32.1662 247.451 31.8201 247.878 31.8201ZM251.487 30.2733H252.26C252.688 30.2733 253.034 30.6197 253.034 31.0468V34.14C253.034 34.5671 252.688 34.9133 252.26 34.9133H251.487C251.06 34.9133 250.714 34.5671 250.714 34.14V31.0468C250.714 30.6197 251.06 30.2733 251.487 30.2733ZM255.096 28.469H255.869C256.296 28.469 256.643 28.8152 256.643 29.2423V34.14C256.643 34.5671 256.296 34.9133 255.869 34.9133H255.096C254.669 34.9133 254.323 34.5671 254.323 34.14V29.2423C254.323 28.8152 254.669 28.469 255.096 28.469ZM258.705 26.6646H259.478C259.905 26.6646 260.252 27.0108 260.252 27.4379V34.14C260.252 34.5671 259.905 34.9133 259.478 34.9133H258.705C258.278 34.9133 257.932 34.5671 257.932 34.14V27.4379C257.932 27.0108 258.278 26.6646 258.705 26.6646Z" fill="black"/>
<path d="M310 50.1201H20V87.2401H310V50.1201Z" fill="#F6F3E1"/>
<path fill-rule="evenodd" clip-rule="evenodd" d="M41.2758 59.3999C46.1926 59.3999 50.1785 63.3858 50.1785 68.3027C50.1785 73.2194 46.1929 77.2052 41.2762 77.2054C41.2764 77.2054 41.2761 77.2054 41.2762 77.2054C36.3594 77.2054 32.373 73.2195 32.373 68.3027C32.373 63.3858 36.3589 59.3999 41.2758 59.3999ZM37.571 74.3867C36.8299 72.9983 36.3394 71.1929 36.2262 69.1929H38.01C38.1268 71.0217 38.5967 72.5974 39.2344 73.7161C39.6272 74.4052 40.0254 74.8364 40.3855 75.0932V69.1929H42.166V75.0932C42.5261 74.8364 42.9244 74.4052 43.3172 73.7161C43.9549 72.5974 44.4247 71.0217 44.5416 69.1929H46.3253C46.2121 71.1929 45.7216 72.9983 44.9805 74.3867C47.0299 73.1361 48.398 70.8791 48.398 68.3027C48.398 65.7262 47.0299 63.4692 44.9805 62.2186C45.7216 63.6071 46.2121 65.4124 46.3253 67.4124H44.5416C44.4247 65.5836 43.9549 64.008 43.3172 62.8892C42.9244 62.2001 42.5261 61.7689 42.166 61.5121V67.4124H40.3855V61.5121C40.0254 61.7689 39.6272 62.2001 39.2344 62.8892C38.5967 64.008 38.1268 65.5836 38.01 67.4124H36.2262C36.3394 65.4124 36.8299 63.6071 37.571 62.2186C35.5216 63.4692 34.1535 65.7262 34.1535 68.3027C34.1535 70.8792 35.5216 73.1361 37.571 74.3867Z" fill="#1E4C43"/>
<path d="M54.6299 64.1841L58.6762 73.1361H60.3234L63.2119 65.8671L65.9691 73.1361H67.6163L69.6394 68.6601L71.6626 64.1841H69.9916L66.9479 71.3099L64.0713 64.1841H62.3764L59.5595 71.3099L56.4203 64.1841H54.6299Z" fill="#1E4C43"/>
<path d="M71.3136 71.3936C71.3016 72.5514 72.3042 73.3272 73.8201 73.3272C75.3957 73.3272 76.637 72.6707 76.9235 71.692L76.9593 73.1362H78.2245L78.2364 69.1496C78.2245 67.4905 77.1264 66.3208 75.2524 66.3208C74.023 66.3208 72.6623 66.7385 71.9223 67.3592V68.6602C72.6862 67.9918 73.9037 67.5502 75.1092 67.5502C76.1357 67.5502 76.8996 68.1231 76.9115 68.9706H76.0641C73.3427 68.9706 71.3374 69.9374 71.3136 71.3936ZM72.722 71.2503C72.722 70.5222 74.1066 70.009 76.1715 70.009H76.7683C76.7683 72.1933 72.722 72.8378 72.722 71.2503Z" fill="#1E4C43"/>
<path d="M82.4666 73.0165C81.9772 73.7804 81.4162 74.1623 80.8075 74.1623C80.3658 74.1623 79.9719 74.0788 79.5303 73.9236V75.2485C79.9958 75.3559 80.4971 75.4156 80.9507 75.4156C82.013 75.4156 83.1708 74.6756 83.9944 73.0523L87.229 66.5591H85.6893L83.3021 71.5483L80.7836 66.5591H79.1006L82.4666 73.0165Z" fill="#1E4C43"/>
<path d="M88.2627 68.1348H89.9338V73.136H91.4258V68.1348H94.3262V66.9174H91.4258V66.249C91.4258 65.5925 92.0106 65.1628 92.882 65.1628C93.6459 65.1628 94.4694 65.4254 94.9469 65.8073V64.4228C94.5649 64.1363 93.7414 63.9453 92.882 63.9453C91.1154 63.9453 89.9338 64.8644 89.9338 66.249V66.9174H88.2747L88.2627 68.1348Z" fill="#1E4C43"/>
<path d="M95.2081 71.3936C95.1962 72.5514 96.1988 73.3272 97.7147 73.3272C99.2902 73.3272 100.532 72.6707 100.818 71.692L100.854 73.1362H102.119L102.131 69.1496C102.119 67.4905 101.021 66.3208 99.147 66.3208C97.9176 66.3208 96.5569 66.7385 95.8169 67.3592V68.6602C96.5808 67.9918 97.7982 67.5502 99.0038 67.5502C100.03 67.5502 100.794 68.1231 100.806 68.9706H99.9586C97.2372 68.9706 95.232 69.9374 95.2081 71.3936ZM96.6166 71.2503C96.6166 70.5222 98.0011 70.009 100.066 70.009H100.663C100.663 72.1933 96.6166 72.8378 96.6166 71.2503Z" fill="#1E4C43"/>
<path d="M103.89 73.1362H105.382V69.2093C105.632 68.3021 106.444 67.6218 107.423 67.6218C108.067 67.6218 108.7 67.9321 108.998 68.2067V66.7863C108.604 66.5117 108.067 66.3208 107.649 66.3208C106.539 66.3208 105.632 66.9773 105.382 67.8605V66.5595H103.89V73.1362Z" fill="#1E4C43"/>
<path d="M110.07 69.83C110.07 71.9546 111.646 73.363 113.997 73.363C114.868 73.363 116.014 73.0646 116.862 72.611V71.3816C116.241 71.8591 115.095 72.1813 113.997 72.1813C112.744 72.1813 111.741 71.4771 111.478 70.4148H117.124V69.2928C117.017 67.5144 115.68 66.3208 113.782 66.3208C111.55 66.3208 110.07 67.7292 110.07 69.83ZM111.455 69.3406C111.646 68.1708 112.553 67.4189 113.734 67.4189C114.892 67.4189 115.692 68.1708 115.752 69.3406H111.455Z" fill="#1E4C43"/>
<path d="M118.518 73.1362H120.01V69.2093C120.261 68.3021 121.072 67.6218 122.051 67.6218C122.696 67.6218 123.328 67.9321 123.627 68.2067V66.7863C123.233 66.5117 122.696 66.3208 122.278 66.3208C121.168 66.3208 120.261 66.9773 120.01 67.8605V66.5595H118.518V73.1362Z" fill="#1E4C43"/>
<path d="M20 87.6265H310" stroke="#E0DBC1" stroke-width="0.773333"/>
<path d="M20 49.7335L310 49.7334" stroke="#E0DBC1" stroke-width="0.773333"/>
<path d="M290.473 75.4464L277.714 62.687" stroke="black" stroke-width="1.7807" stroke-linecap="round"/>
<path d="M290.473 62.687L277.714 75.4464" stroke="black" stroke-width="1.7807" stroke-linecap="round"/>
<path d="M20 39.5C30.7696 39.5 39.5 30.7696 39.5 20C39.5 9.23045 30.7696 0.5 20 0.5C9.23045 0.5 0.5 9.23045 0.5 20C0.5 30.7696 9.23045 39.5 20 39.5Z" fill="#FFFEFE" stroke="#828282"/>
<path d="M10.1484 15.0322H12.7944L15.9304 22.7322H15.9444L19.0524 15.0322H21.7124L17.3584 25.0002H14.5024L10.1484 15.0322ZM22.0628 23.1662H25.3668V17.5942H25.3528C25.1288 17.9302 24.8208 18.2149 24.4288 18.4482C24.0368 18.6815 23.5468 18.8962 22.9588 19.0922L22.3288 17.1042C23.8501 16.7215 24.9141 16.0309 25.5208 15.0322H27.8728V23.1662H30.4208V25.0002H22.0628V23.1662Z" fill="black"/>
<defs>
<filter id="filter0_d" x="4" y="5" width="322" height="667.68" filterUnits="userSpaceOnUse" color-interpolation-filters="sRGB">
<feFlood flood-opacity="0" result="BackgroundImageFix"/>
<feColorMatrix in="SourceAlpha" type="matrix" values="0 0 0 0 0 0 0 0 0 0 0 0 0 0 0 0 0 0 127 0"/>
<feOffset dy="8"/>
<feGaussianBlur stdDeviation="8"/>
<feColorMatrix type="matrix" values="0 0 0 0 0 0 0 0 0 0 0 0 0 0 0 0 0 0 0.15 0"/>
<feBlend mode="normal" in2="BackgroundImageFix" result="effect1_dropShadow"/>
<feBlend mode="normal" in="SourceGraphic" in2="effect1_dropShadow" result="shape"/>
</filter>
<filter id="filter1_d" x="63.0268" y="168.2" width="195.654" height="62.64" filterUnits="userSpaceOnUse" color-interpolation-filters="sRGB">
<feFlood flood-opacity="0" result="BackgroundImageFix"/>
<feColorMatrix in="SourceAlpha" type="matrix" values="0 0 0 0 0 0 0 0 0 0 0 0 0 0 0 0 0 0 127 0"/>
<feOffset dx="1.54667" dy="3.86667"/>
<feGaussianBlur stdDeviation="6.18667"/>
<feColorMatrix type="matrix" values="0 0 0 0 0 0 0 0 0 0 0 0 0 0 0 0 0 0 0.15 0"/>
<feBlend mode="normal" in2="BackgroundImageFix" result="effect1_dropShadow"/>
<feBlend mode="normal" in="SourceGraphic" in2="effect1_dropShadow" result="shape"/>
</filter>
<filter id="filter2_d" x="63.8003" y="227.746" width="195.654" height="62.64" filterUnits="userSpaceOnUse" color-interpolation-filters="sRGB">
<feFlood flood-opacity="0" result="BackgroundImageFix"/>
<feColorMatrix in="SourceAlpha" type="matrix" values="0 0 0 0 0 0 0 0 0 0 0 0 0 0 0 0 0 0 127 0"/>
<feOffset dx="1.54667" dy="3.86667"/>
<feGaussianBlur stdDeviation="6.18667"/>
<feColorMatrix type="matrix" values="0 0 0 0 0 0 0 0 0 0 0 0 0 0 0 0 0 0 0.15 0"/>
<feBlend mode="normal" in2="BackgroundImageFix" result="effect1_dropShadow"/>
<feBlend mode="normal" in="SourceGraphic" in2="effect1_dropShadow" result="shape"/>
</filter>
<filter id="filter3_d" x="30.9129" y="104.891" width="227.788" height="41.615" filterUnits="userSpaceOnUse" color-interpolation-filters="sRGB">
<feFlood flood-opacity="0" result="BackgroundImageFix"/>
<feColorMatrix in="SourceAlpha" type="matrix" values="0 0 0 0 0 0 0 0 0 0 0 0 0 0 0 0 0 0 127 0"/>
<feOffset dx="1.46018" dy="1.46018"/>
<feGaussianBlur stdDeviation="1.46018"/>
<feColorMatrix type="matrix" values="0 0 0 0 0 0 0 0 0 0 0 0 0 0 0 0 0 0 0.25 0"/>
<feBlend mode="normal" in2="BackgroundImageFix" result="effect1_dropShadow"/>
<feBlend mode="normal" in="SourceGraphic" in2="effect1_dropShadow" result="shape"/>
</filter>
<filter id="filter4_d" x="261.28" y="105.789" width="41.76" height="41.76" filterUnits="userSpaceOnUse" color-interpolation-filters="sRGB">
<feFlood flood-opacity="0" result="BackgroundImageFix"/>
<feColorMatrix in="SourceAlpha" type="matrix" values="0 0 0 0 0 0 0 0 0 0 0 0 0 0 0 0 0 0 127 0"/>
<feOffset dy="2.32"/>
<feGaussianBlur stdDeviation="2.70667"/>
<feColorMatrix type="matrix" values="0 0 0 0 0 0 0 0 0 0 0 0 0 0 0 0 0 0 0.15 0"/>
<feBlend mode="normal" in2="BackgroundImageFix" result="effect1_dropShadow"/>
<feBlend mode="normal" in="SourceGraphic" in2="effect1_dropShadow" result="shape"/>
</filter>
<filter id="filter5_d" x="261.28" y="105.789" width="41.76" height="41.76" filterUnits="userSpaceOnUse" color-interpolation-filters="sRGB">
<feFlood flood-opacity="0" result="BackgroundImageFix"/>
<feColorMatrix in="SourceAlpha" type="matrix" values="0 0 0 0 0 0 0 0 0 0 0 0 0 0 0 0 0 0 127 0"/>
<feOffset dy="2.32"/>
<feGaussianBlur stdDeviation="2.70667"/>
<feColorMatrix type="matrix" values="0 0 0 0 0 0 0 0 0 0 0 0 0 0 0 0 0 0 0.15 0"/>
<feBlend mode="normal" in2="BackgroundImageFix" result="effect1_dropShadow"/>
<feBlend mode="normal" in="SourceGraphic" in2="effect1_dropShadow" result="shape"/>
</filter>
</defs>
</svg>
