<svg width="414" height="844" viewBox="0 0 414 844" fill="none" xmlns="http://www.w3.org/2000/svg">
<g filter="url(#filter0_d)">
<rect x="26.6289" y="14.3225" width="366.359" height="803.059" rx="19.5392" fill="#FDFBF3"/>
</g>
<rect width="366.359" height="51.7788" transform="translate(26.6289 14.3225)" fill="white"/>
<g clip-path="url(#clip0)">
<text fill="black" xml:space="preserve" style="white-space: pre" font-family="SF Pro Text" font-size="13.6774" letter-spacing="0em"><tspan x="59.1055" y="43.0918">9:41</tspan></text>
</g>
<g clip-path="url(#clip1)">
<rect x="355.016" y="31.7417" width="20.5161" height="10.092" rx="2.12" stroke="black" stroke-opacity="0.4" stroke-width="0.976958"/>
<rect x="356.48" y="33.2073" width="17.5852" height="7.1611" rx="1.29935" fill="black"/>
<path fill-rule="evenodd" clip-rule="evenodd" d="M377 38.7428C377.763 38.4235 378.299 37.6697 378.299 36.7907C378.299 35.9117 377.763 35.1579 377 34.8386V38.7428Z" fill="black" fill-opacity="0.4"/>
</g>
<path d="M342.148 33.478C344.313 33.4781 346.395 34.3099 347.964 35.8016C348.082 35.9167 348.271 35.9153 348.387 35.7983L349.517 34.6585C349.576 34.5992 349.608 34.5188 349.608 34.4352C349.607 34.3516 349.574 34.2717 349.514 34.213C345.396 30.2666 338.9 30.2666 334.782 34.213C334.722 34.2716 334.688 34.3516 334.687 34.4352C334.687 34.5188 334.72 34.5992 334.779 34.6585L335.908 35.7983C336.025 35.9154 336.214 35.9169 336.332 35.8016C337.901 34.3098 339.983 33.478 342.148 33.478ZM342.148 37.1862C343.338 37.1862 344.485 37.6283 345.366 38.4266C345.485 38.54 345.673 38.5375 345.79 38.4211L346.918 37.2813C346.977 37.2215 347.01 37.1404 347.009 37.0562C347.008 36.9719 346.974 36.8915 346.913 36.8329C344.228 34.3354 340.07 34.3354 337.385 36.8329C337.325 36.8915 337.29 36.9719 337.289 37.0562C337.289 37.1405 337.322 37.2216 337.381 37.2813L338.509 38.4211C338.625 38.5375 338.813 38.54 338.932 38.4266C339.813 37.6288 340.959 37.1867 342.148 37.1862ZM344.316 39.9064C344.376 39.8472 344.41 39.7657 344.408 39.6812C344.406 39.5967 344.37 39.5166 344.307 39.4599C343.061 38.4059 341.236 38.4059 339.989 39.4599C339.927 39.5166 339.89 39.5966 339.888 39.6811C339.887 39.7656 339.92 39.8472 339.98 39.9064L341.932 41.8756C341.989 41.9335 342.067 41.9661 342.148 41.9661C342.23 41.9661 342.308 41.9335 342.365 41.8756L344.316 39.9064Z" fill="black"/>
<path d="M314.153 38.0983H315.13C315.669 38.0983 316.107 38.5357 316.107 39.0752V41.0291C316.107 41.5687 315.669 42.0061 315.13 42.0061H314.153C313.613 42.0061 313.176 41.5687 313.176 41.0291V39.0752C313.176 38.5357 313.613 38.0983 314.153 38.0983ZM318.712 36.1443H319.689C320.228 36.1443 320.666 36.5817 320.666 37.1213V41.0291C320.666 41.5687 320.228 42.0061 319.689 42.0061H318.712C318.172 42.0061 317.735 41.5687 317.735 41.0291V37.1213C317.735 36.5817 318.172 36.1443 318.712 36.1443ZM323.271 33.8648H324.248C324.788 33.8648 325.225 34.3022 325.225 34.8417V41.0291C325.225 41.5687 324.788 42.0061 324.248 42.0061H323.271C322.731 42.0061 322.294 41.5687 322.294 41.0291V34.8417C322.294 34.3022 322.731 33.8648 323.271 33.8648ZM327.83 31.5852H328.807C329.347 31.5852 329.784 32.0226 329.784 32.5622V41.0291C329.784 41.5687 329.347 42.0061 328.807 42.0061H327.83C327.291 42.0061 326.853 41.5687 326.853 41.0291V32.5622C326.853 32.0226 327.291 31.5852 327.83 31.5852Z" fill="black"/>
<rect x="26.6289" y="61.2163" width="366.359" height="46.894" fill="#F6F3E1"/>
<path fill-rule="evenodd" clip-rule="evenodd" d="M53.5086 72.9397C59.7202 72.9397 64.7556 77.9751 64.7556 84.1866C64.7556 90.3979 59.7205 95.4332 53.5093 95.4336C53.5095 95.4336 53.509 95.4336 53.5093 95.4336C47.2978 95.4336 42.2617 90.3981 42.2617 84.1866C42.2617 77.9751 47.2971 72.9397 53.5086 72.9397ZM48.8284 91.8726C47.8922 90.1186 47.2725 87.8379 47.1296 85.3113H49.3829C49.5306 87.6217 50.1242 89.6121 50.9298 91.0255C51.426 91.8961 51.929 92.4407 52.384 92.7652V85.3113H54.6333V92.7652C55.0883 92.4407 55.5913 91.8961 56.0875 91.0255C56.8931 89.6121 57.4867 87.6217 57.6344 85.3113H59.8877C59.7448 87.8379 59.1251 90.1186 58.1889 91.8726C60.7779 90.2928 62.5062 87.4415 62.5062 84.1866C62.5062 80.9318 60.7779 78.0805 58.1889 76.5006C59.1251 78.2547 59.7448 80.5353 59.8877 83.0619H57.6344C57.4867 80.7516 56.8931 78.7611 56.0875 77.3478C55.5913 76.4772 55.0883 75.9325 54.6333 75.6081V83.0619H52.384V75.6081C51.929 75.9325 51.426 76.4772 50.9298 77.3478C50.1242 78.7611 49.5306 80.7516 49.3829 83.0619H47.1296C47.2725 80.5353 47.8922 78.2547 48.8284 76.5006C46.2394 78.0805 44.5111 80.9317 44.5111 84.1866C44.5111 87.4415 46.2394 90.2928 48.8284 91.8726Z" fill="#1E4C43"/>
<path d="M70.375 78.9835L75.4867 90.2926H77.5676L81.2167 81.1096L84.6999 90.2926H86.7807L89.3366 84.638L91.8925 78.9835H89.7814L85.9363 87.9855L82.3023 78.9835H80.1611L76.6025 87.9855L72.6368 78.9835H70.375Z" fill="#1E4C43"/>
<path d="M91.4505 88.0911C91.4354 89.5537 92.7021 90.5338 94.6171 90.5338C96.6075 90.5338 98.1757 89.7045 98.5376 88.468L98.5828 90.2926H100.181L100.196 85.2562C100.181 83.1603 98.7939 81.6826 96.4265 81.6826C94.8734 81.6826 93.1544 82.2103 92.2195 82.9944V84.638C93.1846 83.7936 94.7226 83.2357 96.2456 83.2357C97.5424 83.2357 98.5074 83.9595 98.5225 85.0301H97.4519C94.0139 85.0301 91.4807 86.2514 91.4505 88.0911ZM93.2298 87.9101C93.2298 86.9903 94.979 86.3419 97.5876 86.3419H98.3415C98.3415 89.1013 93.2298 89.9156 93.2298 87.9101Z" fill="#1E4C43"/>
<path d="M105.541 90.1418C104.923 91.1068 104.214 91.5893 103.445 91.5893C102.887 91.5893 102.389 91.4838 101.831 91.2878V92.9615C102.42 93.0972 103.053 93.1726 103.626 93.1726C104.968 93.1726 106.43 92.2377 107.471 90.187L111.557 81.9841H109.612L106.596 88.2871L103.415 81.9841H101.289L105.541 90.1418Z" fill="#1E4C43"/>
<path d="M112.863 83.9745H114.974V90.2926H116.859V83.9745H120.523V82.4365H116.859V81.5921C116.859 80.7628 117.598 80.2199 118.698 80.2199C119.663 80.2199 120.704 80.5517 121.307 81.0342V79.285C120.825 78.9231 119.784 78.6819 118.698 78.6819C116.467 78.6819 114.974 79.843 114.974 81.5921V82.4365H112.878L112.863 83.9745Z" fill="#1E4C43"/>
<path d="M121.638 88.0911C121.623 89.5537 122.889 90.5338 124.804 90.5338C126.795 90.5338 128.363 89.7045 128.725 88.468L128.77 90.2926H130.368L130.383 85.2562C130.368 83.1603 128.981 81.6826 126.614 81.6826C125.06 81.6826 123.341 82.2103 122.407 82.9944V84.638C123.372 83.7936 124.91 83.2357 126.433 83.2357C127.729 83.2357 128.694 83.9595 128.71 85.0301H127.639C124.201 85.0301 121.668 86.2514 121.638 88.0911ZM123.417 87.9101C123.417 86.9903 125.166 86.3419 127.775 86.3419H128.529C128.529 89.1013 123.417 89.9156 123.417 87.9101Z" fill="#1E4C43"/>
<path d="M132.605 90.2926H134.489V85.3316C134.806 84.1857 135.831 83.3262 137.068 83.3262C137.882 83.3262 138.681 83.7182 139.058 84.065V82.2706C138.561 81.9238 137.882 81.6826 137.354 81.6826C135.952 81.6826 134.806 82.5119 134.489 83.6277V81.9841H132.605V90.2926Z" fill="#1E4C43"/>
<path d="M140.412 86.1157C140.412 88.7998 142.403 90.5791 145.373 90.5791C146.474 90.5791 147.922 90.2021 148.992 89.6291V88.076C148.208 88.6791 146.761 89.0863 145.373 89.0863C143.79 89.0863 142.523 88.1966 142.192 86.8546H149.324V85.4372C149.188 83.1904 147.5 81.6826 145.102 81.6826C142.282 81.6826 140.412 83.4619 140.412 86.1157ZM142.162 85.4975C142.403 84.0198 143.549 83.0698 145.042 83.0698C146.504 83.0698 147.515 84.0198 147.59 85.4975H142.162Z" fill="#1E4C43"/>
<path d="M151.085 90.2926H152.97V85.3316C153.286 84.1857 154.312 83.3262 155.548 83.3262C156.363 83.3262 157.162 83.7182 157.539 84.065V82.2706C157.041 81.9238 156.363 81.6826 155.835 81.6826C154.432 81.6826 153.286 82.5119 152.97 83.6277V81.9841H151.085V90.2926Z" fill="#1E4C43"/>
<line x1="26.6289" y1="108.598" x2="392.988" y2="108.598" stroke="#E0DBC1" stroke-width="0.976958"/>
<line x1="26.6289" y1="60.7278" x2="392.988" y2="60.7278" stroke="#E0DBC1" stroke-width="0.976958"/>
<path d="M368.319 93.2111L352.2 77.0922" stroke="black" stroke-width="2.24957" stroke-linecap="round"/>
<path d="M368.316 77.0922L352.197 93.2111" stroke="black" stroke-width="2.24957" stroke-linecap="round"/>
<line x1="377.352" y1="346.769" x2="42.2551" y2="346.769" stroke="#D7D2BB" stroke-width="0.976958"/>
<circle cx="25.3638" cy="25.6924" r="24.6345" fill="#FFFEFE" stroke="#828282" stroke-width="1.26331"/>
<text fill="black" xml:space="preserve" style="white-space: pre" font-family="Agrandir" font-size="17.6863" font-weight="bold" letter-spacing="0em"><tspan x="11.899" y="32.0091">V3</tspan></text>
<g filter="url(#filter1_dd)">
<rect x="42" y="202" width="335" height="48" rx="11.7235" fill="#385E55"/>
</g>
<g filter="url(#filter2_dd)">
<rect x="43" y="266" width="334" height="48" rx="11.7235" fill="#F5F1DF"/>
</g>
<g filter="url(#filter3_d)">
<rect x="42.7229" y="132.715" width="279.465" height="44.2716" rx="3.22814" fill="#FDFBF3"/>
<rect x="42.7229" y="132.715" width="279.465" height="44.2716" rx="3.22814" stroke="#949494" stroke-width="0.922325"/>
</g>
<text fill="#5A605F" xml:space="preserve" style="white-space: pre" font-family="Graphik" font-size="14.7572" letter-spacing="0px"><tspan x="57.0156" y="160.627">Search for destinations</tspan></text>
<g filter="url(#filter4_d)">
<rect x="338.281" y="135.452" width="39.0783" height="39.0783" rx="19.5392" fill="#EF6F48"/>
</g>
<path d="M360.612 157.795L366.996 164.18" stroke="#F1ECD5" stroke-width="1.83424" stroke-linecap="round"/>
<path fill-rule="evenodd" clip-rule="evenodd" d="M355.571 159.609C359.357 159.609 362.427 156.54 362.427 152.753C362.427 148.967 359.357 145.897 355.571 145.897C351.784 145.897 348.715 148.967 348.715 152.753C348.715 156.54 351.784 159.609 355.571 159.609Z" stroke="#F1ECD5" stroke-width="1.83424"/>
<rect x="42.7229" y="132.715" width="279.465" height="44.2716" rx="3.22814" fill="white"/>
<rect x="42.7229" y="132.715" width="279.465" height="44.2716" rx="3.22814" stroke="#949494" stroke-width="0.922325"/>
<text fill="#3A3A3A" xml:space="preserve" style="white-space: pre" font-family="Graphik" font-size="14.7572" letter-spacing="0px"><tspan x="57.0156" y="160.627">Search for destinations</tspan></text>
<g filter="url(#filter5_d)">
<rect x="338.281" y="135.452" width="39.0783" height="39.0783" rx="19.5392" fill="#EF6F48"/>
</g>
<path d="M360.612 157.795L366.996 164.18" stroke="#F1ECD5" stroke-width="1.83424" stroke-linecap="round"/>
<path fill-rule="evenodd" clip-rule="evenodd" d="M355.571 159.609C359.357 159.609 362.427 156.54 362.427 152.754C362.427 148.967 359.357 145.898 355.571 145.898C351.784 145.898 348.715 148.967 348.715 152.754C348.715 156.54 351.784 159.609 355.571 159.609Z" stroke="#F1ECD5" stroke-width="1.83424"/>
<text fill="#FDFBF3" xml:space="preserve" style="white-space: pre" font-family="Graphik" font-size="17.5852" font-weight="500" letter-spacing="0px"><tspan x="158.688" y="231.725">Places near me</tspan></text>
<path fill-rule="evenodd" clip-rule="evenodd" d="M123.803 224.692L137.34 216.876L133.049 232.891L129.629 226.969L122.957 225.181L123.803 224.692Z" fill="#FDFBF3" stroke="#FDFBF3" stroke-width="2.44239" stroke-linejoin="round"/>
<text fill="#1E4C43" xml:space="preserve" style="white-space: pre" font-family="Graphik" font-size="17.5852" font-weight="500" letter-spacing="0px"><tspan x="165.102" y="295.098">Random place</tspan></text>
<path d="M147.515 293.67H144.36C142.451 293.67 140.661 292.625 139.564 290.868L137.547 287.641C136.45 285.884 134.66 284.839 132.751 284.839L129.93 284.839" stroke="#1E4C43" stroke-width="2.44239" stroke-linecap="round"/>
<path d="M147.515 284.839H144.36C142.451 284.839 140.661 285.995 139.564 287.939L137.547 291.509C136.45 293.452 134.66 294.608 132.751 294.608L129.93 294.608" stroke="#1E4C43" stroke-width="2.44239" stroke-linecap="round"/>
<path fill-rule="evenodd" clip-rule="evenodd" d="M145.562 281.908L148.493 284.839L145.562 287.769" fill="#1E4C43"/>
<path d="M145.562 281.908L148.493 284.839L145.562 287.769" stroke="#1E4C43" stroke-width="2.44239" stroke-linecap="round"/>
<path fill-rule="evenodd" clip-rule="evenodd" d="M145.562 290.7L148.493 293.631L145.562 296.562" fill="#1E4C43"/>
<path d="M145.562 290.7L148.493 293.631L145.562 296.562" stroke="#1E4C43" stroke-width="2.44239" stroke-linecap="round"/>
<text fill="black" xml:space="preserve" style="white-space: pre" font-family="Graphik" font-size="17.5852" font-weight="500" letter-spacing="0px"><tspan x="59.8477" y="392.688">Popular suggestions</tspan></text>
<text fill="#1E4C43" xml:space="preserve" style="white-space: pre" font-family="Graphik" font-size="15.6313" letter-spacing="0px"><tspan x="59.8477" y="697.779">Relaxation</tspan></text>
<rect x="59.8477" y="710.686" width="84.0183" height="33.2166" rx="11.7235" fill="#F1ECD5" fill-opacity="0.66"/>
<text fill="black" xml:space="preserve" style="white-space: pre" font-family="Graphik" font-size="15.6313" letter-spacing="0px"><tspan x="75.4805" y="731.972">Mexico</tspan></text>
<rect x="59.8477" y="751.718" width="84.9953" height="33.2166" rx="11.7235" fill="#F1ECD5" fill-opacity="0.66"/>
<text fill="black" xml:space="preserve" style="white-space: pre" font-family="Graphik" font-size="15.6313" letter-spacing="0px"><tspan x="75.4805" y="773.004">Greece</tspan></text>
<rect x="152.656" y="751.718" width="95.7418" height="33.2166" rx="11.7235" fill="#F1ECD5" fill-opacity="0.66"/>
<text fill="black" xml:space="preserve" style="white-space: pre" font-family="Graphik" font-size="15.6313" letter-spacing="0px"><tspan x="168.289" y="773.004">Maldives</tspan></text>
<rect x="151.684" y="710.686" width="93.7879" height="33.2166" rx="11.7235" fill="#F1ECD5" fill-opacity="0.66"/>
<text fill="black" xml:space="preserve" style="white-space: pre" font-family="Graphik" font-size="15.6313" letter-spacing="0px"><tspan x="167.316" y="731.972">Thailand</tspan></text>
<rect x="253.285" y="710.686" width="57.6405" height="33.2166" rx="11.7235" fill="#F1ECD5" fill-opacity="0.66"/>
<text fill="black" xml:space="preserve" style="white-space: pre" font-family="Graphik" font-size="15.6313" letter-spacing="0px"><tspan x="268.918" y="731.972">Bali</tspan></text>
<text fill="#1E4C43" xml:space="preserve" style="white-space: pre" font-family="Graphik" font-size="15.6313" letter-spacing="0px"><tspan x="59.8477" y="565.889">Historical</tspan></text>
<rect x="59.8477" y="578.797" width="74.2488" height="33.2166" rx="11.7235" fill="#F1ECD5" fill-opacity="0.66"/>
<text fill="black" xml:space="preserve" style="white-space: pre" font-family="Graphik" font-size="15.6313" letter-spacing="0px"><tspan x="75.4805" y="600.083">Egypt</tspan></text>
<rect x="59.8477" y="619.829" width="64.4792" height="33.2166" rx="11.7235" fill="#F1ECD5" fill-opacity="0.66"/>
<text fill="black" xml:space="preserve" style="white-space: pre" font-family="Graphik" font-size="15.6313" letter-spacing="0px"><tspan x="75.4805" y="641.115">Peru</tspan></text>
<rect x="132.145" y="619.829" width="102.581" height="33.2166" rx="11.7235" fill="#F1ECD5" fill-opacity="0.66"/>
<text fill="black" xml:space="preserve" style="white-space: pre" font-family="Graphik" font-size="15.6313" letter-spacing="0px"><tspan x="147.777" y="641.115">Indonesia</tspan></text>
<rect x="141.914" y="578.797" width="99.6497" height="33.2166" rx="11.7235" fill="#F1ECD5" fill-opacity="0.66"/>
<text fill="black" xml:space="preserve" style="white-space: pre" font-family="Graphik" font-size="15.6313" letter-spacing="0px"><tspan x="157.547" y="600.083">Myanmar</tspan></text>
<rect x="249.379" y="578.797" width="74.2488" height="33.2166" rx="11.7235" fill="#F1ECD5" fill-opacity="0.66"/>
<text fill="black" xml:space="preserve" style="white-space: pre" font-family="Graphik" font-size="15.6313" letter-spacing="0px"><tspan x="265.012" y="600.083">Japan</tspan></text>
<text fill="#1E4C43" xml:space="preserve" style="white-space: pre" font-family="Graphik" font-size="15.6313" letter-spacing="0px"><tspan x="59.8438" y="434">Adventure</tspan></text>
<rect x="59.8438" y="446.907" width="64.4792" height="33.2166" rx="11.7235" fill="#F1ECD5" fill-opacity="0.66"/>
<text fill="black" xml:space="preserve" style="white-space: pre" font-family="Graphik" font-size="15.6313" letter-spacing="0px"><tspan x="75.4766" y="468.193">Peru</tspan></text>
<rect x="56.9102" y="487.939" width="94.7649" height="33.2166" rx="11.7235" fill="#F1ECD5" fill-opacity="0.66"/>
<text fill="black" xml:space="preserve" style="white-space: pre" font-family="Graphik" font-size="15.6313" letter-spacing="0px"><tspan x="72.543" y="509.226">Australia</tspan></text>
<rect x="159.488" y="487.939" width="126.028" height="33.2166" rx="11.7235" fill="#F1ECD5" fill-opacity="0.66"/>
<text fill="black" xml:space="preserve" style="white-space: pre" font-family="Graphik" font-size="15.6313" letter-spacing="0px"><tspan x="175.121" y="509.226">New Zealand</tspan></text>
<rect x="132.137" y="446.907" width="103.558" height="33.2166" rx="11.7235" fill="#F1ECD5" fill-opacity="0.66"/>
<text fill="black" xml:space="preserve" style="white-space: pre" font-family="Graphik" font-size="15.6313" letter-spacing="0px"><tspan x="147.77" y="468.193">Argentina</tspan></text>
<rect x="243.512" y="446.907" width="109.419" height="33.2166" rx="11.7235" fill="#F1ECD5" fill-opacity="0.66"/>
<text fill="black" xml:space="preserve" style="white-space: pre" font-family="Graphik" font-size="15.6313" letter-spacing="0px"><tspan x="259.145" y="468.193">Costa Rica</tspan></text>
<defs>
<filter id="filter0_d" x="8.06671" y="1.62206" width="405.437" height="842.138" filterUnits="userSpaceOnUse" color-interpolation-filters="sRGB">
<feFlood flood-opacity="0" result="BackgroundImageFix"/>
<feColorMatrix in="SourceAlpha" type="matrix" values="0 0 0 0 0 0 0 0 0 0 0 0 0 0 0 0 0 0 127 0"/>
<feOffset dx="0.976958" dy="6.8387"/>
<feGaussianBlur stdDeviation="9.76958"/>
<feColorMatrix type="matrix" values="0 0 0 0 0 0 0 0 0 0 0 0 0 0 0 0 0 0 0.1 0"/>
<feBlend mode="normal" in2="BackgroundImageFix" result="effect1_dropShadow"/>
<feBlend mode="normal" in="SourceGraphic" in2="effect1_dropShadow" result="shape"/>
</filter>
<filter id="filter1_dd" x="37.63" y="197.63" width="347.74" height="60.74" filterUnits="userSpaceOnUse" color-interpolation-filters="sRGB">
<feFlood flood-opacity="0" result="BackgroundImageFix"/>
<feColorMatrix in="SourceAlpha" type="matrix" values="0 0 0 0 0 0 0 0 0 0 0 0 0 0 0 0 0 0 127 0"/>
<feOffset dx="2" dy="2"/>
<feGaussianBlur stdDeviation="3.185"/>
<feColorMatrix type="matrix" values="0 0 0 0 0.5375 0 0 0 0 0.52732 0 0 0 0 0.48151 0 0 0 0.33 0"/>
<feBlend mode="normal" in2="BackgroundImageFix" result="effect1_dropShadow"/>
<feColorMatrix in="SourceAlpha" type="matrix" values="0 0 0 0 0 0 0 0 0 0 0 0 0 0 0 0 0 0 127 0"/>
<feOffset dx="0.5" dy="0.5"/>
<feGaussianBlur stdDeviation="1"/>
<feColorMatrix type="matrix" values="0 0 0 0 0 0 0 0 0 0 0 0 0 0 0 0 0 0 0.15 0"/>
<feBlend mode="normal" in2="effect1_dropShadow" result="effect2_dropShadow"/>
<feBlend mode="normal" in="SourceGraphic" in2="effect2_dropShadow" result="shape"/>
</filter>
<filter id="filter2_dd" x="38.63" y="261.63" width="346.74" height="60.74" filterUnits="userSpaceOnUse" color-interpolation-filters="sRGB">
<feFlood flood-opacity="0" result="BackgroundImageFix"/>
<feColorMatrix in="SourceAlpha" type="matrix" values="0 0 0 0 0 0 0 0 0 0 0 0 0 0 0 0 0 0 127 0"/>
<feOffset dx="2" dy="2"/>
<feGaussianBlur stdDeviation="3.185"/>
<feColorMatrix type="matrix" values="0 0 0 0 0.5375 0 0 0 0 0.52732 0 0 0 0 0.48151 0 0 0 0.33 0"/>
<feBlend mode="normal" in2="BackgroundImageFix" result="effect1_dropShadow"/>
<feColorMatrix in="SourceAlpha" type="matrix" values="0 0 0 0 0 0 0 0 0 0 0 0 0 0 0 0 0 0 127 0"/>
<feOffset dx="0.5" dy="0.5"/>
<feGaussianBlur stdDeviation="1"/>
<feColorMatrix type="matrix" values="0 0 0 0 0 0 0 0 0 0 0 0 0 0 0 0 0 0 0.15 0"/>
<feBlend mode="normal" in2="effect1_dropShadow" result="effect2_dropShadow"/>
<feBlend mode="normal" in="SourceGraphic" in2="effect2_dropShadow" result="shape"/>
</filter>
<filter id="filter3_d" x="40.4171" y="109.196" width="287.765" height="73.786" filterUnits="userSpaceOnUse" color-interpolation-filters="sRGB">
<feFlood flood-opacity="0" result="BackgroundImageFix"/>
<feColorMatrix in="SourceAlpha" type="matrix" values="0 0 0 0 0 0 0 0 0 0 0 0 0 0 0 0 0 0 127 0"/>
<feOffset dx="1.84465" dy="1.84465"/>
<feGaussianBlur stdDeviation="1.84465"/>
<feColorMatrix type="matrix" values="0 0 0 0 0 0 0 0 0 0 0 0 0 0 0 0 0 0 0.25 0"/>
<feBlend mode="normal" in2="BackgroundImageFix" result="effect1_dropShadow"/>
<feBlend mode="normal" in="SourceGraphic" in2="effect1_dropShadow" result="shape"/>
</filter>
<filter id="filter4_d" x="331.443" y="131.545" width="52.7557" height="52.7557" filterUnits="userSpaceOnUse" color-interpolation-filters="sRGB">
<feFlood flood-opacity="0" result="BackgroundImageFix"/>
<feColorMatrix in="SourceAlpha" type="matrix" values="0 0 0 0 0 0 0 0 0 0 0 0 0 0 0 0 0 0 127 0"/>
<feOffset dy="2.93087"/>
<feGaussianBlur stdDeviation="3.41935"/>
<feColorMatrix type="matrix" values="0 0 0 0 0 0 0 0 0 0 0 0 0 0 0 0 0 0 0.15 0"/>
<feBlend mode="normal" in2="BackgroundImageFix" result="effect1_dropShadow"/>
<feBlend mode="normal" in="SourceGraphic" in2="effect1_dropShadow" result="shape"/>
</filter>
<filter id="filter5_d" x="331.443" y="131.545" width="52.7557" height="52.7557" filterUnits="userSpaceOnUse" color-interpolation-filters="sRGB">
<feFlood flood-opacity="0" result="BackgroundImageFix"/>
<feColorMatrix in="SourceAlpha" type="matrix" values="0 0 0 0 0 0 0 0 0 0 0 0 0 0 0 0 0 0 127 0"/>
<feOffset dy="2.93087"/>
<feGaussianBlur stdDeviation="3.41935"/>
<feColorMatrix type="matrix" values="0 0 0 0 0 0 0 0 0 0 0 0 0 0 0 0 0 0 0.15 0"/>
<feBlend mode="normal" in2="BackgroundImageFix" result="effect1_dropShadow"/>
<feBlend mode="normal" in="SourceGraphic" in2="effect1_dropShadow" result="shape"/>
</filter>
<clipPath id="clip0">
<rect width="52.7557" height="27.3548" fill="white" transform="translate(47.1445 23.1152)"/>
</clipPath>
<clipPath id="clip1">
<rect width="24.4239" height="11.7235" fill="white" transform="translate(354.527 30.9309)"/>
</clipPath>
</defs>
</svg>
